G75*
G70*
%OFA0B0*%
%FSLAX24Y24*%
%IPPOS*%
%LPD*%
%AMOC8*
5,1,8,0,0,1.08239X$1,22.5*
%
%ADD10C,0.1000*%
%ADD11R,0.0270X0.0270*%
%ADD12OC8,0.0600*%
%ADD13R,0.0600X0.0600*%
%ADD14C,0.0376*%
%ADD15C,0.0416*%
%ADD16C,0.0500*%
%ADD17C,0.0400*%
%ADD18C,0.0270*%
%ADD19C,0.0080*%
%ADD20C,0.0120*%
%ADD21C,0.0160*%
%ADD22C,0.0800*%
%ADD23C,0.0600*%
%ADD24C,0.0300*%
%ADD25C,0.0200*%
D10*
X002513Y006110D03*
X003513Y007360D03*
D11*
X025948Y016210D03*
X026363Y016210D03*
X026778Y016210D03*
X026778Y016650D03*
X026363Y016650D03*
X025948Y016650D03*
X034003Y021020D03*
X034403Y021020D03*
X034803Y021020D03*
X034803Y021420D03*
X034403Y021420D03*
X034003Y021420D03*
X034003Y021820D03*
X034003Y022210D03*
X034403Y022210D03*
X034403Y021820D03*
X034803Y021820D03*
X034803Y022210D03*
X034803Y022610D03*
X034403Y022610D03*
X034003Y022610D03*
X034923Y008732D03*
X034924Y008407D03*
X035444Y008407D03*
X035444Y008732D03*
D12*
X037183Y004650D03*
X023183Y004650D03*
X022183Y004650D03*
X021183Y004650D03*
X020183Y004650D03*
X019183Y004650D03*
X018183Y004650D03*
D13*
X002183Y003650D03*
X003183Y003650D03*
X004183Y003650D03*
X005183Y003650D03*
X006183Y003650D03*
X007183Y003650D03*
X008183Y003650D03*
X009183Y003650D03*
X010183Y003650D03*
X011183Y003650D03*
X012183Y003650D03*
X013183Y003650D03*
X014183Y003650D03*
X015183Y003650D03*
X016183Y003650D03*
X017183Y003650D03*
X018183Y003650D03*
X019183Y003650D03*
X020183Y003650D03*
X021183Y003650D03*
X022183Y003650D03*
X023183Y003650D03*
X024183Y003650D03*
X025183Y003650D03*
X026183Y003650D03*
X027183Y003650D03*
X028183Y003650D03*
X029183Y003650D03*
X030183Y003650D03*
X031183Y003650D03*
X032183Y003650D03*
X033183Y003650D03*
X034183Y003650D03*
X035183Y003650D03*
X036183Y003650D03*
X037183Y003650D03*
X037183Y027650D03*
X036183Y027650D03*
X035183Y027650D03*
X034183Y027650D03*
X033183Y027650D03*
X032183Y027650D03*
X031183Y027650D03*
X030183Y027650D03*
X029183Y027650D03*
X028183Y027650D03*
X027183Y027650D03*
X026183Y027650D03*
X025183Y027650D03*
X024183Y027650D03*
X023183Y027650D03*
X022183Y027650D03*
X021183Y027650D03*
X020183Y027650D03*
X019183Y027650D03*
X018183Y027650D03*
X017183Y027650D03*
X016183Y027650D03*
X015183Y027650D03*
X014183Y027650D03*
X013183Y027650D03*
X012183Y027650D03*
X011183Y027650D03*
X010183Y027650D03*
X009183Y027650D03*
X008183Y027650D03*
X007183Y027650D03*
X006183Y027650D03*
X005183Y027650D03*
X004183Y027650D03*
X003183Y027650D03*
X002183Y027650D03*
X002173Y011460D03*
X002173Y010460D03*
D14*
X005773Y009920D03*
X006713Y009820D03*
X008043Y008660D03*
X006713Y008010D03*
X005773Y008000D03*
X005763Y005900D03*
X010303Y008170D03*
X010733Y008710D03*
X027883Y013070D03*
X034043Y008380D03*
X036023Y009040D03*
X036193Y009590D03*
X036353Y011060D03*
X033123Y006720D03*
X028093Y020560D03*
X029133Y020890D03*
D15*
X029993Y020660D03*
X027583Y021200D03*
X023443Y024430D03*
X022623Y025330D03*
X022163Y025530D03*
X021743Y025280D03*
X023863Y026450D03*
X024393Y026450D03*
X028673Y024890D03*
X033243Y019820D03*
X033773Y019820D03*
X033633Y016180D03*
X034453Y012470D03*
X032753Y010850D03*
X031473Y010540D03*
X032473Y008460D03*
X036743Y006400D03*
X026993Y004470D03*
D16*
X027593Y010550D02*
X008153Y010550D01*
X007443Y010550D01*
X006713Y009820D01*
X005813Y009920D02*
X005773Y009920D01*
X007003Y011150D01*
X027233Y011150D01*
X027263Y011180D01*
X027293Y011210D01*
X027333Y011250D01*
X027833Y011750D01*
X030263Y011750D01*
X031473Y010540D01*
X030013Y011070D02*
X029873Y010930D01*
X027963Y010930D01*
X027623Y010590D01*
X027623Y010580D01*
X027593Y010550D01*
D17*
X031753Y012690D02*
X032453Y013390D01*
X033633Y013390D01*
X033633Y013290D02*
X033893Y013030D01*
X034733Y013030D01*
X036153Y013030D01*
X036393Y012790D01*
X036393Y012780D01*
X036413Y012760D01*
X036413Y012130D01*
X036933Y011610D01*
X036933Y006590D01*
X036743Y006400D01*
X034043Y007640D02*
X034043Y008380D01*
X034043Y007640D02*
X033123Y006720D01*
X032473Y008460D02*
X032753Y008740D01*
X032753Y010850D01*
X036033Y009030D02*
X036183Y008880D01*
X036183Y008860D01*
X036743Y008860D01*
X006713Y008010D02*
X006713Y009820D01*
X005773Y009920D02*
X005773Y008000D01*
X005763Y005900D02*
X005763Y005890D01*
X004883Y005010D01*
X002983Y005010D01*
X002183Y004210D01*
X002183Y003650D01*
X005913Y012220D02*
X005623Y012510D01*
X005623Y014020D01*
X002503Y017140D01*
X002183Y017460D01*
X002183Y027650D01*
X002363Y017280D02*
X002503Y017140D01*
D18*
X002963Y016040D03*
X002413Y015890D03*
X002773Y015500D03*
X004143Y016170D03*
X006533Y016050D03*
X007873Y016060D03*
X007943Y016850D03*
X009033Y016850D03*
X008103Y018200D03*
X008353Y018460D03*
X009713Y020060D03*
X011183Y020690D03*
X011183Y019290D03*
X012463Y016900D03*
X013103Y016380D03*
X013413Y016110D03*
X013723Y016380D03*
X014013Y016110D03*
X014313Y016380D03*
X014613Y016110D03*
X013283Y014570D03*
X012783Y014570D03*
X011423Y013530D03*
X012093Y013040D03*
X012393Y013290D03*
X010933Y014200D03*
X010323Y014380D03*
X010033Y014150D03*
X009463Y012980D03*
X008363Y012190D03*
X007863Y012200D03*
X006503Y012350D03*
X006183Y012580D03*
X005913Y012220D03*
X004873Y011120D03*
X004633Y010880D03*
X005113Y010870D03*
X005393Y010190D03*
X003713Y008800D03*
X002653Y008800D03*
X004963Y005760D03*
X007183Y007980D03*
X007693Y007990D03*
X007183Y008840D03*
X007553Y009080D03*
X008943Y009180D03*
X009263Y009460D03*
X008723Y007980D03*
X011193Y007920D03*
X012593Y008010D03*
X013683Y008010D03*
X014103Y008400D03*
X014643Y008630D03*
X014623Y008040D03*
X015183Y007970D03*
X015493Y008500D03*
X016513Y008360D03*
X016753Y008070D03*
X017083Y008030D03*
X017453Y007900D03*
X019183Y006110D03*
X019533Y006080D03*
X020413Y006550D03*
X021703Y005410D03*
X023533Y005470D03*
X026543Y006710D03*
X026983Y005960D03*
X030303Y008450D03*
X030833Y008150D03*
X031133Y008450D03*
X031433Y007900D03*
X031913Y009950D03*
X030013Y011070D03*
X028303Y010450D03*
X026903Y009870D03*
X026443Y009850D03*
X026043Y009090D03*
X026673Y008910D03*
X025213Y009510D03*
X024913Y009260D03*
X024563Y009020D03*
X024913Y008750D03*
X022983Y012440D03*
X023633Y013100D03*
X024743Y012560D03*
X026033Y013130D03*
X026363Y012740D03*
X026853Y012740D03*
X026613Y013130D03*
X027093Y013140D03*
X027363Y012740D03*
X028233Y012570D03*
X028993Y012570D03*
X029673Y012570D03*
X030853Y012590D03*
X031673Y012580D03*
X029213Y014100D03*
X028963Y013830D03*
X028673Y013580D03*
X029433Y014900D03*
X030003Y014930D03*
X029683Y015420D03*
X027673Y015140D03*
X027553Y015510D03*
X027523Y017040D03*
X027343Y017840D03*
X030083Y019280D03*
X028373Y019880D03*
X027623Y020490D03*
X023753Y017840D03*
X023363Y015510D03*
X025153Y015140D03*
X021633Y013260D03*
X021373Y013020D03*
X021113Y013260D03*
X020573Y013020D03*
X020333Y013260D03*
X020073Y013020D03*
X019813Y013260D03*
X019553Y013020D03*
X019293Y013260D03*
X019033Y013020D03*
X018773Y013260D03*
X018513Y013020D03*
X018003Y013600D03*
X017413Y013590D03*
X017003Y013580D03*
X016683Y012380D03*
X016303Y012360D03*
X016873Y009920D03*
X017733Y009950D03*
X015933Y009830D03*
X015513Y009650D03*
X014743Y009530D03*
X014313Y009290D03*
X013603Y009550D03*
X013183Y009550D03*
X012593Y009350D03*
X012223Y009300D03*
X012143Y009970D03*
X011023Y009350D03*
X011333Y009020D03*
X012743Y005390D03*
X013073Y004980D03*
X014123Y004390D03*
X014403Y004970D03*
X015783Y004950D03*
X016953Y004950D03*
X019683Y005250D03*
X011643Y005050D03*
X007933Y014470D03*
X007873Y015260D03*
X002973Y018990D03*
X006983Y021660D03*
X008063Y022180D03*
X008063Y022680D03*
X008343Y024850D03*
X008163Y025280D03*
X013213Y022460D03*
X013773Y021660D03*
X016803Y025310D03*
X017803Y026850D03*
X018903Y026870D03*
X014523Y026650D03*
X013683Y026750D03*
X018983Y023130D03*
X027473Y026660D03*
X029183Y026850D03*
X029693Y027110D03*
X036953Y021250D03*
X030613Y005820D03*
X030893Y005220D03*
D19*
X032663Y005220D01*
X032883Y005220D01*
X033383Y004720D01*
X036333Y004720D01*
X037313Y005700D01*
X037313Y006360D01*
X037313Y011770D01*
X037643Y012100D01*
X037643Y012640D01*
X036513Y013770D01*
X036513Y016060D01*
X036513Y016160D01*
X036513Y016770D01*
X036513Y020810D01*
X036953Y021250D01*
X036618Y021254D02*
X036310Y020946D01*
X036273Y020858D01*
X036273Y017046D01*
X036191Y017080D01*
X035185Y017080D01*
X035097Y017043D01*
X035030Y016976D01*
X034993Y016888D01*
X034993Y016772D01*
X035030Y016684D01*
X035097Y016617D01*
X035185Y016580D01*
X036191Y016580D01*
X036273Y016614D01*
X036273Y016104D01*
X036211Y016130D01*
X035253Y016130D01*
X035253Y016168D01*
X035251Y016173D01*
X035243Y016355D01*
X035243Y016398D01*
X035241Y016403D01*
X035241Y016408D01*
X035223Y016447D01*
X035207Y016486D01*
X035203Y016490D01*
X035200Y016495D01*
X035169Y016523D01*
X035139Y016553D01*
X035134Y016556D01*
X035130Y016559D01*
X035090Y016574D01*
X035051Y016590D01*
X035045Y016590D01*
X035040Y016592D01*
X035022Y016591D01*
X035020Y016592D01*
X034978Y016590D01*
X034935Y016590D01*
X034930Y016588D01*
X034925Y016588D01*
X034886Y016570D01*
X034847Y016553D01*
X034843Y016550D01*
X034838Y016547D01*
X034810Y016516D01*
X034780Y016486D01*
X034778Y016481D01*
X034774Y016477D01*
X034759Y016437D01*
X034743Y016398D01*
X034743Y016392D01*
X034741Y016387D01*
X034743Y016345D01*
X030723Y016345D01*
X030723Y016267D02*
X034746Y016267D01*
X034745Y016297D02*
X034753Y016115D01*
X034753Y016072D01*
X034755Y016067D01*
X034755Y016062D01*
X034773Y016023D01*
X034790Y015984D01*
X034793Y015980D01*
X034796Y015975D01*
X034827Y015947D01*
X034857Y015917D01*
X034862Y015914D01*
X034866Y015911D01*
X034906Y015896D01*
X034945Y015880D01*
X034951Y015880D01*
X034956Y015878D01*
X034974Y015879D01*
X034976Y015878D01*
X035013Y015880D01*
X035013Y015832D01*
X035050Y015744D01*
X035117Y015677D01*
X035205Y015640D01*
X036211Y015640D01*
X036273Y015666D01*
X036273Y013722D01*
X036310Y013634D01*
X036377Y013567D01*
X036854Y013090D01*
X036605Y013090D01*
X036517Y013053D01*
X036450Y012986D01*
X036413Y012898D01*
X036413Y012752D01*
X036450Y012664D01*
X036517Y012597D01*
X036605Y012560D01*
X037061Y012560D01*
X037149Y012597D01*
X037217Y012664D01*
X037235Y012709D01*
X037403Y012541D01*
X037403Y012199D01*
X037310Y012106D01*
X037301Y012110D01*
X036985Y012110D01*
X036897Y012073D01*
X036830Y012006D01*
X036793Y011918D01*
X036793Y011822D01*
X036830Y011734D01*
X036885Y011679D01*
X036888Y011672D01*
X036918Y011645D01*
X036947Y011617D01*
X036954Y011614D01*
X036959Y011609D01*
X036998Y011596D01*
X037035Y011580D01*
X037043Y011580D01*
X037050Y011578D01*
X037073Y011579D01*
X037073Y005799D01*
X036234Y004960D01*
X033482Y004960D01*
X033019Y005423D01*
X032931Y005460D01*
X031831Y005460D01*
X032133Y005763D01*
X032173Y005858D01*
X032173Y008183D01*
X032242Y008114D01*
X032392Y008052D01*
X032554Y008052D01*
X032704Y008114D01*
X032819Y008229D01*
X032827Y008248D01*
X033092Y008513D01*
X033153Y008660D01*
X033153Y010750D01*
X033161Y010769D01*
X033161Y010931D01*
X033116Y011040D01*
X034248Y011040D01*
X035826Y009462D01*
X035864Y009370D01*
X035973Y009261D01*
X036116Y009202D01*
X036270Y009202D01*
X036413Y009261D01*
X036522Y009370D01*
X036581Y009513D01*
X036581Y009667D01*
X036522Y009810D01*
X036413Y009919D01*
X036321Y009957D01*
X034808Y011470D01*
X035448Y011470D01*
X035986Y010932D01*
X036024Y010840D01*
X036133Y010731D01*
X036276Y010672D01*
X036430Y010672D01*
X036573Y010731D01*
X036682Y010840D01*
X036741Y010983D01*
X036741Y011137D01*
X036682Y011280D01*
X036573Y011389D01*
X036481Y011427D01*
X036308Y011600D01*
X036321Y011600D01*
X036409Y011637D01*
X036477Y011704D01*
X036513Y011792D01*
X036806Y011792D01*
X036793Y011871D02*
X036513Y011871D01*
X036513Y011918D02*
X036477Y012006D01*
X036409Y012073D01*
X036321Y012110D01*
X035843Y012110D01*
X035826Y012114D01*
X035798Y012110D01*
X035791Y012117D01*
X035663Y012170D01*
X035276Y012170D01*
X035277Y012173D01*
X035293Y012212D01*
X035293Y012218D01*
X035295Y012223D01*
X035293Y012265D01*
X035293Y012308D01*
X035291Y012313D01*
X035283Y012495D01*
X035283Y012538D01*
X035281Y012543D01*
X035281Y012548D01*
X035263Y012587D01*
X035247Y012626D01*
X035243Y012630D01*
X035240Y012635D01*
X035209Y012663D01*
X035179Y012693D01*
X035174Y012696D01*
X035170Y012699D01*
X035130Y012714D01*
X035091Y012730D01*
X035085Y012730D01*
X035080Y012732D01*
X035062Y012731D01*
X035060Y012732D01*
X035018Y012730D01*
X034975Y012730D01*
X034970Y012728D01*
X034965Y012728D01*
X034926Y012710D01*
X034887Y012693D01*
X034883Y012690D01*
X034878Y012687D01*
X034850Y012656D01*
X034820Y012626D01*
X034818Y012621D01*
X034814Y012617D01*
X034799Y012577D01*
X034783Y012538D01*
X034783Y012532D01*
X034781Y012527D01*
X034783Y012485D01*
X034783Y012442D01*
X034785Y012437D01*
X034793Y012255D01*
X034793Y012212D01*
X034795Y012207D01*
X034795Y012202D01*
X034810Y012170D01*
X032048Y012170D01*
X031623Y012595D01*
X031623Y012880D01*
X031570Y013008D01*
X031543Y013035D01*
X031543Y014690D01*
X031490Y014818D01*
X031391Y014917D01*
X030723Y015585D01*
X030723Y017560D01*
X030670Y017688D01*
X030571Y017787D01*
X030536Y017822D01*
X030560Y017812D01*
X030812Y017812D01*
X031045Y017908D01*
X031223Y018086D01*
X031319Y018319D01*
X031319Y018571D01*
X031223Y018803D01*
X031045Y018982D01*
X030812Y019078D01*
X030560Y019078D01*
X030327Y018982D01*
X030149Y018803D01*
X030083Y018644D01*
X030083Y018945D01*
X030150Y018945D01*
X030273Y018996D01*
X030367Y019090D01*
X030418Y019213D01*
X030418Y019347D01*
X030367Y019470D01*
X030273Y019564D01*
X030150Y019615D01*
X030116Y019615D01*
X029753Y019977D01*
X029743Y019988D01*
X029743Y020222D01*
X029894Y020160D01*
X030093Y020160D01*
X030276Y020236D01*
X033320Y023280D01*
X035113Y023280D01*
X035296Y023356D01*
X035426Y023486D01*
X035426Y023486D01*
X036947Y025007D01*
X036967Y025027D01*
X037043Y025211D01*
X037043Y027099D01*
X036997Y027210D01*
X037143Y027210D01*
X037143Y027610D01*
X036743Y027610D01*
X036743Y027507D01*
X036683Y027567D01*
X036683Y027749D01*
X036683Y028033D01*
X036616Y028100D01*
X037320Y028100D01*
X037348Y028090D01*
X037223Y028090D01*
X037223Y027690D01*
X037143Y027690D01*
X037143Y027610D01*
X037223Y027610D01*
X037223Y027210D01*
X037502Y027210D01*
X037537Y027220D01*
X037569Y027238D01*
X037595Y027264D01*
X037614Y027296D01*
X037623Y027332D01*
X037623Y027610D01*
X037223Y027610D01*
X037223Y027690D01*
X037623Y027690D01*
X037623Y027814D01*
X037633Y027787D01*
X037633Y017090D01*
X037005Y017090D01*
X036917Y017053D01*
X036850Y016986D01*
X036813Y016898D01*
X036813Y016782D01*
X036850Y016694D01*
X036917Y016627D01*
X037005Y016590D01*
X037633Y016590D01*
X037633Y016120D01*
X037015Y016120D01*
X036927Y016083D01*
X036860Y016016D01*
X036823Y015928D01*
X036823Y015802D01*
X036860Y015714D01*
X036927Y015647D01*
X037015Y015610D01*
X037633Y015610D01*
X037633Y012989D01*
X036753Y013869D01*
X036753Y020711D01*
X036957Y020915D01*
X037020Y020915D01*
X037143Y020966D01*
X037237Y021060D01*
X037288Y021183D01*
X037288Y021317D01*
X037237Y021440D01*
X037143Y021534D01*
X037020Y021585D01*
X036886Y021585D01*
X036763Y021534D01*
X036669Y021440D01*
X036618Y021317D01*
X036618Y021254D01*
X036618Y021291D02*
X035078Y021291D01*
X035078Y021267D02*
X035078Y021420D01*
X035078Y021573D01*
X035069Y021609D01*
X035062Y021620D01*
X035069Y021631D01*
X035078Y021667D01*
X035078Y021820D01*
X035078Y021973D01*
X035069Y022009D01*
X035065Y022015D01*
X035069Y022021D01*
X035078Y022057D01*
X035078Y022210D01*
X035078Y022363D01*
X035069Y022399D01*
X035062Y022410D01*
X035069Y022421D01*
X035078Y022457D01*
X035078Y022610D01*
X035078Y022763D01*
X035069Y022799D01*
X035050Y022831D01*
X035024Y022857D01*
X034992Y022875D01*
X034957Y022885D01*
X034803Y022885D01*
X034650Y022885D01*
X034614Y022875D01*
X034603Y022869D01*
X034592Y022875D01*
X034557Y022885D01*
X034403Y022885D01*
X034403Y022610D01*
X034278Y022610D01*
X034003Y022610D01*
X033728Y022610D01*
X034003Y022610D01*
X034003Y022610D01*
X034003Y022885D01*
X033850Y022885D01*
X033814Y022875D01*
X033782Y022857D01*
X033756Y022831D01*
X033738Y022799D01*
X033728Y022763D01*
X033728Y022610D01*
X033728Y022457D01*
X033738Y022421D01*
X033744Y022410D01*
X033738Y022399D01*
X033728Y022363D01*
X033728Y022210D01*
X034003Y022210D01*
X033728Y022210D01*
X033728Y022057D01*
X033738Y022021D01*
X033741Y022015D01*
X033738Y022009D01*
X033728Y021973D01*
X033728Y021820D01*
X034003Y021820D01*
X033728Y021820D01*
X033728Y021667D01*
X033738Y021631D01*
X033744Y021620D01*
X033738Y021609D01*
X033728Y021573D01*
X033728Y021420D01*
X034003Y021420D01*
X033728Y021420D01*
X033728Y021267D01*
X033738Y021231D01*
X033744Y021220D01*
X033738Y021209D01*
X033728Y021173D01*
X033728Y021020D01*
X034003Y021020D01*
X033728Y021020D01*
X033728Y020867D01*
X033738Y020831D01*
X033756Y020799D01*
X033782Y020773D01*
X033814Y020755D01*
X033850Y020745D01*
X034003Y020745D01*
X034003Y021020D01*
X034003Y021020D01*
X034003Y021420D01*
X034003Y021420D01*
X034003Y021695D01*
X034003Y021820D01*
X034003Y021820D01*
X034003Y022210D01*
X034003Y022210D01*
X034003Y022335D01*
X034003Y022610D01*
X034003Y022610D01*
X034003Y022610D01*
X034003Y022885D01*
X034157Y022885D01*
X034192Y022875D01*
X034203Y022869D01*
X034214Y022875D01*
X034250Y022885D01*
X034403Y022885D01*
X034403Y022610D01*
X034403Y022610D01*
X034003Y022610D01*
X034003Y022210D01*
X034003Y022210D01*
X034003Y022210D01*
X034003Y022095D01*
X034003Y021820D01*
X034003Y021820D01*
X034003Y021820D01*
X034003Y021420D01*
X034003Y021420D01*
X034003Y021420D01*
X034003Y021145D01*
X034003Y021020D01*
X034003Y021020D01*
X034003Y021020D01*
X034003Y020745D01*
X034157Y020745D01*
X034192Y020755D01*
X034203Y020761D01*
X034214Y020755D01*
X034250Y020745D01*
X034403Y020745D01*
X034403Y021020D01*
X034128Y021020D01*
X034003Y021020D01*
X034403Y021020D01*
X034403Y021020D01*
X034403Y021420D01*
X034278Y021420D01*
X034003Y021420D01*
X034403Y021420D01*
X034403Y021420D01*
X034403Y021820D01*
X034128Y021820D01*
X034003Y021820D01*
X034403Y021820D01*
X034403Y021820D01*
X034403Y022210D01*
X034278Y022210D01*
X034003Y022210D01*
X034403Y022210D01*
X034403Y022210D01*
X034403Y022485D01*
X034403Y022610D01*
X034403Y022610D01*
X034403Y022610D01*
X034403Y022210D01*
X034403Y022210D01*
X034403Y022210D01*
X034403Y022095D01*
X034403Y021820D01*
X034403Y021820D01*
X034403Y021820D01*
X034403Y021545D01*
X034403Y021420D01*
X034403Y021420D01*
X034403Y021420D01*
X034403Y021295D01*
X034403Y021020D01*
X034403Y021020D01*
X034403Y021020D01*
X034403Y020745D01*
X034557Y020745D01*
X034592Y020755D01*
X034603Y020761D01*
X034614Y020755D01*
X034650Y020745D01*
X034803Y020745D01*
X034803Y021020D01*
X034678Y021020D01*
X034403Y021020D01*
X034803Y021020D01*
X034803Y021020D01*
X034803Y021420D01*
X034528Y021420D01*
X034403Y021420D01*
X034803Y021420D01*
X034803Y021420D01*
X034803Y021820D01*
X034528Y021820D01*
X034403Y021820D01*
X034803Y021820D01*
X034803Y021820D01*
X034803Y022210D01*
X034678Y022210D01*
X034403Y022210D01*
X034403Y022210D01*
X034803Y022210D01*
X034803Y022210D01*
X034803Y022335D01*
X034803Y022610D01*
X034403Y022610D01*
X034528Y022610D01*
X034803Y022610D01*
X034803Y022610D01*
X034803Y022885D01*
X034803Y022610D01*
X034803Y022610D01*
X034803Y022610D01*
X034803Y022210D01*
X034803Y022210D01*
X034803Y022210D01*
X034803Y022095D01*
X034803Y021820D01*
X034803Y021820D01*
X034803Y021820D01*
X034803Y021545D01*
X034803Y021420D01*
X034803Y021420D01*
X034803Y021420D01*
X034803Y021145D01*
X034803Y021020D01*
X034803Y021020D01*
X034803Y021020D01*
X034803Y020745D01*
X034957Y020745D01*
X034992Y020755D01*
X035024Y020773D01*
X035050Y020799D01*
X035069Y020831D01*
X035078Y020867D01*
X035078Y021020D01*
X035078Y021173D01*
X035069Y021209D01*
X035062Y021220D01*
X035069Y021231D01*
X035078Y021267D01*
X035067Y021212D02*
X036576Y021212D01*
X036497Y021134D02*
X035078Y021134D01*
X035078Y021055D02*
X036419Y021055D01*
X036340Y020977D02*
X035078Y020977D01*
X035078Y021020D02*
X034803Y021020D01*
X035078Y021020D01*
X035078Y020898D02*
X036290Y020898D01*
X036273Y020820D02*
X035062Y020820D01*
X034803Y020820D02*
X034803Y020820D01*
X034803Y020898D02*
X034803Y020898D01*
X034803Y020977D02*
X034803Y020977D01*
X034803Y021020D02*
X034803Y021020D01*
X034803Y021055D02*
X034803Y021055D01*
X034803Y021134D02*
X034803Y021134D01*
X034803Y021212D02*
X034803Y021212D01*
X034803Y021291D02*
X034803Y021291D01*
X034803Y021369D02*
X034803Y021369D01*
X034803Y021420D02*
X034803Y021420D01*
X035078Y021420D01*
X034803Y021420D01*
X034803Y021448D02*
X034803Y021448D01*
X034803Y021526D02*
X034803Y021526D01*
X034803Y021605D02*
X034803Y021605D01*
X034803Y021683D02*
X034803Y021683D01*
X034803Y021762D02*
X034803Y021762D01*
X034803Y021820D02*
X034803Y021820D01*
X035078Y021820D01*
X034803Y021820D01*
X034803Y021840D02*
X034803Y021840D01*
X034803Y021919D02*
X034803Y021919D01*
X034803Y021997D02*
X034803Y021997D01*
X034803Y022076D02*
X034803Y022076D01*
X034803Y022154D02*
X034803Y022154D01*
X034803Y022210D02*
X034803Y022210D01*
X035078Y022210D01*
X034803Y022210D01*
X034803Y022233D02*
X034803Y022233D01*
X034803Y022311D02*
X034803Y022311D01*
X034803Y022390D02*
X034803Y022390D01*
X034803Y022468D02*
X034803Y022468D01*
X034803Y022547D02*
X034803Y022547D01*
X034803Y022610D02*
X034803Y022610D01*
X035078Y022610D01*
X034803Y022610D01*
X034803Y022625D02*
X034803Y022625D01*
X034803Y022704D02*
X034803Y022704D01*
X034803Y022782D02*
X034803Y022782D01*
X034803Y022861D02*
X034803Y022861D01*
X035018Y022861D02*
X037633Y022861D01*
X037633Y022939D02*
X032979Y022939D01*
X032901Y022861D02*
X033788Y022861D01*
X033733Y022782D02*
X032822Y022782D01*
X032744Y022704D02*
X033728Y022704D01*
X033728Y022625D02*
X032665Y022625D01*
X032587Y022547D02*
X033728Y022547D01*
X033728Y022468D02*
X032508Y022468D01*
X032430Y022390D02*
X033735Y022390D01*
X033728Y022311D02*
X032351Y022311D01*
X032273Y022233D02*
X033728Y022233D01*
X033728Y022154D02*
X032194Y022154D01*
X032116Y022076D02*
X033728Y022076D01*
X033734Y021997D02*
X032037Y021997D01*
X031959Y021919D02*
X033728Y021919D01*
X033728Y021840D02*
X031880Y021840D01*
X031802Y021762D02*
X033728Y021762D01*
X033728Y021683D02*
X031723Y021683D01*
X031645Y021605D02*
X033736Y021605D01*
X033728Y021526D02*
X031566Y021526D01*
X031488Y021448D02*
X033728Y021448D01*
X033728Y021369D02*
X031409Y021369D01*
X031331Y021291D02*
X033728Y021291D01*
X033739Y021212D02*
X031252Y021212D01*
X031174Y021134D02*
X033728Y021134D01*
X033728Y021055D02*
X031095Y021055D01*
X031017Y020977D02*
X033728Y020977D01*
X033728Y020898D02*
X030938Y020898D01*
X030860Y020820D02*
X033744Y020820D01*
X034003Y020820D02*
X034003Y020820D01*
X034003Y020898D02*
X034003Y020898D01*
X034003Y020977D02*
X034003Y020977D01*
X034003Y021020D02*
X034003Y021020D01*
X034003Y021055D02*
X034003Y021055D01*
X034003Y021134D02*
X034003Y021134D01*
X034003Y021212D02*
X034003Y021212D01*
X034003Y021291D02*
X034003Y021291D01*
X034003Y021369D02*
X034003Y021369D01*
X034003Y021420D02*
X034003Y021420D01*
X034003Y021448D02*
X034003Y021448D01*
X034003Y021526D02*
X034003Y021526D01*
X034003Y021605D02*
X034003Y021605D01*
X034003Y021683D02*
X034003Y021683D01*
X034003Y021762D02*
X034003Y021762D01*
X034003Y021820D02*
X034003Y021820D01*
X034003Y021840D02*
X034003Y021840D01*
X034003Y021919D02*
X034003Y021919D01*
X034003Y021997D02*
X034003Y021997D01*
X034003Y022076D02*
X034003Y022076D01*
X034003Y022154D02*
X034003Y022154D01*
X034003Y022210D02*
X034003Y022210D01*
X034003Y022233D02*
X034003Y022233D01*
X034003Y022311D02*
X034003Y022311D01*
X034003Y022390D02*
X034003Y022390D01*
X034003Y022468D02*
X034003Y022468D01*
X034003Y022547D02*
X034003Y022547D01*
X034003Y022610D02*
X034003Y022610D01*
X034003Y022625D02*
X034003Y022625D01*
X034003Y022704D02*
X034003Y022704D01*
X034003Y022782D02*
X034003Y022782D01*
X034003Y022861D02*
X034003Y022861D01*
X034403Y022861D02*
X034403Y022861D01*
X034403Y022782D02*
X034403Y022782D01*
X034403Y022704D02*
X034403Y022704D01*
X034403Y022625D02*
X034403Y022625D01*
X034403Y022610D02*
X034403Y022610D01*
X034403Y022547D02*
X034403Y022547D01*
X034403Y022468D02*
X034403Y022468D01*
X034403Y022390D02*
X034403Y022390D01*
X034403Y022311D02*
X034403Y022311D01*
X034403Y022233D02*
X034403Y022233D01*
X034403Y022154D02*
X034403Y022154D01*
X034403Y022076D02*
X034403Y022076D01*
X034403Y021997D02*
X034403Y021997D01*
X034403Y021919D02*
X034403Y021919D01*
X034403Y021840D02*
X034403Y021840D01*
X034403Y021820D02*
X034403Y021820D01*
X034403Y021762D02*
X034403Y021762D01*
X034403Y021683D02*
X034403Y021683D01*
X034403Y021605D02*
X034403Y021605D01*
X034403Y021526D02*
X034403Y021526D01*
X034403Y021448D02*
X034403Y021448D01*
X034403Y021420D02*
X034403Y021420D01*
X034403Y021369D02*
X034403Y021369D01*
X034403Y021291D02*
X034403Y021291D01*
X034403Y021212D02*
X034403Y021212D01*
X034403Y021134D02*
X034403Y021134D01*
X034403Y021055D02*
X034403Y021055D01*
X034403Y021020D02*
X034403Y021020D01*
X034403Y020977D02*
X034403Y020977D01*
X034403Y020898D02*
X034403Y020898D01*
X034403Y020820D02*
X034403Y020820D01*
X035078Y021369D02*
X036640Y021369D01*
X036677Y021448D02*
X035078Y021448D01*
X035078Y021526D02*
X036755Y021526D01*
X037151Y021526D02*
X037633Y021526D01*
X037633Y021448D02*
X037229Y021448D01*
X037266Y021369D02*
X037633Y021369D01*
X037633Y021291D02*
X037288Y021291D01*
X037288Y021212D02*
X037633Y021212D01*
X037633Y021134D02*
X037267Y021134D01*
X037232Y021055D02*
X037633Y021055D01*
X037633Y020977D02*
X037153Y020977D01*
X036941Y020898D02*
X037633Y020898D01*
X037633Y020820D02*
X036862Y020820D01*
X036784Y020741D02*
X037633Y020741D01*
X037633Y020663D02*
X036753Y020663D01*
X036753Y020584D02*
X037633Y020584D01*
X037633Y020506D02*
X036753Y020506D01*
X036753Y020427D02*
X037633Y020427D01*
X037633Y020349D02*
X036753Y020349D01*
X036753Y020270D02*
X037633Y020270D01*
X037633Y020192D02*
X036753Y020192D01*
X036753Y020113D02*
X037633Y020113D01*
X037633Y020035D02*
X036753Y020035D01*
X036753Y019956D02*
X037633Y019956D01*
X037633Y019878D02*
X036753Y019878D01*
X036753Y019799D02*
X037633Y019799D01*
X037633Y019721D02*
X036753Y019721D01*
X036753Y019642D02*
X037633Y019642D01*
X037633Y019564D02*
X036753Y019564D01*
X036753Y019485D02*
X037633Y019485D01*
X037633Y019407D02*
X036753Y019407D01*
X036753Y019328D02*
X037633Y019328D01*
X037633Y019250D02*
X036753Y019250D01*
X036753Y019171D02*
X037633Y019171D01*
X037633Y019093D02*
X036753Y019093D01*
X036753Y019014D02*
X037633Y019014D01*
X037633Y018936D02*
X036753Y018936D01*
X036753Y018857D02*
X037633Y018857D01*
X037633Y018779D02*
X036753Y018779D01*
X036753Y018700D02*
X037633Y018700D01*
X037633Y018622D02*
X036753Y018622D01*
X036753Y018543D02*
X037633Y018543D01*
X037633Y018465D02*
X036753Y018465D01*
X036753Y018386D02*
X037633Y018386D01*
X037633Y018308D02*
X036753Y018308D01*
X036753Y018229D02*
X037633Y018229D01*
X037633Y018151D02*
X036753Y018151D01*
X036753Y018072D02*
X037633Y018072D01*
X037633Y017994D02*
X036753Y017994D01*
X036753Y017915D02*
X037633Y017915D01*
X037633Y017837D02*
X036753Y017837D01*
X036753Y017758D02*
X037633Y017758D01*
X037633Y017680D02*
X036753Y017680D01*
X036753Y017601D02*
X037633Y017601D01*
X037633Y017523D02*
X036753Y017523D01*
X036753Y017444D02*
X037633Y017444D01*
X037633Y017366D02*
X036753Y017366D01*
X036753Y017287D02*
X037633Y017287D01*
X037633Y017209D02*
X036753Y017209D01*
X036753Y017130D02*
X037633Y017130D01*
X037633Y016581D02*
X036753Y016581D01*
X036753Y016659D02*
X036885Y016659D01*
X036832Y016738D02*
X036753Y016738D01*
X036753Y016816D02*
X036813Y016816D01*
X036813Y016895D02*
X036753Y016895D01*
X036753Y016973D02*
X036844Y016973D01*
X036915Y017052D02*
X036753Y017052D01*
X036273Y017052D02*
X036260Y017052D01*
X036273Y017130D02*
X030723Y017130D01*
X030723Y017052D02*
X035117Y017052D01*
X035028Y016973D02*
X030723Y016973D01*
X030723Y016895D02*
X034996Y016895D01*
X034993Y016816D02*
X030723Y016816D01*
X030723Y016738D02*
X035007Y016738D01*
X035055Y016659D02*
X030723Y016659D01*
X030723Y016581D02*
X034910Y016581D01*
X034796Y016502D02*
X030723Y016502D01*
X030723Y016424D02*
X034754Y016424D01*
X034743Y016345D02*
X034743Y016302D01*
X034745Y016297D01*
X034750Y016188D02*
X030723Y016188D01*
X030723Y016110D02*
X034753Y016110D01*
X034770Y016031D02*
X030723Y016031D01*
X030723Y015953D02*
X034821Y015953D01*
X035013Y015874D02*
X030723Y015874D01*
X030723Y015796D02*
X035028Y015796D01*
X035077Y015717D02*
X030723Y015717D01*
X030723Y015639D02*
X036273Y015639D01*
X036273Y015560D02*
X030748Y015560D01*
X030827Y015482D02*
X036273Y015482D01*
X036273Y015403D02*
X030905Y015403D01*
X030984Y015325D02*
X036273Y015325D01*
X036273Y015246D02*
X031062Y015246D01*
X031141Y015168D02*
X036273Y015168D01*
X036273Y015089D02*
X031219Y015089D01*
X031298Y015011D02*
X036273Y015011D01*
X036273Y014932D02*
X031376Y014932D01*
X031455Y014854D02*
X036273Y014854D01*
X036273Y014775D02*
X031508Y014775D01*
X031540Y014697D02*
X036273Y014697D01*
X036273Y014618D02*
X031543Y014618D01*
X031543Y014540D02*
X036273Y014540D01*
X036273Y014461D02*
X031543Y014461D01*
X031543Y014383D02*
X036273Y014383D01*
X036273Y014304D02*
X031543Y014304D01*
X031543Y014226D02*
X036273Y014226D01*
X036273Y014147D02*
X031543Y014147D01*
X031543Y014069D02*
X036273Y014069D01*
X036273Y013990D02*
X031543Y013990D01*
X031543Y013912D02*
X036273Y013912D01*
X036273Y013833D02*
X031543Y013833D01*
X031543Y013755D02*
X036273Y013755D01*
X036292Y013676D02*
X031543Y013676D01*
X031543Y013598D02*
X036346Y013598D01*
X036425Y013519D02*
X031543Y013519D01*
X031543Y013441D02*
X036503Y013441D01*
X036582Y013362D02*
X031543Y013362D01*
X031543Y013284D02*
X036660Y013284D01*
X036739Y013205D02*
X031543Y013205D01*
X031543Y013127D02*
X036817Y013127D01*
X036512Y013048D02*
X031543Y013048D01*
X031586Y012970D02*
X036443Y012970D01*
X036413Y012891D02*
X031618Y012891D01*
X031623Y012813D02*
X036413Y012813D01*
X036421Y012734D02*
X031623Y012734D01*
X031623Y012656D02*
X034849Y012656D01*
X034799Y012577D02*
X031641Y012577D01*
X031720Y012499D02*
X034782Y012499D01*
X034786Y012420D02*
X031798Y012420D01*
X031877Y012342D02*
X034789Y012342D01*
X034793Y012263D02*
X031955Y012263D01*
X032034Y012185D02*
X034803Y012185D01*
X035282Y012185D02*
X037388Y012185D01*
X037403Y012263D02*
X035293Y012263D01*
X035290Y012342D02*
X037403Y012342D01*
X037403Y012420D02*
X035286Y012420D01*
X035283Y012499D02*
X037403Y012499D01*
X037367Y012577D02*
X037102Y012577D01*
X037208Y012656D02*
X037288Y012656D01*
X037574Y013048D02*
X037633Y013048D01*
X037633Y013127D02*
X037496Y013127D01*
X037417Y013205D02*
X037633Y013205D01*
X037633Y013284D02*
X037339Y013284D01*
X037260Y013362D02*
X037633Y013362D01*
X037633Y013441D02*
X037182Y013441D01*
X037103Y013519D02*
X037633Y013519D01*
X037633Y013598D02*
X037025Y013598D01*
X036946Y013676D02*
X037633Y013676D01*
X037633Y013755D02*
X036868Y013755D01*
X036789Y013833D02*
X037633Y013833D01*
X037633Y013912D02*
X036753Y013912D01*
X036753Y013990D02*
X037633Y013990D01*
X037633Y014069D02*
X036753Y014069D01*
X036753Y014147D02*
X037633Y014147D01*
X037633Y014226D02*
X036753Y014226D01*
X036753Y014304D02*
X037633Y014304D01*
X037633Y014383D02*
X036753Y014383D01*
X036753Y014461D02*
X037633Y014461D01*
X037633Y014540D02*
X036753Y014540D01*
X036753Y014618D02*
X037633Y014618D01*
X037633Y014697D02*
X036753Y014697D01*
X036753Y014775D02*
X037633Y014775D01*
X037633Y014854D02*
X036753Y014854D01*
X036753Y014932D02*
X037633Y014932D01*
X037633Y015011D02*
X036753Y015011D01*
X036753Y015089D02*
X037633Y015089D01*
X037633Y015168D02*
X036753Y015168D01*
X036753Y015246D02*
X037633Y015246D01*
X037633Y015325D02*
X036753Y015325D01*
X036753Y015403D02*
X037633Y015403D01*
X037633Y015482D02*
X036753Y015482D01*
X036753Y015560D02*
X037633Y015560D01*
X037633Y016188D02*
X036753Y016188D01*
X036753Y016110D02*
X036990Y016110D01*
X036875Y016031D02*
X036753Y016031D01*
X036753Y015953D02*
X036833Y015953D01*
X036823Y015874D02*
X036753Y015874D01*
X036753Y015796D02*
X036826Y015796D01*
X036858Y015717D02*
X036753Y015717D01*
X036753Y015639D02*
X036946Y015639D01*
X036753Y016267D02*
X037633Y016267D01*
X037633Y016345D02*
X036753Y016345D01*
X036753Y016424D02*
X037633Y016424D01*
X037633Y016502D02*
X036753Y016502D01*
X036273Y016502D02*
X035192Y016502D01*
X035184Y016581D02*
X035074Y016581D01*
X035234Y016424D02*
X036273Y016424D01*
X036273Y016345D02*
X035244Y016345D01*
X035247Y016267D02*
X036273Y016267D01*
X036273Y016188D02*
X035250Y016188D01*
X036192Y016581D02*
X036273Y016581D01*
X036260Y016110D02*
X036273Y016110D01*
X036273Y017209D02*
X030723Y017209D01*
X030723Y017287D02*
X036273Y017287D01*
X036273Y017366D02*
X030723Y017366D01*
X030723Y017444D02*
X036273Y017444D01*
X036273Y017523D02*
X030723Y017523D01*
X030706Y017601D02*
X036273Y017601D01*
X036273Y017680D02*
X030673Y017680D01*
X030600Y017758D02*
X036273Y017758D01*
X036273Y017837D02*
X030872Y017837D01*
X031051Y017915D02*
X036273Y017915D01*
X036273Y017994D02*
X031130Y017994D01*
X031208Y018072D02*
X036273Y018072D01*
X036273Y018151D02*
X031249Y018151D01*
X031282Y018229D02*
X036273Y018229D01*
X036273Y018308D02*
X031314Y018308D01*
X031319Y018386D02*
X036273Y018386D01*
X036273Y018465D02*
X031319Y018465D01*
X031319Y018543D02*
X036273Y018543D01*
X036273Y018622D02*
X031298Y018622D01*
X031266Y018700D02*
X036273Y018700D01*
X036273Y018779D02*
X031233Y018779D01*
X031169Y018857D02*
X036273Y018857D01*
X036273Y018936D02*
X031091Y018936D01*
X030966Y019014D02*
X036273Y019014D01*
X036273Y019093D02*
X030368Y019093D01*
X030401Y019171D02*
X036273Y019171D01*
X036273Y019250D02*
X030418Y019250D01*
X030418Y019328D02*
X036273Y019328D01*
X036273Y019407D02*
X030393Y019407D01*
X030352Y019485D02*
X036273Y019485D01*
X036273Y019564D02*
X030273Y019564D01*
X030089Y019642D02*
X036273Y019642D01*
X036273Y019721D02*
X030010Y019721D01*
X029932Y019799D02*
X036273Y019799D01*
X036273Y019878D02*
X029853Y019878D01*
X029775Y019956D02*
X036273Y019956D01*
X036273Y020035D02*
X029743Y020035D01*
X029743Y020113D02*
X036273Y020113D01*
X036273Y020192D02*
X030169Y020192D01*
X030310Y020270D02*
X036273Y020270D01*
X036273Y020349D02*
X030389Y020349D01*
X030467Y020427D02*
X036273Y020427D01*
X036273Y020506D02*
X030546Y020506D01*
X030624Y020584D02*
X036273Y020584D01*
X036273Y020663D02*
X030703Y020663D01*
X030781Y020741D02*
X036273Y020741D01*
X035070Y021605D02*
X037633Y021605D01*
X037633Y021683D02*
X035078Y021683D01*
X035078Y021762D02*
X037633Y021762D01*
X037633Y021840D02*
X035078Y021840D01*
X035078Y021919D02*
X037633Y021919D01*
X037633Y021997D02*
X035072Y021997D01*
X035078Y022076D02*
X037633Y022076D01*
X037633Y022154D02*
X035078Y022154D01*
X035078Y022233D02*
X037633Y022233D01*
X037633Y022311D02*
X035078Y022311D01*
X035071Y022390D02*
X037633Y022390D01*
X037633Y022468D02*
X035078Y022468D01*
X035078Y022547D02*
X037633Y022547D01*
X037633Y022625D02*
X035078Y022625D01*
X035078Y022704D02*
X037633Y022704D01*
X037633Y022782D02*
X035073Y022782D01*
X035237Y023332D02*
X037633Y023332D01*
X037633Y023410D02*
X035350Y023410D01*
X035429Y023489D02*
X037633Y023489D01*
X037633Y023567D02*
X035507Y023567D01*
X035586Y023646D02*
X037633Y023646D01*
X037633Y023724D02*
X035664Y023724D01*
X035743Y023803D02*
X037633Y023803D01*
X037633Y023881D02*
X035821Y023881D01*
X035900Y023960D02*
X037633Y023960D01*
X037633Y024038D02*
X035978Y024038D01*
X036057Y024117D02*
X037633Y024117D01*
X037633Y024195D02*
X036135Y024195D01*
X036214Y024274D02*
X037633Y024274D01*
X037633Y024352D02*
X036292Y024352D01*
X036371Y024431D02*
X037633Y024431D01*
X037633Y024509D02*
X036449Y024509D01*
X036528Y024588D02*
X037633Y024588D01*
X037633Y024666D02*
X036606Y024666D01*
X036685Y024745D02*
X037633Y024745D01*
X037633Y024823D02*
X036763Y024823D01*
X036842Y024902D02*
X037633Y024902D01*
X037633Y024980D02*
X036920Y024980D01*
X036947Y025007D02*
X036947Y025007D01*
X036980Y025059D02*
X037633Y025059D01*
X037633Y025137D02*
X037013Y025137D01*
X037043Y025216D02*
X037633Y025216D01*
X037633Y025294D02*
X037043Y025294D01*
X037043Y025373D02*
X037633Y025373D01*
X037633Y025451D02*
X037043Y025451D01*
X037043Y025530D02*
X037633Y025530D01*
X037633Y025608D02*
X037043Y025608D01*
X037043Y025687D02*
X037633Y025687D01*
X037633Y025765D02*
X037043Y025765D01*
X037043Y025844D02*
X037633Y025844D01*
X037633Y025922D02*
X037043Y025922D01*
X037043Y026001D02*
X037633Y026001D01*
X037633Y026079D02*
X037043Y026079D01*
X037043Y026158D02*
X037633Y026158D01*
X037633Y026236D02*
X037043Y026236D01*
X037043Y026315D02*
X037633Y026315D01*
X037633Y026393D02*
X037043Y026393D01*
X037043Y026472D02*
X037633Y026472D01*
X037633Y026550D02*
X037043Y026550D01*
X037043Y026629D02*
X037633Y026629D01*
X037633Y026707D02*
X037043Y026707D01*
X037043Y026786D02*
X037633Y026786D01*
X037633Y026864D02*
X037043Y026864D01*
X037043Y026943D02*
X037633Y026943D01*
X037633Y027021D02*
X037043Y027021D01*
X037043Y027100D02*
X037633Y027100D01*
X037633Y027178D02*
X037011Y027178D01*
X037143Y027257D02*
X037223Y027257D01*
X037223Y027335D02*
X037143Y027335D01*
X037143Y027414D02*
X037223Y027414D01*
X037223Y027492D02*
X037143Y027492D01*
X037143Y027571D02*
X037223Y027571D01*
X037223Y027649D02*
X037633Y027649D01*
X037623Y027571D02*
X037633Y027571D01*
X037623Y027492D02*
X037633Y027492D01*
X037623Y027414D02*
X037633Y027414D01*
X037623Y027335D02*
X037633Y027335D01*
X037633Y027257D02*
X037588Y027257D01*
X037623Y027728D02*
X037633Y027728D01*
X037623Y027806D02*
X037626Y027806D01*
X037223Y027806D02*
X037143Y027806D01*
X037143Y027728D02*
X037223Y027728D01*
X037143Y027690D02*
X037143Y028090D01*
X036865Y028090D01*
X036829Y028080D01*
X036797Y028062D01*
X036771Y028036D01*
X036753Y028004D01*
X036743Y027968D01*
X036743Y027690D01*
X037143Y027690D01*
X037143Y027649D02*
X036683Y027649D01*
X036683Y027571D02*
X036743Y027571D01*
X036743Y027728D02*
X036683Y027728D01*
X036683Y027806D02*
X036743Y027806D01*
X036743Y027885D02*
X036683Y027885D01*
X036683Y027963D02*
X036743Y027963D01*
X036777Y028042D02*
X036674Y028042D01*
X037143Y028042D02*
X037223Y028042D01*
X037223Y027963D02*
X037143Y027963D01*
X037143Y027885D02*
X037223Y027885D01*
X033183Y027650D02*
X033163Y027650D01*
X031063Y025550D01*
X028673Y025550D01*
X026913Y023790D01*
X026913Y021930D01*
X026913Y020770D01*
X029413Y018270D01*
X029413Y018020D01*
X029533Y017900D01*
X030003Y017430D01*
X030003Y014930D01*
X029433Y014900D02*
X029433Y017560D01*
X029203Y017790D01*
X029103Y017890D01*
X029103Y018160D01*
X026633Y020630D01*
X026633Y023560D01*
X026633Y024200D01*
X028523Y026090D01*
X028533Y026100D01*
X030053Y026100D01*
X031183Y027230D01*
X031183Y027650D01*
X030183Y027650D02*
X030183Y026840D01*
X029673Y026330D01*
X028383Y026330D01*
X026493Y024440D01*
X026493Y023840D01*
X026493Y020560D01*
X028953Y018100D01*
X028953Y017830D01*
X029043Y017740D01*
X029153Y017630D01*
X029153Y014160D01*
X029193Y014120D01*
X029213Y014100D01*
X028963Y013830D02*
X028963Y017610D01*
X028893Y017680D01*
X028873Y017700D01*
X028803Y017770D01*
X028803Y018040D01*
X026353Y020490D01*
X026353Y023900D01*
X026353Y024650D01*
X026353Y024680D01*
X028243Y026570D01*
X029483Y026570D01*
X029693Y026780D01*
X029693Y027110D01*
X029183Y026850D02*
X029053Y026850D01*
X028103Y026850D01*
X028093Y026840D01*
X026223Y024970D01*
X026213Y024970D01*
X026213Y024810D01*
X026213Y024400D01*
X026213Y020420D01*
X028653Y017980D01*
X028653Y017690D01*
X028663Y017680D01*
X028713Y017630D01*
X028723Y017620D01*
X028793Y017550D01*
X028793Y014160D01*
X028413Y013780D01*
X028123Y013780D01*
X028093Y013750D01*
X027533Y013190D01*
X027533Y013080D01*
X027533Y012910D01*
X027363Y012740D01*
X027093Y013140D02*
X027923Y013970D01*
X028003Y013970D01*
X028223Y013970D01*
X028633Y014380D01*
X028633Y014450D01*
X028633Y017490D01*
X028553Y017570D01*
X028493Y017630D01*
X028493Y017930D01*
X026073Y020350D01*
X026073Y024400D01*
X026073Y024920D01*
X026073Y025260D01*
X026163Y025350D01*
X027473Y026660D01*
X027523Y026930D02*
X027113Y026930D01*
X025933Y025750D01*
X025933Y025340D01*
X025933Y024400D01*
X025933Y020280D01*
X028323Y017890D01*
X028323Y017590D01*
X028383Y017530D01*
X028473Y017440D01*
X028473Y014560D01*
X028263Y014350D01*
X028063Y014150D01*
X027593Y014150D01*
X026853Y013410D01*
X026853Y012740D01*
X026363Y012740D02*
X026363Y013560D01*
X027333Y014530D01*
X027883Y014530D01*
X027893Y014530D01*
X028133Y014770D01*
X028143Y014780D01*
X028153Y014790D01*
X028153Y016880D01*
X028153Y017280D01*
X028083Y017350D01*
X027993Y017440D01*
X027983Y017450D01*
X027983Y017820D01*
X025663Y020140D01*
X025653Y020150D01*
X025653Y025820D01*
X025653Y026120D01*
X027183Y027650D01*
X027473Y027220D02*
X027753Y027220D01*
X028183Y027650D01*
X028613Y027080D02*
X028573Y027040D01*
X027633Y027040D01*
X027623Y027030D01*
X027603Y027010D01*
X027523Y026930D01*
X027363Y027110D02*
X026993Y027110D01*
X025793Y025910D01*
X025793Y025540D01*
X025793Y024900D01*
X025793Y020210D01*
X028153Y017850D01*
X028153Y017520D01*
X028233Y017440D01*
X028313Y017360D01*
X028313Y014640D01*
X028173Y014500D01*
X028013Y014340D01*
X027473Y014340D01*
X026613Y013480D01*
X026613Y013130D01*
X026033Y013130D02*
X026033Y013600D01*
X026253Y013820D01*
X027073Y014640D01*
X027113Y014680D01*
X027783Y014680D01*
X027963Y014860D01*
X027993Y014890D01*
X027993Y016830D01*
X027993Y017230D01*
X027943Y017280D01*
X027933Y017290D01*
X027803Y017420D01*
X027763Y017460D01*
X027683Y017540D01*
X027683Y017900D01*
X025513Y020070D01*
X025513Y020130D01*
X025513Y026310D01*
X026183Y026980D01*
X026183Y027650D01*
X025683Y027649D02*
X025683Y027649D01*
X025683Y027571D02*
X025683Y027571D01*
X025683Y027492D02*
X025683Y027492D01*
X025683Y027414D02*
X025683Y027414D01*
X025683Y027335D02*
X025683Y027335D01*
X025683Y027267D02*
X025800Y027150D01*
X025943Y027150D01*
X025943Y027079D01*
X025310Y026446D01*
X025273Y026358D01*
X025273Y026262D01*
X025273Y020082D01*
X025273Y020022D01*
X025310Y019934D01*
X027136Y018107D01*
X027109Y018080D01*
X023987Y018080D01*
X023943Y018124D01*
X023820Y018175D01*
X023686Y018175D01*
X023563Y018124D01*
X023469Y018030D01*
X023418Y017907D01*
X023418Y017773D01*
X023469Y017650D01*
X023563Y017556D01*
X023626Y017530D01*
X023325Y017530D01*
X023237Y017493D01*
X022907Y017163D01*
X022840Y017096D01*
X022803Y017008D01*
X022803Y013779D01*
X022613Y013969D01*
X022613Y015728D01*
X022577Y015816D01*
X022509Y015883D01*
X022189Y016203D01*
X019113Y019279D01*
X019113Y021274D01*
X019320Y020868D01*
X019651Y020536D01*
X020070Y020323D01*
X020533Y020250D01*
X020997Y020323D01*
X021415Y020536D01*
X021747Y020868D01*
X021960Y021286D01*
X022033Y021750D01*
X021960Y022214D01*
X021747Y022632D01*
X021415Y022964D01*
X020997Y023177D01*
X020533Y023250D01*
X020070Y023177D01*
X019651Y022964D01*
X019320Y022632D01*
X019113Y022226D01*
X019113Y022821D01*
X019173Y022846D01*
X019267Y022940D01*
X019318Y023063D01*
X019318Y023197D01*
X019267Y023320D01*
X019173Y023414D01*
X019050Y023465D01*
X018916Y023465D01*
X018893Y023455D01*
X018893Y025351D01*
X019072Y025530D01*
X025273Y025530D01*
X025273Y025608D02*
X021091Y025608D01*
X021049Y025567D02*
X022072Y026590D01*
X022411Y026590D01*
X022499Y026627D01*
X023022Y027150D01*
X023566Y027150D01*
X023683Y027267D01*
X023683Y028033D01*
X023683Y027267D01*
X023800Y027150D01*
X024566Y027150D01*
X024683Y027267D01*
X024683Y028033D01*
X024683Y027267D01*
X024800Y027150D01*
X025566Y027150D01*
X025683Y027267D01*
X025683Y028033D01*
X025683Y027267D01*
X025672Y027257D02*
X025694Y027257D01*
X025772Y027178D02*
X025594Y027178D01*
X025806Y026943D02*
X022815Y026943D01*
X022894Y027021D02*
X025885Y027021D01*
X025943Y027100D02*
X022972Y027100D01*
X022737Y026864D02*
X025728Y026864D01*
X025649Y026786D02*
X022658Y026786D01*
X022580Y026707D02*
X025571Y026707D01*
X025492Y026629D02*
X022501Y026629D01*
X022363Y026830D02*
X023183Y027650D01*
X023683Y027649D02*
X023683Y027649D01*
X023683Y027571D02*
X023683Y027571D01*
X023683Y027492D02*
X023683Y027492D01*
X023683Y027414D02*
X023683Y027414D01*
X023683Y027335D02*
X023683Y027335D01*
X023672Y027257D02*
X023694Y027257D01*
X023772Y027178D02*
X023594Y027178D01*
X023683Y027728D02*
X023683Y027728D01*
X023683Y027806D02*
X023683Y027806D01*
X023683Y027885D02*
X023683Y027885D01*
X023683Y027963D02*
X023683Y027963D01*
X023683Y028033D02*
X023750Y028100D01*
X023616Y028100D01*
X023683Y028033D01*
X023674Y028042D02*
X023692Y028042D01*
X024616Y028100D02*
X024750Y028100D01*
X024683Y028033D01*
X024616Y028100D01*
X024674Y028042D02*
X024692Y028042D01*
X024683Y027963D02*
X024683Y027963D01*
X024683Y027885D02*
X024683Y027885D01*
X024683Y027806D02*
X024683Y027806D01*
X024683Y027728D02*
X024683Y027728D01*
X024683Y027649D02*
X024683Y027649D01*
X024683Y027571D02*
X024683Y027571D01*
X024683Y027492D02*
X024683Y027492D01*
X024683Y027414D02*
X024683Y027414D01*
X024683Y027335D02*
X024683Y027335D01*
X024672Y027257D02*
X024694Y027257D01*
X024772Y027178D02*
X024594Y027178D01*
X025335Y026472D02*
X021954Y026472D01*
X022033Y026550D02*
X025414Y026550D01*
X025288Y026393D02*
X021876Y026393D01*
X021797Y026315D02*
X025273Y026315D01*
X025273Y026236D02*
X021719Y026236D01*
X021640Y026158D02*
X025273Y026158D01*
X025273Y026079D02*
X021562Y026079D01*
X021483Y026001D02*
X025273Y026001D01*
X025273Y025922D02*
X021405Y025922D01*
X021326Y025844D02*
X025273Y025844D01*
X025273Y025765D02*
X021248Y025765D01*
X021169Y025687D02*
X025273Y025687D01*
X025273Y025451D02*
X018994Y025451D01*
X018915Y025373D02*
X025273Y025373D01*
X025273Y025294D02*
X018893Y025294D01*
X018893Y025216D02*
X025273Y025216D01*
X025273Y025137D02*
X018893Y025137D01*
X018893Y025059D02*
X025273Y025059D01*
X025273Y024980D02*
X018893Y024980D01*
X018893Y024902D02*
X025273Y024902D01*
X025273Y024823D02*
X018893Y024823D01*
X018893Y024745D02*
X025273Y024745D01*
X025273Y024666D02*
X018893Y024666D01*
X018893Y024588D02*
X025273Y024588D01*
X025273Y024509D02*
X018893Y024509D01*
X018893Y024431D02*
X025273Y024431D01*
X025273Y024352D02*
X018893Y024352D01*
X018893Y024274D02*
X025273Y024274D01*
X025273Y024195D02*
X018893Y024195D01*
X018893Y024117D02*
X025273Y024117D01*
X025273Y024038D02*
X018893Y024038D01*
X018893Y023960D02*
X025273Y023960D01*
X025273Y023881D02*
X018893Y023881D01*
X018893Y023803D02*
X025273Y023803D01*
X025273Y023724D02*
X018893Y023724D01*
X018893Y023646D02*
X025273Y023646D01*
X025273Y023567D02*
X018893Y023567D01*
X018893Y023489D02*
X025273Y023489D01*
X025273Y023410D02*
X019177Y023410D01*
X019255Y023332D02*
X025273Y023332D01*
X025273Y023253D02*
X019295Y023253D01*
X019318Y023175D02*
X020066Y023175D01*
X019912Y023096D02*
X019318Y023096D01*
X019299Y023018D02*
X019757Y023018D01*
X019627Y022939D02*
X019266Y022939D01*
X019187Y022861D02*
X019548Y022861D01*
X019470Y022782D02*
X019113Y022782D01*
X019113Y022704D02*
X019391Y022704D01*
X019316Y022625D02*
X019113Y022625D01*
X019113Y022547D02*
X019276Y022547D01*
X019236Y022468D02*
X019113Y022468D01*
X019113Y022390D02*
X019196Y022390D01*
X019156Y022311D02*
X019113Y022311D01*
X019113Y022233D02*
X019116Y022233D01*
X018873Y022900D02*
X018873Y023020D01*
X018983Y023130D01*
X018873Y022900D02*
X018873Y019180D01*
X022053Y016000D01*
X022373Y015680D01*
X022373Y013870D01*
X023683Y012560D01*
X024743Y012560D01*
X023633Y013100D02*
X023043Y013690D01*
X023043Y016960D01*
X023373Y017290D01*
X023843Y017290D01*
X027273Y017290D01*
X027523Y017040D01*
X027188Y017036D02*
X027188Y016973D01*
X023396Y016973D01*
X023472Y017050D02*
X027174Y017050D01*
X027188Y017036D01*
X027188Y016973D02*
X027239Y016850D01*
X027333Y016756D01*
X027456Y016705D01*
X027590Y016705D01*
X027713Y016756D01*
X027753Y016796D01*
X027753Y015784D01*
X027743Y015794D01*
X027620Y015845D01*
X027486Y015845D01*
X027363Y015794D01*
X027319Y015750D01*
X023597Y015750D01*
X023553Y015794D01*
X023430Y015845D01*
X023296Y015845D01*
X023283Y015839D01*
X023283Y016861D01*
X023472Y017050D01*
X023317Y016895D02*
X025725Y016895D01*
X025727Y016897D02*
X025701Y016871D01*
X025683Y016839D01*
X025673Y016803D01*
X025673Y016650D01*
X025673Y016497D01*
X025683Y016461D01*
X025700Y016430D01*
X025683Y016399D01*
X025673Y016363D01*
X025673Y016210D01*
X025673Y016057D01*
X025683Y016021D01*
X025701Y015989D01*
X025727Y015963D01*
X025759Y015945D01*
X025795Y015935D01*
X025948Y015935D01*
X025948Y016210D01*
X025673Y016210D01*
X025948Y016210D01*
X025948Y016210D01*
X025948Y016650D01*
X025673Y016650D01*
X025948Y016650D01*
X025948Y016650D01*
X025948Y016925D01*
X025795Y016925D01*
X025759Y016915D01*
X025727Y016897D01*
X025676Y016816D02*
X023283Y016816D01*
X023283Y016738D02*
X025673Y016738D01*
X025673Y016659D02*
X023283Y016659D01*
X023283Y016581D02*
X025673Y016581D01*
X025673Y016502D02*
X023283Y016502D01*
X023283Y016424D02*
X025697Y016424D01*
X025673Y016345D02*
X023283Y016345D01*
X023283Y016267D02*
X025673Y016267D01*
X025673Y016188D02*
X023283Y016188D01*
X023283Y016110D02*
X025673Y016110D01*
X025680Y016031D02*
X023283Y016031D01*
X023283Y015953D02*
X025745Y015953D01*
X025948Y015953D02*
X025948Y015953D01*
X025948Y015935D02*
X026102Y015935D01*
X026137Y015945D01*
X026156Y015955D01*
X026174Y015945D01*
X026210Y015935D01*
X026363Y015935D01*
X026363Y016210D01*
X025948Y016210D01*
X025948Y016210D01*
X025948Y016210D01*
X025948Y015935D01*
X025948Y016031D02*
X025948Y016031D01*
X025948Y016110D02*
X025948Y016110D01*
X025948Y016188D02*
X025948Y016188D01*
X025948Y016210D02*
X025948Y016210D01*
X025948Y016375D01*
X025948Y016650D01*
X025948Y016650D01*
X025948Y016650D01*
X025948Y016925D01*
X026102Y016925D01*
X026137Y016915D01*
X026156Y016905D01*
X026174Y016915D01*
X026210Y016925D01*
X026363Y016925D01*
X026363Y016650D01*
X025948Y016650D01*
X026223Y016650D01*
X026363Y016650D01*
X026363Y016650D01*
X026363Y016650D01*
X026363Y016650D01*
X026363Y016210D01*
X026363Y016210D01*
X026223Y016210D01*
X025948Y016210D01*
X025948Y016267D02*
X025948Y016267D01*
X025948Y016345D02*
X025948Y016345D01*
X025948Y016424D02*
X025948Y016424D01*
X025948Y016502D02*
X025948Y016502D01*
X025948Y016581D02*
X025948Y016581D01*
X025948Y016650D02*
X025948Y016650D01*
X025948Y016659D02*
X025948Y016659D01*
X025948Y016738D02*
X025948Y016738D01*
X025948Y016816D02*
X025948Y016816D01*
X025948Y016895D02*
X025948Y016895D01*
X026363Y016895D02*
X026363Y016895D01*
X026363Y016925D02*
X026363Y016650D01*
X026363Y016375D01*
X026363Y016210D01*
X026363Y016210D01*
X026363Y016210D01*
X026363Y015935D01*
X026517Y015935D01*
X026552Y015945D01*
X026571Y015955D01*
X026589Y015945D01*
X026625Y015935D01*
X026778Y015935D01*
X026778Y016210D01*
X026363Y016210D01*
X026638Y016210D01*
X026778Y016210D01*
X026778Y016210D01*
X026778Y016650D01*
X026363Y016650D01*
X026638Y016650D01*
X026778Y016650D01*
X026778Y016650D01*
X026778Y016925D01*
X026625Y016925D01*
X026589Y016915D01*
X026571Y016905D01*
X026552Y016915D01*
X026517Y016925D01*
X026363Y016925D01*
X026363Y016816D02*
X026363Y016816D01*
X026363Y016738D02*
X026363Y016738D01*
X026363Y016659D02*
X026363Y016659D01*
X026363Y016650D02*
X026363Y016650D01*
X026363Y016581D02*
X026363Y016581D01*
X026363Y016502D02*
X026363Y016502D01*
X026363Y016424D02*
X026363Y016424D01*
X026363Y016345D02*
X026363Y016345D01*
X026363Y016267D02*
X026363Y016267D01*
X026363Y016210D02*
X026363Y016210D01*
X026363Y016188D02*
X026363Y016188D01*
X026363Y016110D02*
X026363Y016110D01*
X026363Y016031D02*
X026363Y016031D01*
X026363Y015953D02*
X026363Y015953D01*
X026160Y015953D02*
X026151Y015953D01*
X026566Y015953D02*
X026575Y015953D01*
X026778Y015953D02*
X026778Y015953D01*
X026778Y015935D02*
X026932Y015935D01*
X026967Y015945D01*
X026999Y015963D01*
X027025Y015989D01*
X027044Y016021D01*
X027053Y016057D01*
X027053Y016210D01*
X027053Y016363D01*
X027044Y016399D01*
X027026Y016430D01*
X027044Y016461D01*
X027053Y016497D01*
X027053Y016650D01*
X027053Y016803D01*
X027044Y016839D01*
X027025Y016871D01*
X026999Y016897D01*
X026967Y016915D01*
X026932Y016925D01*
X026778Y016925D01*
X026778Y016650D01*
X026778Y016650D01*
X026778Y016650D01*
X026778Y016485D01*
X026778Y016210D01*
X026778Y016210D01*
X026778Y016210D01*
X026778Y015935D01*
X026778Y016031D02*
X026778Y016031D01*
X026778Y016110D02*
X026778Y016110D01*
X026778Y016188D02*
X026778Y016188D01*
X026778Y016210D02*
X026778Y016210D01*
X027053Y016210D01*
X026778Y016210D01*
X026778Y016267D02*
X026778Y016267D01*
X026778Y016345D02*
X026778Y016345D01*
X026778Y016424D02*
X026778Y016424D01*
X026778Y016502D02*
X026778Y016502D01*
X026778Y016581D02*
X026778Y016581D01*
X026778Y016650D02*
X026778Y016650D01*
X027053Y016650D01*
X026778Y016650D01*
X026778Y016659D02*
X026778Y016659D01*
X026778Y016738D02*
X026778Y016738D01*
X026778Y016816D02*
X026778Y016816D01*
X026778Y016895D02*
X026778Y016895D01*
X027002Y016895D02*
X027221Y016895D01*
X027273Y016816D02*
X027050Y016816D01*
X027053Y016738D02*
X027378Y016738D01*
X027668Y016738D02*
X027753Y016738D01*
X027753Y016659D02*
X027053Y016659D01*
X027053Y016581D02*
X027753Y016581D01*
X027753Y016502D02*
X027053Y016502D01*
X027029Y016424D02*
X027753Y016424D01*
X027753Y016345D02*
X027053Y016345D01*
X027053Y016267D02*
X027753Y016267D01*
X027753Y016188D02*
X027053Y016188D01*
X027053Y016110D02*
X027753Y016110D01*
X027753Y016031D02*
X027046Y016031D01*
X026981Y015953D02*
X027753Y015953D01*
X027753Y015874D02*
X023283Y015874D01*
X023549Y015796D02*
X027367Y015796D01*
X027553Y015510D02*
X024843Y015510D01*
X023363Y015510D01*
X022803Y015482D02*
X022613Y015482D01*
X022613Y015560D02*
X022803Y015560D01*
X022803Y015639D02*
X022613Y015639D01*
X022613Y015717D02*
X022803Y015717D01*
X022803Y015796D02*
X022585Y015796D01*
X022518Y015874D02*
X022803Y015874D01*
X022803Y015953D02*
X022440Y015953D01*
X022361Y016031D02*
X022803Y016031D01*
X022803Y016110D02*
X022283Y016110D01*
X022204Y016188D02*
X022803Y016188D01*
X022803Y016267D02*
X022126Y016267D01*
X022189Y016203D02*
X022189Y016203D01*
X022047Y016345D02*
X022803Y016345D01*
X022803Y016424D02*
X021969Y016424D01*
X021890Y016502D02*
X022803Y016502D01*
X022803Y016581D02*
X021812Y016581D01*
X021733Y016659D02*
X022803Y016659D01*
X022803Y016738D02*
X021655Y016738D01*
X021576Y016816D02*
X022803Y016816D01*
X022803Y016895D02*
X021498Y016895D01*
X021419Y016973D02*
X022803Y016973D01*
X022821Y017052D02*
X021341Y017052D01*
X021262Y017130D02*
X022874Y017130D01*
X022952Y017209D02*
X021184Y017209D01*
X021105Y017287D02*
X023031Y017287D01*
X023109Y017366D02*
X021027Y017366D01*
X020948Y017444D02*
X023188Y017444D01*
X023307Y017523D02*
X020870Y017523D01*
X020791Y017601D02*
X023518Y017601D01*
X023457Y017680D02*
X020713Y017680D01*
X020634Y017758D02*
X023424Y017758D01*
X023418Y017837D02*
X020556Y017837D01*
X020477Y017915D02*
X023422Y017915D01*
X023454Y017994D02*
X020399Y017994D01*
X020320Y018072D02*
X023511Y018072D01*
X023627Y018151D02*
X020242Y018151D01*
X020163Y018229D02*
X027015Y018229D01*
X027093Y018151D02*
X023879Y018151D01*
X023753Y017840D02*
X024143Y017840D01*
X027343Y017840D01*
X026936Y018308D02*
X020085Y018308D01*
X020006Y018386D02*
X026858Y018386D01*
X026779Y018465D02*
X019928Y018465D01*
X019849Y018543D02*
X026701Y018543D01*
X026622Y018622D02*
X019771Y018622D01*
X019692Y018700D02*
X026544Y018700D01*
X026465Y018779D02*
X019614Y018779D01*
X019535Y018857D02*
X026387Y018857D01*
X026308Y018936D02*
X019457Y018936D01*
X019378Y019014D02*
X026230Y019014D01*
X026151Y019093D02*
X019300Y019093D01*
X019221Y019171D02*
X026073Y019171D01*
X025994Y019250D02*
X019143Y019250D01*
X019113Y019328D02*
X025916Y019328D01*
X025837Y019407D02*
X019113Y019407D01*
X019113Y019485D02*
X025759Y019485D01*
X025680Y019564D02*
X019113Y019564D01*
X019113Y019642D02*
X025602Y019642D01*
X025523Y019721D02*
X019113Y019721D01*
X019113Y019799D02*
X025445Y019799D01*
X025366Y019878D02*
X019113Y019878D01*
X019113Y019956D02*
X025300Y019956D01*
X025273Y020035D02*
X019113Y020035D01*
X019113Y020113D02*
X025273Y020113D01*
X025273Y020192D02*
X019113Y020192D01*
X019113Y020270D02*
X020406Y020270D01*
X020660Y020270D02*
X025273Y020270D01*
X025273Y020349D02*
X021046Y020349D01*
X021200Y020427D02*
X025273Y020427D01*
X025273Y020506D02*
X021354Y020506D01*
X021462Y020584D02*
X025273Y020584D01*
X025273Y020663D02*
X021541Y020663D01*
X021619Y020741D02*
X025273Y020741D01*
X025273Y020820D02*
X021698Y020820D01*
X021762Y020898D02*
X025273Y020898D01*
X025273Y020977D02*
X021802Y020977D01*
X021842Y021055D02*
X025273Y021055D01*
X025273Y021134D02*
X021882Y021134D01*
X021922Y021212D02*
X025273Y021212D01*
X025273Y021291D02*
X021960Y021291D01*
X021973Y021369D02*
X025273Y021369D01*
X025273Y021448D02*
X021985Y021448D01*
X021998Y021526D02*
X025273Y021526D01*
X025273Y021605D02*
X022010Y021605D01*
X022022Y021683D02*
X025273Y021683D01*
X025273Y021762D02*
X022031Y021762D01*
X022019Y021840D02*
X025273Y021840D01*
X025273Y021919D02*
X022006Y021919D01*
X021994Y021997D02*
X025273Y021997D01*
X025273Y022076D02*
X021982Y022076D01*
X021969Y022154D02*
X025273Y022154D01*
X025273Y022233D02*
X021950Y022233D01*
X021910Y022311D02*
X025273Y022311D01*
X025273Y022390D02*
X021870Y022390D01*
X021830Y022468D02*
X025273Y022468D01*
X025273Y022547D02*
X021790Y022547D01*
X021750Y022625D02*
X025273Y022625D01*
X025273Y022704D02*
X021675Y022704D01*
X021596Y022782D02*
X025273Y022782D01*
X025273Y022861D02*
X021518Y022861D01*
X021439Y022939D02*
X025273Y022939D01*
X025273Y023018D02*
X021309Y023018D01*
X021155Y023096D02*
X025273Y023096D01*
X025273Y023175D02*
X021001Y023175D01*
X018653Y022900D02*
X018653Y023510D01*
X018653Y025450D01*
X018973Y025770D01*
X020913Y025770D01*
X021973Y026830D01*
X022363Y026830D01*
X021183Y027650D02*
X019533Y026000D01*
X018803Y026000D01*
X018403Y025600D01*
X018403Y023540D01*
X018403Y022900D01*
X018403Y018920D01*
X021633Y015690D01*
X021633Y013260D01*
X021373Y013020D02*
X021373Y015500D01*
X018113Y018760D01*
X018113Y022900D01*
X018113Y024850D01*
X018113Y025730D01*
X018113Y026080D01*
X018903Y026870D01*
X018613Y027080D02*
X018753Y027220D01*
X017813Y026280D01*
X017813Y023900D01*
X017813Y018560D01*
X017813Y018430D01*
X021113Y015130D01*
X021113Y013260D01*
X020573Y013020D02*
X020573Y015180D01*
X017473Y018280D01*
X017473Y018460D01*
X017473Y024900D01*
X017473Y026260D01*
X017473Y026500D01*
X017803Y026830D01*
X017803Y026850D01*
X017183Y026750D02*
X018083Y027650D01*
X018183Y027650D01*
X018753Y027220D02*
X019183Y027650D01*
X017183Y026750D02*
X017183Y024520D01*
X017183Y018170D01*
X017183Y017940D01*
X020333Y014790D01*
X020333Y013260D01*
X020073Y013020D02*
X020073Y014450D01*
X016853Y017670D01*
X016853Y024310D01*
X016853Y024320D01*
X014523Y026650D01*
X014183Y026450D02*
X014183Y027650D01*
X013763Y028100D02*
X015733Y028100D01*
X016183Y027650D01*
X015183Y027650D02*
X015183Y026930D01*
X016513Y025600D01*
X016803Y025310D01*
X016553Y024080D02*
X014183Y026450D01*
X013683Y026500D02*
X013683Y026750D01*
X013683Y026500D02*
X016293Y023890D01*
X016293Y023570D01*
X016293Y023440D01*
X016293Y017410D01*
X019553Y014150D01*
X019553Y013020D01*
X019293Y013260D02*
X019293Y013920D01*
X015993Y017220D01*
X015993Y023110D01*
X015993Y023350D01*
X015993Y023760D01*
X013333Y026420D01*
X013333Y026860D01*
X013673Y027200D01*
X013683Y027210D01*
X013683Y028020D01*
X013763Y028100D01*
X012183Y027650D02*
X012183Y026990D01*
X015773Y023400D01*
X015773Y023090D01*
X015773Y016880D01*
X018853Y013800D01*
X019033Y013620D01*
X019033Y013020D01*
X018773Y013260D02*
X018743Y013290D01*
X018133Y013290D01*
X012613Y013290D01*
X012393Y013290D01*
X012113Y013020D02*
X012093Y013040D01*
X012113Y013020D02*
X018513Y013020D01*
X018003Y013600D02*
X018003Y013790D01*
X018003Y014080D01*
X015513Y016570D01*
X015513Y022950D01*
X015513Y023070D01*
X015513Y023140D01*
X013403Y025250D01*
X011183Y027470D01*
X011183Y027650D01*
X010183Y027650D02*
X010183Y027380D01*
X012793Y024770D01*
X013423Y024770D01*
X015243Y022950D01*
X015243Y022760D01*
X015243Y016330D01*
X017303Y014270D01*
X017413Y014160D01*
X017413Y013990D01*
X017413Y013590D01*
X017003Y013580D02*
X017003Y014000D01*
X015823Y015180D01*
X015963Y015040D01*
X015823Y015180D02*
X014953Y016050D01*
X014953Y022590D01*
X014953Y022770D01*
X013383Y024340D01*
X012493Y024340D01*
X009183Y027650D01*
X008183Y027650D02*
X011773Y024060D01*
X013243Y024060D01*
X014613Y022690D01*
X014613Y022570D01*
X014613Y016610D01*
X014613Y016110D01*
X014313Y016380D02*
X014313Y016630D01*
X014333Y016650D01*
X014333Y021350D01*
X014333Y022550D01*
X013073Y023810D01*
X011533Y023810D01*
X008793Y026550D01*
X008603Y026550D01*
X008283Y026550D01*
X007183Y027650D01*
X006183Y027650D02*
X007523Y026310D01*
X008473Y026310D01*
X011153Y023630D01*
X011263Y023520D01*
X012983Y023520D01*
X014073Y022430D01*
X014073Y021400D01*
X014073Y016640D01*
X014013Y016580D01*
X014013Y016110D01*
X013723Y016380D02*
X013723Y016570D01*
X013773Y016620D01*
X013773Y021660D01*
X012973Y021683D02*
X008923Y021683D01*
X008923Y021605D02*
X012973Y021605D01*
X012973Y021526D02*
X008923Y021526D01*
X008923Y021448D02*
X012973Y021448D01*
X012973Y021369D02*
X008923Y021369D01*
X008923Y021291D02*
X012973Y021291D01*
X012973Y021212D02*
X008923Y021212D01*
X008923Y021134D02*
X012973Y021134D01*
X012973Y021055D02*
X008923Y021055D01*
X008923Y020977D02*
X012973Y020977D01*
X012973Y020898D02*
X008923Y020898D01*
X008923Y020820D02*
X012973Y020820D01*
X012973Y020741D02*
X008923Y020741D01*
X008923Y020663D02*
X012973Y020663D01*
X012973Y020584D02*
X008923Y020584D01*
X008923Y020506D02*
X012973Y020506D01*
X012973Y020427D02*
X008923Y020427D01*
X008923Y020349D02*
X009534Y020349D01*
X009523Y020344D02*
X009429Y020250D01*
X009378Y020127D01*
X009378Y019993D01*
X009429Y019870D01*
X009523Y019776D01*
X009646Y019725D01*
X009780Y019725D01*
X009899Y019774D01*
X012290Y017384D01*
X012439Y017235D01*
X012396Y017235D01*
X012273Y017184D01*
X012179Y017090D01*
X012128Y016967D01*
X012128Y016833D01*
X012179Y016710D01*
X012223Y016666D01*
X012223Y016239D01*
X010807Y014823D01*
X010640Y014656D01*
X010580Y014597D01*
X010563Y014614D01*
X010563Y016498D01*
X010527Y016586D01*
X010459Y016653D01*
X008688Y018424D01*
X008688Y018456D01*
X008819Y018587D01*
X008887Y018654D01*
X008923Y018742D01*
X008923Y025021D01*
X010725Y023219D01*
X010780Y023164D01*
X010917Y023027D01*
X011005Y022990D01*
X012784Y022990D01*
X013028Y022746D01*
X013023Y022744D01*
X012929Y022650D01*
X012878Y022527D01*
X012878Y022393D01*
X012929Y022270D01*
X012973Y022226D01*
X012973Y017379D01*
X012629Y017723D01*
X010089Y020263D01*
X010001Y020300D01*
X009947Y020300D01*
X009903Y020344D01*
X009780Y020395D01*
X009646Y020395D01*
X009523Y020344D01*
X009449Y020270D02*
X008923Y020270D01*
X008923Y020192D02*
X009405Y020192D01*
X009378Y020113D02*
X008923Y020113D01*
X008923Y020035D02*
X009378Y020035D01*
X009394Y019956D02*
X008923Y019956D01*
X008923Y019878D02*
X009426Y019878D01*
X009500Y019799D02*
X008923Y019799D01*
X008923Y019721D02*
X009953Y019721D01*
X010032Y019642D02*
X008923Y019642D01*
X008923Y019564D02*
X010110Y019564D01*
X010189Y019485D02*
X008923Y019485D01*
X008923Y019407D02*
X010267Y019407D01*
X010346Y019328D02*
X008923Y019328D01*
X008923Y019250D02*
X010424Y019250D01*
X010503Y019171D02*
X008923Y019171D01*
X008923Y019093D02*
X010581Y019093D01*
X010660Y019014D02*
X008923Y019014D01*
X008923Y018936D02*
X010738Y018936D01*
X010817Y018857D02*
X008923Y018857D01*
X008923Y018779D02*
X010895Y018779D01*
X010974Y018700D02*
X008906Y018700D01*
X008854Y018622D02*
X011052Y018622D01*
X011131Y018543D02*
X008776Y018543D01*
X008819Y018587D02*
X008819Y018587D01*
X008697Y018465D02*
X011209Y018465D01*
X011288Y018386D02*
X008726Y018386D01*
X008805Y018308D02*
X011366Y018308D01*
X011445Y018229D02*
X008883Y018229D01*
X008962Y018151D02*
X011523Y018151D01*
X011602Y018072D02*
X009040Y018072D01*
X009119Y017994D02*
X011680Y017994D01*
X011759Y017915D02*
X009197Y017915D01*
X009276Y017837D02*
X011837Y017837D01*
X011916Y017758D02*
X009354Y017758D01*
X009433Y017680D02*
X011994Y017680D01*
X012073Y017601D02*
X009511Y017601D01*
X009590Y017523D02*
X012151Y017523D01*
X012230Y017444D02*
X009668Y017444D01*
X009747Y017366D02*
X012308Y017366D01*
X012387Y017287D02*
X009825Y017287D01*
X009904Y017209D02*
X012333Y017209D01*
X012219Y017130D02*
X009982Y017130D01*
X010061Y017052D02*
X012163Y017052D01*
X012131Y016973D02*
X010139Y016973D01*
X010218Y016895D02*
X012128Y016895D01*
X012135Y016816D02*
X010296Y016816D01*
X010375Y016738D02*
X012168Y016738D01*
X012223Y016659D02*
X010453Y016659D01*
X010529Y016581D02*
X012223Y016581D01*
X012223Y016502D02*
X010561Y016502D01*
X010563Y016424D02*
X012223Y016424D01*
X012223Y016345D02*
X010563Y016345D01*
X010563Y016267D02*
X012223Y016267D01*
X012172Y016188D02*
X010563Y016188D01*
X010563Y016110D02*
X012093Y016110D01*
X012015Y016031D02*
X010563Y016031D01*
X010563Y015953D02*
X011936Y015953D01*
X011858Y015874D02*
X010563Y015874D01*
X010563Y015796D02*
X011779Y015796D01*
X011701Y015717D02*
X010563Y015717D01*
X010563Y015639D02*
X011622Y015639D01*
X011544Y015560D02*
X010563Y015560D01*
X010563Y015482D02*
X011465Y015482D01*
X011387Y015403D02*
X010563Y015403D01*
X010563Y015325D02*
X011308Y015325D01*
X011230Y015246D02*
X010563Y015246D01*
X010563Y015168D02*
X011151Y015168D01*
X011073Y015089D02*
X010563Y015089D01*
X010563Y015011D02*
X010994Y015011D01*
X010916Y014932D02*
X010563Y014932D01*
X010563Y014854D02*
X010837Y014854D01*
X010807Y014823D02*
X010807Y014823D01*
X010759Y014775D02*
X010563Y014775D01*
X010563Y014697D02*
X010680Y014697D01*
X010640Y014656D02*
X010640Y014656D01*
X010602Y014618D02*
X010563Y014618D01*
X010843Y014520D02*
X012463Y016140D01*
X012463Y016900D01*
X012823Y016950D02*
X012823Y016670D01*
X012823Y015060D01*
X012033Y014270D01*
X011423Y013660D01*
X011423Y013530D01*
X011563Y013280D02*
X011553Y013270D01*
X009433Y013270D01*
X008933Y013270D01*
X007863Y012200D01*
X008363Y012190D02*
X008583Y012190D01*
X008893Y012500D01*
X009013Y012620D01*
X015883Y012620D01*
X016103Y012620D01*
X016443Y012620D01*
X016683Y012380D01*
X016303Y012360D02*
X016293Y012350D01*
X009243Y012350D01*
X009193Y012350D01*
X008683Y011840D01*
X007813Y011840D01*
X007723Y011840D01*
X006963Y011840D01*
X006503Y012300D01*
X006503Y012350D01*
X006183Y012580D02*
X006908Y013305D01*
X007063Y013460D01*
X007113Y013510D01*
X010243Y013510D01*
X010333Y013600D01*
X010933Y014200D01*
X010323Y014380D02*
X010323Y014420D01*
X010323Y016450D01*
X008353Y018420D01*
X008353Y018460D01*
X008683Y018790D01*
X008683Y024980D01*
X008383Y025280D01*
X008163Y025280D01*
X008923Y024980D02*
X008964Y024980D01*
X008923Y024902D02*
X009042Y024902D01*
X009121Y024823D02*
X008923Y024823D01*
X008923Y024745D02*
X009199Y024745D01*
X009278Y024666D02*
X008923Y024666D01*
X008923Y024588D02*
X009356Y024588D01*
X009435Y024509D02*
X008923Y024509D01*
X008923Y024431D02*
X009513Y024431D01*
X009592Y024352D02*
X008923Y024352D01*
X008923Y024274D02*
X009670Y024274D01*
X009749Y024195D02*
X008923Y024195D01*
X008923Y024117D02*
X009827Y024117D01*
X009906Y024038D02*
X008923Y024038D01*
X008923Y023960D02*
X009984Y023960D01*
X010063Y023881D02*
X008923Y023881D01*
X008923Y023803D02*
X010141Y023803D01*
X010220Y023724D02*
X008923Y023724D01*
X008923Y023646D02*
X010298Y023646D01*
X010377Y023567D02*
X008923Y023567D01*
X008923Y023489D02*
X010455Y023489D01*
X010534Y023410D02*
X008923Y023410D01*
X008923Y023332D02*
X010612Y023332D01*
X010691Y023253D02*
X008923Y023253D01*
X008923Y023175D02*
X010769Y023175D01*
X010848Y023096D02*
X008923Y023096D01*
X008923Y023018D02*
X010939Y023018D01*
X011053Y023230D02*
X010983Y023300D01*
X010928Y023355D01*
X008243Y026040D01*
X006793Y026040D01*
X005183Y027650D01*
X004183Y027650D02*
X004183Y027480D01*
X003473Y026770D01*
X003473Y025330D01*
X004143Y024660D01*
X004143Y016170D01*
X002963Y016040D02*
X002963Y015990D01*
X005113Y013840D01*
X005113Y010870D01*
X004873Y011120D02*
X004873Y013740D01*
X002723Y015890D01*
X002413Y015890D01*
X002773Y015500D02*
X004633Y013640D01*
X004633Y013520D01*
X004633Y010880D01*
X004288Y010536D02*
X002613Y010536D01*
X002613Y010500D02*
X002613Y010778D01*
X002604Y010814D01*
X002585Y010846D01*
X002559Y010872D01*
X002527Y010890D01*
X002492Y010900D01*
X002213Y010900D01*
X002213Y010500D01*
X002133Y010500D01*
X002133Y010420D01*
X001733Y010420D01*
X001733Y010142D01*
X001743Y010106D01*
X001761Y010074D01*
X001787Y010048D01*
X001819Y010030D01*
X001855Y010020D01*
X002133Y010020D01*
X002133Y010420D01*
X002213Y010420D01*
X002213Y010020D01*
X002492Y010020D01*
X002527Y010030D01*
X002559Y010048D01*
X002585Y010074D01*
X002604Y010106D01*
X002613Y010142D01*
X002613Y010420D01*
X002213Y010420D01*
X002213Y010500D01*
X002613Y010500D01*
X002613Y010615D02*
X004209Y010615D01*
X004131Y010693D02*
X002613Y010693D01*
X002613Y010772D02*
X004052Y010772D01*
X003974Y010850D02*
X002581Y010850D01*
X002556Y010960D02*
X002673Y011077D01*
X002673Y011220D01*
X003604Y011220D01*
X003777Y011047D01*
X004837Y009987D01*
X004925Y009950D01*
X005159Y009950D01*
X005203Y009906D01*
X005323Y009856D01*
X005323Y009830D01*
X005373Y009710D01*
X005373Y009291D01*
X005252Y009412D01*
X005062Y009490D01*
X004858Y009490D01*
X004668Y009412D01*
X004523Y009267D01*
X004445Y009078D01*
X004445Y008873D01*
X004523Y008684D01*
X004668Y008539D01*
X004858Y008461D01*
X005062Y008461D01*
X005252Y008539D01*
X005373Y008660D01*
X005373Y007920D01*
X005434Y007773D01*
X005546Y007661D01*
X005694Y007600D01*
X005853Y007600D01*
X006000Y007661D01*
X006112Y007773D01*
X006173Y007920D01*
X006173Y009644D01*
X006195Y009665D01*
X006223Y009733D01*
X006263Y009774D01*
X006263Y009730D01*
X006313Y009610D01*
X006313Y007930D01*
X006374Y007783D01*
X006387Y007770D01*
X006164Y007547D01*
X006086Y007469D01*
X006043Y007366D01*
X006043Y006186D01*
X005990Y006239D01*
X005843Y006300D01*
X005684Y006300D01*
X005536Y006239D01*
X005424Y006127D01*
X005417Y006110D01*
X005250Y005943D01*
X005247Y005950D01*
X005153Y006044D01*
X005030Y006095D01*
X004967Y006095D01*
X004749Y006313D01*
X004661Y006350D01*
X003171Y006350D01*
X003107Y006507D01*
X002910Y006703D01*
X002652Y006810D01*
X002374Y006810D01*
X002117Y006703D01*
X001920Y006507D01*
X001813Y006249D01*
X001813Y005971D01*
X001920Y005713D01*
X002117Y005517D01*
X002374Y005410D01*
X002652Y005410D01*
X002910Y005517D01*
X003107Y005713D01*
X003171Y005870D01*
X004514Y005870D01*
X004628Y005756D01*
X004628Y005693D01*
X004679Y005570D01*
X004773Y005476D01*
X004780Y005473D01*
X004717Y005410D01*
X002904Y005410D01*
X002756Y005349D01*
X001956Y004549D01*
X001844Y004437D01*
X001783Y004290D01*
X001783Y004133D01*
X001733Y004083D01*
X001733Y011017D01*
X001790Y010960D01*
X002556Y010960D01*
X002603Y011007D02*
X003817Y011007D01*
X003895Y010929D02*
X001733Y010929D01*
X001733Y011007D02*
X001743Y011007D01*
X001819Y010890D02*
X001787Y010872D01*
X001761Y010846D01*
X001743Y010814D01*
X001733Y010778D01*
X001733Y010500D01*
X002133Y010500D01*
X002133Y010900D01*
X001855Y010900D01*
X001819Y010890D01*
X001765Y010850D02*
X001733Y010850D01*
X001733Y010772D02*
X001733Y010772D01*
X001733Y010693D02*
X001733Y010693D01*
X001733Y010615D02*
X001733Y010615D01*
X001733Y010536D02*
X001733Y010536D01*
X001733Y010458D02*
X002133Y010458D01*
X002133Y010536D02*
X002213Y010536D01*
X002213Y010458D02*
X004366Y010458D01*
X004445Y010379D02*
X002613Y010379D01*
X002613Y010301D02*
X004523Y010301D01*
X004602Y010222D02*
X002613Y010222D01*
X002613Y010144D02*
X004680Y010144D01*
X004759Y010065D02*
X002576Y010065D01*
X002213Y010065D02*
X002133Y010065D01*
X002133Y010144D02*
X002213Y010144D01*
X002213Y010222D02*
X002133Y010222D01*
X002133Y010301D02*
X002213Y010301D01*
X002213Y010379D02*
X002133Y010379D01*
X002133Y010615D02*
X002213Y010615D01*
X002213Y010693D02*
X002133Y010693D01*
X002133Y010772D02*
X002213Y010772D01*
X002213Y010850D02*
X002133Y010850D01*
X002673Y011086D02*
X003738Y011086D01*
X003660Y011164D02*
X002673Y011164D01*
X002173Y011460D02*
X003703Y011460D01*
X003913Y011250D01*
X004973Y010190D01*
X005063Y010190D01*
X005393Y010190D01*
X005201Y009908D02*
X001733Y009908D01*
X001733Y009830D02*
X005323Y009830D01*
X005356Y009751D02*
X001733Y009751D01*
X001733Y009673D02*
X005373Y009673D01*
X005373Y009594D02*
X001733Y009594D01*
X001733Y009516D02*
X005373Y009516D01*
X005373Y009437D02*
X005191Y009437D01*
X005305Y009359D02*
X005373Y009359D01*
X004729Y009437D02*
X001733Y009437D01*
X001733Y009359D02*
X004615Y009359D01*
X004536Y009280D02*
X001733Y009280D01*
X001733Y009202D02*
X004496Y009202D01*
X004464Y009123D02*
X003809Y009123D01*
X003780Y009135D02*
X003646Y009135D01*
X003523Y009084D01*
X003479Y009040D01*
X002887Y009040D01*
X002843Y009084D01*
X002720Y009135D01*
X002586Y009135D01*
X002463Y009084D01*
X002369Y008990D01*
X002318Y008867D01*
X002318Y008733D01*
X002369Y008610D01*
X002463Y008516D01*
X002586Y008465D01*
X002720Y008465D01*
X002843Y008516D01*
X002887Y008560D01*
X003479Y008560D01*
X003523Y008516D01*
X003646Y008465D01*
X003780Y008465D01*
X003903Y008516D01*
X003997Y008610D01*
X004048Y008733D01*
X004048Y008867D01*
X003997Y008990D01*
X003903Y009084D01*
X003780Y009135D01*
X003618Y009123D02*
X002749Y009123D01*
X002882Y009045D02*
X003484Y009045D01*
X003713Y008800D02*
X002653Y008800D01*
X002318Y008809D02*
X001733Y008809D01*
X001733Y008731D02*
X002319Y008731D01*
X002352Y008652D02*
X001733Y008652D01*
X001733Y008574D02*
X002406Y008574D01*
X002514Y008495D02*
X001733Y008495D01*
X001733Y008417D02*
X005373Y008417D01*
X005373Y008495D02*
X005146Y008495D01*
X005286Y008574D02*
X005373Y008574D01*
X005365Y008652D02*
X005373Y008652D01*
X005373Y008338D02*
X001733Y008338D01*
X001733Y008260D02*
X005373Y008260D01*
X005373Y008181D02*
X001733Y008181D01*
X001733Y008103D02*
X005373Y008103D01*
X005373Y008024D02*
X001733Y008024D01*
X001733Y007946D02*
X003254Y007946D01*
X003229Y007935D02*
X003157Y007893D01*
X003090Y007842D01*
X003031Y007783D01*
X002980Y007716D01*
X002938Y007644D01*
X002906Y007566D01*
X002884Y007485D01*
X002873Y007402D01*
X002873Y007400D01*
X003473Y007400D01*
X003473Y007320D01*
X002873Y007320D01*
X002873Y007318D01*
X002884Y007235D01*
X002906Y007154D01*
X002938Y007076D01*
X002980Y007004D01*
X003031Y006937D01*
X003090Y006878D01*
X003157Y006827D01*
X003229Y006785D01*
X003307Y006753D01*
X003388Y006731D01*
X003471Y006720D01*
X003473Y006720D01*
X003473Y007320D01*
X003553Y007320D01*
X003553Y006720D01*
X003555Y006720D01*
X003638Y006731D01*
X003719Y006753D01*
X003797Y006785D01*
X003869Y006827D01*
X003936Y006878D01*
X003995Y006937D01*
X004046Y007004D01*
X004088Y007076D01*
X004120Y007154D01*
X004142Y007235D01*
X004153Y007318D01*
X004153Y007320D01*
X003553Y007320D01*
X003553Y007400D01*
X003473Y007400D01*
X003473Y008000D01*
X003471Y008000D01*
X003388Y007989D01*
X003307Y007967D01*
X003229Y007935D01*
X003123Y007867D02*
X001733Y007867D01*
X001733Y007789D02*
X003036Y007789D01*
X002976Y007710D02*
X001733Y007710D01*
X001733Y007632D02*
X002933Y007632D01*
X002902Y007553D02*
X001733Y007553D01*
X001733Y007475D02*
X002883Y007475D01*
X002873Y007318D02*
X001733Y007318D01*
X001733Y007396D02*
X003473Y007396D01*
X003473Y007318D02*
X003553Y007318D01*
X003553Y007396D02*
X006056Y007396D01*
X006043Y007318D02*
X004153Y007318D01*
X004143Y007239D02*
X006043Y007239D01*
X006043Y007161D02*
X004122Y007161D01*
X004091Y007082D02*
X006043Y007082D01*
X006043Y007004D02*
X004046Y007004D01*
X003983Y006925D02*
X006043Y006925D01*
X006043Y006847D02*
X003895Y006847D01*
X003756Y006768D02*
X006043Y006768D01*
X006043Y006690D02*
X002924Y006690D01*
X003002Y006611D02*
X006043Y006611D01*
X006043Y006533D02*
X003081Y006533D01*
X003128Y006454D02*
X006043Y006454D01*
X006043Y006376D02*
X003161Y006376D01*
X003270Y006768D02*
X002754Y006768D01*
X002980Y007004D02*
X001733Y007004D01*
X001733Y007082D02*
X002935Y007082D01*
X002904Y007161D02*
X001733Y007161D01*
X001733Y007239D02*
X002883Y007239D01*
X003043Y006925D02*
X001733Y006925D01*
X001733Y006847D02*
X003131Y006847D01*
X003473Y006847D02*
X003553Y006847D01*
X003553Y006925D02*
X003473Y006925D01*
X003473Y007004D02*
X003553Y007004D01*
X003553Y007082D02*
X003473Y007082D01*
X003473Y007161D02*
X003553Y007161D01*
X003553Y007239D02*
X003473Y007239D01*
X003553Y007400D02*
X004153Y007400D01*
X004153Y007402D01*
X004142Y007485D01*
X004120Y007566D01*
X004088Y007644D01*
X004046Y007716D01*
X003995Y007783D01*
X003936Y007842D01*
X003869Y007893D01*
X003797Y007935D01*
X003719Y007967D01*
X003638Y007989D01*
X003555Y008000D01*
X003553Y008000D01*
X003553Y007400D01*
X003553Y007475D02*
X003473Y007475D01*
X003473Y007553D02*
X003553Y007553D01*
X003553Y007632D02*
X003473Y007632D01*
X003473Y007710D02*
X003553Y007710D01*
X003553Y007789D02*
X003473Y007789D01*
X003473Y007867D02*
X003553Y007867D01*
X003553Y007946D02*
X003473Y007946D01*
X003772Y007946D02*
X005373Y007946D01*
X005395Y007867D02*
X003904Y007867D01*
X003990Y007789D02*
X005428Y007789D01*
X005497Y007710D02*
X004050Y007710D01*
X004093Y007632D02*
X005617Y007632D01*
X005929Y007632D02*
X006249Y007632D01*
X006327Y007710D02*
X006049Y007710D01*
X006118Y007789D02*
X006372Y007789D01*
X006339Y007867D02*
X006151Y007867D01*
X006173Y007946D02*
X006313Y007946D01*
X006313Y008024D02*
X006173Y008024D01*
X006173Y008103D02*
X006313Y008103D01*
X006313Y008181D02*
X006173Y008181D01*
X006173Y008260D02*
X006313Y008260D01*
X006313Y008338D02*
X006173Y008338D01*
X006173Y008417D02*
X006313Y008417D01*
X006313Y008495D02*
X006173Y008495D01*
X006173Y008574D02*
X006313Y008574D01*
X006313Y008652D02*
X006173Y008652D01*
X006173Y008731D02*
X006313Y008731D01*
X006313Y008809D02*
X006173Y008809D01*
X006173Y008888D02*
X006313Y008888D01*
X006313Y008966D02*
X006173Y008966D01*
X006173Y009045D02*
X006313Y009045D01*
X006313Y009123D02*
X006173Y009123D01*
X006173Y009202D02*
X006313Y009202D01*
X006313Y009280D02*
X006173Y009280D01*
X006173Y009359D02*
X006313Y009359D01*
X006313Y009437D02*
X006173Y009437D01*
X006173Y009516D02*
X006313Y009516D01*
X006313Y009594D02*
X006173Y009594D01*
X006198Y009673D02*
X006287Y009673D01*
X006263Y009751D02*
X006240Y009751D01*
X007113Y009584D02*
X007113Y009174D01*
X007116Y009175D01*
X007230Y009175D01*
X007269Y009270D01*
X007363Y009364D01*
X007486Y009415D01*
X007620Y009415D01*
X007743Y009364D01*
X007837Y009270D01*
X007888Y009147D01*
X007888Y009016D01*
X007966Y009048D01*
X008120Y009048D01*
X008263Y008989D01*
X008372Y008880D01*
X008431Y008737D01*
X008431Y008583D01*
X008372Y008440D01*
X008323Y008391D01*
X008323Y007794D01*
X008280Y007691D01*
X008020Y007431D01*
X007942Y007353D01*
X007839Y007310D01*
X006719Y007310D01*
X006603Y007194D01*
X006603Y005734D01*
X006560Y005631D01*
X005079Y004150D01*
X005566Y004150D01*
X005683Y004033D01*
X005683Y003267D01*
X005616Y003200D01*
X005750Y003200D01*
X005683Y003267D01*
X005683Y004033D01*
X005800Y004150D01*
X006566Y004150D01*
X006683Y004033D01*
X006683Y003267D01*
X006616Y003200D01*
X006750Y003200D01*
X006683Y003267D01*
X006683Y004033D01*
X006800Y004150D01*
X007566Y004150D01*
X007683Y004033D01*
X007683Y003267D01*
X007616Y003200D01*
X007750Y003200D01*
X007683Y003267D01*
X007683Y004033D01*
X007800Y004150D01*
X008566Y004150D01*
X008683Y004033D01*
X008683Y003267D01*
X008616Y003200D01*
X008750Y003200D01*
X008683Y003267D01*
X008683Y004033D01*
X008800Y004150D01*
X009566Y004150D01*
X009683Y004033D01*
X009683Y003267D01*
X009616Y003200D01*
X009750Y003200D01*
X009683Y003267D01*
X009683Y004033D01*
X009800Y004150D01*
X010566Y004150D01*
X010683Y004033D01*
X010683Y003267D01*
X010616Y003200D01*
X010750Y003200D01*
X010683Y003267D01*
X010683Y004033D01*
X010800Y004150D01*
X011566Y004150D01*
X011683Y004033D01*
X011683Y003267D01*
X011616Y003200D01*
X011750Y003200D01*
X011683Y003267D01*
X011683Y004033D01*
X011732Y004082D01*
X011227Y004587D01*
X011160Y004654D01*
X011123Y004742D01*
X011123Y006271D01*
X009654Y007740D01*
X008957Y007740D01*
X008913Y007696D01*
X008790Y007645D01*
X008656Y007645D01*
X008533Y007696D01*
X008439Y007790D01*
X008388Y007913D01*
X008388Y008047D01*
X008439Y008170D01*
X008533Y008264D01*
X008656Y008315D01*
X008790Y008315D01*
X008826Y008300D01*
X008841Y008300D01*
X008929Y008263D01*
X008972Y008220D01*
X009801Y008220D01*
X009889Y008183D01*
X009957Y008116D01*
X011403Y006669D01*
X011403Y007656D01*
X011383Y007636D01*
X011260Y007585D01*
X011126Y007585D01*
X011003Y007636D01*
X010909Y007730D01*
X010858Y007853D01*
X010858Y007916D01*
X010850Y007924D01*
X010813Y008012D01*
X010813Y009086D01*
X010739Y009160D01*
X010688Y009283D01*
X010688Y009356D01*
X010309Y008977D01*
X010221Y008940D01*
X009177Y008940D01*
X009133Y008896D01*
X009010Y008845D01*
X008876Y008845D01*
X008753Y008896D01*
X008659Y008990D01*
X008608Y009113D01*
X008608Y009247D01*
X008659Y009370D01*
X008753Y009464D01*
X008876Y009515D01*
X008928Y009515D01*
X008928Y009527D01*
X008979Y009650D01*
X009073Y009744D01*
X009196Y009795D01*
X009330Y009795D01*
X009453Y009744D01*
X009497Y009700D01*
X009964Y009700D01*
X010230Y009966D01*
X010230Y009966D01*
X010297Y010033D01*
X010385Y010070D01*
X011281Y010070D01*
X011369Y010033D01*
X011889Y009513D01*
X011889Y009513D01*
X011931Y009471D01*
X011939Y009490D01*
X011981Y009532D01*
X011930Y009584D01*
X011893Y009672D01*
X011893Y009746D01*
X011859Y009780D01*
X011808Y009903D01*
X011808Y010037D01*
X011834Y010100D01*
X007629Y010100D01*
X007113Y009584D01*
X007123Y009594D02*
X008956Y009594D01*
X008928Y009516D02*
X007113Y009516D01*
X007113Y009437D02*
X008726Y009437D01*
X008654Y009359D02*
X007748Y009359D01*
X007827Y009280D02*
X008622Y009280D01*
X008608Y009202D02*
X007865Y009202D01*
X007888Y009123D02*
X008608Y009123D01*
X008637Y009045D02*
X008129Y009045D01*
X007957Y009045D02*
X007888Y009045D01*
X007553Y009080D02*
X007553Y008130D01*
X007693Y007990D01*
X007183Y007980D02*
X007183Y008840D01*
X007241Y009202D02*
X007113Y009202D01*
X007113Y009280D02*
X007279Y009280D01*
X007358Y009359D02*
X007113Y009359D01*
X007202Y009673D02*
X009002Y009673D01*
X009090Y009751D02*
X007280Y009751D01*
X007359Y009830D02*
X010093Y009830D01*
X010172Y009908D02*
X007437Y009908D01*
X007516Y009987D02*
X010250Y009987D01*
X010373Y010065D02*
X007594Y010065D01*
X008286Y008966D02*
X008683Y008966D01*
X008774Y008888D02*
X008364Y008888D01*
X008401Y008809D02*
X010813Y008809D01*
X010813Y008731D02*
X008431Y008731D01*
X008431Y008652D02*
X010813Y008652D01*
X010813Y008574D02*
X008427Y008574D01*
X008395Y008495D02*
X010813Y008495D01*
X010813Y008417D02*
X008348Y008417D01*
X008323Y008338D02*
X010813Y008338D01*
X010813Y008260D02*
X008933Y008260D01*
X008793Y008060D02*
X008723Y007990D01*
X008723Y007980D01*
X009753Y007980D01*
X011363Y006370D01*
X011363Y004790D01*
X012183Y003970D01*
X012183Y003650D01*
X011683Y003628D02*
X011683Y003628D01*
X011683Y003550D02*
X011683Y003550D01*
X011683Y003471D02*
X011683Y003471D01*
X011683Y003393D02*
X011683Y003393D01*
X011683Y003314D02*
X011683Y003314D01*
X011651Y003236D02*
X011715Y003236D01*
X011683Y003707D02*
X011683Y003707D01*
X011683Y003785D02*
X011683Y003785D01*
X011683Y003864D02*
X011683Y003864D01*
X011683Y003942D02*
X011683Y003942D01*
X011683Y004021D02*
X011683Y004021D01*
X011715Y004099D02*
X011617Y004099D01*
X011636Y004178D02*
X005107Y004178D01*
X005185Y004256D02*
X011558Y004256D01*
X011479Y004335D02*
X005264Y004335D01*
X005342Y004413D02*
X011401Y004413D01*
X011322Y004492D02*
X005421Y004492D01*
X005499Y004570D02*
X011244Y004570D01*
X011165Y004649D02*
X005578Y004649D01*
X005656Y004727D02*
X011129Y004727D01*
X011123Y004806D02*
X005735Y004806D01*
X005813Y004884D02*
X011123Y004884D01*
X011123Y004963D02*
X005892Y004963D01*
X005970Y005041D02*
X011123Y005041D01*
X011123Y005120D02*
X006049Y005120D01*
X006127Y005198D02*
X011123Y005198D01*
X011123Y005277D02*
X006206Y005277D01*
X006284Y005355D02*
X011123Y005355D01*
X011123Y005434D02*
X006363Y005434D01*
X006441Y005512D02*
X011123Y005512D01*
X011123Y005591D02*
X006520Y005591D01*
X006576Y005669D02*
X011123Y005669D01*
X011123Y005748D02*
X006603Y005748D01*
X006603Y005826D02*
X011123Y005826D01*
X011123Y005905D02*
X006603Y005905D01*
X006603Y005983D02*
X011123Y005983D01*
X011123Y006062D02*
X006603Y006062D01*
X006603Y006140D02*
X011123Y006140D01*
X011123Y006219D02*
X006603Y006219D01*
X006603Y006297D02*
X011097Y006297D01*
X011018Y006376D02*
X006603Y006376D01*
X006603Y006454D02*
X010940Y006454D01*
X010861Y006533D02*
X006603Y006533D01*
X006603Y006611D02*
X010783Y006611D01*
X010704Y006690D02*
X006603Y006690D01*
X006603Y006768D02*
X010626Y006768D01*
X010547Y006847D02*
X006603Y006847D01*
X006603Y006925D02*
X010469Y006925D01*
X010390Y007004D02*
X006603Y007004D01*
X006603Y007082D02*
X010312Y007082D01*
X010233Y007161D02*
X006603Y007161D01*
X006648Y007239D02*
X010155Y007239D01*
X010076Y007318D02*
X007857Y007318D01*
X007985Y007396D02*
X009998Y007396D01*
X009919Y007475D02*
X008064Y007475D01*
X008142Y007553D02*
X009841Y007553D01*
X009762Y007632D02*
X008221Y007632D01*
X008288Y007710D02*
X008519Y007710D01*
X008441Y007789D02*
X008321Y007789D01*
X008323Y007867D02*
X008407Y007867D01*
X008388Y007946D02*
X008323Y007946D01*
X008323Y008024D02*
X008388Y008024D01*
X008411Y008103D02*
X008323Y008103D01*
X008323Y008181D02*
X008450Y008181D01*
X008529Y008260D02*
X008323Y008260D01*
X008927Y007710D02*
X009684Y007710D01*
X010048Y008024D02*
X010813Y008024D01*
X010813Y008103D02*
X009970Y008103D01*
X009891Y008181D02*
X010813Y008181D01*
X010841Y007946D02*
X010127Y007946D01*
X010205Y007867D02*
X010858Y007867D01*
X010885Y007789D02*
X010284Y007789D01*
X010362Y007710D02*
X010929Y007710D01*
X011014Y007632D02*
X010441Y007632D01*
X010519Y007553D02*
X011403Y007553D01*
X011403Y007475D02*
X010598Y007475D01*
X010676Y007396D02*
X011403Y007396D01*
X011403Y007318D02*
X010755Y007318D01*
X010833Y007239D02*
X011403Y007239D01*
X011403Y007161D02*
X010912Y007161D01*
X010990Y007082D02*
X011403Y007082D01*
X011403Y007004D02*
X011069Y007004D01*
X011147Y006925D02*
X011403Y006925D01*
X011403Y006847D02*
X011226Y006847D01*
X011304Y006768D02*
X011403Y006768D01*
X011403Y006690D02*
X011383Y006690D01*
X011372Y007632D02*
X011403Y007632D01*
X011193Y007920D02*
X011053Y008060D01*
X011053Y009320D01*
X011023Y009350D01*
X011163Y009610D02*
X010603Y009610D01*
X010173Y009180D01*
X008943Y009180D01*
X009112Y008888D02*
X010813Y008888D01*
X010813Y008966D02*
X010284Y008966D01*
X010377Y009045D02*
X010813Y009045D01*
X010776Y009123D02*
X010456Y009123D01*
X010534Y009202D02*
X010722Y009202D01*
X010689Y009280D02*
X010613Y009280D01*
X011163Y009610D02*
X011783Y008990D01*
X011923Y008850D01*
X011923Y005040D01*
X013183Y003780D01*
X013183Y003650D01*
X013193Y004180D02*
X012743Y004630D01*
X012083Y005290D01*
X012083Y008980D01*
X012033Y009030D01*
X011893Y009170D01*
X011753Y009310D01*
X011233Y009830D01*
X010433Y009830D01*
X010063Y009460D01*
X009263Y009460D01*
X009436Y009751D02*
X010015Y009751D01*
X011293Y010065D02*
X011820Y010065D01*
X011808Y009987D02*
X011416Y009987D01*
X011494Y009908D02*
X011808Y009908D01*
X011839Y009830D02*
X011573Y009830D01*
X011651Y009751D02*
X011888Y009751D01*
X011893Y009673D02*
X011730Y009673D01*
X011808Y009594D02*
X011925Y009594D01*
X011887Y009516D02*
X011965Y009516D01*
X012133Y009720D02*
X012173Y009680D01*
X012723Y009680D01*
X012803Y009600D01*
X012873Y009530D01*
X012873Y009410D01*
X012873Y008990D01*
X012873Y006870D01*
X012873Y006570D01*
X013533Y005910D01*
X016653Y005910D01*
X017453Y005110D01*
X017453Y004380D01*
X017673Y004160D01*
X018183Y003650D01*
X017183Y003650D02*
X017183Y003480D01*
X016903Y003200D01*
X014743Y003200D01*
X014683Y003260D01*
X014683Y003950D01*
X014503Y004130D01*
X014003Y004130D01*
X013723Y004410D01*
X013383Y004410D01*
X013213Y004410D01*
X013183Y004440D01*
X012743Y004880D01*
X012743Y005050D01*
X012743Y005390D01*
X013293Y005220D02*
X013673Y005220D01*
X014853Y004040D01*
X015183Y003710D01*
X015183Y003650D01*
X015783Y004050D02*
X015783Y004950D01*
X015143Y005190D02*
X014623Y005190D01*
X014403Y004970D01*
X014513Y005080D01*
X015143Y005190D02*
X016433Y005190D01*
X016713Y005190D01*
X016953Y004950D01*
X016913Y004990D01*
X015783Y004050D02*
X016183Y003650D01*
X014183Y003650D02*
X014063Y003650D01*
X013993Y003650D01*
X013463Y004180D01*
X013193Y004180D01*
X013073Y004980D02*
X013553Y004980D01*
X013603Y004930D01*
X014123Y004410D01*
X014123Y004390D01*
X013293Y005220D02*
X012243Y006270D01*
X012243Y009280D01*
X012223Y009300D01*
X011893Y009170D02*
X011833Y009230D01*
X012133Y009720D02*
X012133Y009730D01*
X012133Y009960D01*
X012143Y009970D01*
X012452Y010100D02*
X015729Y010100D01*
X015649Y010020D01*
X015598Y009897D01*
X015598Y009763D01*
X015649Y009640D01*
X015743Y009546D01*
X015854Y009500D01*
X015811Y009500D01*
X015112Y009500D01*
X015078Y009534D01*
X015078Y009597D01*
X015027Y009720D01*
X014933Y009814D01*
X014810Y009865D01*
X014676Y009865D01*
X014553Y009814D01*
X014459Y009720D01*
X014408Y009597D01*
X014408Y009463D01*
X014459Y009340D01*
X014539Y009260D01*
X013935Y009260D01*
X013847Y009223D01*
X013603Y008979D01*
X013603Y009211D01*
X013607Y009215D01*
X013670Y009215D01*
X013793Y009266D01*
X013887Y009360D01*
X013938Y009483D01*
X013938Y009617D01*
X013887Y009740D01*
X013793Y009834D01*
X013670Y009885D01*
X013536Y009885D01*
X013413Y009834D01*
X013393Y009814D01*
X013373Y009834D01*
X013250Y009885D01*
X013116Y009885D01*
X012993Y009834D01*
X012951Y009792D01*
X012939Y009803D01*
X012859Y009883D01*
X012771Y009920D01*
X012478Y009920D01*
X012478Y010037D01*
X012452Y010100D01*
X012466Y010065D02*
X015694Y010065D01*
X015635Y009987D02*
X012478Y009987D01*
X012800Y009908D02*
X015603Y009908D01*
X015598Y009830D02*
X014895Y009830D01*
X014996Y009751D02*
X015603Y009751D01*
X015636Y009673D02*
X015047Y009673D01*
X015078Y009594D02*
X015695Y009594D01*
X015817Y009516D02*
X015097Y009516D01*
X014993Y009280D02*
X015013Y009260D01*
X015763Y009260D01*
X024913Y009260D01*
X025213Y009510D02*
X016253Y009510D01*
X016193Y009570D01*
X015933Y009830D01*
X016193Y009570D02*
X016223Y009540D01*
X016873Y009920D02*
X017033Y009760D01*
X017523Y009760D01*
X017583Y009700D01*
X017813Y009700D01*
X017953Y009700D01*
X018013Y009760D01*
X025823Y009760D01*
X026413Y009170D01*
X029583Y009170D01*
X030303Y008450D01*
X030833Y008150D02*
X017203Y008150D01*
X017083Y008030D01*
X017013Y008330D02*
X016753Y008070D01*
X016442Y007946D02*
X014947Y007946D01*
X014958Y007973D02*
X014958Y008036D01*
X015432Y008510D01*
X016213Y008510D01*
X016178Y008427D01*
X016178Y008293D01*
X016229Y008170D01*
X016323Y008076D01*
X016418Y008037D01*
X016418Y008003D01*
X016469Y007880D01*
X016563Y007786D01*
X016686Y007735D01*
X016820Y007735D01*
X016880Y007760D01*
X016893Y007746D01*
X017016Y007695D01*
X017150Y007695D01*
X017174Y007705D01*
X017263Y007616D01*
X017386Y007565D01*
X017520Y007565D01*
X017643Y007616D01*
X017687Y007660D01*
X031199Y007660D01*
X031243Y007616D01*
X031366Y007565D01*
X031473Y007565D01*
X031473Y006249D01*
X031284Y006060D01*
X030847Y006060D01*
X030803Y006104D01*
X030680Y006155D01*
X030546Y006155D01*
X030423Y006104D01*
X030329Y006010D01*
X030278Y005887D01*
X030278Y005790D01*
X027521Y005790D01*
X027318Y005993D01*
X027318Y006027D01*
X027267Y006150D01*
X027173Y006244D01*
X027050Y006295D01*
X026916Y006295D01*
X026793Y006244D01*
X026783Y006234D01*
X026783Y006476D01*
X026827Y006520D01*
X026878Y006643D01*
X026878Y006777D01*
X026827Y006900D01*
X026733Y006994D01*
X026610Y007045D01*
X026476Y007045D01*
X026353Y006994D01*
X026259Y006900D01*
X026208Y006777D01*
X026208Y006643D01*
X026259Y006520D01*
X026303Y006476D01*
X026303Y004150D01*
X025800Y004150D01*
X025683Y004033D01*
X025566Y004150D01*
X024800Y004150D01*
X024683Y004033D01*
X024566Y004150D01*
X024423Y004150D01*
X024423Y004868D01*
X024387Y004956D01*
X023868Y005474D01*
X023868Y005537D01*
X023817Y005660D01*
X023723Y005754D01*
X023600Y005805D01*
X023466Y005805D01*
X023343Y005754D01*
X023249Y005660D01*
X023198Y005537D01*
X023198Y005403D01*
X023249Y005280D01*
X023343Y005186D01*
X023466Y005135D01*
X023529Y005135D01*
X023943Y004721D01*
X023943Y004150D01*
X023800Y004150D01*
X023683Y004033D01*
X023566Y004150D01*
X023022Y004150D01*
X022923Y004249D01*
X022923Y004288D01*
X023001Y004210D01*
X023143Y004210D01*
X023143Y004610D01*
X023223Y004610D01*
X023223Y004210D01*
X023365Y004210D01*
X023623Y004468D01*
X023623Y004610D01*
X023223Y004610D01*
X023223Y004690D01*
X023143Y004690D01*
X023143Y005090D01*
X023001Y005090D01*
X022923Y005012D01*
X022923Y005078D01*
X022887Y005166D01*
X022819Y005233D01*
X022179Y005873D01*
X022099Y005953D01*
X022011Y005990D01*
X020882Y005990D01*
X019779Y007093D01*
X019691Y007130D01*
X013682Y007130D01*
X013603Y007209D01*
X013603Y007681D01*
X013616Y007675D01*
X013750Y007675D01*
X013873Y007726D01*
X013967Y007820D01*
X014018Y007943D01*
X014018Y008073D01*
X014036Y008065D01*
X014170Y008065D01*
X014292Y008116D01*
X014288Y008107D01*
X014288Y007973D01*
X014339Y007850D01*
X014433Y007756D01*
X014556Y007705D01*
X014690Y007705D01*
X014813Y007756D01*
X014907Y007850D01*
X014958Y007973D01*
X014958Y008024D02*
X016418Y008024D01*
X016297Y008103D02*
X015025Y008103D01*
X015103Y008181D02*
X016225Y008181D01*
X016192Y008260D02*
X015182Y008260D01*
X015260Y008338D02*
X016178Y008338D01*
X016178Y008417D02*
X015339Y008417D01*
X015418Y008495D02*
X016206Y008495D01*
X016513Y008360D02*
X016663Y008510D01*
X016723Y008510D01*
X025173Y008510D01*
X025463Y008510D01*
X026043Y009090D01*
X026523Y009320D02*
X030003Y009320D01*
X030263Y009320D01*
X031133Y008450D01*
X030963Y007900D02*
X031433Y007900D01*
X031228Y007632D02*
X017658Y007632D01*
X017453Y007900D02*
X030963Y007900D01*
X031473Y007553D02*
X013603Y007553D01*
X013603Y007475D02*
X031473Y007475D01*
X031473Y007396D02*
X013603Y007396D01*
X013603Y007318D02*
X031473Y007318D01*
X031473Y007239D02*
X013603Y007239D01*
X013652Y007161D02*
X031473Y007161D01*
X031473Y007082D02*
X019790Y007082D01*
X019869Y007004D02*
X026376Y007004D01*
X026284Y006925D02*
X019947Y006925D01*
X020026Y006847D02*
X026237Y006847D01*
X026208Y006768D02*
X020104Y006768D01*
X020183Y006690D02*
X026208Y006690D01*
X026221Y006611D02*
X020261Y006611D01*
X020340Y006533D02*
X026254Y006533D01*
X026303Y006454D02*
X020418Y006454D01*
X020413Y006550D02*
X022423Y006550D01*
X022983Y005990D01*
X023103Y005870D01*
X023103Y004730D01*
X023183Y004650D01*
X023223Y004649D02*
X023943Y004649D01*
X023937Y004727D02*
X023623Y004727D01*
X023623Y004690D02*
X023623Y004832D01*
X023365Y005090D01*
X023223Y005090D01*
X023223Y004690D01*
X023623Y004690D01*
X023623Y004806D02*
X023858Y004806D01*
X023780Y004884D02*
X023571Y004884D01*
X023493Y004963D02*
X023701Y004963D01*
X023623Y005041D02*
X023414Y005041D01*
X023544Y005120D02*
X022906Y005120D01*
X022923Y005041D02*
X022952Y005041D01*
X022854Y005198D02*
X023331Y005198D01*
X023253Y005277D02*
X022776Y005277D01*
X022697Y005355D02*
X023218Y005355D01*
X023198Y005434D02*
X022619Y005434D01*
X022540Y005512D02*
X023198Y005512D01*
X023220Y005591D02*
X022462Y005591D01*
X022383Y005669D02*
X023258Y005669D01*
X023337Y005748D02*
X022305Y005748D01*
X022226Y005826D02*
X026303Y005826D01*
X026303Y005748D02*
X023729Y005748D01*
X023808Y005669D02*
X026303Y005669D01*
X026303Y005591D02*
X023846Y005591D01*
X023868Y005512D02*
X026303Y005512D01*
X026303Y005434D02*
X023909Y005434D01*
X023987Y005355D02*
X026303Y005355D01*
X026303Y005277D02*
X024066Y005277D01*
X024144Y005198D02*
X026303Y005198D01*
X026303Y005120D02*
X024223Y005120D01*
X024301Y005041D02*
X026303Y005041D01*
X026303Y004963D02*
X024380Y004963D01*
X024416Y004884D02*
X026303Y004884D01*
X026303Y004806D02*
X024423Y004806D01*
X024423Y004727D02*
X026303Y004727D01*
X026303Y004649D02*
X024423Y004649D01*
X024423Y004570D02*
X026303Y004570D01*
X026303Y004492D02*
X024423Y004492D01*
X024423Y004413D02*
X026303Y004413D01*
X026303Y004335D02*
X024423Y004335D01*
X024423Y004256D02*
X026303Y004256D01*
X026303Y004178D02*
X024423Y004178D01*
X024617Y004099D02*
X024749Y004099D01*
X024683Y004033D02*
X024683Y003267D01*
X024683Y004033D01*
X024683Y004021D02*
X024683Y004021D01*
X024683Y003942D02*
X024683Y003942D01*
X024683Y003864D02*
X024683Y003864D01*
X024683Y003785D02*
X024683Y003785D01*
X024683Y003707D02*
X024683Y003707D01*
X024683Y003628D02*
X024683Y003628D01*
X024683Y003550D02*
X024683Y003550D01*
X024683Y003471D02*
X024683Y003471D01*
X024683Y003393D02*
X024683Y003393D01*
X024683Y003314D02*
X024683Y003314D01*
X024683Y003267D02*
X024616Y003200D01*
X024750Y003200D01*
X024683Y003267D01*
X024651Y003236D02*
X024715Y003236D01*
X024183Y003650D02*
X024183Y004820D01*
X023533Y005470D01*
X023223Y005041D02*
X023143Y005041D01*
X023143Y004963D02*
X023223Y004963D01*
X023223Y004884D02*
X023143Y004884D01*
X023143Y004806D02*
X023223Y004806D01*
X023223Y004727D02*
X023143Y004727D01*
X023143Y004570D02*
X023223Y004570D01*
X023223Y004492D02*
X023143Y004492D01*
X023143Y004413D02*
X023223Y004413D01*
X023223Y004335D02*
X023143Y004335D01*
X023143Y004256D02*
X023223Y004256D01*
X023411Y004256D02*
X023943Y004256D01*
X023943Y004178D02*
X022995Y004178D01*
X022955Y004256D02*
X022923Y004256D01*
X022683Y004150D02*
X022683Y005030D01*
X022043Y005670D01*
X021963Y005750D01*
X020783Y005750D01*
X019643Y006890D01*
X013583Y006890D01*
X013363Y007110D01*
X013363Y008730D01*
X013363Y009100D01*
X013363Y009310D01*
X013603Y009550D01*
X013915Y009673D02*
X014440Y009673D01*
X014408Y009594D02*
X013938Y009594D01*
X013938Y009516D02*
X014408Y009516D01*
X014419Y009437D02*
X013919Y009437D01*
X013885Y009359D02*
X014451Y009359D01*
X014519Y009280D02*
X013807Y009280D01*
X013825Y009202D02*
X013603Y009202D01*
X013603Y009123D02*
X013747Y009123D01*
X013668Y009045D02*
X013603Y009045D01*
X013683Y008720D02*
X013983Y009020D01*
X015393Y009020D01*
X024563Y009020D01*
X024913Y008750D02*
X015393Y008750D01*
X015333Y008750D01*
X014623Y008040D01*
X014288Y008024D02*
X014018Y008024D01*
X014018Y007946D02*
X014300Y007946D01*
X014332Y007867D02*
X013986Y007867D01*
X013935Y007789D02*
X014401Y007789D01*
X014544Y007710D02*
X013834Y007710D01*
X013603Y007632D02*
X017248Y007632D01*
X016980Y007710D02*
X014702Y007710D01*
X014845Y007789D02*
X016561Y007789D01*
X016482Y007867D02*
X014914Y007867D01*
X014288Y008103D02*
X014260Y008103D01*
X014413Y008400D02*
X014103Y008400D01*
X014413Y008400D02*
X014643Y008630D01*
X014993Y009280D02*
X014743Y009530D01*
X014490Y009751D02*
X013876Y009751D01*
X013797Y009830D02*
X014591Y009830D01*
X013409Y009830D02*
X013377Y009830D01*
X013183Y009550D02*
X013123Y009490D01*
X013123Y009290D01*
X013123Y006830D01*
X013423Y006530D01*
X019623Y006530D01*
X020453Y005700D01*
X020453Y005300D01*
X020683Y005070D01*
X020683Y004150D01*
X021183Y003650D01*
X021703Y004130D02*
X022183Y003650D01*
X021703Y004130D02*
X021703Y005410D01*
X022179Y005873D02*
X022179Y005873D01*
X022148Y005905D02*
X026303Y005905D01*
X026303Y005983D02*
X022028Y005983D01*
X020811Y006062D02*
X026303Y006062D01*
X026303Y006140D02*
X020732Y006140D01*
X020654Y006219D02*
X026303Y006219D01*
X026303Y006297D02*
X020575Y006297D01*
X020497Y006376D02*
X026303Y006376D01*
X026543Y006710D02*
X026543Y004010D01*
X026183Y003650D01*
X025683Y003628D02*
X025683Y003628D01*
X025683Y003550D02*
X025683Y003550D01*
X025683Y003471D02*
X025683Y003471D01*
X025683Y003393D02*
X025683Y003393D01*
X025683Y003314D02*
X025683Y003314D01*
X025683Y003267D02*
X025683Y004033D01*
X025683Y003267D01*
X025616Y003200D01*
X025750Y003200D01*
X025683Y003267D01*
X025651Y003236D02*
X025715Y003236D01*
X025683Y003707D02*
X025683Y003707D01*
X025683Y003785D02*
X025683Y003785D01*
X025683Y003864D02*
X025683Y003864D01*
X025683Y003942D02*
X025683Y003942D01*
X025683Y004021D02*
X025683Y004021D01*
X025617Y004099D02*
X025749Y004099D01*
X026783Y004133D02*
X026783Y005686D01*
X026793Y005676D01*
X026916Y005625D01*
X026950Y005625D01*
X027266Y005310D01*
X027361Y005270D01*
X030558Y005270D01*
X030558Y005153D01*
X030609Y005030D01*
X030703Y004936D01*
X030826Y004885D01*
X030960Y004885D01*
X031083Y004936D01*
X031127Y004980D01*
X032784Y004980D01*
X033180Y004584D01*
X033247Y004517D01*
X033335Y004480D01*
X036381Y004480D01*
X036469Y004517D01*
X036743Y004791D01*
X036743Y004690D01*
X037143Y004690D01*
X037143Y004610D01*
X036743Y004610D01*
X036743Y004468D01*
X037001Y004210D01*
X037143Y004210D01*
X037143Y004610D01*
X037223Y004610D01*
X037223Y004210D01*
X037365Y004210D01*
X037623Y004468D01*
X037623Y004610D01*
X037223Y004610D01*
X037223Y004690D01*
X037143Y004690D01*
X037143Y005090D01*
X037042Y005090D01*
X037449Y005497D01*
X037517Y005564D01*
X037553Y005652D01*
X037553Y006408D01*
X037553Y011671D01*
X037633Y011751D01*
X037633Y003513D01*
X037623Y003486D01*
X037623Y003610D01*
X037223Y003610D01*
X037223Y003210D01*
X037348Y003210D01*
X037320Y003200D01*
X036616Y003200D01*
X036683Y003267D01*
X036683Y004033D01*
X036566Y004150D01*
X035800Y004150D01*
X035683Y004033D01*
X035566Y004150D01*
X034800Y004150D01*
X034683Y004033D01*
X034566Y004150D01*
X033800Y004150D01*
X033683Y004033D01*
X033566Y004150D01*
X032800Y004150D01*
X032683Y004033D01*
X032566Y004150D01*
X031800Y004150D01*
X031683Y004033D01*
X031566Y004150D01*
X030800Y004150D01*
X030683Y004033D01*
X030566Y004150D01*
X029800Y004150D01*
X029683Y004033D01*
X029566Y004150D01*
X028800Y004150D01*
X028683Y004033D01*
X028566Y004150D01*
X027800Y004150D01*
X027683Y004033D01*
X027566Y004150D01*
X026800Y004150D01*
X026783Y004133D01*
X026783Y004178D02*
X037633Y004178D01*
X037633Y004256D02*
X037411Y004256D01*
X037490Y004335D02*
X037633Y004335D01*
X037633Y004413D02*
X037568Y004413D01*
X037623Y004492D02*
X037633Y004492D01*
X037623Y004570D02*
X037633Y004570D01*
X037633Y004649D02*
X037223Y004649D01*
X037223Y004690D02*
X037623Y004690D01*
X037623Y004832D01*
X037365Y005090D01*
X037223Y005090D01*
X037223Y004690D01*
X037223Y004727D02*
X037143Y004727D01*
X037143Y004649D02*
X036601Y004649D01*
X036679Y004727D02*
X036743Y004727D01*
X036743Y004570D02*
X036522Y004570D01*
X036409Y004492D02*
X036743Y004492D01*
X036798Y004413D02*
X026783Y004413D01*
X026783Y004335D02*
X036876Y004335D01*
X036955Y004256D02*
X026783Y004256D01*
X026783Y004492D02*
X033308Y004492D01*
X033194Y004570D02*
X026783Y004570D01*
X026783Y004649D02*
X033115Y004649D01*
X033037Y004727D02*
X026783Y004727D01*
X026783Y004806D02*
X032958Y004806D01*
X032880Y004884D02*
X026783Y004884D01*
X026783Y004963D02*
X030677Y004963D01*
X030605Y005041D02*
X026783Y005041D01*
X026783Y005120D02*
X030572Y005120D01*
X030558Y005198D02*
X026783Y005198D01*
X026783Y005277D02*
X027346Y005277D01*
X027220Y005355D02*
X026783Y005355D01*
X026783Y005434D02*
X027142Y005434D01*
X027063Y005512D02*
X026783Y005512D01*
X026783Y005591D02*
X026985Y005591D01*
X026810Y005669D02*
X026783Y005669D01*
X027198Y006219D02*
X031442Y006219D01*
X031473Y006297D02*
X026783Y006297D01*
X026783Y006376D02*
X031473Y006376D01*
X031473Y006454D02*
X026783Y006454D01*
X026832Y006533D02*
X031473Y006533D01*
X031473Y006611D02*
X026865Y006611D01*
X026878Y006690D02*
X031473Y006690D01*
X031473Y006768D02*
X026878Y006768D01*
X026849Y006847D02*
X031473Y006847D01*
X031473Y006925D02*
X026802Y006925D01*
X026710Y007004D02*
X031473Y007004D01*
X032173Y007004D02*
X037073Y007004D01*
X037073Y007082D02*
X032173Y007082D01*
X032173Y007161D02*
X037073Y007161D01*
X037073Y007239D02*
X032173Y007239D01*
X032173Y007318D02*
X037073Y007318D01*
X037073Y007396D02*
X032173Y007396D01*
X032173Y007475D02*
X037073Y007475D01*
X037073Y007553D02*
X032173Y007553D01*
X032173Y007632D02*
X037073Y007632D01*
X037073Y007710D02*
X032173Y007710D01*
X032173Y007789D02*
X037073Y007789D01*
X037073Y007867D02*
X032173Y007867D01*
X032173Y007946D02*
X037073Y007946D01*
X037073Y008024D02*
X032173Y008024D01*
X032173Y008103D02*
X032270Y008103D01*
X032175Y008181D02*
X032173Y008181D01*
X032676Y008103D02*
X037073Y008103D01*
X037073Y008181D02*
X035685Y008181D01*
X035691Y008186D02*
X035709Y008218D01*
X035719Y008254D01*
X035719Y008407D01*
X035444Y008407D01*
X035444Y008407D01*
X035444Y008132D01*
X035597Y008132D01*
X035633Y008142D01*
X035665Y008160D01*
X035691Y008186D01*
X035719Y008260D02*
X037073Y008260D01*
X037073Y008338D02*
X035719Y008338D01*
X035719Y008407D02*
X035719Y008561D01*
X035716Y008570D01*
X035719Y008579D01*
X035719Y008732D01*
X035444Y008732D01*
X035444Y008732D01*
X035444Y008407D01*
X035444Y008407D01*
X035719Y008407D01*
X035719Y008417D02*
X037073Y008417D01*
X037073Y008495D02*
X035719Y008495D01*
X035717Y008574D02*
X037073Y008574D01*
X037073Y008652D02*
X035719Y008652D01*
X035719Y008731D02*
X037073Y008731D01*
X037073Y008809D02*
X035719Y008809D01*
X035719Y008732D02*
X035719Y008886D01*
X035709Y008921D01*
X035691Y008953D01*
X035665Y008979D01*
X035633Y008998D01*
X035597Y009007D01*
X035444Y009007D01*
X035444Y008732D01*
X035444Y008732D01*
X035719Y008732D01*
X035718Y008888D02*
X037073Y008888D01*
X037073Y008966D02*
X035678Y008966D01*
X035444Y008966D02*
X035444Y008966D01*
X035444Y009007D02*
X035290Y009007D01*
X035255Y008998D01*
X035223Y008979D01*
X035197Y008953D01*
X035183Y008930D01*
X035170Y008953D01*
X035144Y008979D01*
X035112Y008998D01*
X035076Y009007D01*
X034923Y009007D01*
X034923Y008732D01*
X034923Y008732D01*
X035198Y008732D01*
X035444Y008732D01*
X035444Y008682D01*
X035444Y008407D01*
X035444Y008132D01*
X035290Y008132D01*
X035255Y008142D01*
X035223Y008160D01*
X035197Y008186D01*
X035184Y008209D01*
X035171Y008186D01*
X035145Y008160D01*
X035113Y008142D01*
X035077Y008132D01*
X034924Y008132D01*
X034924Y008407D01*
X034924Y008407D01*
X035199Y008407D01*
X035444Y008407D01*
X035444Y008407D01*
X035444Y008407D01*
X034924Y008407D01*
X034924Y008407D01*
X034924Y008132D01*
X034770Y008132D01*
X034735Y008142D01*
X034703Y008160D01*
X034677Y008186D01*
X034658Y008218D01*
X034649Y008254D01*
X034649Y008407D01*
X034924Y008407D01*
X034924Y008407D01*
X034649Y008407D01*
X034649Y008561D01*
X034651Y008568D01*
X034648Y008579D01*
X034648Y008732D01*
X034923Y008732D01*
X035444Y008732D01*
X035444Y008732D01*
X035444Y008732D01*
X035444Y009007D01*
X035444Y008888D02*
X035444Y008888D01*
X035444Y008809D02*
X035444Y008809D01*
X035444Y008731D02*
X035444Y008731D01*
X035444Y008652D02*
X035444Y008652D01*
X035444Y008574D02*
X035444Y008574D01*
X035444Y008495D02*
X035444Y008495D01*
X035444Y008417D02*
X035444Y008417D01*
X035444Y008338D02*
X035444Y008338D01*
X035444Y008260D02*
X035444Y008260D01*
X035444Y008181D02*
X035444Y008181D01*
X035202Y008181D02*
X035165Y008181D01*
X034924Y008181D02*
X034924Y008181D01*
X034924Y008260D02*
X034924Y008260D01*
X034924Y008338D02*
X034924Y008338D01*
X034649Y008338D02*
X032917Y008338D01*
X032995Y008417D02*
X034649Y008417D01*
X034649Y008495D02*
X033074Y008495D01*
X033117Y008574D02*
X034649Y008574D01*
X034648Y008652D02*
X033150Y008652D01*
X033153Y008731D02*
X034648Y008731D01*
X034648Y008732D02*
X034923Y008732D01*
X034923Y008732D01*
X034923Y008732D01*
X034923Y009007D01*
X034769Y009007D01*
X034734Y008998D01*
X034702Y008979D01*
X034676Y008953D01*
X034657Y008921D01*
X034648Y008886D01*
X034648Y008732D01*
X034648Y008809D02*
X033153Y008809D01*
X033153Y008888D02*
X034648Y008888D01*
X034688Y008966D02*
X033153Y008966D01*
X033153Y009045D02*
X037073Y009045D01*
X037073Y009123D02*
X033153Y009123D01*
X033153Y009202D02*
X037073Y009202D01*
X037073Y009280D02*
X036432Y009280D01*
X036510Y009359D02*
X037073Y009359D01*
X037073Y009437D02*
X036550Y009437D01*
X036581Y009516D02*
X037073Y009516D01*
X037073Y009594D02*
X036581Y009594D01*
X036579Y009673D02*
X037073Y009673D01*
X037073Y009751D02*
X036546Y009751D01*
X036502Y009830D02*
X037073Y009830D01*
X037073Y009908D02*
X036424Y009908D01*
X036292Y009987D02*
X037073Y009987D01*
X037073Y010065D02*
X036213Y010065D01*
X036135Y010144D02*
X037073Y010144D01*
X037073Y010222D02*
X036056Y010222D01*
X035978Y010301D02*
X037073Y010301D01*
X037073Y010379D02*
X035899Y010379D01*
X035821Y010458D02*
X037073Y010458D01*
X037073Y010536D02*
X035742Y010536D01*
X035664Y010615D02*
X037073Y010615D01*
X037073Y010693D02*
X036481Y010693D01*
X036613Y010772D02*
X037073Y010772D01*
X037073Y010850D02*
X036686Y010850D01*
X036719Y010929D02*
X037073Y010929D01*
X037073Y011007D02*
X036741Y011007D01*
X036741Y011086D02*
X037073Y011086D01*
X037073Y011164D02*
X036730Y011164D01*
X036698Y011243D02*
X037073Y011243D01*
X037073Y011321D02*
X036641Y011321D01*
X036548Y011400D02*
X037073Y011400D01*
X037073Y011478D02*
X036430Y011478D01*
X036352Y011557D02*
X037073Y011557D01*
X036929Y011635D02*
X036405Y011635D01*
X036480Y011714D02*
X036850Y011714D01*
X036806Y011949D02*
X036500Y011949D01*
X036513Y011918D02*
X036513Y011792D01*
X036455Y012028D02*
X036851Y012028D01*
X036976Y012106D02*
X036330Y012106D01*
X036564Y012577D02*
X035267Y012577D01*
X035218Y012656D02*
X036458Y012656D01*
X037596Y011714D02*
X037633Y011714D01*
X037633Y011635D02*
X037553Y011635D01*
X037553Y011557D02*
X037633Y011557D01*
X037633Y011478D02*
X037553Y011478D01*
X037553Y011400D02*
X037633Y011400D01*
X037633Y011321D02*
X037553Y011321D01*
X037553Y011243D02*
X037633Y011243D01*
X037633Y011164D02*
X037553Y011164D01*
X037553Y011086D02*
X037633Y011086D01*
X037633Y011007D02*
X037553Y011007D01*
X037553Y010929D02*
X037633Y010929D01*
X037633Y010850D02*
X037553Y010850D01*
X037553Y010772D02*
X037633Y010772D01*
X037633Y010693D02*
X037553Y010693D01*
X037553Y010615D02*
X037633Y010615D01*
X037633Y010536D02*
X037553Y010536D01*
X037553Y010458D02*
X037633Y010458D01*
X037633Y010379D02*
X037553Y010379D01*
X037553Y010301D02*
X037633Y010301D01*
X037633Y010222D02*
X037553Y010222D01*
X037553Y010144D02*
X037633Y010144D01*
X037633Y010065D02*
X037553Y010065D01*
X037553Y009987D02*
X037633Y009987D01*
X037633Y009908D02*
X037553Y009908D01*
X037553Y009830D02*
X037633Y009830D01*
X037633Y009751D02*
X037553Y009751D01*
X037553Y009673D02*
X037633Y009673D01*
X037633Y009594D02*
X037553Y009594D01*
X037553Y009516D02*
X037633Y009516D01*
X037633Y009437D02*
X037553Y009437D01*
X037553Y009359D02*
X037633Y009359D01*
X037633Y009280D02*
X037553Y009280D01*
X037553Y009202D02*
X037633Y009202D01*
X037633Y009123D02*
X037553Y009123D01*
X037553Y009045D02*
X037633Y009045D01*
X037633Y008966D02*
X037553Y008966D01*
X037553Y008888D02*
X037633Y008888D01*
X037633Y008809D02*
X037553Y008809D01*
X037553Y008731D02*
X037633Y008731D01*
X037633Y008652D02*
X037553Y008652D01*
X037553Y008574D02*
X037633Y008574D01*
X037633Y008495D02*
X037553Y008495D01*
X037553Y008417D02*
X037633Y008417D01*
X037633Y008338D02*
X037553Y008338D01*
X037553Y008260D02*
X037633Y008260D01*
X037633Y008181D02*
X037553Y008181D01*
X037553Y008103D02*
X037633Y008103D01*
X037633Y008024D02*
X037553Y008024D01*
X037553Y007946D02*
X037633Y007946D01*
X037633Y007867D02*
X037553Y007867D01*
X037553Y007789D02*
X037633Y007789D01*
X037633Y007710D02*
X037553Y007710D01*
X037553Y007632D02*
X037633Y007632D01*
X037633Y007553D02*
X037553Y007553D01*
X037553Y007475D02*
X037633Y007475D01*
X037633Y007396D02*
X037553Y007396D01*
X037553Y007318D02*
X037633Y007318D01*
X037633Y007239D02*
X037553Y007239D01*
X037553Y007161D02*
X037633Y007161D01*
X037633Y007082D02*
X037553Y007082D01*
X037553Y007004D02*
X037633Y007004D01*
X037633Y006925D02*
X037553Y006925D01*
X037553Y006847D02*
X037633Y006847D01*
X037633Y006768D02*
X037553Y006768D01*
X037553Y006690D02*
X037633Y006690D01*
X037633Y006611D02*
X037553Y006611D01*
X037553Y006533D02*
X037633Y006533D01*
X037633Y006454D02*
X037553Y006454D01*
X037553Y006376D02*
X037633Y006376D01*
X037633Y006297D02*
X037553Y006297D01*
X037553Y006219D02*
X037633Y006219D01*
X037633Y006140D02*
X037553Y006140D01*
X037553Y006062D02*
X037633Y006062D01*
X037633Y005983D02*
X037553Y005983D01*
X037553Y005905D02*
X037633Y005905D01*
X037633Y005826D02*
X037553Y005826D01*
X037553Y005748D02*
X037633Y005748D01*
X037633Y005669D02*
X037553Y005669D01*
X037527Y005591D02*
X037633Y005591D01*
X037633Y005512D02*
X037464Y005512D01*
X037386Y005434D02*
X037633Y005434D01*
X037633Y005355D02*
X037307Y005355D01*
X037229Y005277D02*
X037633Y005277D01*
X037633Y005198D02*
X037150Y005198D01*
X037072Y005120D02*
X037633Y005120D01*
X037633Y005041D02*
X037414Y005041D01*
X037493Y004963D02*
X037633Y004963D01*
X037633Y004884D02*
X037571Y004884D01*
X037623Y004806D02*
X037633Y004806D01*
X037623Y004727D02*
X037633Y004727D01*
X037223Y004806D02*
X037143Y004806D01*
X037143Y004884D02*
X037223Y004884D01*
X037223Y004963D02*
X037143Y004963D01*
X037143Y005041D02*
X037223Y005041D01*
X036786Y005512D02*
X031883Y005512D01*
X031961Y005591D02*
X036864Y005591D01*
X036943Y005669D02*
X032040Y005669D01*
X032118Y005748D02*
X037021Y005748D01*
X037073Y005826D02*
X032160Y005826D01*
X032173Y005905D02*
X037073Y005905D01*
X037073Y005983D02*
X032173Y005983D01*
X032173Y006062D02*
X037073Y006062D01*
X037073Y006140D02*
X032173Y006140D01*
X032173Y006219D02*
X037073Y006219D01*
X037073Y006297D02*
X032173Y006297D01*
X032173Y006376D02*
X037073Y006376D01*
X037073Y006454D02*
X032173Y006454D01*
X032173Y006533D02*
X037073Y006533D01*
X037073Y006611D02*
X032173Y006611D01*
X032173Y006690D02*
X037073Y006690D01*
X037073Y006768D02*
X032173Y006768D01*
X032173Y006847D02*
X037073Y006847D01*
X037073Y006925D02*
X032173Y006925D01*
X031713Y006150D02*
X031383Y005820D01*
X030613Y005820D01*
X030278Y005826D02*
X027485Y005826D01*
X027406Y005905D02*
X030285Y005905D01*
X030318Y005983D02*
X027328Y005983D01*
X027304Y006062D02*
X030381Y006062D01*
X030510Y006140D02*
X027271Y006140D01*
X027617Y004099D02*
X027749Y004099D01*
X027683Y004033D02*
X027683Y003267D01*
X027683Y004033D01*
X027683Y004021D02*
X027683Y004021D01*
X027683Y003942D02*
X027683Y003942D01*
X027683Y003864D02*
X027683Y003864D01*
X027683Y003785D02*
X027683Y003785D01*
X027683Y003707D02*
X027683Y003707D01*
X027683Y003628D02*
X027683Y003628D01*
X027683Y003550D02*
X027683Y003550D01*
X027683Y003471D02*
X027683Y003471D01*
X027683Y003393D02*
X027683Y003393D01*
X027683Y003314D02*
X027683Y003314D01*
X027683Y003267D02*
X027616Y003200D01*
X027750Y003200D01*
X027683Y003267D01*
X027651Y003236D02*
X027715Y003236D01*
X028616Y003200D02*
X028683Y003267D01*
X028683Y004033D01*
X028683Y003267D01*
X028750Y003200D01*
X028616Y003200D01*
X028651Y003236D02*
X028715Y003236D01*
X028683Y003314D02*
X028683Y003314D01*
X028683Y003393D02*
X028683Y003393D01*
X028683Y003471D02*
X028683Y003471D01*
X028683Y003550D02*
X028683Y003550D01*
X028683Y003628D02*
X028683Y003628D01*
X028683Y003707D02*
X028683Y003707D01*
X028683Y003785D02*
X028683Y003785D01*
X028683Y003864D02*
X028683Y003864D01*
X028683Y003942D02*
X028683Y003942D01*
X028683Y004021D02*
X028683Y004021D01*
X028617Y004099D02*
X028749Y004099D01*
X029617Y004099D02*
X029749Y004099D01*
X029683Y004033D02*
X029683Y003267D01*
X029683Y004033D01*
X029683Y004021D02*
X029683Y004021D01*
X029683Y003942D02*
X029683Y003942D01*
X029683Y003864D02*
X029683Y003864D01*
X029683Y003785D02*
X029683Y003785D01*
X029683Y003707D02*
X029683Y003707D01*
X029683Y003628D02*
X029683Y003628D01*
X029683Y003550D02*
X029683Y003550D01*
X029683Y003471D02*
X029683Y003471D01*
X029683Y003393D02*
X029683Y003393D01*
X029683Y003314D02*
X029683Y003314D01*
X029683Y003267D02*
X029616Y003200D01*
X029750Y003200D01*
X029683Y003267D01*
X029651Y003236D02*
X029715Y003236D01*
X030616Y003200D02*
X030683Y003267D01*
X030683Y004033D01*
X030683Y003267D01*
X030750Y003200D01*
X030616Y003200D01*
X030651Y003236D02*
X030715Y003236D01*
X030683Y003314D02*
X030683Y003314D01*
X030683Y003393D02*
X030683Y003393D01*
X030683Y003471D02*
X030683Y003471D01*
X030683Y003550D02*
X030683Y003550D01*
X030683Y003628D02*
X030683Y003628D01*
X030683Y003707D02*
X030683Y003707D01*
X030683Y003785D02*
X030683Y003785D01*
X030683Y003864D02*
X030683Y003864D01*
X030683Y003942D02*
X030683Y003942D01*
X030683Y004021D02*
X030683Y004021D01*
X030617Y004099D02*
X030749Y004099D01*
X031617Y004099D02*
X031749Y004099D01*
X031683Y004033D02*
X031683Y003267D01*
X031683Y004033D01*
X031683Y004021D02*
X031683Y004021D01*
X031683Y003942D02*
X031683Y003942D01*
X031683Y003864D02*
X031683Y003864D01*
X031683Y003785D02*
X031683Y003785D01*
X031683Y003707D02*
X031683Y003707D01*
X031683Y003628D02*
X031683Y003628D01*
X031683Y003550D02*
X031683Y003550D01*
X031683Y003471D02*
X031683Y003471D01*
X031683Y003393D02*
X031683Y003393D01*
X031683Y003314D02*
X031683Y003314D01*
X031683Y003267D02*
X031616Y003200D01*
X031750Y003200D01*
X031683Y003267D01*
X031651Y003236D02*
X031715Y003236D01*
X032616Y003200D02*
X032683Y003267D01*
X032683Y004033D01*
X032683Y003267D01*
X032750Y003200D01*
X032616Y003200D01*
X032651Y003236D02*
X032715Y003236D01*
X032683Y003314D02*
X032683Y003314D01*
X032683Y003393D02*
X032683Y003393D01*
X032683Y003471D02*
X032683Y003471D01*
X032683Y003550D02*
X032683Y003550D01*
X032683Y003628D02*
X032683Y003628D01*
X032683Y003707D02*
X032683Y003707D01*
X032683Y003785D02*
X032683Y003785D01*
X032683Y003864D02*
X032683Y003864D01*
X032683Y003942D02*
X032683Y003942D01*
X032683Y004021D02*
X032683Y004021D01*
X032617Y004099D02*
X032749Y004099D01*
X033617Y004099D02*
X033749Y004099D01*
X033683Y004033D02*
X033683Y003267D01*
X033683Y004033D01*
X033683Y004021D02*
X033683Y004021D01*
X033683Y003942D02*
X033683Y003942D01*
X033683Y003864D02*
X033683Y003864D01*
X033683Y003785D02*
X033683Y003785D01*
X033683Y003707D02*
X033683Y003707D01*
X033683Y003628D02*
X033683Y003628D01*
X033683Y003550D02*
X033683Y003550D01*
X033683Y003471D02*
X033683Y003471D01*
X033683Y003393D02*
X033683Y003393D01*
X033683Y003314D02*
X033683Y003314D01*
X033683Y003267D02*
X033616Y003200D01*
X033750Y003200D01*
X033683Y003267D01*
X033651Y003236D02*
X033715Y003236D01*
X034616Y003200D02*
X034683Y003267D01*
X034683Y004033D01*
X034683Y003267D01*
X034750Y003200D01*
X034616Y003200D01*
X034651Y003236D02*
X034715Y003236D01*
X034683Y003314D02*
X034683Y003314D01*
X034683Y003393D02*
X034683Y003393D01*
X034683Y003471D02*
X034683Y003471D01*
X034683Y003550D02*
X034683Y003550D01*
X034683Y003628D02*
X034683Y003628D01*
X034683Y003707D02*
X034683Y003707D01*
X034683Y003785D02*
X034683Y003785D01*
X034683Y003864D02*
X034683Y003864D01*
X034683Y003942D02*
X034683Y003942D01*
X034683Y004021D02*
X034683Y004021D01*
X034617Y004099D02*
X034749Y004099D01*
X035617Y004099D02*
X035749Y004099D01*
X035683Y004033D02*
X035683Y003267D01*
X035683Y004033D01*
X035683Y004021D02*
X035683Y004021D01*
X035683Y003942D02*
X035683Y003942D01*
X035683Y003864D02*
X035683Y003864D01*
X035683Y003785D02*
X035683Y003785D01*
X035683Y003707D02*
X035683Y003707D01*
X035683Y003628D02*
X035683Y003628D01*
X035683Y003550D02*
X035683Y003550D01*
X035683Y003471D02*
X035683Y003471D01*
X035683Y003393D02*
X035683Y003393D01*
X035683Y003314D02*
X035683Y003314D01*
X035683Y003267D02*
X035616Y003200D01*
X035750Y003200D01*
X035683Y003267D01*
X035651Y003236D02*
X035715Y003236D01*
X036651Y003236D02*
X036801Y003236D01*
X036797Y003238D02*
X036829Y003220D01*
X036865Y003210D01*
X037143Y003210D01*
X037143Y003610D01*
X036743Y003610D01*
X036743Y003332D01*
X036753Y003296D01*
X036771Y003264D01*
X036797Y003238D01*
X036748Y003314D02*
X036683Y003314D01*
X036683Y003393D02*
X036743Y003393D01*
X036743Y003471D02*
X036683Y003471D01*
X036683Y003550D02*
X036743Y003550D01*
X036683Y003628D02*
X037143Y003628D01*
X037143Y003610D02*
X037143Y003690D01*
X036743Y003690D01*
X036743Y003968D01*
X036753Y004004D01*
X036771Y004036D01*
X036797Y004062D01*
X036829Y004080D01*
X036865Y004090D01*
X037143Y004090D01*
X037143Y003690D01*
X037223Y003690D01*
X037223Y004090D01*
X037502Y004090D01*
X037537Y004080D01*
X037569Y004062D01*
X037595Y004036D01*
X037614Y004004D01*
X037623Y003968D01*
X037623Y003690D01*
X037223Y003690D01*
X037223Y003610D01*
X037143Y003610D01*
X037143Y003550D02*
X037223Y003550D01*
X037223Y003628D02*
X037633Y003628D01*
X037623Y003550D02*
X037633Y003550D01*
X037623Y003707D02*
X037633Y003707D01*
X037623Y003785D02*
X037633Y003785D01*
X037623Y003864D02*
X037633Y003864D01*
X037623Y003942D02*
X037633Y003942D01*
X037633Y004021D02*
X037604Y004021D01*
X037633Y004099D02*
X036617Y004099D01*
X036683Y004021D02*
X036762Y004021D01*
X036743Y003942D02*
X036683Y003942D01*
X036683Y003864D02*
X036743Y003864D01*
X036743Y003785D02*
X036683Y003785D01*
X036683Y003707D02*
X036743Y003707D01*
X037143Y003707D02*
X037223Y003707D01*
X037223Y003785D02*
X037143Y003785D01*
X037143Y003864D02*
X037223Y003864D01*
X037223Y003942D02*
X037143Y003942D01*
X037143Y004021D02*
X037223Y004021D01*
X037223Y004256D02*
X037143Y004256D01*
X037143Y004335D02*
X037223Y004335D01*
X037223Y004413D02*
X037143Y004413D01*
X037143Y004492D02*
X037223Y004492D01*
X037223Y004570D02*
X037143Y004570D01*
X036472Y005198D02*
X033244Y005198D01*
X033166Y005277D02*
X036550Y005277D01*
X036629Y005355D02*
X033087Y005355D01*
X032995Y005434D02*
X036707Y005434D01*
X036393Y005120D02*
X033323Y005120D01*
X033401Y005041D02*
X036315Y005041D01*
X036236Y004963D02*
X033480Y004963D01*
X032801Y004963D02*
X031109Y004963D01*
X031285Y006062D02*
X030845Y006062D01*
X030716Y006140D02*
X031364Y006140D01*
X031713Y006150D02*
X031713Y009200D01*
X031463Y009450D01*
X031353Y009560D01*
X030433Y009560D01*
X030203Y009560D01*
X027533Y009560D01*
X026733Y009560D01*
X026443Y009850D01*
X026523Y009320D02*
X025893Y009950D01*
X017883Y009950D01*
X017733Y009950D01*
X017013Y008330D02*
X025473Y008330D01*
X026093Y008330D01*
X026673Y008910D01*
X026913Y009860D02*
X026903Y009870D01*
X026913Y009860D02*
X027713Y009860D01*
X028303Y010450D01*
X030013Y011070D02*
X030103Y010980D01*
X029983Y012570D02*
X029673Y012570D01*
X028993Y012570D01*
X028233Y012570D01*
X029983Y012570D02*
X031913Y010640D01*
X031913Y009950D01*
X033153Y009987D02*
X035302Y009987D01*
X035223Y010065D02*
X033153Y010065D01*
X033153Y010144D02*
X035145Y010144D01*
X035066Y010222D02*
X033153Y010222D01*
X033153Y010301D02*
X034988Y010301D01*
X034909Y010379D02*
X033153Y010379D01*
X033153Y010458D02*
X034831Y010458D01*
X034752Y010536D02*
X033153Y010536D01*
X033153Y010615D02*
X034674Y010615D01*
X034595Y010693D02*
X033153Y010693D01*
X033161Y010772D02*
X034517Y010772D01*
X034438Y010850D02*
X033161Y010850D01*
X033161Y010929D02*
X034360Y010929D01*
X034281Y011007D02*
X033129Y011007D01*
X033153Y009908D02*
X035380Y009908D01*
X035459Y009830D02*
X033153Y009830D01*
X033153Y009751D02*
X035537Y009751D01*
X035616Y009673D02*
X033153Y009673D01*
X033153Y009594D02*
X035694Y009594D01*
X035773Y009516D02*
X033153Y009516D01*
X033153Y009437D02*
X035836Y009437D01*
X035876Y009359D02*
X033153Y009359D01*
X033153Y009280D02*
X035954Y009280D01*
X036023Y009040D02*
X036033Y009030D01*
X035209Y008966D02*
X035157Y008966D01*
X034923Y008966D02*
X034923Y008966D01*
X034923Y008888D02*
X034923Y008888D01*
X034923Y008809D02*
X034923Y008809D01*
X034649Y008260D02*
X032838Y008260D01*
X032771Y008181D02*
X034682Y008181D01*
X035585Y010693D02*
X036225Y010693D01*
X036093Y010772D02*
X035507Y010772D01*
X035428Y010850D02*
X036020Y010850D01*
X035987Y010929D02*
X035350Y010929D01*
X035271Y011007D02*
X035911Y011007D01*
X035833Y011086D02*
X035193Y011086D01*
X035114Y011164D02*
X035754Y011164D01*
X035676Y011243D02*
X035036Y011243D01*
X034957Y011321D02*
X035597Y011321D01*
X035519Y011400D02*
X034879Y011400D01*
X029683Y015420D02*
X029683Y017530D01*
X029383Y017830D01*
X029363Y017850D01*
X029253Y017960D01*
X029253Y018220D01*
X026773Y020700D01*
X026773Y023360D01*
X026773Y023940D01*
X028623Y025790D01*
X030153Y025790D01*
X030323Y025790D01*
X032183Y027650D01*
X029183Y027650D02*
X028613Y027080D01*
X027473Y027220D02*
X027363Y027110D01*
X025683Y027728D02*
X025683Y027728D01*
X025683Y027806D02*
X025683Y027806D01*
X025683Y027885D02*
X025683Y027885D01*
X025683Y027963D02*
X025683Y027963D01*
X025683Y028033D02*
X025750Y028100D01*
X025616Y028100D01*
X025683Y028033D01*
X025674Y028042D02*
X025692Y028042D01*
X021049Y025567D02*
X020961Y025530D01*
X019072Y025530D01*
X016553Y024080D02*
X016553Y023790D01*
X016553Y017540D01*
X019813Y014280D01*
X019813Y013260D01*
X022023Y013630D02*
X022023Y015690D01*
X021873Y015840D01*
X018653Y019060D01*
X018653Y022900D01*
X019113Y021212D02*
X019144Y021212D01*
X019113Y021134D02*
X019184Y021134D01*
X019224Y021055D02*
X019113Y021055D01*
X019113Y020977D02*
X019264Y020977D01*
X019304Y020898D02*
X019113Y020898D01*
X019113Y020820D02*
X019368Y020820D01*
X019447Y020741D02*
X019113Y020741D01*
X019113Y020663D02*
X019525Y020663D01*
X019604Y020584D02*
X019113Y020584D01*
X019113Y020506D02*
X019712Y020506D01*
X019866Y020427D02*
X019113Y020427D01*
X019113Y020349D02*
X020020Y020349D01*
X013483Y022620D02*
X013483Y016600D01*
X013413Y016530D01*
X013413Y016110D01*
X013103Y016380D02*
X013213Y016490D01*
X013213Y016600D01*
X013213Y022460D01*
X013483Y022620D02*
X013483Y022630D01*
X012883Y023230D01*
X011053Y023230D01*
X011263Y023520D02*
X011153Y023630D01*
X012835Y022939D02*
X008923Y022939D01*
X008923Y022861D02*
X012913Y022861D01*
X012992Y022782D02*
X008923Y022782D01*
X008923Y022704D02*
X012983Y022704D01*
X012919Y022625D02*
X008923Y022625D01*
X008923Y022547D02*
X012886Y022547D01*
X012878Y022468D02*
X008923Y022468D01*
X008923Y022390D02*
X012880Y022390D01*
X012912Y022311D02*
X008923Y022311D01*
X008923Y022233D02*
X012967Y022233D01*
X012973Y022154D02*
X008923Y022154D01*
X008923Y022076D02*
X012973Y022076D01*
X012973Y021997D02*
X008923Y021997D01*
X008923Y021919D02*
X012973Y021919D01*
X012973Y021840D02*
X008923Y021840D01*
X008923Y021762D02*
X012973Y021762D01*
X011183Y020690D02*
X011183Y019290D01*
X011103Y019250D02*
X012973Y019250D01*
X012973Y019328D02*
X011024Y019328D01*
X010946Y019407D02*
X012973Y019407D01*
X012973Y019485D02*
X010867Y019485D01*
X010789Y019564D02*
X012973Y019564D01*
X012973Y019642D02*
X010710Y019642D01*
X010632Y019721D02*
X012973Y019721D01*
X012973Y019799D02*
X010553Y019799D01*
X010475Y019878D02*
X012973Y019878D01*
X012973Y019956D02*
X010396Y019956D01*
X010318Y020035D02*
X012973Y020035D01*
X012973Y020113D02*
X010239Y020113D01*
X010161Y020192D02*
X012973Y020192D01*
X012973Y020270D02*
X010073Y020270D01*
X009892Y020349D02*
X012973Y020349D01*
X012973Y019171D02*
X011181Y019171D01*
X011260Y019093D02*
X012973Y019093D01*
X012973Y019014D02*
X011338Y019014D01*
X011417Y018936D02*
X012973Y018936D01*
X012973Y018857D02*
X011495Y018857D01*
X011574Y018779D02*
X012973Y018779D01*
X012973Y018700D02*
X011652Y018700D01*
X011731Y018622D02*
X012973Y018622D01*
X012973Y018543D02*
X011809Y018543D01*
X011888Y018465D02*
X012973Y018465D01*
X012973Y018386D02*
X011966Y018386D01*
X012045Y018308D02*
X012973Y018308D01*
X012973Y018229D02*
X012123Y018229D01*
X012202Y018151D02*
X012973Y018151D01*
X012973Y018072D02*
X012280Y018072D01*
X012359Y017994D02*
X012973Y017994D01*
X012973Y017915D02*
X012437Y017915D01*
X012516Y017837D02*
X012973Y017837D01*
X012973Y017758D02*
X012594Y017758D01*
X012673Y017680D02*
X012973Y017680D01*
X012973Y017601D02*
X012751Y017601D01*
X012830Y017523D02*
X012973Y017523D01*
X012973Y017444D02*
X012908Y017444D01*
X012823Y017190D02*
X012493Y017520D01*
X009953Y020060D01*
X009713Y020060D01*
X008473Y018980D02*
X008473Y024440D01*
X008343Y024570D01*
X008343Y024850D01*
X008063Y022680D02*
X007633Y022250D01*
X007293Y021910D01*
X007293Y015900D01*
X007533Y015660D01*
X007873Y015320D01*
X007873Y015260D01*
X007273Y015130D02*
X006983Y015420D01*
X006983Y021660D01*
X007633Y021750D02*
X007633Y016300D01*
X007873Y016060D01*
X007943Y016850D02*
X009033Y016850D01*
X010033Y016350D02*
X010033Y014150D01*
X010113Y013790D02*
X008113Y013790D01*
X006533Y015370D01*
X006533Y016050D01*
X007223Y015180D02*
X007273Y015130D01*
X007933Y014470D01*
X009463Y012980D02*
X011493Y012980D01*
X012713Y014200D01*
X012913Y014200D01*
X013283Y014570D01*
X012783Y014570D02*
X012783Y014500D01*
X012673Y014390D01*
X012543Y014260D01*
X011563Y013280D01*
X010843Y014520D02*
X010113Y013790D01*
X010843Y014520D02*
X010943Y014620D01*
X010033Y016350D02*
X008213Y018170D01*
X008103Y018170D01*
X008103Y018200D01*
X008103Y018610D01*
X008473Y018980D01*
X007633Y021750D02*
X008063Y022180D01*
X002973Y018990D02*
X002973Y027440D01*
X003183Y027650D01*
X012823Y017190D02*
X012823Y016950D01*
X022023Y013630D02*
X022913Y012740D01*
X022983Y012670D01*
X022983Y012440D01*
X022803Y013833D02*
X022749Y013833D01*
X022803Y013912D02*
X022671Y013912D01*
X022613Y013990D02*
X022803Y013990D01*
X022803Y014069D02*
X022613Y014069D01*
X022613Y014147D02*
X022803Y014147D01*
X022803Y014226D02*
X022613Y014226D01*
X022613Y014304D02*
X022803Y014304D01*
X022803Y014383D02*
X022613Y014383D01*
X022613Y014461D02*
X022803Y014461D01*
X022803Y014540D02*
X022613Y014540D01*
X022613Y014618D02*
X022803Y014618D01*
X022803Y014697D02*
X022613Y014697D01*
X022613Y014775D02*
X022803Y014775D01*
X022803Y014854D02*
X022613Y014854D01*
X022613Y014932D02*
X022803Y014932D01*
X022803Y015011D02*
X022613Y015011D01*
X022613Y015089D02*
X022803Y015089D01*
X022803Y015168D02*
X022613Y015168D01*
X022613Y015246D02*
X022803Y015246D01*
X022803Y015325D02*
X022613Y015325D01*
X022613Y015403D02*
X022803Y015403D01*
X027739Y015796D02*
X027753Y015796D01*
X030083Y018700D02*
X030106Y018700D01*
X030083Y018779D02*
X030139Y018779D01*
X030083Y018857D02*
X030203Y018857D01*
X030281Y018936D02*
X030083Y018936D01*
X030291Y019014D02*
X030406Y019014D01*
X030083Y019280D02*
X030073Y019280D01*
X029817Y020192D02*
X029743Y020192D01*
X033058Y023018D02*
X037633Y023018D01*
X037633Y023096D02*
X033136Y023096D01*
X033215Y023175D02*
X037633Y023175D01*
X037633Y023253D02*
X033293Y023253D01*
X013683Y008720D02*
X013683Y008010D01*
X013683Y008130D01*
X012593Y008010D02*
X012593Y009350D01*
X012939Y009803D02*
X012939Y009803D01*
X012913Y009830D02*
X012989Y009830D01*
X011643Y008710D02*
X011613Y008740D01*
X011333Y009020D01*
X011643Y008710D02*
X011643Y005050D01*
X010749Y004099D02*
X010617Y004099D01*
X010683Y004021D02*
X010683Y004021D01*
X010683Y003942D02*
X010683Y003942D01*
X010683Y003864D02*
X010683Y003864D01*
X010683Y003785D02*
X010683Y003785D01*
X010683Y003707D02*
X010683Y003707D01*
X010683Y003628D02*
X010683Y003628D01*
X010683Y003550D02*
X010683Y003550D01*
X010683Y003471D02*
X010683Y003471D01*
X010683Y003393D02*
X010683Y003393D01*
X010683Y003314D02*
X010683Y003314D01*
X010651Y003236D02*
X010715Y003236D01*
X009715Y003236D02*
X009651Y003236D01*
X009683Y003314D02*
X009683Y003314D01*
X009683Y003393D02*
X009683Y003393D01*
X009683Y003471D02*
X009683Y003471D01*
X009683Y003550D02*
X009683Y003550D01*
X009683Y003628D02*
X009683Y003628D01*
X009683Y003707D02*
X009683Y003707D01*
X009683Y003785D02*
X009683Y003785D01*
X009683Y003864D02*
X009683Y003864D01*
X009683Y003942D02*
X009683Y003942D01*
X009683Y004021D02*
X009683Y004021D01*
X009617Y004099D02*
X009749Y004099D01*
X008749Y004099D02*
X008617Y004099D01*
X008683Y004021D02*
X008683Y004021D01*
X008683Y003942D02*
X008683Y003942D01*
X008683Y003864D02*
X008683Y003864D01*
X008683Y003785D02*
X008683Y003785D01*
X008683Y003707D02*
X008683Y003707D01*
X008683Y003628D02*
X008683Y003628D01*
X008683Y003550D02*
X008683Y003550D01*
X008683Y003471D02*
X008683Y003471D01*
X008683Y003393D02*
X008683Y003393D01*
X008683Y003314D02*
X008683Y003314D01*
X008651Y003236D02*
X008715Y003236D01*
X007715Y003236D02*
X007651Y003236D01*
X007683Y003314D02*
X007683Y003314D01*
X007683Y003393D02*
X007683Y003393D01*
X007683Y003471D02*
X007683Y003471D01*
X007683Y003550D02*
X007683Y003550D01*
X007683Y003628D02*
X007683Y003628D01*
X007683Y003707D02*
X007683Y003707D01*
X007683Y003785D02*
X007683Y003785D01*
X007683Y003864D02*
X007683Y003864D01*
X007683Y003942D02*
X007683Y003942D01*
X007683Y004021D02*
X007683Y004021D01*
X007617Y004099D02*
X007749Y004099D01*
X006749Y004099D02*
X006617Y004099D01*
X006683Y004021D02*
X006683Y004021D01*
X006683Y003942D02*
X006683Y003942D01*
X006683Y003864D02*
X006683Y003864D01*
X006683Y003785D02*
X006683Y003785D01*
X006683Y003707D02*
X006683Y003707D01*
X006683Y003628D02*
X006683Y003628D01*
X006683Y003550D02*
X006683Y003550D01*
X006683Y003471D02*
X006683Y003471D01*
X006683Y003393D02*
X006683Y003393D01*
X006683Y003314D02*
X006683Y003314D01*
X006651Y003236D02*
X006715Y003236D01*
X005715Y003236D02*
X005651Y003236D01*
X005683Y003314D02*
X005683Y003314D01*
X005683Y003393D02*
X005683Y003393D01*
X005683Y003471D02*
X005683Y003471D01*
X005683Y003550D02*
X005683Y003550D01*
X005683Y003628D02*
X005683Y003628D01*
X005683Y003707D02*
X005683Y003707D01*
X005683Y003785D02*
X005683Y003785D01*
X005683Y003864D02*
X005683Y003864D01*
X005683Y003942D02*
X005683Y003942D01*
X005683Y004021D02*
X005683Y004021D01*
X005617Y004099D02*
X005749Y004099D01*
X004741Y005434D02*
X002709Y005434D01*
X002771Y005355D02*
X001733Y005355D01*
X001733Y005277D02*
X002684Y005277D01*
X002605Y005198D02*
X001733Y005198D01*
X001733Y005120D02*
X002527Y005120D01*
X002448Y005041D02*
X001733Y005041D01*
X001733Y004963D02*
X002370Y004963D01*
X002291Y004884D02*
X001733Y004884D01*
X001733Y004806D02*
X002213Y004806D01*
X002134Y004727D02*
X001733Y004727D01*
X001733Y004649D02*
X002056Y004649D01*
X001977Y004570D02*
X001733Y004570D01*
X001733Y004492D02*
X001899Y004492D01*
X001834Y004413D02*
X001733Y004413D01*
X001733Y004335D02*
X001802Y004335D01*
X001783Y004256D02*
X001733Y004256D01*
X001733Y004178D02*
X001783Y004178D01*
X001749Y004099D02*
X001733Y004099D01*
X001733Y005434D02*
X002317Y005434D01*
X002128Y005512D02*
X001733Y005512D01*
X001733Y005591D02*
X002043Y005591D01*
X001964Y005669D02*
X001733Y005669D01*
X001733Y005748D02*
X001906Y005748D01*
X001873Y005826D02*
X001733Y005826D01*
X001733Y005905D02*
X001841Y005905D01*
X001813Y005983D02*
X001733Y005983D01*
X001733Y006062D02*
X001813Y006062D01*
X001813Y006140D02*
X001733Y006140D01*
X001733Y006219D02*
X001813Y006219D01*
X001833Y006297D02*
X001733Y006297D01*
X001733Y006376D02*
X001865Y006376D01*
X001898Y006454D02*
X001733Y006454D01*
X001733Y006533D02*
X001946Y006533D01*
X002024Y006611D02*
X001733Y006611D01*
X001733Y006690D02*
X002103Y006690D01*
X002272Y006768D02*
X001733Y006768D01*
X002513Y006110D02*
X003903Y006110D01*
X004613Y006110D01*
X004963Y005760D01*
X004628Y005748D02*
X003121Y005748D01*
X003153Y005826D02*
X004558Y005826D01*
X004638Y005669D02*
X003062Y005669D01*
X002984Y005591D02*
X004671Y005591D01*
X004737Y005512D02*
X002899Y005512D01*
X003473Y006768D02*
X003553Y006768D01*
X004144Y007475D02*
X006092Y007475D01*
X006170Y007553D02*
X004124Y007553D01*
X003852Y008495D02*
X004774Y008495D01*
X004634Y008574D02*
X003960Y008574D01*
X004014Y008652D02*
X004555Y008652D01*
X004504Y008731D02*
X004047Y008731D01*
X004048Y008809D02*
X004472Y008809D01*
X004445Y008888D02*
X004039Y008888D01*
X004007Y008966D02*
X004445Y008966D01*
X004445Y009045D02*
X003942Y009045D01*
X003574Y008495D02*
X002792Y008495D01*
X002327Y008888D02*
X001733Y008888D01*
X001733Y008966D02*
X002359Y008966D01*
X002424Y009045D02*
X001733Y009045D01*
X001733Y009123D02*
X002558Y009123D01*
X001733Y009987D02*
X004837Y009987D01*
X001770Y010065D02*
X001733Y010065D01*
X001733Y010144D02*
X001733Y010144D01*
X001733Y010222D02*
X001733Y010222D01*
X001733Y010301D02*
X001733Y010301D01*
X001733Y010379D02*
X001733Y010379D01*
X004765Y006297D02*
X005676Y006297D01*
X005850Y006297D02*
X006043Y006297D01*
X006043Y006219D02*
X006010Y006219D01*
X005516Y006219D02*
X004844Y006219D01*
X004922Y006140D02*
X005437Y006140D01*
X005369Y006062D02*
X005111Y006062D01*
X005214Y005983D02*
X005290Y005983D01*
X019183Y006060D02*
X019183Y004650D01*
X019683Y004150D02*
X020183Y003650D01*
X019683Y004150D02*
X019683Y005250D01*
X020183Y005430D02*
X019533Y006080D01*
X019183Y006060D02*
X019183Y006110D01*
X020183Y005430D02*
X020183Y004650D01*
X022683Y004150D02*
X023183Y003650D01*
X023683Y003628D02*
X023683Y003628D01*
X023683Y003550D02*
X023683Y003550D01*
X023683Y003471D02*
X023683Y003471D01*
X023683Y003393D02*
X023683Y003393D01*
X023683Y003314D02*
X023683Y003314D01*
X023683Y003267D02*
X023683Y004033D01*
X023683Y003267D01*
X023616Y003200D01*
X023750Y003200D01*
X023683Y003267D01*
X023651Y003236D02*
X023715Y003236D01*
X023683Y003707D02*
X023683Y003707D01*
X023683Y003785D02*
X023683Y003785D01*
X023683Y003864D02*
X023683Y003864D01*
X023683Y003942D02*
X023683Y003942D01*
X023683Y004021D02*
X023683Y004021D01*
X023617Y004099D02*
X023749Y004099D01*
X023943Y004335D02*
X023490Y004335D01*
X023568Y004413D02*
X023943Y004413D01*
X023943Y004492D02*
X023623Y004492D01*
X023623Y004570D02*
X023943Y004570D01*
X037143Y003471D02*
X037223Y003471D01*
X037223Y003393D02*
X037143Y003393D01*
X037143Y003314D02*
X037223Y003314D01*
X037223Y003236D02*
X037143Y003236D01*
D20*
X031913Y005910D02*
X031553Y005550D01*
X031533Y005530D01*
X027413Y005530D01*
X026983Y005960D01*
X031913Y005910D02*
X031913Y009310D01*
X031523Y009700D01*
X031393Y009830D01*
X030373Y009830D01*
X030103Y010100D01*
X030103Y010220D01*
X030103Y010980D01*
X030853Y012590D02*
X030003Y013440D01*
X028833Y013440D01*
X028693Y013580D01*
X028673Y013580D01*
X027673Y015140D02*
X025153Y015140D01*
X029533Y019830D02*
X030083Y019280D01*
X029533Y019830D02*
X029483Y019880D01*
X029483Y021030D01*
X029533Y021080D01*
X032733Y024280D01*
X034823Y024280D01*
X036053Y025510D01*
X036053Y026800D01*
X035203Y027650D01*
X035183Y027650D01*
X031933Y011820D02*
X031903Y011820D01*
X015513Y009650D02*
X015293Y009870D01*
X014503Y009870D01*
X014313Y009680D01*
X014313Y009290D01*
X015493Y008500D02*
X015493Y008280D01*
X015183Y007970D01*
X010733Y008710D02*
X010303Y008280D01*
X010303Y008170D01*
X003513Y007360D02*
X002173Y008700D01*
X002173Y010460D01*
D21*
X006323Y007310D02*
X006323Y005790D01*
X004183Y003650D01*
X006323Y007310D02*
X006603Y007590D01*
X007783Y007590D01*
X008043Y007850D01*
X008043Y008660D01*
X026993Y004470D02*
X037003Y004470D01*
X037183Y004650D01*
X033633Y013290D02*
X033633Y013390D01*
X028373Y019880D02*
X028233Y019880D01*
X027623Y020490D01*
D22*
X027583Y021200D02*
X027583Y021210D01*
X028673Y022300D01*
X028673Y024670D01*
X028648Y024695D01*
X024393Y026450D02*
X023433Y026030D01*
X022753Y025350D01*
X021813Y025350D01*
X021833Y025330D01*
X022883Y025330D01*
X022623Y025330D01*
X022683Y025190D02*
X023443Y024430D01*
X023443Y025870D01*
X023433Y025880D01*
X023433Y026030D01*
D23*
X029993Y020660D02*
X033113Y023780D01*
X035013Y023780D01*
X035143Y023910D01*
X036523Y025290D01*
X036543Y025310D01*
X036543Y027000D01*
X036183Y027360D01*
X036183Y027650D01*
X037183Y027650D02*
X037183Y027420D01*
X037263Y027340D01*
X037263Y023310D01*
X037263Y022930D01*
X034153Y019820D01*
X033773Y019820D01*
X033633Y019680D01*
X033633Y016180D01*
X033633Y013390D01*
X033633Y013290D02*
X034453Y012470D01*
X033773Y019820D02*
X033243Y019820D01*
D24*
X030373Y017490D02*
X030373Y015440D01*
X031193Y014620D01*
X031193Y012950D01*
X031193Y012890D01*
X031273Y012810D01*
X031273Y012450D01*
X031903Y011820D01*
X031933Y011820D02*
X035593Y011820D01*
X036353Y011060D01*
X036193Y009590D02*
X034393Y011390D01*
X031553Y011390D01*
X029873Y013070D01*
X027883Y013070D01*
X031673Y012580D02*
X031683Y012590D01*
X031683Y012640D01*
X031733Y012690D01*
X031753Y012690D01*
X030373Y017490D02*
X029733Y018130D01*
X029733Y019050D01*
X028453Y020330D01*
X028453Y020440D01*
X028323Y020570D01*
X028103Y020570D01*
X028093Y020560D01*
X028453Y020440D02*
X028903Y020890D01*
X029133Y020890D01*
D25*
X028673Y024670D02*
X028673Y024890D01*
M02*
