G75*
G70*
%OFA0B0*%
%FSLAX24Y24*%
%IPPOS*%
%LPD*%
%AMOC8*
5,1,8,0,0,1.08239X$1,22.5*
%
%ADD10C,0.0040*%
%ADD11C,0.0080*%
%ADD12C,0.0000*%
%ADD13R,0.0224X0.0273*%
%ADD14R,0.0118X0.0118*%
%ADD15C,0.0020*%
%ADD16R,0.1000X0.4900*%
%ADD17C,0.0050*%
%ADD18R,0.0284X0.0281*%
%ADD19R,0.0394X0.0197*%
%ADD20C,0.0060*%
%ADD21C,0.0030*%
%ADD22R,0.0138X0.1575*%
%ADD23C,0.0160*%
%ADD24C,0.0100*%
%ADD25R,0.0350X0.0846*%
%ADD26R,0.0846X0.0350*%
D10*
X001973Y004260D02*
X002280Y004260D01*
X002127Y004260D02*
X002127Y004720D01*
X001973Y004567D01*
X001948Y006764D02*
X001948Y006994D01*
X002025Y007070D01*
X002102Y007070D01*
X002178Y006994D01*
X002178Y006764D01*
X002178Y006994D02*
X002255Y007070D01*
X002332Y007070D01*
X002409Y006994D01*
X002409Y006764D01*
X001948Y006764D01*
X001948Y007224D02*
X001948Y007531D01*
X001948Y007377D02*
X002409Y007377D01*
X002409Y007684D02*
X002102Y007991D01*
X002025Y007991D01*
X001948Y007915D01*
X001948Y007761D01*
X002025Y007684D01*
X002409Y007684D02*
X002409Y007991D01*
X002332Y008145D02*
X002025Y008145D01*
X001948Y008221D01*
X001948Y008375D01*
X002025Y008452D01*
X002332Y008145D01*
X002409Y008221D01*
X002409Y008375D01*
X002332Y008452D01*
X002025Y008452D01*
X002025Y008605D02*
X001948Y008682D01*
X001948Y008835D01*
X002025Y008912D01*
X002332Y008605D01*
X002409Y008682D01*
X002409Y008835D01*
X002332Y008912D01*
X002025Y008912D01*
X002025Y008605D02*
X002332Y008605D01*
X005364Y007991D02*
X005511Y007696D01*
X005659Y007991D01*
X005364Y007991D01*
X005376Y007967D02*
X005646Y007967D01*
X005627Y007928D02*
X005395Y007928D01*
X005414Y007890D02*
X005608Y007890D01*
X005589Y007851D02*
X005434Y007851D01*
X005453Y007813D02*
X005569Y007813D01*
X005550Y007774D02*
X005472Y007774D01*
X005491Y007736D02*
X005531Y007736D01*
X005511Y007697D02*
X005512Y007697D01*
X005484Y005750D02*
X005484Y005250D01*
X005648Y005250D02*
X005981Y005250D01*
X005814Y005500D02*
X005648Y005500D01*
X005648Y005750D02*
X005648Y005250D01*
X005317Y005584D02*
X005484Y005750D01*
X005648Y005750D02*
X005981Y005750D01*
X005317Y005584D02*
X005150Y005750D01*
X005150Y005250D01*
X004987Y005250D02*
X004987Y005584D01*
X004820Y005750D01*
X004653Y005584D01*
X004653Y005250D01*
X004653Y005500D02*
X004987Y005500D01*
X004987Y004774D02*
X004820Y004440D01*
X004653Y004774D01*
X005150Y004690D02*
X005234Y004774D01*
X005401Y004774D01*
X005484Y004690D01*
X005484Y004607D01*
X005150Y004607D01*
X005150Y004690D02*
X005150Y004523D01*
X005234Y004440D01*
X005401Y004440D01*
X005648Y004440D02*
X005648Y004774D01*
X005814Y004774D02*
X005648Y004607D01*
X005814Y004774D02*
X005898Y004774D01*
X006062Y004774D02*
X006062Y004690D01*
X006145Y004690D01*
X006145Y004774D01*
X006062Y004774D01*
X006062Y004523D02*
X006062Y004440D01*
X006145Y004440D01*
X006145Y004523D01*
X006062Y004523D01*
X006808Y004440D02*
X007141Y004440D01*
X007305Y004440D02*
X007388Y004440D01*
X007388Y004523D01*
X007305Y004523D01*
X007305Y004440D01*
X007554Y004523D02*
X007887Y004857D01*
X007887Y004523D01*
X007804Y004440D01*
X007637Y004440D01*
X007554Y004523D01*
X007554Y004857D01*
X007637Y004940D01*
X007804Y004940D01*
X007887Y004857D01*
X007970Y005250D02*
X007720Y005250D01*
X007636Y005333D01*
X007720Y005417D01*
X007970Y005417D01*
X007970Y005500D02*
X007970Y005250D01*
X008134Y005250D02*
X008134Y005584D01*
X008300Y005584D02*
X008134Y005417D01*
X007970Y005500D02*
X007887Y005584D01*
X007720Y005584D01*
X007473Y005500D02*
X007389Y005584D01*
X007223Y005584D01*
X007139Y005500D01*
X007139Y005333D01*
X007223Y005250D01*
X007389Y005250D01*
X007473Y005333D01*
X007473Y005500D01*
X006976Y005417D02*
X006976Y005333D01*
X006892Y005250D01*
X006642Y005250D01*
X006642Y005750D01*
X006892Y005750D01*
X006976Y005667D01*
X006976Y005584D01*
X006892Y005500D01*
X006642Y005500D01*
X006892Y005500D02*
X006976Y005417D01*
X006975Y004940D02*
X006808Y004774D01*
X006975Y004940D02*
X006975Y004440D01*
X008300Y005584D02*
X008384Y005584D01*
X008548Y005500D02*
X008631Y005584D01*
X008882Y005584D01*
X008882Y005750D02*
X008882Y005250D01*
X008631Y005250D01*
X008548Y005333D01*
X008548Y005500D01*
X009453Y005667D02*
X009536Y005750D01*
X009703Y005750D01*
X009787Y005667D01*
X009787Y005584D01*
X009453Y005250D01*
X009787Y005250D01*
X009950Y005333D02*
X010034Y005250D01*
X010201Y005250D01*
X010284Y005333D01*
X010284Y005667D01*
X009950Y005333D01*
X009950Y005667D01*
X010034Y005750D01*
X010201Y005750D01*
X010284Y005667D01*
X010448Y005584D02*
X010614Y005750D01*
X010614Y005250D01*
X010448Y005250D02*
X010781Y005250D01*
X010945Y005500D02*
X011278Y005500D01*
X011195Y005250D02*
X011195Y005750D01*
X010945Y005500D01*
X011112Y005024D02*
X011112Y004940D01*
X011112Y004774D02*
X011112Y004357D01*
X011028Y004273D01*
X010945Y004273D01*
X010781Y004440D02*
X010531Y004440D01*
X010448Y004523D01*
X010531Y004607D01*
X010781Y004607D01*
X010781Y004690D02*
X010781Y004440D01*
X010781Y004690D02*
X010698Y004774D01*
X010531Y004774D01*
X010284Y004690D02*
X010201Y004774D01*
X009950Y004774D01*
X009950Y004273D01*
X009950Y004440D02*
X010201Y004440D01*
X010284Y004523D01*
X010284Y004690D01*
X009787Y004690D02*
X009787Y004523D01*
X009703Y004440D01*
X009453Y004440D01*
X009453Y004273D02*
X009453Y004774D01*
X009703Y004774D01*
X009787Y004690D01*
X011276Y004774D02*
X011276Y004523D01*
X011360Y004440D01*
X011610Y004440D01*
X011610Y004774D01*
X011773Y004690D02*
X011857Y004774D01*
X012024Y004774D01*
X012107Y004690D01*
X012107Y004607D01*
X011773Y004607D01*
X011773Y004690D02*
X011773Y004523D01*
X011857Y004440D01*
X012024Y004440D01*
X012271Y004440D02*
X012437Y004440D01*
X012354Y004440D02*
X012354Y004940D01*
X012271Y004940D01*
X017993Y005230D02*
X018300Y005230D01*
X018147Y005230D02*
X018147Y005690D01*
X017993Y005537D01*
X023033Y005470D02*
X023033Y005317D01*
X023110Y005240D01*
X023263Y005240D01*
X023340Y005317D01*
X023340Y005393D01*
X023263Y005470D01*
X023033Y005470D01*
X023187Y005624D01*
X023340Y005700D01*
X030743Y006227D02*
X030743Y006687D01*
X030820Y006457D02*
X031050Y006227D01*
X031204Y006227D02*
X031511Y006227D01*
X031357Y006227D02*
X031357Y006687D01*
X031204Y006533D01*
X031050Y006687D02*
X030743Y006380D01*
X031664Y006303D02*
X031971Y006610D01*
X031971Y006303D01*
X031894Y006227D01*
X031741Y006227D01*
X031664Y006303D01*
X031664Y006610D01*
X031741Y006687D01*
X031894Y006687D01*
X031971Y006610D01*
X032124Y006610D02*
X032201Y006687D01*
X032355Y006687D01*
X032431Y006610D01*
X032124Y006303D01*
X032201Y006227D01*
X032355Y006227D01*
X032431Y006303D01*
X032431Y006610D01*
X032124Y006610D02*
X032124Y006303D01*
X035823Y004624D02*
X035900Y004700D01*
X036053Y004700D01*
X036130Y004624D01*
X036130Y004547D01*
X036053Y004470D01*
X036130Y004393D01*
X036130Y004317D01*
X036053Y004240D01*
X035900Y004240D01*
X035823Y004317D01*
X035977Y004470D02*
X036053Y004470D01*
X036283Y004470D02*
X036283Y004317D01*
X036360Y004240D01*
X036514Y004240D01*
X036590Y004317D01*
X036590Y004393D01*
X036514Y004470D01*
X036283Y004470D01*
X036437Y004624D01*
X036590Y004700D01*
X036994Y005283D02*
X036994Y005490D01*
X036994Y005386D02*
X037304Y005386D01*
X037304Y005605D02*
X036994Y005605D01*
X036994Y005760D01*
X037046Y005812D01*
X037149Y005812D01*
X037201Y005760D01*
X037201Y005605D01*
X037304Y005928D02*
X037304Y006134D01*
X037304Y006031D02*
X036994Y006031D01*
X037097Y005928D01*
X037046Y006250D02*
X036994Y006302D01*
X036994Y006405D01*
X037046Y006457D01*
X037252Y006250D01*
X037304Y006302D01*
X037304Y006405D01*
X037252Y006457D01*
X037046Y006457D01*
X037046Y006572D02*
X036994Y006624D01*
X036994Y006727D01*
X037046Y006779D01*
X037252Y006572D01*
X037304Y006624D01*
X037304Y006727D01*
X037252Y006779D01*
X037046Y006779D01*
X037046Y006572D02*
X037252Y006572D01*
X037252Y006250D02*
X037046Y006250D01*
X034127Y013078D02*
X034203Y013155D01*
X034203Y013231D01*
X034127Y013308D01*
X033743Y013308D01*
X033743Y013231D02*
X033743Y013385D01*
X033973Y013538D02*
X033743Y013768D01*
X034203Y013768D01*
X033973Y013845D02*
X033973Y013538D01*
X033820Y013999D02*
X033743Y014075D01*
X033743Y014229D01*
X033820Y014306D01*
X034127Y013999D01*
X034203Y014075D01*
X034203Y014229D01*
X034127Y014306D01*
X033820Y014306D01*
X033820Y014459D02*
X033743Y014536D01*
X033743Y014689D01*
X033820Y014766D01*
X034127Y014459D01*
X034203Y014536D01*
X034203Y014689D01*
X034127Y014766D01*
X033820Y014766D01*
X033820Y014459D02*
X034127Y014459D01*
X034127Y013999D02*
X033820Y013999D01*
X031523Y017370D02*
X031176Y017370D01*
X031523Y017717D01*
X031523Y017804D01*
X031436Y017890D01*
X031262Y017890D01*
X031176Y017804D01*
X030663Y017804D02*
X030663Y017717D01*
X030316Y017370D01*
X030663Y017370D01*
X030832Y017197D02*
X031005Y017370D01*
X030919Y017370D01*
X030919Y017457D01*
X031005Y017457D01*
X031005Y017370D01*
X030663Y017804D02*
X030576Y017890D01*
X030403Y017890D01*
X030316Y017804D01*
X029634Y017890D02*
X029113Y017370D01*
X029200Y017457D02*
X029287Y017370D01*
X029460Y017370D01*
X029547Y017457D01*
X029547Y017804D01*
X029460Y017890D01*
X029287Y017890D01*
X029200Y017804D01*
X029200Y017457D01*
X025819Y020544D02*
X025742Y020467D01*
X025589Y020467D01*
X025512Y020544D01*
X025819Y020851D01*
X025819Y020544D01*
X025512Y020544D02*
X025512Y020851D01*
X025589Y020928D01*
X025742Y020928D01*
X025819Y020851D01*
X025359Y020467D02*
X025052Y020467D01*
X025205Y020467D02*
X025205Y020928D01*
X025052Y020774D01*
X024898Y020774D02*
X024822Y020697D01*
X024898Y020621D01*
X024898Y020544D01*
X024822Y020467D01*
X024668Y020467D01*
X024591Y020544D01*
X024745Y020697D02*
X024822Y020697D01*
X024898Y020774D02*
X024898Y020851D01*
X024822Y020928D01*
X024668Y020928D01*
X024591Y020851D01*
X024438Y020928D02*
X024284Y020928D01*
X024361Y020928D02*
X024361Y020544D01*
X024284Y020467D01*
X024208Y020467D01*
X024131Y020544D01*
X035433Y026550D02*
X035433Y027070D01*
X035607Y026897D01*
X035780Y027070D01*
X035780Y026550D01*
X035949Y026550D02*
X036296Y026897D01*
X036296Y026984D01*
X036209Y027070D01*
X036035Y027070D01*
X035949Y026984D01*
X035949Y026550D02*
X036296Y026550D01*
X036734Y026497D02*
X036811Y026420D01*
X036964Y026420D01*
X037041Y026497D01*
X037041Y026573D01*
X036964Y026650D01*
X036888Y026650D01*
X036964Y026650D02*
X037041Y026727D01*
X037041Y026804D01*
X036964Y026880D01*
X036811Y026880D01*
X036734Y026804D01*
X037194Y026650D02*
X037425Y026650D01*
X037501Y026573D01*
X037501Y026497D01*
X037425Y026420D01*
X037271Y026420D01*
X037194Y026497D01*
X037194Y026650D01*
X037348Y026804D01*
X037501Y026880D01*
X010210Y025170D02*
X009903Y025170D01*
X010057Y025170D02*
X010057Y025630D01*
X009903Y025477D01*
X006636Y025427D02*
X006636Y025514D01*
X006549Y025600D01*
X006375Y025600D01*
X006289Y025514D01*
X006120Y025600D02*
X006120Y025080D01*
X006289Y025080D02*
X006636Y025427D01*
X006636Y025080D02*
X006289Y025080D01*
X005947Y025427D02*
X006120Y025600D01*
X005947Y025427D02*
X005773Y025600D01*
X005773Y025080D01*
X003561Y025217D02*
X003484Y025140D01*
X003330Y025140D01*
X003254Y025217D01*
X003561Y025524D01*
X003561Y025217D01*
X003561Y025524D02*
X003484Y025601D01*
X003330Y025601D01*
X003254Y025524D01*
X003254Y025217D01*
X003100Y025217D02*
X003023Y025140D01*
X002870Y025140D01*
X002793Y025217D01*
X003100Y025524D01*
X003100Y025217D01*
X002793Y025217D02*
X002793Y025524D01*
X002870Y025601D01*
X003023Y025601D01*
X003100Y025524D01*
X002640Y025524D02*
X002640Y025447D01*
X002563Y025370D01*
X002640Y025294D01*
X002640Y025217D01*
X002563Y025140D01*
X002410Y025140D01*
X002333Y025217D01*
X002486Y025370D02*
X002563Y025370D01*
X002640Y025524D02*
X002563Y025601D01*
X002410Y025601D01*
X002333Y025524D01*
X002179Y025601D02*
X002026Y025601D01*
X002103Y025601D02*
X002103Y025217D01*
X002026Y025140D01*
X001949Y025140D01*
X001872Y025217D01*
X001973Y026600D02*
X002280Y026600D01*
X002127Y026600D02*
X002127Y027060D01*
X001973Y026907D01*
X003144Y018424D02*
X003067Y018347D01*
X003067Y018270D01*
X003144Y018194D01*
X003297Y018194D01*
X003374Y018117D01*
X003374Y018040D01*
X003297Y017963D01*
X003144Y017963D01*
X003067Y018040D01*
X003374Y018347D02*
X003297Y018424D01*
X003144Y018424D01*
X003527Y018347D02*
X003604Y018424D01*
X003757Y018424D01*
X003834Y018347D01*
X003834Y018270D01*
X003527Y017963D01*
X003834Y017963D01*
X003988Y018040D02*
X004294Y018347D01*
X004294Y018040D01*
X004218Y017963D01*
X004064Y017963D01*
X003988Y018040D01*
X003988Y018347D01*
X004064Y018424D01*
X004218Y018424D01*
X004294Y018347D01*
X004448Y018347D02*
X004525Y018424D01*
X004678Y018424D01*
X004755Y018347D01*
X004448Y018040D01*
X004525Y017963D01*
X004678Y017963D01*
X004755Y018040D01*
X004755Y018347D01*
X004448Y018347D02*
X004448Y018040D01*
X004600Y017804D02*
X004600Y017457D01*
X004687Y017370D01*
X004860Y017370D01*
X004947Y017457D01*
X004947Y017804D01*
X004860Y017890D01*
X004687Y017890D01*
X004600Y017804D01*
X004513Y017370D02*
X005034Y017890D01*
X005716Y017804D02*
X005803Y017890D01*
X005976Y017890D01*
X006063Y017804D01*
X006063Y017717D01*
X005716Y017370D01*
X006063Y017370D01*
X006232Y017197D02*
X006405Y017370D01*
X006319Y017370D01*
X006319Y017457D01*
X006405Y017457D01*
X006405Y017370D01*
X006576Y017370D02*
X006923Y017717D01*
X006923Y017804D01*
X006836Y017890D01*
X006662Y017890D01*
X006576Y017804D01*
X006576Y017370D02*
X006923Y017370D01*
D11*
X005452Y016121D02*
X005216Y016200D01*
X005216Y016199D02*
X005201Y016202D01*
X005187Y016201D01*
X005173Y016197D01*
X005160Y016189D01*
X005150Y016179D01*
X005142Y016166D01*
X005137Y016153D01*
X005136Y016138D01*
X005138Y016123D01*
X005144Y016110D01*
X005152Y016098D01*
X005163Y016088D01*
X005177Y016082D01*
X005413Y016003D01*
X005177Y015373D01*
X004822Y015432D01*
X004547Y015491D01*
X004684Y016928D01*
X004685Y016928D02*
X004696Y016964D01*
X004711Y016999D01*
X004729Y017031D01*
X004751Y017062D01*
X004775Y017091D01*
X004803Y017116D01*
X004832Y017139D01*
X004865Y017159D01*
X004899Y017175D01*
X004934Y017188D01*
X004970Y017197D01*
X005008Y017202D01*
X005045Y017203D01*
X005083Y017200D01*
X005120Y017194D01*
X005156Y017184D01*
X005191Y017170D01*
X005224Y017153D01*
X005256Y017132D01*
X005285Y017108D01*
X005311Y017081D01*
X005335Y017052D01*
X005356Y017021D01*
X005373Y016987D01*
X005374Y016987D02*
X005401Y016894D01*
X005424Y016799D01*
X005442Y016703D01*
X005456Y016607D01*
X005465Y016510D01*
X005469Y016413D01*
X005468Y016315D01*
X005463Y016218D01*
X005453Y016121D01*
X004074Y015413D02*
X004074Y012873D01*
X004527Y012342D01*
X004527Y009704D01*
X004153Y009664D02*
X004153Y007046D01*
X005255Y007046D01*
X005255Y007479D01*
X004153Y009664D02*
X032066Y009664D01*
X032066Y007046D01*
X030964Y007046D01*
X030964Y007479D01*
X031692Y009704D02*
X031692Y012342D01*
X032145Y012873D01*
X032145Y015413D01*
X031673Y015491D02*
X031397Y015432D01*
X031043Y015373D01*
X030806Y016003D01*
X031043Y016082D01*
X031042Y016082D02*
X031056Y016088D01*
X031067Y016098D01*
X031075Y016110D01*
X031081Y016123D01*
X031083Y016138D01*
X031082Y016153D01*
X031077Y016166D01*
X031069Y016179D01*
X031059Y016189D01*
X031046Y016197D01*
X031032Y016201D01*
X031018Y016202D01*
X031003Y016199D01*
X031003Y016200D02*
X030767Y016121D01*
X030846Y016987D02*
X030863Y017021D01*
X030884Y017052D01*
X030908Y017081D01*
X030934Y017108D01*
X030963Y017132D01*
X030995Y017153D01*
X031028Y017170D01*
X031063Y017184D01*
X031099Y017194D01*
X031136Y017200D01*
X031174Y017203D01*
X031211Y017202D01*
X031249Y017197D01*
X031285Y017188D01*
X031320Y017175D01*
X031354Y017159D01*
X031387Y017139D01*
X031416Y017116D01*
X031444Y017091D01*
X031468Y017062D01*
X031490Y017031D01*
X031508Y016999D01*
X031523Y016964D01*
X031534Y016928D01*
X031535Y016928D02*
X031673Y015491D01*
X030766Y016121D02*
X030756Y016218D01*
X030751Y016315D01*
X030750Y016413D01*
X030754Y016510D01*
X030763Y016607D01*
X030777Y016703D01*
X030795Y016799D01*
X030818Y016894D01*
X030845Y016987D01*
X023763Y011870D02*
X023633Y011960D01*
X022193Y012170D02*
X021823Y012290D01*
X021723Y011920D02*
X020893Y011870D01*
X017043Y012700D02*
X016813Y012200D01*
X012033Y011950D02*
X012013Y011520D01*
X010984Y010491D02*
X010984Y009704D01*
X010708Y009704D02*
X010708Y010491D01*
X010712Y010514D01*
X010719Y010535D01*
X010730Y010556D01*
X010744Y010574D01*
X010761Y010589D01*
X010780Y010602D01*
X010801Y010611D01*
X010823Y010617D01*
X010846Y010619D01*
X010869Y010617D01*
X010891Y010611D01*
X010912Y010602D01*
X010931Y010589D01*
X010948Y010574D01*
X010962Y010556D01*
X010973Y010535D01*
X010980Y010514D01*
X010984Y010491D01*
X002483Y015410D02*
X002283Y015580D01*
X031397Y015432D02*
X031531Y013870D01*
X031594Y012302D01*
X034602Y009151D02*
X034602Y008864D01*
X034602Y008276D02*
X034602Y007989D01*
X035764Y007989D02*
X035764Y008276D01*
X035764Y008864D02*
X035764Y009151D01*
X004625Y012302D02*
X004688Y013870D01*
X004822Y015432D01*
X021263Y005530D02*
X021553Y005720D01*
X021963Y005700D02*
X021973Y005540D01*
X023553Y005720D02*
X023793Y005540D01*
X026063Y005060D02*
X026203Y004960D01*
X036603Y004230D02*
X036743Y004080D01*
D12*
X037353Y003000D02*
X002013Y003000D01*
X001533Y003480D02*
X001533Y027820D01*
X002013Y028300D02*
X037353Y028300D01*
X037401Y028285D01*
X037449Y028266D01*
X037494Y028244D01*
X037538Y028219D01*
X037580Y028190D01*
X037620Y028159D01*
X037657Y028124D01*
X037692Y028087D01*
X037723Y028047D01*
X037752Y028005D01*
X037777Y027961D01*
X037799Y027916D01*
X037818Y027868D01*
X037833Y027820D01*
X037833Y003480D01*
X037818Y003432D01*
X037799Y003384D01*
X037777Y003339D01*
X037752Y003295D01*
X037723Y003253D01*
X037692Y003213D01*
X037657Y003176D01*
X037620Y003141D01*
X037580Y003110D01*
X037538Y003081D01*
X037494Y003056D01*
X037449Y003034D01*
X037401Y003015D01*
X037353Y003000D01*
X031042Y008976D02*
X031044Y009005D01*
X031050Y009033D01*
X031059Y009061D01*
X031072Y009087D01*
X031089Y009110D01*
X031108Y009132D01*
X031130Y009151D01*
X031155Y009166D01*
X031181Y009179D01*
X031209Y009187D01*
X031237Y009192D01*
X031266Y009193D01*
X031295Y009190D01*
X031323Y009183D01*
X031350Y009173D01*
X031376Y009159D01*
X031399Y009142D01*
X031420Y009122D01*
X031438Y009099D01*
X031453Y009074D01*
X031464Y009047D01*
X031472Y009019D01*
X031476Y008990D01*
X031476Y008962D01*
X031472Y008933D01*
X031464Y008905D01*
X031453Y008878D01*
X031438Y008853D01*
X031420Y008830D01*
X031399Y008810D01*
X031376Y008793D01*
X031350Y008779D01*
X031323Y008769D01*
X031295Y008762D01*
X031266Y008759D01*
X031237Y008760D01*
X031209Y008765D01*
X031181Y008773D01*
X031155Y008786D01*
X031130Y008801D01*
X031108Y008820D01*
X031089Y008842D01*
X031072Y008865D01*
X031059Y008891D01*
X031050Y008919D01*
X031044Y008947D01*
X031042Y008976D01*
X030253Y018445D02*
X030255Y018486D01*
X030261Y018527D01*
X030271Y018567D01*
X030284Y018606D01*
X030301Y018643D01*
X030322Y018679D01*
X030346Y018713D01*
X030373Y018744D01*
X030402Y018772D01*
X030435Y018798D01*
X030469Y018820D01*
X030506Y018839D01*
X030544Y018854D01*
X030584Y018866D01*
X030624Y018874D01*
X030665Y018878D01*
X030707Y018878D01*
X030748Y018874D01*
X030788Y018866D01*
X030828Y018854D01*
X030866Y018839D01*
X030902Y018820D01*
X030937Y018798D01*
X030970Y018772D01*
X030999Y018744D01*
X031026Y018713D01*
X031050Y018679D01*
X031071Y018643D01*
X031088Y018606D01*
X031101Y018567D01*
X031111Y018527D01*
X031117Y018486D01*
X031119Y018445D01*
X031117Y018404D01*
X031111Y018363D01*
X031101Y018323D01*
X031088Y018284D01*
X031071Y018247D01*
X031050Y018211D01*
X031026Y018177D01*
X030999Y018146D01*
X030970Y018118D01*
X030937Y018092D01*
X030903Y018070D01*
X030866Y018051D01*
X030828Y018036D01*
X030788Y018024D01*
X030748Y018016D01*
X030707Y018012D01*
X030665Y018012D01*
X030624Y018016D01*
X030584Y018024D01*
X030544Y018036D01*
X030506Y018051D01*
X030470Y018070D01*
X030435Y018092D01*
X030402Y018118D01*
X030373Y018146D01*
X030346Y018177D01*
X030322Y018211D01*
X030301Y018247D01*
X030284Y018284D01*
X030271Y018323D01*
X030261Y018363D01*
X030255Y018404D01*
X030253Y018445D01*
X034171Y025980D02*
X034173Y026025D01*
X034179Y026069D01*
X034188Y026113D01*
X034202Y026155D01*
X034219Y026196D01*
X034240Y026236D01*
X034264Y026274D01*
X034291Y026309D01*
X034321Y026342D01*
X034354Y026372D01*
X034389Y026399D01*
X034427Y026423D01*
X034467Y026444D01*
X034508Y026461D01*
X034550Y026475D01*
X034594Y026484D01*
X034638Y026490D01*
X034683Y026492D01*
X034728Y026490D01*
X034772Y026484D01*
X034816Y026475D01*
X034858Y026461D01*
X034899Y026444D01*
X034939Y026423D01*
X034977Y026399D01*
X035012Y026372D01*
X035045Y026342D01*
X035075Y026309D01*
X035102Y026274D01*
X035126Y026236D01*
X035147Y026196D01*
X035164Y026155D01*
X035178Y026113D01*
X035187Y026069D01*
X035193Y026025D01*
X035195Y025980D01*
X035193Y025935D01*
X035187Y025891D01*
X035178Y025847D01*
X035164Y025805D01*
X035147Y025764D01*
X035126Y025724D01*
X035102Y025686D01*
X035075Y025651D01*
X035045Y025618D01*
X035012Y025588D01*
X034977Y025561D01*
X034939Y025537D01*
X034899Y025516D01*
X034858Y025499D01*
X034816Y025485D01*
X034772Y025476D01*
X034728Y025470D01*
X034683Y025468D01*
X034638Y025470D01*
X034594Y025476D01*
X034550Y025485D01*
X034508Y025499D01*
X034467Y025516D01*
X034427Y025537D01*
X034389Y025561D01*
X034354Y025588D01*
X034321Y025618D01*
X034291Y025651D01*
X034264Y025686D01*
X034240Y025724D01*
X034219Y025764D01*
X034202Y025805D01*
X034188Y025847D01*
X034179Y025891D01*
X034173Y025935D01*
X034171Y025980D01*
X005213Y018445D02*
X005215Y018486D01*
X005221Y018527D01*
X005231Y018567D01*
X005244Y018606D01*
X005261Y018643D01*
X005282Y018679D01*
X005306Y018713D01*
X005333Y018744D01*
X005362Y018772D01*
X005395Y018798D01*
X005429Y018820D01*
X005466Y018839D01*
X005504Y018854D01*
X005544Y018866D01*
X005584Y018874D01*
X005625Y018878D01*
X005667Y018878D01*
X005708Y018874D01*
X005748Y018866D01*
X005788Y018854D01*
X005826Y018839D01*
X005862Y018820D01*
X005897Y018798D01*
X005930Y018772D01*
X005959Y018744D01*
X005986Y018713D01*
X006010Y018679D01*
X006031Y018643D01*
X006048Y018606D01*
X006061Y018567D01*
X006071Y018527D01*
X006077Y018486D01*
X006079Y018445D01*
X006077Y018404D01*
X006071Y018363D01*
X006061Y018323D01*
X006048Y018284D01*
X006031Y018247D01*
X006010Y018211D01*
X005986Y018177D01*
X005959Y018146D01*
X005930Y018118D01*
X005897Y018092D01*
X005863Y018070D01*
X005826Y018051D01*
X005788Y018036D01*
X005748Y018024D01*
X005708Y018016D01*
X005667Y018012D01*
X005625Y018012D01*
X005584Y018016D01*
X005544Y018024D01*
X005504Y018036D01*
X005466Y018051D01*
X005430Y018070D01*
X005395Y018092D01*
X005362Y018118D01*
X005333Y018146D01*
X005306Y018177D01*
X005282Y018211D01*
X005261Y018247D01*
X005244Y018284D01*
X005231Y018323D01*
X005221Y018363D01*
X005215Y018404D01*
X005213Y018445D01*
X004171Y025980D02*
X004173Y026025D01*
X004179Y026069D01*
X004188Y026113D01*
X004202Y026155D01*
X004219Y026196D01*
X004240Y026236D01*
X004264Y026274D01*
X004291Y026309D01*
X004321Y026342D01*
X004354Y026372D01*
X004389Y026399D01*
X004427Y026423D01*
X004467Y026444D01*
X004508Y026461D01*
X004550Y026475D01*
X004594Y026484D01*
X004638Y026490D01*
X004683Y026492D01*
X004728Y026490D01*
X004772Y026484D01*
X004816Y026475D01*
X004858Y026461D01*
X004899Y026444D01*
X004939Y026423D01*
X004977Y026399D01*
X005012Y026372D01*
X005045Y026342D01*
X005075Y026309D01*
X005102Y026274D01*
X005126Y026236D01*
X005147Y026196D01*
X005164Y026155D01*
X005178Y026113D01*
X005187Y026069D01*
X005193Y026025D01*
X005195Y025980D01*
X005193Y025935D01*
X005187Y025891D01*
X005178Y025847D01*
X005164Y025805D01*
X005147Y025764D01*
X005126Y025724D01*
X005102Y025686D01*
X005075Y025651D01*
X005045Y025618D01*
X005012Y025588D01*
X004977Y025561D01*
X004939Y025537D01*
X004899Y025516D01*
X004858Y025499D01*
X004816Y025485D01*
X004772Y025476D01*
X004728Y025470D01*
X004683Y025468D01*
X004638Y025470D01*
X004594Y025476D01*
X004550Y025485D01*
X004508Y025499D01*
X004467Y025516D01*
X004427Y025537D01*
X004389Y025561D01*
X004354Y025588D01*
X004321Y025618D01*
X004291Y025651D01*
X004264Y025686D01*
X004240Y025724D01*
X004219Y025764D01*
X004202Y025805D01*
X004188Y025847D01*
X004179Y025891D01*
X004173Y025935D01*
X004171Y025980D01*
X002013Y028300D02*
X001965Y028285D01*
X001917Y028266D01*
X001872Y028244D01*
X001828Y028219D01*
X001786Y028190D01*
X001746Y028159D01*
X001709Y028124D01*
X001674Y028087D01*
X001643Y028047D01*
X001614Y028005D01*
X001589Y027961D01*
X001567Y027916D01*
X001548Y027868D01*
X001533Y027820D01*
X004645Y008976D02*
X004647Y009011D01*
X004653Y009046D01*
X004663Y009080D01*
X004676Y009113D01*
X004693Y009144D01*
X004714Y009172D01*
X004737Y009199D01*
X004764Y009222D01*
X004792Y009243D01*
X004823Y009260D01*
X004856Y009273D01*
X004890Y009283D01*
X004925Y009289D01*
X004960Y009291D01*
X004995Y009289D01*
X005030Y009283D01*
X005064Y009273D01*
X005097Y009260D01*
X005128Y009243D01*
X005156Y009222D01*
X005183Y009199D01*
X005206Y009172D01*
X005227Y009144D01*
X005244Y009113D01*
X005257Y009080D01*
X005267Y009046D01*
X005273Y009011D01*
X005275Y008976D01*
X005273Y008941D01*
X005267Y008906D01*
X005257Y008872D01*
X005244Y008839D01*
X005227Y008808D01*
X005206Y008780D01*
X005183Y008753D01*
X005156Y008730D01*
X005128Y008709D01*
X005097Y008692D01*
X005064Y008679D01*
X005030Y008669D01*
X004995Y008663D01*
X004960Y008661D01*
X004925Y008663D01*
X004890Y008669D01*
X004856Y008679D01*
X004823Y008692D01*
X004792Y008709D01*
X004764Y008730D01*
X004737Y008753D01*
X004714Y008780D01*
X004693Y008808D01*
X004676Y008839D01*
X004663Y008872D01*
X004653Y008906D01*
X004647Y008941D01*
X004645Y008976D01*
X001533Y003480D02*
X001548Y003432D01*
X001567Y003384D01*
X001589Y003339D01*
X001614Y003295D01*
X001643Y003253D01*
X001674Y003213D01*
X001709Y003176D01*
X001746Y003141D01*
X001786Y003110D01*
X001828Y003081D01*
X001872Y003056D01*
X001917Y003034D01*
X001965Y003015D01*
X002013Y003000D01*
D13*
X034524Y008134D03*
D14*
X030233Y005920D03*
X029573Y005920D03*
X029293Y005920D03*
X029013Y005920D03*
X028733Y005920D03*
X026033Y006270D03*
X025043Y005870D03*
X023513Y005870D03*
X023063Y005870D03*
X022583Y005870D03*
X021963Y005920D03*
X021563Y005870D03*
X021083Y005870D03*
X017223Y005920D03*
X016833Y005870D03*
X016353Y005870D03*
X015873Y005870D03*
X015063Y005870D03*
X014473Y005870D03*
X014013Y005870D03*
X013549Y005870D03*
X013083Y005870D03*
X012373Y005870D03*
X012613Y012020D03*
X012233Y012070D03*
X013443Y012070D03*
X014123Y012070D03*
X014593Y012070D03*
X015083Y012070D03*
X016133Y012070D03*
X016693Y012070D03*
X017103Y012020D03*
X021238Y012070D03*
X021710Y012070D03*
X022191Y012070D03*
X022673Y012070D03*
X023116Y012070D03*
X023483Y012020D03*
X024303Y012070D03*
X024863Y012070D03*
X028893Y012040D03*
X029093Y012270D03*
X029483Y012270D03*
X029683Y012040D03*
X008833Y012020D03*
X002043Y015260D03*
X002043Y015590D03*
X002043Y015880D03*
D15*
X002060Y016090D02*
X001986Y016163D01*
X002023Y016163D02*
X001913Y016163D01*
X001913Y016090D02*
X001913Y016310D01*
X002023Y016310D01*
X002060Y016273D01*
X002060Y016200D01*
X002023Y016163D01*
X002134Y016090D02*
X002281Y016237D01*
X002281Y016273D01*
X002244Y016310D01*
X002171Y016310D01*
X002134Y016273D01*
X002134Y016090D02*
X002281Y016090D01*
X002355Y016127D02*
X002392Y016090D01*
X002465Y016090D01*
X002502Y016127D01*
X002502Y016273D01*
X002465Y016310D01*
X002392Y016310D01*
X002355Y016273D01*
X002355Y016237D01*
X002392Y016200D01*
X002502Y016200D01*
X002576Y016200D02*
X002686Y016200D01*
X002723Y016163D01*
X002723Y016127D01*
X002686Y016090D01*
X002613Y016090D01*
X002576Y016127D01*
X002576Y016200D01*
X002649Y016273D01*
X002723Y016310D01*
X002704Y015330D02*
X002631Y015330D01*
X002594Y015293D01*
X002520Y015293D02*
X002520Y015220D01*
X002483Y015183D01*
X002373Y015183D01*
X002373Y015110D02*
X002373Y015330D01*
X002483Y015330D01*
X002520Y015293D01*
X002446Y015183D02*
X002520Y015110D01*
X002594Y015110D02*
X002741Y015257D01*
X002741Y015293D01*
X002704Y015330D01*
X002815Y015293D02*
X002815Y015257D01*
X002852Y015220D01*
X002962Y015220D01*
X002962Y015147D02*
X002962Y015293D01*
X002925Y015330D01*
X002852Y015330D01*
X002815Y015293D01*
X002815Y015147D02*
X002852Y015110D01*
X002925Y015110D01*
X002962Y015147D01*
X003036Y015147D02*
X003073Y015110D01*
X003146Y015110D01*
X003183Y015147D01*
X003183Y015220D01*
X003146Y015257D01*
X003109Y015257D01*
X003036Y015220D01*
X003036Y015330D01*
X003183Y015330D01*
X002741Y015110D02*
X002594Y015110D01*
X002546Y014980D02*
X002693Y014980D01*
X002693Y014943D01*
X002546Y014797D01*
X002546Y014760D01*
X002472Y014797D02*
X002472Y014943D01*
X002435Y014980D01*
X002362Y014980D01*
X002325Y014943D01*
X002325Y014907D01*
X002362Y014870D01*
X002472Y014870D01*
X002472Y014797D02*
X002435Y014760D01*
X002362Y014760D01*
X002325Y014797D01*
X002251Y014760D02*
X002104Y014760D01*
X002251Y014907D01*
X002251Y014943D01*
X002214Y014980D01*
X002141Y014980D01*
X002104Y014943D01*
X002030Y014943D02*
X002030Y014870D01*
X001993Y014833D01*
X001883Y014833D01*
X001883Y014760D02*
X001883Y014980D01*
X001993Y014980D01*
X002030Y014943D01*
X001956Y014833D02*
X002030Y014760D01*
X003133Y011470D02*
X003243Y011470D01*
X003280Y011433D01*
X003280Y011360D01*
X003243Y011323D01*
X003133Y011323D01*
X003133Y011250D02*
X003133Y011470D01*
X003206Y011323D02*
X003280Y011250D01*
X003354Y011250D02*
X003501Y011397D01*
X003501Y011433D01*
X003464Y011470D01*
X003391Y011470D01*
X003354Y011433D01*
X003354Y011250D02*
X003501Y011250D01*
X003575Y011287D02*
X003612Y011250D01*
X003685Y011250D01*
X003722Y011287D01*
X003722Y011433D01*
X003685Y011470D01*
X003612Y011470D01*
X003575Y011433D01*
X003575Y011397D01*
X003612Y011360D01*
X003722Y011360D01*
X003796Y011287D02*
X003943Y011433D01*
X003943Y011287D01*
X003906Y011250D01*
X003833Y011250D01*
X003796Y011287D01*
X003796Y011433D01*
X003833Y011470D01*
X003906Y011470D01*
X003943Y011433D01*
X003974Y010560D02*
X003901Y010560D01*
X003864Y010523D01*
X003790Y010523D02*
X003753Y010560D01*
X003643Y010560D01*
X003643Y010340D01*
X003753Y010340D01*
X003790Y010377D01*
X003790Y010523D01*
X003974Y010560D02*
X004011Y010523D01*
X004011Y010487D01*
X003864Y010340D01*
X004011Y010340D01*
X004085Y010377D02*
X004232Y010523D01*
X004232Y010377D01*
X004195Y010340D01*
X004122Y010340D01*
X004085Y010377D01*
X004085Y010523D01*
X004122Y010560D01*
X004195Y010560D01*
X004232Y010523D01*
X004306Y010523D02*
X004343Y010560D01*
X004416Y010560D01*
X004453Y010523D01*
X004306Y010377D01*
X004343Y010340D01*
X004416Y010340D01*
X004453Y010377D01*
X004453Y010523D01*
X004306Y010523D02*
X004306Y010377D01*
X007041Y012641D02*
X007078Y012604D01*
X007224Y012604D01*
X007261Y012641D01*
X007261Y012714D01*
X007224Y012751D01*
X007224Y012825D02*
X007261Y012862D01*
X007261Y012935D01*
X007224Y012972D01*
X007188Y012972D01*
X007151Y012935D01*
X007151Y012899D01*
X007151Y012935D02*
X007114Y012972D01*
X007078Y012972D01*
X007041Y012935D01*
X007041Y012862D01*
X007078Y012825D01*
X007078Y012751D02*
X007041Y012714D01*
X007041Y012641D01*
X007078Y013046D02*
X007041Y013083D01*
X007041Y013156D01*
X007078Y013193D01*
X007114Y013193D01*
X007151Y013156D01*
X007188Y013193D01*
X007224Y013193D01*
X007261Y013156D01*
X007261Y013083D01*
X007224Y013046D01*
X007151Y013120D02*
X007151Y013156D01*
X007224Y013267D02*
X007078Y013414D01*
X007224Y013414D01*
X007261Y013377D01*
X007261Y013304D01*
X007224Y013267D01*
X007078Y013267D01*
X007041Y013304D01*
X007041Y013377D01*
X007078Y013414D01*
X007046Y013494D02*
X007010Y013530D01*
X007157Y013677D01*
X007157Y013530D01*
X007120Y013494D01*
X007046Y013494D01*
X007010Y013530D02*
X007010Y013677D01*
X007046Y013714D01*
X007120Y013714D01*
X007157Y013677D01*
X006936Y013677D02*
X006789Y013530D01*
X006825Y013494D01*
X006899Y013494D01*
X006936Y013530D01*
X006936Y013677D01*
X006899Y013714D01*
X006825Y013714D01*
X006789Y013677D01*
X006789Y013530D01*
X006715Y013530D02*
X006678Y013494D01*
X006604Y013494D01*
X006568Y013530D01*
X006494Y013530D02*
X006494Y013677D01*
X006457Y013714D01*
X006383Y013714D01*
X006347Y013677D01*
X006347Y013530D01*
X006383Y013494D01*
X006457Y013494D01*
X006494Y013530D01*
X006494Y013494D02*
X006420Y013567D01*
X006568Y013677D02*
X006604Y013714D01*
X006678Y013714D01*
X006715Y013677D01*
X006715Y013640D01*
X006678Y013604D01*
X006715Y013567D01*
X006715Y013530D01*
X006678Y013604D02*
X006641Y013604D01*
X006924Y014332D02*
X006887Y014369D01*
X006887Y014516D01*
X006924Y014552D01*
X006997Y014552D01*
X007034Y014516D01*
X007108Y014516D02*
X007145Y014552D01*
X007218Y014552D01*
X007255Y014516D01*
X007255Y014479D01*
X007218Y014442D01*
X007255Y014405D01*
X007255Y014369D01*
X007218Y014332D01*
X007145Y014332D01*
X007108Y014369D01*
X007034Y014369D02*
X006997Y014332D01*
X006924Y014332D01*
X007182Y014442D02*
X007218Y014442D01*
X007329Y014516D02*
X007366Y014552D01*
X007439Y014552D01*
X007476Y014516D01*
X007476Y014479D01*
X007329Y014332D01*
X007476Y014332D01*
X007550Y014332D02*
X007697Y014479D01*
X007697Y014516D01*
X007660Y014552D01*
X007587Y014552D01*
X007550Y014516D01*
X007550Y014332D02*
X007697Y014332D01*
X007973Y013704D02*
X008047Y013704D01*
X008084Y013667D01*
X008084Y013520D01*
X008047Y013484D01*
X007973Y013484D01*
X007937Y013520D01*
X007937Y013667D01*
X007973Y013704D01*
X008010Y013557D02*
X008084Y013484D01*
X008158Y013520D02*
X008194Y013484D01*
X008268Y013484D01*
X008305Y013520D01*
X008305Y013557D01*
X008268Y013594D01*
X008231Y013594D01*
X008268Y013594D02*
X008305Y013630D01*
X008305Y013667D01*
X008268Y013704D01*
X008194Y013704D01*
X008158Y013667D01*
X008379Y013667D02*
X008415Y013704D01*
X008489Y013704D01*
X008526Y013667D01*
X008379Y013520D01*
X008415Y013484D01*
X008489Y013484D01*
X008526Y013520D01*
X008526Y013667D01*
X008600Y013630D02*
X008673Y013704D01*
X008673Y013484D01*
X008600Y013484D02*
X008747Y013484D01*
X008861Y013414D02*
X008861Y013267D01*
X008861Y013341D02*
X008641Y013341D01*
X008714Y013267D01*
X008714Y013193D02*
X008751Y013156D01*
X008788Y013193D01*
X008824Y013193D01*
X008861Y013156D01*
X008861Y013083D01*
X008824Y013046D01*
X008824Y012972D02*
X008861Y012935D01*
X008861Y012862D01*
X008824Y012825D01*
X008824Y012751D02*
X008861Y012714D01*
X008861Y012641D01*
X008824Y012604D01*
X008678Y012604D01*
X008641Y012641D01*
X008641Y012714D01*
X008678Y012751D01*
X008678Y012825D02*
X008641Y012862D01*
X008641Y012935D01*
X008678Y012972D01*
X008714Y012972D01*
X008751Y012935D01*
X008788Y012972D01*
X008824Y012972D01*
X008751Y012935D02*
X008751Y012899D01*
X008678Y013046D02*
X008641Y013083D01*
X008641Y013156D01*
X008678Y013193D01*
X008714Y013193D01*
X008751Y013156D02*
X008751Y013120D01*
X008379Y013520D02*
X008379Y013667D01*
X008683Y014360D02*
X008683Y014580D01*
X008793Y014580D01*
X008830Y014543D01*
X008830Y014470D01*
X008793Y014433D01*
X008683Y014433D01*
X008756Y014433D02*
X008830Y014360D01*
X008904Y014397D02*
X008941Y014360D01*
X009014Y014360D01*
X009051Y014397D01*
X009051Y014433D01*
X009014Y014470D01*
X008977Y014470D01*
X009014Y014470D02*
X009051Y014507D01*
X009051Y014543D01*
X009014Y014580D01*
X008941Y014580D01*
X008904Y014543D01*
X009125Y014543D02*
X009162Y014580D01*
X009235Y014580D01*
X009272Y014543D01*
X009272Y014507D01*
X009235Y014470D01*
X009272Y014433D01*
X009272Y014397D01*
X009235Y014360D01*
X009162Y014360D01*
X009125Y014397D01*
X009198Y014470D02*
X009235Y014470D01*
X009346Y014470D02*
X009419Y014507D01*
X009456Y014507D01*
X009493Y014470D01*
X009493Y014397D01*
X009456Y014360D01*
X009383Y014360D01*
X009346Y014397D01*
X009346Y014470D02*
X009346Y014580D01*
X009493Y014580D01*
X009436Y015140D02*
X009436Y015360D01*
X009326Y015250D01*
X009473Y015250D01*
X009252Y015213D02*
X009252Y015177D01*
X009215Y015140D01*
X009142Y015140D01*
X009105Y015177D01*
X009031Y015177D02*
X008994Y015140D01*
X008921Y015140D01*
X008884Y015177D01*
X008810Y015140D02*
X008736Y015213D01*
X008773Y015213D02*
X008663Y015213D01*
X008663Y015140D02*
X008663Y015360D01*
X008773Y015360D01*
X008810Y015323D01*
X008810Y015250D01*
X008773Y015213D01*
X008884Y015323D02*
X008921Y015360D01*
X008994Y015360D01*
X009031Y015323D01*
X009031Y015287D01*
X008994Y015250D01*
X009031Y015213D01*
X009031Y015177D01*
X008994Y015250D02*
X008957Y015250D01*
X009105Y015323D02*
X009142Y015360D01*
X009215Y015360D01*
X009252Y015323D01*
X009252Y015287D01*
X009215Y015250D01*
X009252Y015213D01*
X009215Y015250D02*
X009178Y015250D01*
X009152Y015950D02*
X009115Y015987D01*
X009152Y015950D02*
X009225Y015950D01*
X009262Y015987D01*
X009262Y016023D01*
X009225Y016060D01*
X009188Y016060D01*
X009225Y016060D02*
X009262Y016097D01*
X009262Y016133D01*
X009225Y016170D01*
X009152Y016170D01*
X009115Y016133D01*
X009041Y016133D02*
X009041Y016097D01*
X009004Y016060D01*
X009041Y016023D01*
X009041Y015987D01*
X009004Y015950D01*
X008931Y015950D01*
X008894Y015987D01*
X008820Y015950D02*
X008746Y016023D01*
X008783Y016023D02*
X008673Y016023D01*
X008673Y015950D02*
X008673Y016170D01*
X008783Y016170D01*
X008820Y016133D01*
X008820Y016060D01*
X008783Y016023D01*
X008894Y016133D02*
X008931Y016170D01*
X009004Y016170D01*
X009041Y016133D01*
X009004Y016060D02*
X008967Y016060D01*
X009336Y015987D02*
X009373Y015950D01*
X009446Y015950D01*
X009483Y015987D01*
X009483Y016023D01*
X009446Y016060D01*
X009409Y016060D01*
X009446Y016060D02*
X009483Y016097D01*
X009483Y016133D01*
X009446Y016170D01*
X009373Y016170D01*
X009336Y016133D01*
X008903Y016760D02*
X008756Y016760D01*
X008903Y016907D01*
X008903Y016943D01*
X008866Y016980D01*
X008793Y016980D01*
X008756Y016943D01*
X008682Y016943D02*
X008682Y016907D01*
X008645Y016870D01*
X008682Y016833D01*
X008682Y016797D01*
X008645Y016760D01*
X008572Y016760D01*
X008535Y016797D01*
X008461Y016797D02*
X008424Y016760D01*
X008351Y016760D01*
X008314Y016797D01*
X008240Y016760D02*
X008166Y016833D01*
X008203Y016833D02*
X008093Y016833D01*
X008093Y016760D02*
X008093Y016980D01*
X008203Y016980D01*
X008240Y016943D01*
X008240Y016870D01*
X008203Y016833D01*
X008314Y016943D02*
X008351Y016980D01*
X008424Y016980D01*
X008461Y016943D01*
X008461Y016907D01*
X008424Y016870D01*
X008461Y016833D01*
X008461Y016797D01*
X008424Y016870D02*
X008387Y016870D01*
X008535Y016943D02*
X008572Y016980D01*
X008645Y016980D01*
X008682Y016943D01*
X008645Y016870D02*
X008608Y016870D01*
X008653Y017570D02*
X008653Y017790D01*
X008763Y017790D01*
X008800Y017753D01*
X008800Y017680D01*
X008763Y017643D01*
X008653Y017643D01*
X008726Y017643D02*
X008800Y017570D01*
X008874Y017607D02*
X008911Y017570D01*
X008984Y017570D01*
X009021Y017607D01*
X009021Y017643D01*
X008984Y017680D01*
X008947Y017680D01*
X008984Y017680D02*
X009021Y017717D01*
X009021Y017753D01*
X008984Y017790D01*
X008911Y017790D01*
X008874Y017753D01*
X009095Y017753D02*
X009132Y017790D01*
X009205Y017790D01*
X009242Y017753D01*
X009242Y017717D01*
X009205Y017680D01*
X009242Y017643D01*
X009242Y017607D01*
X009205Y017570D01*
X009132Y017570D01*
X009095Y017607D01*
X009168Y017680D02*
X009205Y017680D01*
X009316Y017717D02*
X009389Y017790D01*
X009389Y017570D01*
X009316Y017570D02*
X009463Y017570D01*
X009456Y018350D02*
X009383Y018350D01*
X009346Y018387D01*
X009493Y018533D01*
X009493Y018387D01*
X009456Y018350D01*
X009346Y018387D02*
X009346Y018533D01*
X009383Y018570D01*
X009456Y018570D01*
X009493Y018533D01*
X009272Y018533D02*
X009272Y018497D01*
X009235Y018460D01*
X009272Y018423D01*
X009272Y018387D01*
X009235Y018350D01*
X009162Y018350D01*
X009125Y018387D01*
X009051Y018387D02*
X009014Y018350D01*
X008941Y018350D01*
X008904Y018387D01*
X008830Y018350D02*
X008756Y018423D01*
X008793Y018423D02*
X008683Y018423D01*
X008683Y018350D02*
X008683Y018570D01*
X008793Y018570D01*
X008830Y018533D01*
X008830Y018460D01*
X008793Y018423D01*
X008904Y018533D02*
X008941Y018570D01*
X009014Y018570D01*
X009051Y018533D01*
X009051Y018497D01*
X009014Y018460D01*
X009051Y018423D01*
X009051Y018387D01*
X009014Y018460D02*
X008977Y018460D01*
X009125Y018533D02*
X009162Y018570D01*
X009235Y018570D01*
X009272Y018533D01*
X009235Y018460D02*
X009198Y018460D01*
X009212Y019151D02*
X009212Y019372D01*
X009102Y019261D01*
X009248Y019261D01*
X009322Y019188D02*
X009322Y019335D01*
X009359Y019372D01*
X009433Y019372D01*
X009469Y019335D01*
X009322Y019188D01*
X009359Y019151D01*
X009433Y019151D01*
X009469Y019188D01*
X009469Y019335D01*
X009027Y019335D02*
X009027Y019298D01*
X008991Y019261D01*
X009027Y019225D01*
X009027Y019188D01*
X008991Y019151D01*
X008917Y019151D01*
X008881Y019188D01*
X008806Y019151D02*
X008733Y019225D01*
X008770Y019225D02*
X008660Y019225D01*
X008660Y019151D02*
X008660Y019372D01*
X008770Y019372D01*
X008806Y019335D01*
X008806Y019261D01*
X008770Y019225D01*
X008881Y019335D02*
X008917Y019372D01*
X008991Y019372D01*
X009027Y019335D01*
X008991Y019261D02*
X008954Y019261D01*
X008984Y019950D02*
X008911Y019950D01*
X008874Y019987D01*
X008800Y019950D02*
X008726Y020023D01*
X008763Y020023D02*
X008653Y020023D01*
X008653Y019950D02*
X008653Y020170D01*
X008763Y020170D01*
X008800Y020133D01*
X008800Y020060D01*
X008763Y020023D01*
X008874Y020133D02*
X008911Y020170D01*
X008984Y020170D01*
X009021Y020133D01*
X009021Y020097D01*
X008984Y020060D01*
X009021Y020023D01*
X009021Y019987D01*
X008984Y019950D01*
X008984Y020060D02*
X008947Y020060D01*
X009095Y020133D02*
X009132Y020170D01*
X009205Y020170D01*
X009242Y020133D01*
X009242Y020097D01*
X009095Y019950D01*
X009242Y019950D01*
X009316Y019987D02*
X009463Y020133D01*
X009463Y019987D01*
X009426Y019950D01*
X009353Y019950D01*
X009316Y019987D01*
X009316Y020133D01*
X009353Y020170D01*
X009426Y020170D01*
X009463Y020133D01*
X009435Y020728D02*
X009361Y020728D01*
X009325Y020765D01*
X009471Y020912D01*
X009471Y020765D01*
X009435Y020728D01*
X009325Y020765D02*
X009325Y020912D01*
X009361Y020949D01*
X009435Y020949D01*
X009471Y020912D01*
X009251Y020912D02*
X009104Y020765D01*
X009140Y020728D01*
X009214Y020728D01*
X009251Y020765D01*
X009251Y020912D01*
X009214Y020949D01*
X009140Y020949D01*
X009104Y020912D01*
X009104Y020765D01*
X009030Y020765D02*
X008993Y020728D01*
X008919Y020728D01*
X008883Y020765D01*
X008809Y020728D02*
X008735Y020802D01*
X008772Y020802D02*
X008662Y020802D01*
X008662Y020728D02*
X008662Y020949D01*
X008772Y020949D01*
X008809Y020912D01*
X008809Y020838D01*
X008772Y020802D01*
X008883Y020912D02*
X008919Y020949D01*
X008993Y020949D01*
X009030Y020912D01*
X009030Y020875D01*
X008993Y020838D01*
X009030Y020802D01*
X009030Y020765D01*
X008993Y020838D02*
X008956Y020838D01*
X008919Y021548D02*
X008883Y021585D01*
X008919Y021548D02*
X008993Y021548D01*
X009030Y021585D01*
X009030Y021622D01*
X008993Y021658D01*
X008956Y021658D01*
X008993Y021658D02*
X009030Y021695D01*
X009030Y021732D01*
X008993Y021769D01*
X008919Y021769D01*
X008883Y021732D01*
X008809Y021732D02*
X008809Y021658D01*
X008772Y021622D01*
X008662Y021622D01*
X008735Y021622D02*
X008809Y021548D01*
X008662Y021548D02*
X008662Y021769D01*
X008772Y021769D01*
X008809Y021732D01*
X009104Y021695D02*
X009177Y021769D01*
X009177Y021548D01*
X009104Y021548D02*
X009251Y021548D01*
X009325Y021548D02*
X009471Y021695D01*
X009471Y021732D01*
X009435Y021769D01*
X009361Y021769D01*
X009325Y021732D01*
X009325Y021548D02*
X009471Y021548D01*
X009471Y022348D02*
X009325Y022348D01*
X009398Y022348D02*
X009398Y022569D01*
X009325Y022495D01*
X009251Y022532D02*
X009104Y022385D01*
X009140Y022348D01*
X009214Y022348D01*
X009251Y022385D01*
X009251Y022532D01*
X009214Y022569D01*
X009140Y022569D01*
X009104Y022532D01*
X009104Y022385D01*
X009030Y022385D02*
X008993Y022348D01*
X008919Y022348D01*
X008883Y022385D01*
X008809Y022348D02*
X008735Y022422D01*
X008772Y022422D02*
X008662Y022422D01*
X008662Y022348D02*
X008662Y022569D01*
X008772Y022569D01*
X008809Y022532D01*
X008809Y022458D01*
X008772Y022422D01*
X008883Y022532D02*
X008919Y022569D01*
X008993Y022569D01*
X009030Y022532D01*
X009030Y022495D01*
X008993Y022458D01*
X009030Y022422D01*
X009030Y022385D01*
X008993Y022458D02*
X008956Y022458D01*
X008919Y023168D02*
X008883Y023205D01*
X008919Y023168D02*
X008993Y023168D01*
X009030Y023205D01*
X009030Y023242D01*
X008993Y023278D01*
X008956Y023278D01*
X008993Y023278D02*
X009030Y023315D01*
X009030Y023352D01*
X008993Y023389D01*
X008919Y023389D01*
X008883Y023352D01*
X008809Y023352D02*
X008809Y023278D01*
X008772Y023242D01*
X008662Y023242D01*
X008735Y023242D02*
X008809Y023168D01*
X008662Y023168D02*
X008662Y023389D01*
X008772Y023389D01*
X008809Y023352D01*
X009104Y023352D02*
X009140Y023389D01*
X009214Y023389D01*
X009251Y023352D01*
X009104Y023205D01*
X009140Y023168D01*
X009214Y023168D01*
X009251Y023205D01*
X009251Y023352D01*
X009325Y023352D02*
X009361Y023389D01*
X009435Y023389D01*
X009471Y023352D01*
X009471Y023315D01*
X009325Y023168D01*
X009471Y023168D01*
X009104Y023205D02*
X009104Y023352D01*
X009125Y023950D02*
X009272Y023950D01*
X009198Y023950D02*
X009198Y024170D01*
X009125Y024097D01*
X009051Y024097D02*
X009014Y024060D01*
X009051Y024023D01*
X009051Y023987D01*
X009014Y023950D01*
X008941Y023950D01*
X008904Y023987D01*
X008830Y023950D02*
X008756Y024023D01*
X008793Y024023D02*
X008683Y024023D01*
X008683Y023950D02*
X008683Y024170D01*
X008793Y024170D01*
X008830Y024133D01*
X008830Y024060D01*
X008793Y024023D01*
X008904Y024133D02*
X008941Y024170D01*
X009014Y024170D01*
X009051Y024133D01*
X009051Y024097D01*
X009014Y024060D02*
X008977Y024060D01*
X009346Y024097D02*
X009419Y024170D01*
X009419Y023950D01*
X009346Y023950D02*
X009493Y023950D01*
X009465Y024758D02*
X009391Y024758D01*
X009355Y024795D01*
X009281Y024795D02*
X009244Y024758D01*
X009170Y024758D01*
X009134Y024795D01*
X009281Y024942D01*
X009281Y024795D01*
X009281Y024942D02*
X009244Y024979D01*
X009170Y024979D01*
X009134Y024942D01*
X009134Y024795D01*
X009060Y024795D02*
X009023Y024758D01*
X008949Y024758D01*
X008913Y024795D01*
X008839Y024758D02*
X008765Y024832D01*
X008802Y024832D02*
X008692Y024832D01*
X008692Y024758D02*
X008692Y024979D01*
X008802Y024979D01*
X008839Y024942D01*
X008839Y024868D01*
X008802Y024832D01*
X008913Y024942D02*
X008949Y024979D01*
X009023Y024979D01*
X009060Y024942D01*
X009060Y024905D01*
X009023Y024868D01*
X009060Y024832D01*
X009060Y024795D01*
X009023Y024868D02*
X008986Y024868D01*
X009355Y024942D02*
X009391Y024979D01*
X009465Y024979D01*
X009501Y024942D01*
X009501Y024905D01*
X009465Y024868D01*
X009501Y024832D01*
X009501Y024795D01*
X009465Y024758D01*
X009465Y024868D02*
X009428Y024868D01*
X009445Y025558D02*
X009445Y025779D01*
X009335Y025668D01*
X009481Y025668D01*
X009261Y025595D02*
X009224Y025558D01*
X009150Y025558D01*
X009114Y025595D01*
X009261Y025742D01*
X009261Y025595D01*
X009261Y025742D02*
X009224Y025779D01*
X009150Y025779D01*
X009114Y025742D01*
X009114Y025595D01*
X009040Y025595D02*
X009003Y025558D01*
X008929Y025558D01*
X008893Y025595D01*
X008819Y025558D02*
X008745Y025632D01*
X008782Y025632D02*
X008672Y025632D01*
X008672Y025558D02*
X008672Y025779D01*
X008782Y025779D01*
X008819Y025742D01*
X008819Y025668D01*
X008782Y025632D01*
X008893Y025742D02*
X008929Y025779D01*
X009003Y025779D01*
X009040Y025742D01*
X009040Y025705D01*
X009003Y025668D01*
X009040Y025632D01*
X009040Y025595D01*
X009003Y025668D02*
X008966Y025668D01*
X008941Y026330D02*
X008904Y026367D01*
X008941Y026330D02*
X009014Y026330D01*
X009051Y026367D01*
X009051Y026403D01*
X009014Y026440D01*
X008977Y026440D01*
X009014Y026440D02*
X009051Y026477D01*
X009051Y026513D01*
X009014Y026550D01*
X008941Y026550D01*
X008904Y026513D01*
X008830Y026513D02*
X008830Y026440D01*
X008793Y026403D01*
X008683Y026403D01*
X008683Y026330D02*
X008683Y026550D01*
X008793Y026550D01*
X008830Y026513D01*
X008756Y026403D02*
X008830Y026330D01*
X009125Y026330D02*
X009272Y026330D01*
X009198Y026330D02*
X009198Y026550D01*
X009125Y026477D01*
X009346Y026513D02*
X009383Y026550D01*
X009456Y026550D01*
X009493Y026513D01*
X009346Y026367D01*
X009383Y026330D01*
X009456Y026330D01*
X009493Y026367D01*
X009493Y026513D01*
X009346Y026513D02*
X009346Y026367D01*
X005470Y025980D02*
X005179Y025980D01*
X004683Y025484D02*
X004683Y025193D01*
X004187Y025980D02*
X003896Y025980D01*
X004683Y026495D02*
X004683Y026767D01*
X006906Y018543D02*
X006869Y018506D01*
X006869Y018359D01*
X006906Y018323D01*
X006979Y018323D01*
X007016Y018359D01*
X007090Y018359D02*
X007127Y018323D01*
X007200Y018323D01*
X007237Y018359D01*
X007237Y018396D01*
X007200Y018433D01*
X007163Y018433D01*
X007200Y018433D02*
X007237Y018469D01*
X007237Y018506D01*
X007200Y018543D01*
X007127Y018543D01*
X007090Y018506D01*
X007016Y018506D02*
X006979Y018543D01*
X006906Y018543D01*
X007311Y018506D02*
X007348Y018543D01*
X007421Y018543D01*
X007458Y018506D01*
X007458Y018469D01*
X007311Y018323D01*
X007458Y018323D01*
X007532Y018359D02*
X007679Y018506D01*
X007679Y018359D01*
X007642Y018323D01*
X007569Y018323D01*
X007532Y018359D01*
X007532Y018506D01*
X007569Y018543D01*
X007642Y018543D01*
X007679Y018506D01*
X007625Y017753D02*
X007625Y017533D01*
X007552Y017533D02*
X007699Y017533D01*
X007552Y017679D02*
X007625Y017753D01*
X007478Y017716D02*
X007441Y017753D01*
X007368Y017753D01*
X007331Y017716D01*
X007257Y017716D02*
X007257Y017679D01*
X007220Y017643D01*
X007257Y017606D01*
X007257Y017569D01*
X007220Y017533D01*
X007147Y017533D01*
X007110Y017569D01*
X007036Y017569D02*
X006999Y017533D01*
X006926Y017533D01*
X006889Y017569D01*
X006889Y017716D01*
X006926Y017753D01*
X006999Y017753D01*
X007036Y017716D01*
X007110Y017716D02*
X007147Y017753D01*
X007220Y017753D01*
X007257Y017716D01*
X007220Y017643D02*
X007183Y017643D01*
X007331Y017533D02*
X007478Y017679D01*
X007478Y017716D01*
X007478Y017533D02*
X007331Y017533D01*
X007352Y016980D02*
X007315Y016943D01*
X007315Y016797D01*
X007462Y016943D01*
X007462Y016797D01*
X007425Y016760D01*
X007352Y016760D01*
X007315Y016797D01*
X007241Y016797D02*
X007204Y016760D01*
X007131Y016760D01*
X007094Y016797D01*
X007020Y016760D02*
X006946Y016833D01*
X006983Y016833D02*
X006873Y016833D01*
X006873Y016760D02*
X006873Y016980D01*
X006983Y016980D01*
X007020Y016943D01*
X007020Y016870D01*
X006983Y016833D01*
X007094Y016943D02*
X007131Y016980D01*
X007204Y016980D01*
X007241Y016943D01*
X007241Y016907D01*
X007204Y016870D01*
X007241Y016833D01*
X007241Y016797D01*
X007204Y016870D02*
X007167Y016870D01*
X007352Y016980D02*
X007425Y016980D01*
X007462Y016943D01*
X007536Y016980D02*
X007536Y016870D01*
X007609Y016907D01*
X007646Y016907D01*
X007683Y016870D01*
X007683Y016797D01*
X007646Y016760D01*
X007573Y016760D01*
X007536Y016797D01*
X007536Y016980D02*
X007683Y016980D01*
X007626Y016160D02*
X007516Y016050D01*
X007663Y016050D01*
X007626Y015940D02*
X007626Y016160D01*
X007442Y016123D02*
X007405Y016160D01*
X007332Y016160D01*
X007295Y016123D01*
X007221Y016123D02*
X007221Y016087D01*
X007184Y016050D01*
X007221Y016013D01*
X007221Y015977D01*
X007184Y015940D01*
X007111Y015940D01*
X007074Y015977D01*
X007000Y015977D02*
X006963Y015940D01*
X006890Y015940D01*
X006853Y015977D01*
X006853Y016123D01*
X006890Y016160D01*
X006963Y016160D01*
X007000Y016123D01*
X007074Y016123D02*
X007111Y016160D01*
X007184Y016160D01*
X007221Y016123D01*
X007184Y016050D02*
X007147Y016050D01*
X007295Y015940D02*
X007442Y016087D01*
X007442Y016123D01*
X007442Y015940D02*
X007295Y015940D01*
X007336Y015362D02*
X007299Y015326D01*
X007336Y015362D02*
X007409Y015362D01*
X007446Y015326D01*
X007446Y015289D01*
X007299Y015142D01*
X007446Y015142D01*
X007520Y015179D02*
X007557Y015142D01*
X007630Y015142D01*
X007667Y015179D01*
X007667Y015215D01*
X007630Y015252D01*
X007594Y015252D01*
X007630Y015252D02*
X007667Y015289D01*
X007667Y015326D01*
X007630Y015362D01*
X007557Y015362D01*
X007520Y015326D01*
X007225Y015326D02*
X007225Y015289D01*
X007188Y015252D01*
X007225Y015215D01*
X007225Y015179D01*
X007188Y015142D01*
X007115Y015142D01*
X007078Y015179D01*
X007004Y015179D02*
X006967Y015142D01*
X006894Y015142D01*
X006857Y015179D01*
X006857Y015326D01*
X006894Y015362D01*
X006967Y015362D01*
X007004Y015326D01*
X007078Y015326D02*
X007115Y015362D01*
X007188Y015362D01*
X007225Y015326D01*
X007188Y015252D02*
X007152Y015252D01*
X007923Y012040D02*
X008033Y012040D01*
X008070Y012003D01*
X008070Y011930D01*
X008033Y011893D01*
X007923Y011893D01*
X007923Y011820D02*
X007923Y012040D01*
X007996Y011893D02*
X008070Y011820D01*
X008144Y011820D02*
X008291Y011967D01*
X008291Y012003D01*
X008254Y012040D01*
X008181Y012040D01*
X008144Y012003D01*
X008144Y011820D02*
X008291Y011820D01*
X008365Y011857D02*
X008402Y011820D01*
X008475Y011820D01*
X008512Y011857D01*
X008512Y012003D01*
X008365Y011857D01*
X008365Y012003D01*
X008402Y012040D01*
X008475Y012040D01*
X008512Y012003D01*
X008586Y012003D02*
X008623Y012040D01*
X008696Y012040D01*
X008733Y012003D01*
X008586Y011857D01*
X008623Y011820D01*
X008696Y011820D01*
X008733Y011857D01*
X008733Y012003D01*
X008586Y012003D02*
X008586Y011857D01*
X011733Y011846D02*
X011953Y011846D01*
X011953Y011773D02*
X011953Y011920D01*
X011806Y011773D02*
X011733Y011846D01*
X011770Y011699D02*
X011916Y011552D01*
X011953Y011589D01*
X011953Y011662D01*
X011916Y011699D01*
X011770Y011699D01*
X011733Y011662D01*
X011733Y011589D01*
X011770Y011552D01*
X011916Y011552D01*
X011953Y011478D02*
X011953Y011331D01*
X011806Y011478D01*
X011770Y011478D01*
X011733Y011441D01*
X011733Y011368D01*
X011770Y011331D01*
X011770Y011257D02*
X011843Y011257D01*
X011880Y011220D01*
X011880Y011110D01*
X011953Y011110D02*
X011733Y011110D01*
X011733Y011220D01*
X011770Y011257D01*
X011880Y011183D02*
X011953Y011257D01*
X012253Y012210D02*
X012253Y012430D01*
X012363Y012430D01*
X012400Y012393D01*
X012400Y012320D01*
X012363Y012283D01*
X012253Y012283D01*
X012326Y012283D02*
X012400Y012210D01*
X012474Y012210D02*
X012621Y012357D01*
X012621Y012393D01*
X012584Y012430D01*
X012511Y012430D01*
X012474Y012393D01*
X012474Y012210D02*
X012621Y012210D01*
X012695Y012247D02*
X012842Y012393D01*
X012842Y012247D01*
X012805Y012210D01*
X012732Y012210D01*
X012695Y012247D01*
X012695Y012393D01*
X012732Y012430D01*
X012805Y012430D01*
X012842Y012393D01*
X012916Y012393D02*
X012953Y012430D01*
X013026Y012430D01*
X013063Y012393D01*
X013063Y012357D01*
X013026Y012320D01*
X013063Y012283D01*
X013063Y012247D01*
X013026Y012210D01*
X012953Y012210D01*
X012916Y012247D01*
X012989Y012320D02*
X013026Y012320D01*
X013043Y012263D02*
X013153Y012263D01*
X013190Y012300D01*
X013190Y012373D01*
X013153Y012410D01*
X013043Y012410D01*
X013043Y012190D01*
X013116Y012263D02*
X013190Y012190D01*
X013264Y012190D02*
X013411Y012337D01*
X013411Y012373D01*
X013374Y012410D01*
X013301Y012410D01*
X013264Y012373D01*
X013264Y012190D02*
X013411Y012190D01*
X013485Y012227D02*
X013632Y012373D01*
X013632Y012227D01*
X013595Y012190D01*
X013522Y012190D01*
X013485Y012227D01*
X013485Y012373D01*
X013522Y012410D01*
X013595Y012410D01*
X013632Y012373D01*
X013706Y012410D02*
X013706Y012300D01*
X013779Y012337D01*
X013816Y012337D01*
X013853Y012300D01*
X013853Y012227D01*
X013816Y012190D01*
X013743Y012190D01*
X013706Y012227D01*
X013706Y012410D02*
X013853Y012410D01*
X014243Y012470D02*
X014353Y012470D01*
X014390Y012433D01*
X014390Y012360D01*
X014353Y012323D01*
X014243Y012323D01*
X014243Y012250D02*
X014243Y012470D01*
X014316Y012323D02*
X014390Y012250D01*
X014464Y012250D02*
X014611Y012397D01*
X014611Y012433D01*
X014574Y012470D01*
X014501Y012470D01*
X014464Y012433D01*
X014464Y012250D02*
X014611Y012250D01*
X014685Y012250D02*
X014832Y012250D01*
X014758Y012250D02*
X014758Y012470D01*
X014685Y012397D01*
X014906Y012433D02*
X014943Y012470D01*
X015016Y012470D01*
X015053Y012433D01*
X014906Y012287D01*
X014943Y012250D01*
X015016Y012250D01*
X015053Y012287D01*
X015053Y012433D01*
X015083Y012413D02*
X015193Y012413D01*
X015230Y012450D01*
X015230Y012523D01*
X015193Y012560D01*
X015083Y012560D01*
X015083Y012340D01*
X015156Y012413D02*
X015230Y012340D01*
X015304Y012340D02*
X015451Y012487D01*
X015451Y012523D01*
X015414Y012560D01*
X015341Y012560D01*
X015304Y012523D01*
X015304Y012340D02*
X015451Y012340D01*
X015525Y012340D02*
X015672Y012340D01*
X015598Y012340D02*
X015598Y012560D01*
X015525Y012487D01*
X015746Y012523D02*
X015783Y012560D01*
X015856Y012560D01*
X015893Y012523D01*
X015893Y012487D01*
X015746Y012340D01*
X015893Y012340D01*
X015903Y012300D02*
X015940Y012337D01*
X016013Y012337D01*
X016050Y012300D01*
X016050Y012190D01*
X016123Y012190D02*
X015903Y012190D01*
X015903Y012300D01*
X015940Y012411D02*
X015903Y012448D01*
X015903Y012521D01*
X015940Y012558D01*
X015976Y012558D01*
X016123Y012411D01*
X016123Y012558D01*
X016123Y012632D02*
X016123Y012779D01*
X016123Y012705D02*
X015903Y012705D01*
X015976Y012632D01*
X016013Y012853D02*
X016013Y013000D01*
X016123Y012963D02*
X015903Y012963D01*
X016013Y012853D01*
X016363Y012830D02*
X016363Y013050D01*
X016473Y013050D01*
X016510Y013013D01*
X016510Y012940D01*
X016473Y012903D01*
X016363Y012903D01*
X016436Y012903D02*
X016510Y012830D01*
X016584Y012830D02*
X016731Y012977D01*
X016731Y013013D01*
X016694Y013050D01*
X016621Y013050D01*
X016584Y013013D01*
X016584Y012830D02*
X016731Y012830D01*
X016805Y012830D02*
X016952Y012830D01*
X016878Y012830D02*
X016878Y013050D01*
X016805Y012977D01*
X017026Y012940D02*
X017136Y012940D01*
X017173Y012903D01*
X017173Y012867D01*
X017136Y012830D01*
X017063Y012830D01*
X017026Y012867D01*
X017026Y012940D01*
X017099Y013013D01*
X017173Y013050D01*
X016123Y012337D02*
X016050Y012263D01*
X014906Y012287D02*
X014906Y012433D01*
X014516Y011980D02*
X014553Y011943D01*
X014553Y011907D01*
X014516Y011870D01*
X014443Y011870D01*
X014406Y011907D01*
X014406Y011943D01*
X014443Y011980D01*
X014516Y011980D01*
X014516Y011870D02*
X014553Y011833D01*
X014553Y011797D01*
X014516Y011760D01*
X014443Y011760D01*
X014406Y011797D01*
X014406Y011833D01*
X014443Y011870D01*
X014332Y011943D02*
X014332Y011797D01*
X014295Y011760D01*
X014222Y011760D01*
X014185Y011797D01*
X014332Y011943D01*
X014295Y011980D01*
X014222Y011980D01*
X014185Y011943D01*
X014185Y011797D01*
X014111Y011760D02*
X013964Y011760D01*
X014111Y011907D01*
X014111Y011943D01*
X014074Y011980D01*
X014001Y011980D01*
X013964Y011943D01*
X013890Y011943D02*
X013890Y011870D01*
X013853Y011833D01*
X013743Y011833D01*
X013743Y011760D02*
X013743Y011980D01*
X013853Y011980D01*
X013890Y011943D01*
X013816Y011833D02*
X013890Y011760D01*
X017233Y011890D02*
X017233Y012110D01*
X017343Y012110D01*
X017380Y012073D01*
X017380Y012000D01*
X017343Y011963D01*
X017233Y011963D01*
X017306Y011963D02*
X017380Y011890D01*
X017454Y011890D02*
X017601Y012037D01*
X017601Y012073D01*
X017564Y012110D01*
X017491Y012110D01*
X017454Y012073D01*
X017454Y011890D02*
X017601Y011890D01*
X017675Y011890D02*
X017822Y011890D01*
X017748Y011890D02*
X017748Y012110D01*
X017675Y012037D01*
X017896Y012037D02*
X017896Y012073D01*
X017933Y012110D01*
X018006Y012110D01*
X018043Y012073D01*
X018043Y012037D01*
X018006Y012000D01*
X017933Y012000D01*
X017896Y012037D01*
X017933Y012000D02*
X017896Y011963D01*
X017896Y011927D01*
X017933Y011890D01*
X018006Y011890D01*
X018043Y011927D01*
X018043Y011963D01*
X018006Y012000D01*
X020050Y012070D02*
X020050Y011850D01*
X020050Y011923D02*
X020160Y011923D01*
X020196Y011960D01*
X020196Y012033D01*
X020160Y012070D01*
X020050Y012070D01*
X020058Y012110D02*
X020058Y012330D01*
X020168Y012330D01*
X020205Y012293D01*
X020205Y012220D01*
X020168Y012183D01*
X020058Y012183D01*
X020132Y012183D02*
X020205Y012110D01*
X020279Y012110D02*
X020426Y012257D01*
X020426Y012293D01*
X020389Y012330D01*
X020316Y012330D01*
X020279Y012293D01*
X020279Y012110D02*
X020426Y012110D01*
X020381Y012070D02*
X020307Y012070D01*
X020271Y012033D01*
X020381Y012070D02*
X020417Y012033D01*
X020417Y011997D01*
X020271Y011850D01*
X020417Y011850D01*
X020492Y011887D02*
X020528Y011850D01*
X020602Y011850D01*
X020638Y011887D01*
X020638Y011960D01*
X020602Y011997D01*
X020565Y011997D01*
X020492Y011960D01*
X020492Y012070D01*
X020638Y012070D01*
X020610Y012110D02*
X020537Y012110D01*
X020500Y012147D01*
X020500Y012220D02*
X020574Y012257D01*
X020610Y012257D01*
X020647Y012220D01*
X020647Y012147D01*
X020610Y012110D01*
X020721Y012147D02*
X020868Y012293D01*
X020868Y012147D01*
X020831Y012110D01*
X020758Y012110D01*
X020721Y012147D01*
X020721Y012293D01*
X020758Y012330D01*
X020831Y012330D01*
X020868Y012293D01*
X020647Y012330D02*
X020500Y012330D01*
X020500Y012220D01*
X020712Y012033D02*
X020749Y012070D01*
X020823Y012070D01*
X020859Y012033D01*
X020859Y011997D01*
X020712Y011850D01*
X020859Y011850D01*
X021271Y012360D02*
X021271Y012580D01*
X021381Y012580D01*
X021418Y012543D01*
X021418Y012470D01*
X021381Y012433D01*
X021271Y012433D01*
X021345Y012433D02*
X021418Y012360D01*
X021492Y012360D02*
X021639Y012507D01*
X021639Y012543D01*
X021602Y012580D01*
X021529Y012580D01*
X021492Y012543D01*
X021492Y012360D02*
X021639Y012360D01*
X021713Y012397D02*
X021750Y012360D01*
X021823Y012360D01*
X021860Y012397D01*
X021860Y012470D01*
X021823Y012507D01*
X021787Y012507D01*
X021713Y012470D01*
X021713Y012580D01*
X021860Y012580D01*
X021934Y012470D02*
X022081Y012470D01*
X022073Y012453D02*
X022183Y012453D01*
X022220Y012490D01*
X022220Y012563D01*
X022183Y012600D01*
X022073Y012600D01*
X022073Y012380D01*
X022044Y012360D02*
X022044Y012580D01*
X021934Y012470D01*
X022146Y012453D02*
X022220Y012380D01*
X022294Y012380D02*
X022441Y012527D01*
X022441Y012563D01*
X022404Y012600D01*
X022331Y012600D01*
X022294Y012563D01*
X022294Y012380D02*
X022441Y012380D01*
X022515Y012417D02*
X022552Y012380D01*
X022625Y012380D01*
X022662Y012417D01*
X022662Y012490D01*
X022625Y012527D01*
X022588Y012527D01*
X022515Y012490D01*
X022515Y012600D01*
X022662Y012600D01*
X022736Y012600D02*
X022736Y012490D01*
X022809Y012527D01*
X022846Y012527D01*
X022883Y012490D01*
X022883Y012417D01*
X022846Y012380D01*
X022773Y012380D01*
X022736Y012417D01*
X022736Y012600D02*
X022883Y012600D01*
X022996Y012430D02*
X023106Y012430D01*
X023143Y012393D01*
X023143Y012320D01*
X023106Y012283D01*
X022996Y012283D01*
X022996Y012210D02*
X022996Y012430D01*
X023069Y012283D02*
X023143Y012210D01*
X023217Y012210D02*
X023364Y012357D01*
X023364Y012393D01*
X023327Y012430D01*
X023254Y012430D01*
X023217Y012393D01*
X023217Y012210D02*
X023364Y012210D01*
X023438Y012247D02*
X023475Y012210D01*
X023548Y012210D01*
X023585Y012247D01*
X023585Y012320D01*
X023548Y012357D01*
X023511Y012357D01*
X023438Y012320D01*
X023438Y012430D01*
X023585Y012430D01*
X023659Y012430D02*
X023806Y012430D01*
X023806Y012393D01*
X023659Y012247D01*
X023659Y012210D01*
X023823Y012262D02*
X023933Y012262D01*
X023896Y012335D01*
X023896Y012372D01*
X023933Y012409D01*
X024006Y012409D01*
X024043Y012372D01*
X024043Y012299D01*
X024006Y012262D01*
X024043Y012188D02*
X024043Y012041D01*
X023896Y012188D01*
X023860Y012188D01*
X023823Y012151D01*
X023823Y012078D01*
X023860Y012041D01*
X023860Y011967D02*
X023933Y011967D01*
X023970Y011930D01*
X023970Y011820D01*
X024043Y011820D02*
X023823Y011820D01*
X023823Y011930D01*
X023860Y011967D01*
X023970Y011893D02*
X024043Y011967D01*
X023823Y012262D02*
X023823Y012409D01*
X023860Y012483D02*
X023896Y012483D01*
X023933Y012520D01*
X023933Y012630D01*
X024006Y012630D02*
X023860Y012630D01*
X023823Y012593D01*
X023823Y012520D01*
X023860Y012483D01*
X024006Y012483D02*
X024043Y012520D01*
X024043Y012593D01*
X024006Y012630D01*
X024433Y012511D02*
X024433Y012438D01*
X024470Y012401D01*
X024470Y012327D02*
X024543Y012327D01*
X024580Y012290D01*
X024580Y012180D01*
X024653Y012180D02*
X024433Y012180D01*
X024433Y012290D01*
X024470Y012327D01*
X024580Y012253D02*
X024653Y012327D01*
X024653Y012401D02*
X024506Y012548D01*
X024470Y012548D01*
X024433Y012511D01*
X024543Y012622D02*
X024543Y012732D01*
X024580Y012769D01*
X024616Y012769D01*
X024653Y012732D01*
X024653Y012659D01*
X024616Y012622D01*
X024543Y012622D01*
X024470Y012695D01*
X024433Y012769D01*
X024470Y012843D02*
X024433Y012880D01*
X024433Y012953D01*
X024470Y012990D01*
X024506Y012990D01*
X024653Y012843D01*
X024653Y012990D01*
X024883Y012973D02*
X024920Y013010D01*
X024956Y013010D01*
X024993Y012973D01*
X025030Y013010D01*
X025066Y013010D01*
X025103Y012973D01*
X025103Y012900D01*
X025066Y012863D01*
X025066Y012789D02*
X025030Y012789D01*
X024993Y012752D01*
X024993Y012642D01*
X025066Y012642D01*
X025103Y012679D01*
X025103Y012752D01*
X025066Y012789D01*
X024920Y012715D02*
X024883Y012789D01*
X024920Y012715D02*
X024993Y012642D01*
X024956Y012568D02*
X024920Y012568D01*
X024883Y012531D01*
X024883Y012458D01*
X024920Y012421D01*
X024920Y012347D02*
X024993Y012347D01*
X025030Y012310D01*
X025030Y012200D01*
X025103Y012200D02*
X024883Y012200D01*
X024883Y012310D01*
X024920Y012347D01*
X025030Y012273D02*
X025103Y012347D01*
X025103Y012421D02*
X024956Y012568D01*
X025103Y012568D02*
X025103Y012421D01*
X024653Y012401D02*
X024653Y012548D01*
X024920Y012863D02*
X024883Y012900D01*
X024883Y012973D01*
X024993Y012973D02*
X024993Y012936D01*
X025193Y013560D02*
X025193Y013670D01*
X025230Y013707D01*
X025303Y013707D01*
X025340Y013670D01*
X025340Y013560D01*
X025413Y013560D02*
X025193Y013560D01*
X025340Y013633D02*
X025413Y013707D01*
X025303Y013781D02*
X025303Y013928D01*
X025266Y014002D02*
X025193Y014075D01*
X025413Y014075D01*
X025413Y014002D02*
X025413Y014149D01*
X025303Y014223D02*
X025193Y014333D01*
X025413Y014333D01*
X025303Y014370D02*
X025303Y014223D01*
X025413Y013891D02*
X025193Y013891D01*
X025303Y013781D01*
X024744Y014071D02*
X024524Y014071D01*
X024524Y014181D01*
X024561Y014217D01*
X024634Y014217D01*
X024671Y014181D01*
X024671Y014071D01*
X024671Y014144D02*
X024744Y014217D01*
X024744Y014292D02*
X024744Y014438D01*
X024744Y014365D02*
X024524Y014365D01*
X024597Y014292D01*
X024561Y014513D02*
X024524Y014549D01*
X024524Y014623D01*
X024561Y014659D01*
X024708Y014513D01*
X024744Y014549D01*
X024744Y014623D01*
X024708Y014659D01*
X024561Y014659D01*
X024561Y014734D02*
X024524Y014770D01*
X024524Y014844D01*
X024561Y014880D01*
X024708Y014734D01*
X024744Y014770D01*
X024744Y014844D01*
X024708Y014880D01*
X024561Y014880D01*
X024561Y014734D02*
X024708Y014734D01*
X024708Y014513D02*
X024561Y014513D01*
X024610Y015780D02*
X024683Y015780D01*
X024720Y015817D01*
X024720Y016000D01*
X024794Y015890D02*
X024941Y015890D01*
X025015Y015927D02*
X025088Y016000D01*
X025088Y015780D01*
X025015Y015780D02*
X025162Y015780D01*
X025236Y015817D02*
X025383Y015963D01*
X025383Y015817D01*
X025346Y015780D01*
X025273Y015780D01*
X025236Y015817D01*
X025236Y015963D01*
X025273Y016000D01*
X025346Y016000D01*
X025383Y015963D01*
X024904Y016000D02*
X024794Y015890D01*
X024904Y015780D02*
X024904Y016000D01*
X024573Y016000D02*
X024573Y015817D01*
X024610Y015780D01*
X026693Y014360D02*
X026693Y014213D01*
X026803Y014213D01*
X026766Y014286D01*
X026766Y014323D01*
X026803Y014360D01*
X026876Y014360D01*
X026913Y014323D01*
X026913Y014250D01*
X026876Y014213D01*
X026913Y014139D02*
X026913Y013992D01*
X026913Y014065D02*
X026693Y014065D01*
X026766Y013992D01*
X026803Y013918D02*
X026803Y013771D01*
X026693Y013881D01*
X026913Y013881D01*
X026913Y013697D02*
X026840Y013623D01*
X026840Y013660D02*
X026840Y013550D01*
X026913Y013550D02*
X026693Y013550D01*
X026693Y013660D01*
X026730Y013697D01*
X026803Y013697D01*
X026840Y013660D01*
X027443Y013650D02*
X027443Y013577D01*
X027480Y013540D01*
X027626Y013540D01*
X027663Y013577D01*
X027663Y013650D01*
X027626Y013687D01*
X027553Y013761D02*
X027553Y013908D01*
X027516Y013982D02*
X027443Y014055D01*
X027663Y014055D01*
X027663Y013982D02*
X027663Y014129D01*
X027626Y014203D02*
X027663Y014240D01*
X027663Y014313D01*
X027626Y014350D01*
X027553Y014350D01*
X027516Y014313D01*
X027516Y014276D01*
X027553Y014203D01*
X027443Y014203D01*
X027443Y014350D01*
X027443Y013871D02*
X027553Y013761D01*
X027480Y013687D02*
X027443Y013650D01*
X027443Y013871D02*
X027663Y013871D01*
X028483Y013880D02*
X028520Y013917D01*
X028593Y013917D01*
X028630Y013880D01*
X028630Y013770D01*
X028703Y013770D02*
X028483Y013770D01*
X028483Y013880D01*
X028630Y013843D02*
X028703Y013917D01*
X028593Y013991D02*
X028483Y014101D01*
X028703Y014101D01*
X028703Y014212D02*
X028703Y014359D01*
X028703Y014285D02*
X028483Y014285D01*
X028556Y014212D01*
X028593Y014138D02*
X028593Y013991D01*
X028666Y014433D02*
X028703Y014433D01*
X028666Y014433D02*
X028520Y014580D01*
X028483Y014580D01*
X028483Y014433D01*
X029163Y013680D02*
X029163Y013533D01*
X029273Y013533D01*
X029236Y013606D01*
X029236Y013643D01*
X029273Y013680D01*
X029346Y013680D01*
X029383Y013643D01*
X029383Y013570D01*
X029346Y013533D01*
X029433Y013533D02*
X029433Y013680D01*
X029470Y013680D01*
X029616Y013533D01*
X029653Y013533D01*
X029693Y013570D02*
X029730Y013533D01*
X029766Y013533D01*
X029803Y013570D01*
X029803Y013680D01*
X029876Y013680D02*
X029730Y013680D01*
X029693Y013643D01*
X029693Y013570D01*
X029693Y013459D02*
X029730Y013459D01*
X029876Y013312D01*
X029913Y013312D01*
X029913Y013238D02*
X029913Y013091D01*
X029766Y013238D01*
X029730Y013238D01*
X029693Y013201D01*
X029693Y013128D01*
X029730Y013091D01*
X029730Y013017D02*
X029693Y012980D01*
X029693Y012870D01*
X029913Y012870D01*
X029840Y012870D02*
X029840Y012980D01*
X029803Y013017D01*
X029730Y013017D01*
X029653Y013017D02*
X029580Y012943D01*
X029580Y012980D02*
X029580Y012870D01*
X029653Y012870D02*
X029433Y012870D01*
X029433Y012980D01*
X029470Y013017D01*
X029543Y013017D01*
X029580Y012980D01*
X029653Y013091D02*
X029506Y013238D01*
X029470Y013238D01*
X029433Y013201D01*
X029433Y013128D01*
X029470Y013091D01*
X029383Y013091D02*
X029236Y013238D01*
X029200Y013238D01*
X029163Y013201D01*
X029163Y013128D01*
X029200Y013091D01*
X029200Y013017D02*
X029273Y013017D01*
X029310Y012980D01*
X029310Y012870D01*
X029383Y012870D02*
X029163Y012870D01*
X029163Y012980D01*
X029200Y013017D01*
X029310Y012943D02*
X029383Y013017D01*
X029383Y013091D02*
X029383Y013238D01*
X029383Y013312D02*
X029346Y013312D01*
X029200Y013459D01*
X029163Y013459D01*
X029163Y013312D01*
X029433Y013312D02*
X029433Y013459D01*
X029470Y013459D01*
X029616Y013312D01*
X029653Y013312D01*
X029693Y013312D02*
X029693Y013459D01*
X029876Y013533D02*
X029913Y013570D01*
X029913Y013643D01*
X029876Y013680D01*
X029653Y013238D02*
X029653Y013091D01*
X029840Y012943D02*
X029913Y013017D01*
X028813Y013010D02*
X028776Y012973D01*
X028813Y013010D02*
X028813Y013083D01*
X028776Y013120D01*
X028740Y013120D01*
X028703Y013083D01*
X028703Y013046D01*
X028703Y013083D02*
X028666Y013120D01*
X028630Y013120D01*
X028593Y013083D01*
X028593Y013010D01*
X028630Y012973D01*
X028630Y012899D02*
X028776Y012752D01*
X028813Y012752D01*
X028813Y012678D02*
X028813Y012531D01*
X028666Y012678D01*
X028630Y012678D01*
X028593Y012641D01*
X028593Y012568D01*
X028630Y012531D01*
X028630Y012457D02*
X028703Y012457D01*
X028740Y012420D01*
X028740Y012310D01*
X028813Y012310D02*
X028593Y012310D01*
X028593Y012420D01*
X028630Y012457D01*
X028740Y012383D02*
X028813Y012457D01*
X028593Y012752D02*
X028593Y012899D01*
X028630Y012899D01*
X028163Y012463D02*
X028016Y012317D01*
X028053Y012280D01*
X028126Y012280D01*
X028163Y012317D01*
X028163Y012463D01*
X028126Y012500D01*
X028053Y012500D01*
X028016Y012463D01*
X028016Y012317D01*
X027942Y012463D02*
X027795Y012317D01*
X027795Y012280D01*
X027721Y012280D02*
X027574Y012280D01*
X027721Y012427D01*
X027721Y012463D01*
X027684Y012500D01*
X027611Y012500D01*
X027574Y012463D01*
X027500Y012463D02*
X027500Y012390D01*
X027463Y012353D01*
X027353Y012353D01*
X027353Y012280D02*
X027353Y012500D01*
X027463Y012500D01*
X027500Y012463D01*
X027426Y012353D02*
X027500Y012280D01*
X027795Y012500D02*
X027942Y012500D01*
X027942Y012463D01*
X027872Y011400D02*
X027872Y011363D01*
X027725Y011217D01*
X027725Y011180D01*
X027651Y011180D02*
X027504Y011180D01*
X027651Y011327D01*
X027651Y011363D01*
X027614Y011400D01*
X027541Y011400D01*
X027504Y011363D01*
X027430Y011363D02*
X027430Y011290D01*
X027393Y011253D01*
X027283Y011253D01*
X027283Y011180D02*
X027283Y011400D01*
X027393Y011400D01*
X027430Y011363D01*
X027356Y011253D02*
X027430Y011180D01*
X027725Y011400D02*
X027872Y011400D01*
X027946Y011327D02*
X028019Y011400D01*
X028019Y011180D01*
X027946Y011180D02*
X028093Y011180D01*
X032213Y007893D02*
X032213Y007820D01*
X032250Y007783D01*
X032250Y007709D02*
X032213Y007672D01*
X032213Y007599D01*
X032250Y007562D01*
X032323Y007488D02*
X032323Y007341D01*
X032213Y007451D01*
X032433Y007451D01*
X032433Y007562D02*
X032286Y007709D01*
X032250Y007709D01*
X032433Y007709D02*
X032433Y007562D01*
X032433Y007783D02*
X032286Y007930D01*
X032250Y007930D01*
X032213Y007893D01*
X032433Y007930D02*
X032433Y007783D01*
X032876Y008279D02*
X032876Y008500D01*
X032986Y008500D01*
X033022Y008463D01*
X033022Y008390D01*
X032986Y008353D01*
X032876Y008353D01*
X032949Y008353D02*
X033022Y008279D01*
X033097Y008390D02*
X033243Y008390D01*
X033317Y008463D02*
X033354Y008500D01*
X033428Y008500D01*
X033464Y008463D01*
X033464Y008426D01*
X033317Y008279D01*
X033464Y008279D01*
X033538Y008316D02*
X033575Y008279D01*
X033649Y008279D01*
X033685Y008316D01*
X033685Y008463D01*
X033538Y008316D01*
X033538Y008463D01*
X033575Y008500D01*
X033649Y008500D01*
X033685Y008463D01*
X033207Y008500D02*
X033207Y008279D01*
X033097Y008390D02*
X033207Y008500D01*
X033249Y007969D02*
X033249Y007822D01*
X033249Y007895D02*
X033029Y007895D01*
X033102Y007822D01*
X033102Y007748D02*
X033065Y007748D01*
X033029Y007711D01*
X033029Y007638D01*
X033065Y007601D01*
X033139Y007527D02*
X033139Y007380D01*
X033029Y007490D01*
X033249Y007490D01*
X033249Y007601D02*
X033102Y007748D01*
X033249Y007748D02*
X033249Y007601D01*
X033212Y007306D02*
X033249Y007269D01*
X033249Y007196D01*
X033212Y007159D01*
X033065Y007159D01*
X033029Y007196D01*
X033029Y007269D01*
X033065Y007306D01*
X032433Y007230D02*
X032396Y007267D01*
X032433Y007230D02*
X032433Y007157D01*
X032396Y007120D01*
X032250Y007120D01*
X032213Y007157D01*
X032213Y007230D01*
X032250Y007267D01*
X033246Y006012D02*
X033246Y005792D01*
X033393Y005792D01*
X033467Y005902D02*
X033614Y005902D01*
X033688Y005975D02*
X033725Y006012D01*
X033798Y006012D01*
X033835Y005975D01*
X033835Y005938D01*
X033688Y005792D01*
X033835Y005792D01*
X033909Y005828D02*
X034056Y005975D01*
X034056Y005828D01*
X034019Y005792D01*
X033946Y005792D01*
X033909Y005828D01*
X033909Y005975D01*
X033946Y006012D01*
X034019Y006012D01*
X034056Y005975D01*
X033577Y006012D02*
X033467Y005902D01*
X033577Y005792D02*
X033577Y006012D01*
X034421Y007089D02*
X034604Y007089D01*
X034641Y007126D01*
X034641Y007199D01*
X034604Y007236D01*
X034421Y007236D01*
X034531Y007310D02*
X034531Y007457D01*
X034458Y007531D02*
X034421Y007568D01*
X034421Y007641D01*
X034458Y007678D01*
X034494Y007678D01*
X034641Y007531D01*
X034641Y007678D01*
X034604Y007752D02*
X034458Y007899D01*
X034604Y007899D01*
X034641Y007862D01*
X034641Y007789D01*
X034604Y007752D01*
X034458Y007752D01*
X034421Y007789D01*
X034421Y007862D01*
X034458Y007899D01*
X034421Y007420D02*
X034531Y007310D01*
X034641Y007420D02*
X034421Y007420D01*
X036583Y007390D02*
X036583Y007317D01*
X036620Y007280D01*
X036766Y007280D01*
X036803Y007317D01*
X036803Y007390D01*
X036766Y007427D01*
X036693Y007501D02*
X036693Y007648D01*
X036620Y007722D02*
X036583Y007759D01*
X036583Y007832D01*
X036620Y007869D01*
X036656Y007869D01*
X036803Y007722D01*
X036803Y007869D01*
X036766Y007943D02*
X036620Y008090D01*
X036766Y008090D01*
X036803Y008053D01*
X036803Y007980D01*
X036766Y007943D01*
X036620Y007943D01*
X036583Y007980D01*
X036583Y008053D01*
X036620Y008090D01*
X036583Y007611D02*
X036693Y007501D01*
X036620Y007427D02*
X036583Y007390D01*
X036583Y007611D02*
X036803Y007611D01*
X037262Y009171D02*
X037262Y009281D01*
X037299Y009318D01*
X037446Y009318D01*
X037482Y009281D01*
X037482Y009171D01*
X037262Y009171D01*
X037372Y009392D02*
X037372Y009539D01*
X037299Y009613D02*
X037262Y009650D01*
X037262Y009723D01*
X037299Y009760D01*
X037335Y009760D01*
X037482Y009613D01*
X037482Y009760D01*
X037482Y009834D02*
X037482Y009981D01*
X037482Y009907D02*
X037262Y009907D01*
X037335Y009834D01*
X037262Y009502D02*
X037372Y009392D01*
X037482Y009502D02*
X037262Y009502D01*
X035783Y010817D02*
X035746Y010780D01*
X035673Y010780D01*
X035636Y010817D01*
X035562Y010780D02*
X035415Y010780D01*
X035562Y010927D01*
X035562Y010963D01*
X035525Y011000D01*
X035452Y011000D01*
X035415Y010963D01*
X035341Y010890D02*
X035194Y010890D01*
X035304Y011000D01*
X035304Y010780D01*
X035120Y010817D02*
X035083Y010780D01*
X035010Y010780D01*
X034973Y010817D01*
X034973Y010963D01*
X035010Y011000D01*
X035083Y011000D01*
X035120Y010963D01*
X035636Y010963D02*
X035673Y011000D01*
X035746Y011000D01*
X035783Y010963D01*
X035783Y010927D01*
X035746Y010890D01*
X035783Y010853D01*
X035783Y010817D01*
X035746Y010890D02*
X035709Y010890D01*
X035742Y011640D02*
X035595Y011640D01*
X035742Y011787D01*
X035742Y011823D01*
X035705Y011860D01*
X035632Y011860D01*
X035595Y011823D01*
X035521Y011750D02*
X035374Y011750D01*
X035484Y011860D01*
X035484Y011640D01*
X035300Y011640D02*
X035226Y011713D01*
X035263Y011713D02*
X035153Y011713D01*
X035153Y011640D02*
X035153Y011860D01*
X035263Y011860D01*
X035300Y011823D01*
X035300Y011750D01*
X035263Y011713D01*
X035816Y011640D02*
X035963Y011640D01*
X035889Y011640D02*
X035889Y011860D01*
X035816Y011787D01*
X033394Y010796D02*
X033394Y010722D01*
X033357Y010686D01*
X033211Y010833D01*
X033357Y010833D01*
X033394Y010796D01*
X033357Y010686D02*
X033211Y010686D01*
X033174Y010722D01*
X033174Y010796D01*
X033211Y010833D01*
X033211Y010612D02*
X033174Y010575D01*
X033174Y010502D01*
X033211Y010465D01*
X033284Y010391D02*
X033284Y010244D01*
X033174Y010354D01*
X033394Y010354D01*
X033394Y010465D02*
X033247Y010612D01*
X033211Y010612D01*
X033394Y010612D02*
X033394Y010465D01*
X033357Y010170D02*
X033211Y010170D01*
X033174Y010133D01*
X033174Y010023D01*
X033394Y010023D01*
X033394Y010133D01*
X033357Y010170D01*
X030306Y005740D02*
X030270Y005740D01*
X030233Y005703D01*
X030233Y005593D01*
X030306Y005593D01*
X030343Y005630D01*
X030343Y005703D01*
X030306Y005740D01*
X030160Y005666D02*
X030233Y005593D01*
X030270Y005519D02*
X030233Y005482D01*
X030233Y005372D01*
X030306Y005372D01*
X030343Y005409D01*
X030343Y005482D01*
X030306Y005519D01*
X030270Y005519D01*
X030160Y005445D02*
X030233Y005372D01*
X030196Y005298D02*
X030160Y005298D01*
X030123Y005261D01*
X030123Y005188D01*
X030160Y005151D01*
X030160Y005077D02*
X030233Y005077D01*
X030270Y005040D01*
X030270Y004930D01*
X030343Y004930D02*
X030123Y004930D01*
X030123Y005040D01*
X030160Y005077D01*
X030270Y005003D02*
X030343Y005077D01*
X030343Y005151D02*
X030196Y005298D01*
X030343Y005298D02*
X030343Y005151D01*
X030160Y005445D02*
X030123Y005519D01*
X030160Y005666D02*
X030123Y005740D01*
X029713Y005703D02*
X029713Y005630D01*
X029676Y005593D01*
X029640Y005593D01*
X029603Y005630D01*
X029603Y005703D01*
X029640Y005740D01*
X029676Y005740D01*
X029713Y005703D01*
X029603Y005703D02*
X029566Y005740D01*
X029530Y005740D01*
X029493Y005703D01*
X029493Y005630D01*
X029530Y005593D01*
X029566Y005593D01*
X029603Y005630D01*
X029530Y005519D02*
X029676Y005372D01*
X029713Y005372D01*
X029713Y005298D02*
X029713Y005151D01*
X029566Y005298D01*
X029530Y005298D01*
X029493Y005261D01*
X029493Y005188D01*
X029530Y005151D01*
X029530Y005077D02*
X029603Y005077D01*
X029640Y005040D01*
X029640Y004930D01*
X029713Y004930D02*
X029493Y004930D01*
X029493Y005040D01*
X029530Y005077D01*
X029403Y005107D02*
X029330Y005033D01*
X029330Y005070D02*
X029330Y004960D01*
X029403Y004960D02*
X029183Y004960D01*
X029183Y005070D01*
X029220Y005107D01*
X029293Y005107D01*
X029330Y005070D01*
X029403Y005181D02*
X029256Y005328D01*
X029220Y005328D01*
X029183Y005291D01*
X029183Y005218D01*
X029220Y005181D01*
X029113Y005191D02*
X028966Y005338D01*
X028930Y005338D01*
X028893Y005301D01*
X028893Y005228D01*
X028930Y005191D01*
X028930Y005117D02*
X029003Y005117D01*
X029040Y005080D01*
X029040Y004970D01*
X029113Y004970D02*
X028893Y004970D01*
X028893Y005080D01*
X028930Y005117D01*
X028803Y005107D02*
X028730Y005033D01*
X028730Y005070D02*
X028730Y004960D01*
X028803Y004960D02*
X028583Y004960D01*
X028583Y005070D01*
X028620Y005107D01*
X028693Y005107D01*
X028730Y005070D01*
X028803Y005181D02*
X028656Y005328D01*
X028620Y005328D01*
X028583Y005291D01*
X028583Y005218D01*
X028620Y005181D01*
X028803Y005181D02*
X028803Y005328D01*
X028803Y005402D02*
X028766Y005402D01*
X028620Y005549D01*
X028583Y005549D01*
X028583Y005402D01*
X028620Y005623D02*
X028583Y005660D01*
X028583Y005733D01*
X028620Y005770D01*
X028656Y005770D01*
X028803Y005623D01*
X028803Y005770D01*
X028893Y005743D02*
X029003Y005633D01*
X029003Y005780D01*
X029113Y005743D02*
X028893Y005743D01*
X028893Y005559D02*
X028930Y005559D01*
X029076Y005412D01*
X029113Y005412D01*
X029183Y005402D02*
X029183Y005549D01*
X029220Y005549D01*
X029366Y005402D01*
X029403Y005402D01*
X029403Y005328D02*
X029403Y005181D01*
X029493Y005372D02*
X029493Y005519D01*
X029530Y005519D01*
X029403Y005660D02*
X029366Y005623D01*
X029293Y005623D01*
X029293Y005733D01*
X029330Y005770D01*
X029366Y005770D01*
X029403Y005733D01*
X029403Y005660D01*
X029293Y005623D02*
X029220Y005696D01*
X029183Y005770D01*
X028893Y005559D02*
X028893Y005412D01*
X029113Y005338D02*
X029113Y005191D01*
X029113Y005117D02*
X029040Y005043D01*
X029640Y005003D02*
X029713Y005077D01*
X028213Y005147D02*
X028176Y005110D01*
X028103Y005110D01*
X028066Y005147D01*
X027992Y005147D02*
X027992Y005293D01*
X027955Y005330D01*
X027882Y005330D01*
X027845Y005293D01*
X027845Y005257D01*
X027882Y005220D01*
X027992Y005220D01*
X027992Y005147D02*
X027955Y005110D01*
X027882Y005110D01*
X027845Y005147D01*
X027771Y005110D02*
X027624Y005110D01*
X027771Y005257D01*
X027771Y005293D01*
X027734Y005330D01*
X027661Y005330D01*
X027624Y005293D01*
X027550Y005293D02*
X027550Y005220D01*
X027513Y005183D01*
X027403Y005183D01*
X027403Y005110D02*
X027403Y005330D01*
X027513Y005330D01*
X027550Y005293D01*
X027476Y005183D02*
X027550Y005110D01*
X027550Y005490D02*
X027476Y005563D01*
X027513Y005563D02*
X027403Y005563D01*
X027403Y005490D02*
X027403Y005710D01*
X027513Y005710D01*
X027550Y005673D01*
X027550Y005600D01*
X027513Y005563D01*
X027624Y005490D02*
X027771Y005637D01*
X027771Y005673D01*
X027734Y005710D01*
X027661Y005710D01*
X027624Y005673D01*
X027624Y005490D02*
X027771Y005490D01*
X027845Y005527D02*
X027882Y005490D01*
X027955Y005490D01*
X027992Y005527D01*
X027992Y005673D01*
X027955Y005710D01*
X027882Y005710D01*
X027845Y005673D01*
X027845Y005637D01*
X027882Y005600D01*
X027992Y005600D01*
X028066Y005637D02*
X028139Y005710D01*
X028139Y005490D01*
X028066Y005490D02*
X028213Y005490D01*
X028176Y005330D02*
X028213Y005293D01*
X028213Y005257D01*
X028176Y005220D01*
X028213Y005183D01*
X028213Y005147D01*
X028176Y005220D02*
X028139Y005220D01*
X028066Y005293D02*
X028103Y005330D01*
X028176Y005330D01*
X027026Y004950D02*
X027026Y004730D01*
X027063Y004840D02*
X026916Y004840D01*
X027026Y004950D01*
X026842Y004913D02*
X026805Y004950D01*
X026732Y004950D01*
X026695Y004913D01*
X026695Y004877D01*
X026732Y004840D01*
X026842Y004840D01*
X026842Y004767D02*
X026842Y004913D01*
X026842Y004767D02*
X026805Y004730D01*
X026732Y004730D01*
X026695Y004767D01*
X026621Y004730D02*
X026474Y004730D01*
X026621Y004877D01*
X026621Y004913D01*
X026584Y004950D01*
X026511Y004950D01*
X026474Y004913D01*
X026400Y004913D02*
X026400Y004840D01*
X026363Y004803D01*
X026253Y004803D01*
X026253Y004730D02*
X026253Y004950D01*
X026363Y004950D01*
X026400Y004913D01*
X026326Y004803D02*
X026400Y004730D01*
X026033Y004770D02*
X025886Y004770D01*
X025959Y004770D02*
X025959Y004990D01*
X025886Y004917D01*
X025812Y004917D02*
X025775Y004880D01*
X025702Y004880D01*
X025665Y004917D01*
X025665Y004953D01*
X025702Y004990D01*
X025775Y004990D01*
X025812Y004953D01*
X025812Y004917D01*
X025775Y004880D02*
X025812Y004843D01*
X025812Y004807D01*
X025775Y004770D01*
X025702Y004770D01*
X025665Y004807D01*
X025665Y004843D01*
X025702Y004880D01*
X025591Y004917D02*
X025591Y004953D01*
X025554Y004990D01*
X025481Y004990D01*
X025444Y004953D01*
X025370Y004953D02*
X025333Y004990D01*
X025260Y004990D01*
X025223Y004953D01*
X025223Y004807D01*
X025260Y004770D01*
X025333Y004770D01*
X025370Y004807D01*
X025444Y004770D02*
X025591Y004917D01*
X025591Y004770D02*
X025444Y004770D01*
X025153Y004960D02*
X024932Y004960D01*
X024932Y005070D01*
X024969Y005106D01*
X025043Y005106D01*
X025079Y005070D01*
X025079Y004960D01*
X025079Y005033D02*
X025153Y005106D01*
X025153Y005181D02*
X025006Y005327D01*
X024969Y005327D01*
X024932Y005291D01*
X024932Y005217D01*
X024969Y005181D01*
X025153Y005181D02*
X025153Y005327D01*
X025116Y005402D02*
X025153Y005438D01*
X025153Y005512D01*
X025116Y005548D01*
X025079Y005548D01*
X025043Y005512D01*
X025043Y005402D01*
X025116Y005402D01*
X025043Y005402D02*
X024969Y005475D01*
X024932Y005548D01*
X024953Y005480D02*
X024806Y005480D01*
X024879Y005480D02*
X024879Y005700D01*
X024806Y005627D01*
X024732Y005700D02*
X024658Y005663D01*
X024585Y005590D01*
X024695Y005590D01*
X024732Y005553D01*
X024732Y005517D01*
X024695Y005480D01*
X024622Y005480D01*
X024585Y005517D01*
X024585Y005590D01*
X024511Y005627D02*
X024511Y005663D01*
X024474Y005700D01*
X024401Y005700D01*
X024364Y005663D01*
X024290Y005663D02*
X024290Y005590D01*
X024253Y005553D01*
X024143Y005553D01*
X024143Y005480D02*
X024143Y005700D01*
X024253Y005700D01*
X024290Y005663D01*
X024216Y005553D02*
X024290Y005480D01*
X024364Y005480D02*
X024511Y005627D01*
X024511Y005480D02*
X024364Y005480D01*
X024073Y005472D02*
X024036Y005509D01*
X024000Y005509D01*
X023963Y005472D01*
X023963Y005362D01*
X024036Y005362D01*
X024073Y005399D01*
X024073Y005472D01*
X024036Y005583D02*
X023890Y005730D01*
X024036Y005730D01*
X024073Y005693D01*
X024073Y005620D01*
X024036Y005583D01*
X023890Y005583D01*
X023853Y005620D01*
X023853Y005693D01*
X023890Y005730D01*
X023853Y005509D02*
X023890Y005435D01*
X023963Y005362D01*
X023926Y005288D02*
X023890Y005288D01*
X023853Y005251D01*
X023853Y005178D01*
X023890Y005141D01*
X023890Y005067D02*
X023963Y005067D01*
X024000Y005030D01*
X024000Y004920D01*
X024073Y004920D02*
X023853Y004920D01*
X023853Y005030D01*
X023890Y005067D01*
X024000Y004993D02*
X024073Y005067D01*
X024073Y005141D02*
X023926Y005288D01*
X024073Y005288D02*
X024073Y005141D01*
X024149Y005009D02*
X024113Y004972D01*
X024113Y004826D01*
X024149Y004789D01*
X024223Y004789D01*
X024259Y004826D01*
X024334Y004789D02*
X024480Y004936D01*
X024480Y004972D01*
X024444Y005009D01*
X024370Y005009D01*
X024334Y004972D01*
X024259Y004972D02*
X024223Y005009D01*
X024149Y005009D01*
X024334Y004789D02*
X024480Y004789D01*
X024554Y004826D02*
X024554Y004862D01*
X024591Y004899D01*
X024665Y004899D01*
X024701Y004862D01*
X024701Y004826D01*
X024665Y004789D01*
X024591Y004789D01*
X024554Y004826D01*
X024591Y004899D02*
X024554Y004936D01*
X024554Y004972D01*
X024591Y005009D01*
X024665Y005009D01*
X024701Y004972D01*
X024701Y004936D01*
X024665Y004899D01*
X024775Y004972D02*
X024812Y005009D01*
X024886Y005009D01*
X024922Y004972D01*
X024775Y004826D01*
X024812Y004789D01*
X024886Y004789D01*
X024922Y004826D01*
X024922Y004972D01*
X024775Y004972D02*
X024775Y004826D01*
X024932Y005623D02*
X025043Y005623D01*
X025006Y005696D01*
X025006Y005733D01*
X025043Y005769D01*
X025116Y005769D01*
X025153Y005733D01*
X025153Y005659D01*
X025116Y005623D01*
X024932Y005623D02*
X024932Y005769D01*
X025433Y005850D02*
X025433Y006070D01*
X025543Y006070D01*
X025580Y006033D01*
X025580Y005960D01*
X025543Y005923D01*
X025433Y005923D01*
X025506Y005923D02*
X025580Y005850D01*
X025654Y005850D02*
X025801Y005997D01*
X025801Y006033D01*
X025764Y006070D01*
X025691Y006070D01*
X025654Y006033D01*
X025654Y005850D02*
X025801Y005850D01*
X025875Y005887D02*
X025912Y005850D01*
X025985Y005850D01*
X026022Y005887D01*
X026022Y006033D01*
X025985Y006070D01*
X025912Y006070D01*
X025875Y006033D01*
X025875Y005997D01*
X025912Y005960D01*
X026022Y005960D01*
X026096Y006033D02*
X026133Y006070D01*
X026206Y006070D01*
X026243Y006033D01*
X026243Y005997D01*
X026096Y005850D01*
X026243Y005850D01*
X026201Y006376D02*
X026054Y006376D01*
X026201Y006522D01*
X026201Y006559D01*
X026164Y006596D01*
X026091Y006596D01*
X026054Y006559D01*
X025980Y006559D02*
X025980Y006486D01*
X025943Y006449D01*
X025833Y006449D01*
X025833Y006376D02*
X025833Y006596D01*
X025943Y006596D01*
X025980Y006559D01*
X025906Y006449D02*
X025980Y006376D01*
X026275Y006412D02*
X026312Y006376D01*
X026385Y006376D01*
X026422Y006412D01*
X026422Y006449D01*
X026385Y006486D01*
X026275Y006486D01*
X026275Y006412D01*
X026275Y006486D02*
X026348Y006559D01*
X026422Y006596D01*
X026496Y006486D02*
X026643Y006486D01*
X026606Y006596D02*
X026496Y006486D01*
X026606Y006376D02*
X026606Y006596D01*
X023493Y006123D02*
X023493Y006087D01*
X023456Y006050D01*
X023383Y006050D01*
X023346Y006087D01*
X023346Y006123D01*
X023383Y006160D01*
X023456Y006160D01*
X023493Y006123D01*
X023456Y006050D02*
X023493Y006013D01*
X023493Y005977D01*
X023456Y005940D01*
X023383Y005940D01*
X023346Y005977D01*
X023346Y006013D01*
X023383Y006050D01*
X023272Y006050D02*
X023272Y005977D01*
X023235Y005940D01*
X023162Y005940D01*
X023125Y005977D01*
X023125Y006050D02*
X023198Y006087D01*
X023235Y006087D01*
X023272Y006050D01*
X023272Y006160D02*
X023125Y006160D01*
X023125Y006050D01*
X023051Y006087D02*
X023051Y006123D01*
X023014Y006160D01*
X022941Y006160D01*
X022904Y006123D01*
X022830Y006123D02*
X022830Y006050D01*
X022793Y006013D01*
X022683Y006013D01*
X022683Y005940D02*
X022683Y006160D01*
X022793Y006160D01*
X022830Y006123D01*
X022756Y006013D02*
X022830Y005940D01*
X022904Y005940D02*
X023051Y006087D01*
X023051Y005940D02*
X022904Y005940D01*
X023013Y005720D02*
X022939Y005683D01*
X022866Y005610D01*
X022976Y005610D01*
X023013Y005573D01*
X023013Y005537D01*
X022976Y005500D01*
X022903Y005500D01*
X022866Y005537D01*
X022866Y005610D01*
X022792Y005610D02*
X022792Y005537D01*
X022755Y005500D01*
X022682Y005500D01*
X022645Y005537D01*
X022645Y005610D02*
X022718Y005647D01*
X022755Y005647D01*
X022792Y005610D01*
X022792Y005720D02*
X022645Y005720D01*
X022645Y005610D01*
X022571Y005647D02*
X022424Y005500D01*
X022571Y005500D01*
X022522Y005450D02*
X022375Y005450D01*
X022375Y005340D01*
X022448Y005377D01*
X022485Y005377D01*
X022522Y005340D01*
X022522Y005267D01*
X022485Y005230D01*
X022412Y005230D01*
X022375Y005267D01*
X022301Y005230D02*
X022154Y005230D01*
X022301Y005377D01*
X022301Y005413D01*
X022264Y005450D01*
X022191Y005450D01*
X022154Y005413D01*
X022080Y005413D02*
X022080Y005340D01*
X022043Y005303D01*
X021933Y005303D01*
X021933Y005230D02*
X021933Y005450D01*
X022043Y005450D01*
X022080Y005413D01*
X022006Y005303D02*
X022080Y005230D01*
X022203Y005500D02*
X022203Y005720D01*
X022313Y005720D01*
X022350Y005683D01*
X022350Y005610D01*
X022313Y005573D01*
X022203Y005573D01*
X022276Y005573D02*
X022350Y005500D01*
X022424Y005683D02*
X022461Y005720D01*
X022534Y005720D01*
X022571Y005683D01*
X022571Y005647D01*
X022633Y005450D02*
X022706Y005450D01*
X022743Y005413D01*
X022743Y005377D01*
X022706Y005340D01*
X022743Y005303D01*
X022743Y005267D01*
X022706Y005230D01*
X022633Y005230D01*
X022596Y005267D01*
X022669Y005340D02*
X022706Y005340D01*
X022596Y005413D02*
X022633Y005450D01*
X021573Y005240D02*
X021426Y005240D01*
X021499Y005240D02*
X021499Y005460D01*
X021426Y005387D01*
X021352Y005350D02*
X021352Y005277D01*
X021315Y005240D01*
X021242Y005240D01*
X021205Y005277D01*
X021205Y005350D02*
X021278Y005387D01*
X021315Y005387D01*
X021352Y005350D01*
X021352Y005460D02*
X021205Y005460D01*
X021205Y005350D01*
X021131Y005387D02*
X020984Y005240D01*
X021131Y005240D01*
X021131Y005387D02*
X021131Y005423D01*
X021094Y005460D01*
X021021Y005460D01*
X020984Y005423D01*
X020910Y005423D02*
X020910Y005350D01*
X020873Y005313D01*
X020763Y005313D01*
X020763Y005240D02*
X020763Y005460D01*
X020873Y005460D01*
X020910Y005423D01*
X020933Y005530D02*
X020896Y005567D01*
X021043Y005713D01*
X021043Y005567D01*
X021006Y005530D01*
X020933Y005530D01*
X020896Y005567D02*
X020896Y005713D01*
X020933Y005750D01*
X021006Y005750D01*
X021043Y005713D01*
X020822Y005713D02*
X020785Y005750D01*
X020712Y005750D01*
X020675Y005713D01*
X020601Y005713D02*
X020564Y005750D01*
X020491Y005750D01*
X020454Y005713D01*
X020380Y005713D02*
X020380Y005640D01*
X020343Y005603D01*
X020233Y005603D01*
X020233Y005530D02*
X020233Y005750D01*
X020343Y005750D01*
X020380Y005713D01*
X020306Y005603D02*
X020380Y005530D01*
X020454Y005530D02*
X020601Y005677D01*
X020601Y005713D01*
X020601Y005530D02*
X020454Y005530D01*
X020675Y005530D02*
X020822Y005677D01*
X020822Y005713D01*
X020822Y005530D02*
X020675Y005530D01*
X020836Y005313D02*
X020910Y005240D01*
X018153Y005847D02*
X018153Y005993D01*
X018116Y006030D01*
X018043Y006030D01*
X018006Y005993D01*
X018006Y005957D01*
X018043Y005920D01*
X018153Y005920D01*
X018153Y005847D02*
X018116Y005810D01*
X018043Y005810D01*
X018006Y005847D01*
X017932Y005810D02*
X017785Y005810D01*
X017858Y005810D02*
X017858Y006030D01*
X017785Y005957D01*
X017711Y005957D02*
X017711Y005993D01*
X017674Y006030D01*
X017601Y006030D01*
X017564Y005993D01*
X017490Y005993D02*
X017490Y005920D01*
X017453Y005883D01*
X017343Y005883D01*
X017343Y005810D02*
X017343Y006030D01*
X017453Y006030D01*
X017490Y005993D01*
X017416Y005883D02*
X017490Y005810D01*
X017564Y005810D02*
X017711Y005957D01*
X017711Y005810D02*
X017564Y005810D01*
X017423Y005740D02*
X017423Y005703D01*
X017276Y005557D01*
X017276Y005520D01*
X017202Y005520D02*
X017055Y005520D01*
X017128Y005520D02*
X017128Y005740D01*
X017055Y005667D01*
X016981Y005667D02*
X016981Y005703D01*
X016944Y005740D01*
X016871Y005740D01*
X016834Y005703D01*
X016760Y005703D02*
X016760Y005630D01*
X016723Y005593D01*
X016613Y005593D01*
X016613Y005520D02*
X016613Y005740D01*
X016723Y005740D01*
X016760Y005703D01*
X016686Y005593D02*
X016760Y005520D01*
X016834Y005520D02*
X016981Y005667D01*
X016981Y005520D02*
X016834Y005520D01*
X016876Y005357D02*
X016839Y005320D01*
X016876Y005357D02*
X016949Y005357D01*
X016986Y005320D01*
X016986Y005284D01*
X016839Y005137D01*
X016986Y005137D01*
X017060Y005173D02*
X017060Y005210D01*
X017097Y005247D01*
X017170Y005247D01*
X017207Y005210D01*
X017207Y005173D01*
X017170Y005137D01*
X017097Y005137D01*
X017060Y005173D01*
X017097Y005247D02*
X017060Y005284D01*
X017060Y005320D01*
X017097Y005357D01*
X017170Y005357D01*
X017207Y005320D01*
X017207Y005284D01*
X017170Y005247D01*
X017281Y005284D02*
X017354Y005357D01*
X017354Y005137D01*
X017281Y005137D02*
X017428Y005137D01*
X016765Y005137D02*
X016692Y005210D01*
X016728Y005210D02*
X016618Y005210D01*
X016618Y005137D02*
X016618Y005357D01*
X016728Y005357D01*
X016765Y005320D01*
X016765Y005247D01*
X016728Y005210D01*
X016473Y005181D02*
X016326Y005328D01*
X016290Y005328D01*
X016253Y005291D01*
X016253Y005218D01*
X016290Y005181D01*
X016290Y005107D02*
X016363Y005107D01*
X016400Y005070D01*
X016400Y004960D01*
X016473Y004960D02*
X016253Y004960D01*
X016253Y005070D01*
X016290Y005107D01*
X016400Y005033D02*
X016473Y005107D01*
X016473Y005181D02*
X016473Y005328D01*
X016473Y005402D02*
X016473Y005549D01*
X016473Y005475D02*
X016253Y005475D01*
X016326Y005402D01*
X016363Y005623D02*
X016326Y005696D01*
X016326Y005733D01*
X016363Y005770D01*
X016436Y005770D01*
X016473Y005733D01*
X016473Y005660D01*
X016436Y005623D01*
X016363Y005623D02*
X016253Y005623D01*
X016253Y005770D01*
X015983Y005743D02*
X015983Y005670D01*
X015946Y005633D01*
X015983Y005559D02*
X015983Y005412D01*
X015983Y005485D02*
X015763Y005485D01*
X015836Y005412D01*
X015836Y005338D02*
X015800Y005338D01*
X015763Y005301D01*
X015763Y005228D01*
X015800Y005191D01*
X015800Y005117D02*
X015873Y005117D01*
X015910Y005080D01*
X015910Y004970D01*
X015983Y004970D02*
X015763Y004970D01*
X015763Y005080D01*
X015800Y005117D01*
X015910Y005043D02*
X015983Y005117D01*
X015983Y005191D02*
X015836Y005338D01*
X015983Y005338D02*
X015983Y005191D01*
X015800Y005633D02*
X015763Y005670D01*
X015763Y005743D01*
X015800Y005780D01*
X015836Y005780D01*
X015873Y005743D01*
X015910Y005780D01*
X015946Y005780D01*
X015983Y005743D01*
X015873Y005743D02*
X015873Y005706D01*
X015146Y005073D02*
X015146Y005000D01*
X015110Y004963D01*
X014963Y005110D01*
X015110Y005110D01*
X015146Y005073D01*
X015110Y004963D02*
X014963Y004963D01*
X014926Y005000D01*
X014926Y005073D01*
X014963Y005110D01*
X014873Y005157D02*
X014800Y005083D01*
X014800Y005120D02*
X014800Y005010D01*
X014873Y005010D02*
X014653Y005010D01*
X014653Y005120D01*
X014690Y005157D01*
X014763Y005157D01*
X014800Y005120D01*
X014873Y005231D02*
X014726Y005378D01*
X014690Y005378D01*
X014653Y005341D01*
X014653Y005268D01*
X014690Y005231D01*
X014593Y005201D02*
X014446Y005348D01*
X014410Y005348D01*
X014373Y005311D01*
X014373Y005238D01*
X014410Y005201D01*
X014410Y005127D02*
X014483Y005127D01*
X014520Y005090D01*
X014520Y004980D01*
X014593Y004980D02*
X014373Y004980D01*
X014373Y005090D01*
X014410Y005127D01*
X014520Y005053D02*
X014593Y005127D01*
X014593Y005201D02*
X014593Y005348D01*
X014556Y005422D02*
X014410Y005569D01*
X014556Y005569D01*
X014593Y005532D01*
X014593Y005459D01*
X014556Y005422D01*
X014410Y005422D01*
X014373Y005459D01*
X014373Y005532D01*
X014410Y005569D01*
X014410Y005643D02*
X014446Y005643D01*
X014483Y005680D01*
X014483Y005790D01*
X014556Y005790D02*
X014410Y005790D01*
X014373Y005753D01*
X014373Y005680D01*
X014410Y005643D01*
X014556Y005643D02*
X014593Y005680D01*
X014593Y005753D01*
X014556Y005790D01*
X014653Y005746D02*
X014873Y005746D01*
X014873Y005673D02*
X014873Y005820D01*
X014726Y005673D02*
X014653Y005746D01*
X014653Y005525D02*
X014873Y005525D01*
X014873Y005452D02*
X014873Y005599D01*
X014726Y005452D02*
X014653Y005525D01*
X014873Y005378D02*
X014873Y005231D01*
X014963Y004889D02*
X015000Y004889D01*
X015036Y004852D01*
X015036Y004779D01*
X015000Y004742D01*
X014963Y004742D01*
X014926Y004779D01*
X014926Y004852D01*
X014963Y004889D01*
X015036Y004852D02*
X015073Y004889D01*
X015110Y004889D01*
X015146Y004852D01*
X015146Y004779D01*
X015110Y004742D01*
X015073Y004742D01*
X015036Y004779D01*
X015000Y004668D02*
X014963Y004668D01*
X014926Y004631D01*
X014926Y004558D01*
X014963Y004521D01*
X014963Y004447D02*
X015036Y004447D01*
X015073Y004410D01*
X015073Y004300D01*
X015146Y004300D02*
X014926Y004300D01*
X014926Y004410D01*
X014963Y004447D01*
X015073Y004373D02*
X015146Y004447D01*
X015146Y004521D02*
X015000Y004668D01*
X015146Y004668D02*
X015146Y004521D01*
X014113Y004970D02*
X013893Y004970D01*
X013893Y005080D01*
X013930Y005117D01*
X014003Y005117D01*
X014040Y005080D01*
X014040Y004970D01*
X014040Y005043D02*
X014113Y005117D01*
X014113Y005191D02*
X013966Y005338D01*
X013930Y005338D01*
X013893Y005301D01*
X013893Y005228D01*
X013930Y005191D01*
X014113Y005191D02*
X014113Y005338D01*
X014076Y005412D02*
X013930Y005559D01*
X014076Y005559D01*
X014113Y005522D01*
X014113Y005449D01*
X014076Y005412D01*
X013930Y005412D01*
X013893Y005449D01*
X013893Y005522D01*
X013930Y005559D01*
X013893Y005633D02*
X013893Y005780D01*
X013930Y005780D01*
X014076Y005633D01*
X014113Y005633D01*
X013653Y005655D02*
X013616Y005619D01*
X013543Y005619D01*
X013543Y005729D01*
X013580Y005765D01*
X013616Y005765D01*
X013653Y005729D01*
X013653Y005655D01*
X013543Y005619D02*
X013470Y005692D01*
X013433Y005765D01*
X013326Y005770D02*
X013326Y005550D01*
X013433Y005508D02*
X013470Y005544D01*
X013616Y005398D01*
X013653Y005434D01*
X013653Y005508D01*
X013616Y005544D01*
X013470Y005544D01*
X013433Y005508D02*
X013433Y005434D01*
X013470Y005398D01*
X013616Y005398D01*
X013653Y005323D02*
X013653Y005177D01*
X013506Y005323D01*
X013470Y005323D01*
X013433Y005287D01*
X013433Y005213D01*
X013470Y005177D01*
X013470Y005102D02*
X013543Y005102D01*
X013580Y005066D01*
X013580Y004956D01*
X013580Y005029D02*
X013653Y005102D01*
X013653Y004956D02*
X013433Y004956D01*
X013433Y005066D01*
X013470Y005102D01*
X013105Y005550D02*
X013032Y005550D01*
X012995Y005587D01*
X013142Y005733D01*
X013142Y005587D01*
X013105Y005550D01*
X012995Y005587D02*
X012995Y005733D01*
X013032Y005770D01*
X013105Y005770D01*
X013142Y005733D01*
X013216Y005660D02*
X013363Y005660D01*
X013326Y005770D02*
X013216Y005660D01*
X012921Y005697D02*
X012774Y005550D01*
X012921Y005550D01*
X012921Y005697D02*
X012921Y005733D01*
X012884Y005770D01*
X012811Y005770D01*
X012774Y005733D01*
X012700Y005733D02*
X012700Y005660D01*
X012663Y005623D01*
X012553Y005623D01*
X012513Y005657D02*
X012366Y005510D01*
X012513Y005510D01*
X012553Y005550D02*
X012553Y005770D01*
X012663Y005770D01*
X012700Y005733D01*
X012626Y005623D02*
X012700Y005550D01*
X012513Y005657D02*
X012513Y005693D01*
X012476Y005730D01*
X012403Y005730D01*
X012366Y005693D01*
X012292Y005693D02*
X012145Y005547D01*
X012182Y005510D01*
X012255Y005510D01*
X012292Y005547D01*
X012292Y005693D01*
X012255Y005730D01*
X012182Y005730D01*
X012145Y005693D01*
X012145Y005547D01*
X012071Y005510D02*
X011924Y005510D01*
X012071Y005657D01*
X012071Y005693D01*
X012034Y005730D01*
X011961Y005730D01*
X011924Y005693D01*
X011850Y005693D02*
X011850Y005620D01*
X011813Y005583D01*
X011703Y005583D01*
X011703Y005510D02*
X011703Y005730D01*
X011813Y005730D01*
X011850Y005693D01*
X011776Y005583D02*
X011850Y005510D01*
X017276Y005740D02*
X017423Y005740D01*
X020196Y011850D02*
X020123Y011923D01*
X024173Y017740D02*
X024173Y017960D01*
X024283Y017960D01*
X024320Y017923D01*
X024320Y017850D01*
X024283Y017813D01*
X024173Y017813D01*
X024246Y017813D02*
X024320Y017740D01*
X024394Y017850D02*
X024541Y017850D01*
X024615Y017887D02*
X024688Y017960D01*
X024688Y017740D01*
X024615Y017740D02*
X024762Y017740D01*
X024836Y017777D02*
X024873Y017740D01*
X024946Y017740D01*
X024983Y017777D01*
X024983Y017813D01*
X024946Y017850D01*
X024909Y017850D01*
X024946Y017850D02*
X024983Y017887D01*
X024983Y017923D01*
X024946Y017960D01*
X024873Y017960D01*
X024836Y017923D01*
X024504Y017960D02*
X024504Y017740D01*
X024394Y017850D02*
X024504Y017960D01*
X024843Y019070D02*
X024843Y019180D01*
X024880Y019217D01*
X024953Y019217D01*
X024990Y019180D01*
X024990Y019070D01*
X025063Y019070D02*
X024843Y019070D01*
X024990Y019143D02*
X025063Y019217D01*
X024953Y019291D02*
X024953Y019438D01*
X024916Y019512D02*
X024843Y019585D01*
X025063Y019585D01*
X025063Y019512D02*
X025063Y019659D01*
X025063Y019733D02*
X025063Y019880D01*
X025063Y019806D02*
X024843Y019806D01*
X024916Y019733D01*
X024843Y019401D02*
X024953Y019291D01*
X025063Y019401D02*
X024843Y019401D01*
X025653Y019371D02*
X025763Y019261D01*
X025763Y019408D01*
X025726Y019482D02*
X025653Y019555D01*
X025873Y019555D01*
X025873Y019482D02*
X025873Y019629D01*
X025873Y019703D02*
X025726Y019850D01*
X025690Y019850D01*
X025653Y019813D01*
X025653Y019740D01*
X025690Y019703D01*
X025873Y019703D02*
X025873Y019850D01*
X025873Y019371D02*
X025653Y019371D01*
X025690Y019187D02*
X025763Y019187D01*
X025800Y019150D01*
X025800Y019040D01*
X025873Y019040D02*
X025653Y019040D01*
X025653Y019150D01*
X025690Y019187D01*
X025800Y019113D02*
X025873Y019187D01*
X026443Y019190D02*
X026480Y019227D01*
X026553Y019227D01*
X026590Y019190D01*
X026590Y019080D01*
X026663Y019080D02*
X026443Y019080D01*
X026443Y019190D01*
X026590Y019153D02*
X026663Y019227D01*
X026553Y019301D02*
X026443Y019411D01*
X026663Y019411D01*
X026663Y019522D02*
X026663Y019669D01*
X026663Y019595D02*
X026443Y019595D01*
X026516Y019522D01*
X026553Y019448D02*
X026553Y019301D01*
X026553Y019743D02*
X026553Y019853D01*
X026590Y019890D01*
X026626Y019890D01*
X026663Y019853D01*
X026663Y019780D01*
X026626Y019743D01*
X026553Y019743D01*
X026480Y019816D01*
X026443Y019890D01*
X027233Y019880D02*
X027270Y019806D01*
X027343Y019733D01*
X027343Y019843D01*
X027380Y019880D01*
X027416Y019880D01*
X027453Y019843D01*
X027453Y019770D01*
X027416Y019733D01*
X027343Y019733D01*
X027453Y019659D02*
X027453Y019512D01*
X027453Y019585D02*
X027233Y019585D01*
X027306Y019512D01*
X027343Y019438D02*
X027343Y019291D01*
X027233Y019401D01*
X027453Y019401D01*
X027416Y019217D02*
X027453Y019180D01*
X027453Y019107D01*
X027416Y019070D01*
X027270Y019070D01*
X027233Y019107D01*
X027233Y019180D01*
X027270Y019217D01*
X027813Y018710D02*
X027923Y018710D01*
X027960Y018673D01*
X027960Y018600D01*
X027923Y018563D01*
X027813Y018563D01*
X027813Y018490D02*
X027813Y018710D01*
X027886Y018563D02*
X027960Y018490D01*
X028034Y018600D02*
X028181Y018600D01*
X028255Y018637D02*
X028328Y018710D01*
X028328Y018490D01*
X028255Y018490D02*
X028402Y018490D01*
X028476Y018527D02*
X028513Y018490D01*
X028586Y018490D01*
X028623Y018527D01*
X028623Y018673D01*
X028586Y018710D01*
X028513Y018710D01*
X028476Y018673D01*
X028476Y018637D01*
X028513Y018600D01*
X028623Y018600D01*
X028923Y018777D02*
X028960Y018740D01*
X029033Y018740D01*
X029070Y018777D01*
X029144Y018850D02*
X029291Y018850D01*
X029365Y018887D02*
X029438Y018960D01*
X029438Y018740D01*
X029365Y018740D02*
X029512Y018740D01*
X029586Y018777D02*
X029733Y018923D01*
X029733Y018777D01*
X029696Y018740D01*
X029623Y018740D01*
X029586Y018777D01*
X029586Y018923D01*
X029623Y018960D01*
X029696Y018960D01*
X029733Y018923D01*
X030233Y019207D02*
X030270Y019170D01*
X030343Y019170D01*
X030380Y019207D01*
X030454Y019280D02*
X030601Y019280D01*
X030675Y019317D02*
X030748Y019390D01*
X030748Y019170D01*
X030675Y019170D02*
X030822Y019170D01*
X030896Y019170D02*
X031043Y019317D01*
X031043Y019353D01*
X031006Y019390D01*
X030933Y019390D01*
X030896Y019353D01*
X031073Y019363D02*
X031073Y019217D01*
X031110Y019180D01*
X031183Y019180D01*
X031220Y019217D01*
X031294Y019290D02*
X031441Y019290D01*
X031515Y019327D02*
X031588Y019400D01*
X031588Y019180D01*
X031515Y019180D02*
X031662Y019180D01*
X031736Y019217D02*
X031773Y019180D01*
X031846Y019180D01*
X031883Y019217D01*
X031883Y019253D01*
X031846Y019290D01*
X031809Y019290D01*
X031846Y019290D02*
X031883Y019327D01*
X031883Y019363D01*
X031846Y019400D01*
X031773Y019400D01*
X031736Y019363D01*
X031404Y019400D02*
X031294Y019290D01*
X031220Y019363D02*
X031183Y019400D01*
X031110Y019400D01*
X031073Y019363D01*
X031043Y019170D02*
X030896Y019170D01*
X030564Y019170D02*
X030564Y019390D01*
X030454Y019280D01*
X030380Y019353D02*
X030343Y019390D01*
X030270Y019390D01*
X030233Y019353D01*
X030233Y019207D01*
X029254Y018960D02*
X029144Y018850D01*
X029070Y018923D02*
X029033Y018960D01*
X028960Y018960D01*
X028923Y018923D01*
X028923Y018777D01*
X029254Y018740D02*
X029254Y018960D01*
X028144Y018710D02*
X028144Y018490D01*
X028034Y018600D02*
X028144Y018710D01*
X028144Y017930D02*
X028034Y017820D01*
X028181Y017820D01*
X028255Y017857D02*
X028328Y017930D01*
X028328Y017710D01*
X028255Y017710D02*
X028402Y017710D01*
X028476Y017747D02*
X028476Y017783D01*
X028513Y017820D01*
X028586Y017820D01*
X028623Y017783D01*
X028623Y017747D01*
X028586Y017710D01*
X028513Y017710D01*
X028476Y017747D01*
X028513Y017820D02*
X028476Y017857D01*
X028476Y017893D01*
X028513Y017930D01*
X028586Y017930D01*
X028623Y017893D01*
X028623Y017857D01*
X028586Y017820D01*
X028144Y017710D02*
X028144Y017930D01*
X027960Y017893D02*
X027960Y017820D01*
X027923Y017783D01*
X027813Y017783D01*
X027813Y017710D02*
X027813Y017930D01*
X027923Y017930D01*
X027960Y017893D01*
X027886Y017783D02*
X027960Y017710D01*
X029883Y016903D02*
X029883Y016830D01*
X029920Y016793D01*
X029920Y016719D02*
X030066Y016572D01*
X030103Y016609D01*
X030103Y016682D01*
X030066Y016719D01*
X029920Y016719D01*
X029883Y016682D01*
X029883Y016609D01*
X029920Y016572D01*
X030066Y016572D01*
X029993Y016498D02*
X029993Y016351D01*
X029883Y016461D01*
X030103Y016461D01*
X030066Y016277D02*
X030103Y016240D01*
X030103Y016167D01*
X030066Y016130D01*
X029920Y016130D01*
X029883Y016167D01*
X029883Y016240D01*
X029920Y016277D01*
X030103Y016793D02*
X029956Y016940D01*
X029920Y016940D01*
X029883Y016903D01*
X030103Y016940D02*
X030103Y016793D01*
X031193Y017287D02*
X031230Y017250D01*
X031376Y017250D01*
X031413Y017287D01*
X031413Y017360D01*
X031376Y017397D01*
X031303Y017471D02*
X031303Y017618D01*
X031376Y017692D02*
X031230Y017692D01*
X031193Y017729D01*
X031193Y017802D01*
X031230Y017839D01*
X031376Y017692D01*
X031413Y017729D01*
X031413Y017802D01*
X031376Y017839D01*
X031230Y017839D01*
X031230Y017913D02*
X031193Y017950D01*
X031193Y018023D01*
X031230Y018060D01*
X031266Y018060D01*
X031303Y018023D01*
X031340Y018060D01*
X031376Y018060D01*
X031413Y018023D01*
X031413Y017950D01*
X031376Y017913D01*
X031303Y017986D02*
X031303Y018023D01*
X031413Y017581D02*
X031193Y017581D01*
X031303Y017471D01*
X031230Y017397D02*
X031193Y017360D01*
X031193Y017287D01*
X031635Y018473D02*
X031745Y018473D01*
X031781Y018510D01*
X031781Y018656D01*
X031745Y018693D01*
X031635Y018693D01*
X031635Y018473D01*
X031856Y018583D02*
X031966Y018693D01*
X031966Y018473D01*
X032002Y018583D02*
X031856Y018583D01*
X032077Y018510D02*
X032223Y018656D01*
X032223Y018510D01*
X032187Y018473D01*
X032113Y018473D01*
X032077Y018510D01*
X032077Y018656D01*
X032113Y018693D01*
X032187Y018693D01*
X032223Y018656D01*
X032298Y018656D02*
X032334Y018693D01*
X032408Y018693D01*
X032444Y018656D01*
X032298Y018510D01*
X032334Y018473D01*
X032408Y018473D01*
X032444Y018510D01*
X032444Y018656D01*
X032298Y018656D02*
X032298Y018510D01*
X031404Y019180D02*
X031404Y019400D01*
X032703Y019467D02*
X032740Y019430D01*
X032886Y019430D01*
X032923Y019467D01*
X032923Y019540D01*
X032886Y019577D01*
X032813Y019651D02*
X032813Y019798D01*
X032776Y019872D02*
X032703Y019945D01*
X032923Y019945D01*
X032923Y019872D02*
X032923Y020019D01*
X032923Y020093D02*
X032923Y020240D01*
X032923Y020166D02*
X032703Y020166D01*
X032776Y020093D01*
X032703Y019761D02*
X032813Y019651D01*
X032740Y019577D02*
X032703Y019540D01*
X032703Y019467D01*
X032973Y019510D02*
X033083Y019510D01*
X033120Y019473D01*
X033120Y019400D01*
X033083Y019363D01*
X032973Y019363D01*
X032973Y019290D02*
X032973Y019510D01*
X033046Y019363D02*
X033120Y019290D01*
X033194Y019400D02*
X033341Y019400D01*
X033415Y019437D02*
X033488Y019510D01*
X033488Y019290D01*
X033415Y019290D02*
X033562Y019290D01*
X033636Y019327D02*
X033783Y019473D01*
X033783Y019327D01*
X033746Y019290D01*
X033673Y019290D01*
X033636Y019327D01*
X033636Y019473D01*
X033673Y019510D01*
X033746Y019510D01*
X033783Y019473D01*
X034228Y019412D02*
X034265Y019449D01*
X034302Y019449D01*
X034339Y019412D01*
X034375Y019449D01*
X034412Y019449D01*
X034449Y019412D01*
X034449Y019339D01*
X034412Y019302D01*
X034339Y019375D02*
X034339Y019412D01*
X034228Y019412D02*
X034228Y019339D01*
X034265Y019302D01*
X034339Y019228D02*
X034339Y019081D01*
X034228Y019191D01*
X034449Y019191D01*
X034412Y019007D02*
X034265Y019007D01*
X034228Y018970D01*
X034228Y018860D01*
X034449Y018860D01*
X034449Y018970D01*
X034412Y019007D01*
X034449Y019523D02*
X034449Y019670D01*
X034449Y019596D02*
X034228Y019596D01*
X034302Y019523D01*
X034157Y020349D02*
X034083Y020349D01*
X034047Y020386D01*
X034193Y020533D01*
X034193Y020386D01*
X034157Y020349D01*
X034047Y020386D02*
X034047Y020533D01*
X034083Y020570D01*
X034157Y020570D01*
X034193Y020533D01*
X033972Y020533D02*
X033972Y020496D01*
X033936Y020460D01*
X033972Y020423D01*
X033972Y020386D01*
X033936Y020349D01*
X033862Y020349D01*
X033826Y020386D01*
X033899Y020460D02*
X033936Y020460D01*
X033972Y020533D02*
X033936Y020570D01*
X033862Y020570D01*
X033826Y020533D01*
X033751Y020460D02*
X033605Y020460D01*
X033715Y020570D01*
X033715Y020349D01*
X033530Y020386D02*
X033530Y020570D01*
X033384Y020570D02*
X033384Y020386D01*
X033420Y020349D01*
X033494Y020349D01*
X033530Y020386D01*
X032923Y019761D02*
X032703Y019761D01*
X033194Y019400D02*
X033304Y019510D01*
X033304Y019290D01*
X031960Y020793D02*
X031740Y020793D01*
X031740Y020903D01*
X031777Y020940D01*
X031850Y020940D01*
X031887Y020903D01*
X031887Y020793D01*
X031887Y020867D02*
X031960Y020940D01*
X031850Y021014D02*
X031850Y021161D01*
X031923Y021235D02*
X031960Y021272D01*
X031960Y021345D01*
X031923Y021382D01*
X031887Y021382D01*
X031850Y021345D01*
X031850Y021309D01*
X031850Y021345D02*
X031813Y021382D01*
X031777Y021382D01*
X031740Y021345D01*
X031740Y021272D01*
X031777Y021235D01*
X031740Y021124D02*
X031960Y021124D01*
X031850Y021014D02*
X031740Y021124D01*
X031850Y021456D02*
X031850Y021566D01*
X031887Y021603D01*
X031923Y021603D01*
X031960Y021566D01*
X031960Y021493D01*
X031923Y021456D01*
X031850Y021456D01*
X031777Y021530D01*
X031740Y021603D01*
X031185Y021208D02*
X031148Y021208D01*
X031001Y021355D01*
X030965Y021355D01*
X030965Y021208D01*
X031001Y021134D02*
X031038Y021134D01*
X031075Y021097D01*
X031111Y021134D01*
X031148Y021134D01*
X031185Y021097D01*
X031185Y021024D01*
X031148Y020987D01*
X031075Y021061D02*
X031075Y021097D01*
X031001Y021134D02*
X030965Y021097D01*
X030965Y021024D01*
X031001Y020987D01*
X031075Y020913D02*
X031075Y020766D01*
X030965Y020876D01*
X031185Y020876D01*
X031185Y020692D02*
X031111Y020619D01*
X031111Y020655D02*
X031111Y020545D01*
X031185Y020545D02*
X030965Y020545D01*
X030965Y020655D01*
X031001Y020692D01*
X031075Y020692D01*
X031111Y020655D01*
X030896Y021410D02*
X030823Y021410D01*
X030786Y021447D01*
X030933Y021593D01*
X030933Y021447D01*
X030896Y021410D01*
X030786Y021447D02*
X030786Y021593D01*
X030823Y021630D01*
X030896Y021630D01*
X030933Y021593D01*
X030712Y021520D02*
X030565Y021520D01*
X030675Y021630D01*
X030675Y021410D01*
X030491Y021520D02*
X030344Y021520D01*
X030454Y021630D01*
X030454Y021410D01*
X030270Y021410D02*
X030196Y021483D01*
X030233Y021483D02*
X030123Y021483D01*
X030123Y021410D02*
X030123Y021630D01*
X030233Y021630D01*
X030270Y021593D01*
X030270Y021520D01*
X030233Y021483D01*
X029919Y022230D02*
X029698Y022230D01*
X029698Y022340D01*
X029735Y022377D01*
X029882Y022377D01*
X029919Y022340D01*
X029919Y022230D01*
X029809Y022451D02*
X029809Y022598D01*
X029809Y022672D02*
X029809Y022819D01*
X029882Y022893D02*
X029735Y023040D01*
X029882Y023040D01*
X029919Y023003D01*
X029919Y022930D01*
X029882Y022893D01*
X029735Y022893D01*
X029698Y022930D01*
X029698Y023003D01*
X029735Y023040D01*
X029698Y022782D02*
X029809Y022672D01*
X029919Y022782D02*
X029698Y022782D01*
X029698Y022561D02*
X029809Y022451D01*
X029919Y022561D02*
X029698Y022561D01*
X030523Y023327D02*
X030560Y023290D01*
X030706Y023290D01*
X030743Y023327D01*
X030743Y023400D01*
X030706Y023437D01*
X030633Y023511D02*
X030633Y023658D01*
X030706Y023732D02*
X030743Y023769D01*
X030743Y023842D01*
X030706Y023879D01*
X030670Y023879D01*
X030633Y023842D01*
X030633Y023805D01*
X030633Y023842D02*
X030596Y023879D01*
X030560Y023879D01*
X030523Y023842D01*
X030523Y023769D01*
X030560Y023732D01*
X030523Y023621D02*
X030633Y023511D01*
X030560Y023437D02*
X030523Y023400D01*
X030523Y023327D01*
X030523Y023621D02*
X030743Y023621D01*
X030706Y023953D02*
X030743Y023990D01*
X030743Y024063D01*
X030706Y024100D01*
X030670Y024100D01*
X030633Y024063D01*
X030633Y024026D01*
X030633Y024063D02*
X030596Y024100D01*
X030560Y024100D01*
X030523Y024063D01*
X030523Y023990D01*
X030560Y023953D01*
X031363Y023990D02*
X031400Y023953D01*
X031363Y023990D02*
X031363Y024063D01*
X031400Y024100D01*
X031436Y024100D01*
X031583Y023953D01*
X031583Y024100D01*
X031546Y023879D02*
X031583Y023842D01*
X031583Y023769D01*
X031546Y023732D01*
X031473Y023805D02*
X031473Y023842D01*
X031510Y023879D01*
X031546Y023879D01*
X031473Y023842D02*
X031436Y023879D01*
X031400Y023879D01*
X031363Y023842D01*
X031363Y023769D01*
X031400Y023732D01*
X031473Y023658D02*
X031473Y023511D01*
X031363Y023621D01*
X031583Y023621D01*
X031546Y023437D02*
X031583Y023400D01*
X031583Y023327D01*
X031546Y023290D01*
X031400Y023290D01*
X031363Y023327D01*
X031363Y023400D01*
X031400Y023437D01*
X032098Y023488D02*
X032098Y023562D01*
X032135Y023598D01*
X032171Y023598D01*
X032208Y023562D01*
X032245Y023598D01*
X032281Y023598D01*
X032318Y023562D01*
X032318Y023488D01*
X032281Y023451D01*
X032208Y023377D02*
X032208Y023230D01*
X032098Y023341D01*
X032318Y023341D01*
X032281Y023156D02*
X032318Y023120D01*
X032318Y023046D01*
X032281Y023009D01*
X032135Y023009D01*
X032098Y023046D01*
X032098Y023120D01*
X032135Y023156D01*
X032135Y023451D02*
X032098Y023488D01*
X032208Y023525D02*
X032208Y023562D01*
X032171Y023672D02*
X032098Y023746D01*
X032318Y023746D01*
X032318Y023819D02*
X032318Y023672D01*
X032453Y023894D02*
X032563Y023894D01*
X032600Y023931D01*
X032600Y024078D01*
X032563Y024115D01*
X032453Y024115D01*
X032453Y023894D01*
X032674Y024005D02*
X032821Y024005D01*
X032895Y024078D02*
X032932Y024115D01*
X033005Y024115D01*
X033042Y024078D01*
X033042Y024041D01*
X033005Y024005D01*
X033042Y023968D01*
X033042Y023931D01*
X033005Y023894D01*
X032932Y023894D01*
X032895Y023931D01*
X032968Y024005D02*
X033005Y024005D01*
X033116Y024078D02*
X033153Y024115D01*
X033226Y024115D01*
X033263Y024078D01*
X033263Y024041D01*
X033226Y024005D01*
X033263Y023968D01*
X033263Y023931D01*
X033226Y023894D01*
X033153Y023894D01*
X033116Y023931D01*
X033189Y024005D02*
X033226Y024005D01*
X032784Y023894D02*
X032784Y024115D01*
X032674Y024005D01*
X034763Y024640D02*
X034763Y024860D01*
X034873Y024860D01*
X034910Y024823D01*
X034910Y024750D01*
X034873Y024713D01*
X034763Y024713D01*
X034836Y024713D02*
X034910Y024640D01*
X034984Y024750D02*
X035131Y024750D01*
X035205Y024677D02*
X035242Y024640D01*
X035315Y024640D01*
X035352Y024677D01*
X035352Y024713D01*
X035315Y024750D01*
X035278Y024750D01*
X035315Y024750D02*
X035352Y024787D01*
X035352Y024823D01*
X035315Y024860D01*
X035242Y024860D01*
X035205Y024823D01*
X035094Y024860D02*
X034984Y024750D01*
X035094Y024640D02*
X035094Y024860D01*
X035426Y024860D02*
X035426Y024750D01*
X035499Y024787D01*
X035536Y024787D01*
X035573Y024750D01*
X035573Y024677D01*
X035536Y024640D01*
X035463Y024640D01*
X035426Y024677D01*
X035426Y024860D02*
X035573Y024860D01*
X034683Y025193D02*
X034683Y025484D01*
X034187Y025980D02*
X033896Y025980D01*
X034683Y026495D02*
X034683Y026767D01*
X035179Y025980D02*
X035470Y025980D01*
X036429Y025890D02*
X036429Y025670D01*
X036429Y025743D02*
X036539Y025743D01*
X036576Y025780D01*
X036576Y025853D01*
X036539Y025890D01*
X036429Y025890D01*
X036503Y025743D02*
X036576Y025670D01*
X036650Y025780D02*
X036797Y025780D01*
X036871Y025707D02*
X036908Y025670D01*
X036981Y025670D01*
X037018Y025707D01*
X037018Y025743D01*
X036981Y025780D01*
X036944Y025780D01*
X036981Y025780D02*
X037018Y025817D01*
X037018Y025853D01*
X036981Y025890D01*
X036908Y025890D01*
X036871Y025853D01*
X036760Y025890D02*
X036650Y025780D01*
X036760Y025670D02*
X036760Y025890D01*
X037092Y025780D02*
X037239Y025780D01*
X037202Y025670D02*
X037202Y025890D01*
X037092Y025780D01*
X037335Y024640D02*
X037298Y024603D01*
X037298Y024530D01*
X037335Y024493D01*
X037335Y024419D02*
X037372Y024419D01*
X037409Y024382D01*
X037445Y024419D01*
X037482Y024419D01*
X037519Y024382D01*
X037519Y024309D01*
X037482Y024272D01*
X037409Y024345D02*
X037409Y024382D01*
X037335Y024419D02*
X037298Y024382D01*
X037298Y024309D01*
X037335Y024272D01*
X037409Y024198D02*
X037409Y024051D01*
X037298Y024161D01*
X037519Y024161D01*
X037482Y023977D02*
X037335Y023977D01*
X037298Y023940D01*
X037298Y023830D01*
X037519Y023830D01*
X037519Y023940D01*
X037482Y023977D01*
X037519Y024493D02*
X037372Y024640D01*
X037335Y024640D01*
X037519Y024640D02*
X037519Y024493D01*
X036946Y022820D02*
X036983Y022783D01*
X036983Y022710D01*
X036946Y022673D01*
X036800Y022820D01*
X036946Y022820D01*
X036800Y022820D02*
X036763Y022783D01*
X036763Y022710D01*
X036800Y022673D01*
X036946Y022673D01*
X036946Y022599D02*
X036983Y022562D01*
X036983Y022489D01*
X036946Y022452D01*
X036873Y022525D02*
X036873Y022562D01*
X036910Y022599D01*
X036946Y022599D01*
X036873Y022562D02*
X036836Y022599D01*
X036800Y022599D01*
X036763Y022562D01*
X036763Y022489D01*
X036800Y022452D01*
X036873Y022378D02*
X036873Y022231D01*
X036763Y022341D01*
X036983Y022341D01*
X036946Y022157D02*
X036983Y022120D01*
X036983Y022047D01*
X036946Y022010D01*
X036800Y022010D01*
X036763Y022047D01*
X036763Y022120D01*
X036800Y022157D01*
X036213Y021623D02*
X036213Y021550D01*
X036176Y021513D01*
X036140Y021513D01*
X036103Y021550D01*
X036103Y021623D01*
X036140Y021660D01*
X036176Y021660D01*
X036213Y021623D01*
X036103Y021623D02*
X036066Y021660D01*
X036030Y021660D01*
X035993Y021623D01*
X035993Y021550D01*
X036030Y021513D01*
X036066Y021513D01*
X036103Y021550D01*
X036140Y021439D02*
X036176Y021439D01*
X036213Y021402D01*
X036213Y021329D01*
X036176Y021292D01*
X036103Y021365D02*
X036103Y021402D01*
X036140Y021439D01*
X036103Y021402D02*
X036066Y021439D01*
X036030Y021439D01*
X035993Y021402D01*
X035993Y021329D01*
X036030Y021292D01*
X036103Y021218D02*
X036103Y021071D01*
X035993Y021181D01*
X036213Y021181D01*
X036213Y020997D02*
X036140Y020923D01*
X036140Y020960D02*
X036140Y020850D01*
X036213Y020850D02*
X035993Y020850D01*
X035993Y020960D01*
X036030Y020997D01*
X036103Y020997D01*
X036140Y020960D01*
X036043Y020260D02*
X036043Y020113D01*
X036043Y020186D02*
X035823Y020186D01*
X035896Y020113D01*
X035896Y020039D02*
X035933Y020002D01*
X035970Y020039D01*
X036006Y020039D01*
X036043Y020002D01*
X036043Y019929D01*
X036006Y019892D01*
X035933Y019965D02*
X035933Y020002D01*
X035896Y020039D02*
X035860Y020039D01*
X035823Y020002D01*
X035823Y019929D01*
X035860Y019892D01*
X035933Y019818D02*
X035933Y019671D01*
X035823Y019781D01*
X036043Y019781D01*
X036043Y019597D02*
X035970Y019523D01*
X035970Y019560D02*
X035970Y019450D01*
X036043Y019450D02*
X035823Y019450D01*
X035823Y019560D01*
X035860Y019597D01*
X035933Y019597D01*
X035970Y019560D01*
X037053Y019560D02*
X037053Y019670D01*
X037090Y019707D01*
X037163Y019707D01*
X037200Y019670D01*
X037200Y019560D01*
X037273Y019560D02*
X037053Y019560D01*
X037200Y019633D02*
X037273Y019707D01*
X037163Y019781D02*
X037163Y019928D01*
X037236Y020002D02*
X037273Y020039D01*
X037273Y020112D01*
X037236Y020149D01*
X037200Y020149D01*
X037163Y020112D01*
X037163Y020075D01*
X037163Y020112D02*
X037126Y020149D01*
X037090Y020149D01*
X037053Y020112D01*
X037053Y020039D01*
X037090Y020002D01*
X037053Y019891D02*
X037163Y019781D01*
X037273Y019891D02*
X037053Y019891D01*
X037090Y020223D02*
X037053Y020260D01*
X037053Y020333D01*
X037090Y020370D01*
X037126Y020370D01*
X037273Y020223D01*
X037273Y020370D01*
X037495Y018550D02*
X037642Y018403D01*
X037679Y018440D01*
X037679Y018513D01*
X037642Y018550D01*
X037495Y018550D01*
X037458Y018513D01*
X037458Y018440D01*
X037495Y018403D01*
X037642Y018403D01*
X037642Y018329D02*
X037679Y018292D01*
X037679Y018219D01*
X037642Y018182D01*
X037569Y018255D02*
X037569Y018292D01*
X037605Y018329D01*
X037642Y018329D01*
X037569Y018292D02*
X037532Y018329D01*
X037495Y018329D01*
X037458Y018292D01*
X037458Y018219D01*
X037495Y018182D01*
X037569Y018108D02*
X037569Y017961D01*
X037458Y018071D01*
X037679Y018071D01*
X037642Y017887D02*
X037495Y017887D01*
X037458Y017850D01*
X037458Y017740D01*
X037679Y017740D01*
X037679Y017850D01*
X037642Y017887D01*
X035063Y017783D02*
X035063Y017710D01*
X035026Y017673D01*
X034880Y017820D01*
X035026Y017820D01*
X035063Y017783D01*
X035026Y017673D02*
X034880Y017673D01*
X034843Y017710D01*
X034843Y017783D01*
X034880Y017820D01*
X034880Y017599D02*
X034916Y017599D01*
X034953Y017562D01*
X034990Y017599D01*
X035026Y017599D01*
X035063Y017562D01*
X035063Y017489D01*
X035026Y017452D01*
X034953Y017525D02*
X034953Y017562D01*
X034880Y017599D02*
X034843Y017562D01*
X034843Y017489D01*
X034880Y017452D01*
X034953Y017378D02*
X034953Y017231D01*
X034843Y017341D01*
X035063Y017341D01*
X035063Y017157D02*
X034990Y017083D01*
X034990Y017120D02*
X034990Y017010D01*
X035063Y017010D02*
X034843Y017010D01*
X034843Y017120D01*
X034880Y017157D01*
X034953Y017157D01*
X034990Y017120D01*
X033644Y015828D02*
X033644Y015755D01*
X033608Y015718D01*
X033461Y015865D01*
X033608Y015865D01*
X033644Y015828D01*
X033608Y015718D02*
X033461Y015718D01*
X033424Y015755D01*
X033424Y015828D01*
X033461Y015865D01*
X033461Y015644D02*
X033608Y015497D01*
X033644Y015534D01*
X033644Y015607D01*
X033608Y015644D01*
X033461Y015644D01*
X033424Y015607D01*
X033424Y015534D01*
X033461Y015497D01*
X033608Y015497D01*
X033534Y015423D02*
X033534Y015276D01*
X033424Y015386D01*
X033644Y015386D01*
X033644Y015202D02*
X033571Y015129D01*
X033571Y015165D02*
X033571Y015055D01*
X033644Y015055D02*
X033424Y015055D01*
X033424Y015165D01*
X033461Y015202D01*
X033534Y015202D01*
X033571Y015165D01*
X033043Y015241D02*
X032823Y015241D01*
X032933Y015131D01*
X032933Y015278D01*
X033006Y015352D02*
X032860Y015352D01*
X032823Y015389D01*
X032823Y015462D01*
X032860Y015499D01*
X033006Y015352D01*
X033043Y015389D01*
X033043Y015462D01*
X033006Y015499D01*
X032860Y015499D01*
X032896Y015573D02*
X032823Y015646D01*
X033043Y015646D01*
X033043Y015573D02*
X033043Y015720D01*
X032503Y015613D02*
X032503Y015540D01*
X032466Y015503D01*
X032320Y015650D01*
X032466Y015650D01*
X032503Y015613D01*
X032466Y015503D02*
X032320Y015503D01*
X032283Y015540D01*
X032283Y015613D01*
X032320Y015650D01*
X032320Y015429D02*
X032466Y015282D01*
X032503Y015319D01*
X032503Y015392D01*
X032466Y015429D01*
X032320Y015429D01*
X032283Y015392D01*
X032283Y015319D01*
X032320Y015282D01*
X032466Y015282D01*
X032393Y015208D02*
X032393Y015061D01*
X032283Y015171D01*
X032503Y015171D01*
X032466Y014987D02*
X032503Y014950D01*
X032503Y014877D01*
X032466Y014840D01*
X032320Y014840D01*
X032283Y014877D01*
X032283Y014950D01*
X032320Y014987D01*
X032823Y015020D02*
X032823Y014947D01*
X032860Y014910D01*
X033006Y014910D01*
X033043Y014947D01*
X033043Y015020D01*
X033006Y015057D01*
X032860Y015057D02*
X032823Y015020D01*
X026789Y021684D02*
X026716Y021684D01*
X026679Y021720D01*
X026605Y021720D02*
X026568Y021684D01*
X026495Y021684D01*
X026458Y021720D01*
X026605Y021867D01*
X026605Y021720D01*
X026458Y021720D02*
X026458Y021867D01*
X026495Y021904D01*
X026568Y021904D01*
X026605Y021867D01*
X026679Y021867D02*
X026716Y021904D01*
X026789Y021904D01*
X026826Y021867D01*
X026826Y021831D01*
X026789Y021794D01*
X026826Y021757D01*
X026826Y021720D01*
X026789Y021684D01*
X026789Y021794D02*
X026753Y021794D01*
X026384Y021831D02*
X026347Y021794D01*
X026384Y021757D01*
X026384Y021720D01*
X026347Y021684D01*
X026274Y021684D01*
X026237Y021720D01*
X026163Y021720D02*
X026126Y021684D01*
X026053Y021684D01*
X026016Y021720D01*
X026016Y021867D01*
X026053Y021904D01*
X026126Y021904D01*
X026163Y021867D01*
X026237Y021867D02*
X026274Y021904D01*
X026347Y021904D01*
X026384Y021867D01*
X026384Y021831D01*
X026347Y021794D02*
X026311Y021794D01*
X026327Y022344D02*
X026254Y022344D01*
X026217Y022380D01*
X026143Y022380D02*
X026106Y022344D01*
X026033Y022344D01*
X025996Y022380D01*
X025996Y022527D01*
X026033Y022564D01*
X026106Y022564D01*
X026143Y022527D01*
X026217Y022527D02*
X026254Y022564D01*
X026327Y022564D01*
X026364Y022527D01*
X026364Y022491D01*
X026327Y022454D01*
X026364Y022417D01*
X026364Y022380D01*
X026327Y022344D01*
X026327Y022454D02*
X026291Y022454D01*
X026438Y022380D02*
X026438Y022527D01*
X026475Y022564D01*
X026548Y022564D01*
X026585Y022527D01*
X026438Y022380D01*
X026475Y022344D01*
X026548Y022344D01*
X026585Y022380D01*
X026585Y022527D01*
X026659Y022527D02*
X026696Y022564D01*
X026769Y022564D01*
X026806Y022527D01*
X026806Y022491D01*
X026659Y022344D01*
X026806Y022344D01*
X026326Y022860D02*
X026363Y022897D01*
X026363Y022933D01*
X026326Y022970D01*
X026216Y022970D01*
X026216Y022897D01*
X026253Y022860D01*
X026326Y022860D01*
X026216Y022970D02*
X026289Y023043D01*
X026363Y023080D01*
X026142Y023043D02*
X025995Y022897D01*
X026032Y022860D01*
X026105Y022860D01*
X026142Y022897D01*
X026142Y023043D01*
X026105Y023080D01*
X026032Y023080D01*
X025995Y023043D01*
X025995Y022897D01*
X025921Y022897D02*
X025884Y022860D01*
X025811Y022860D01*
X025774Y022897D01*
X025700Y022897D02*
X025663Y022860D01*
X025590Y022860D01*
X025553Y022897D01*
X025553Y023043D01*
X025590Y023080D01*
X025663Y023080D01*
X025700Y023043D01*
X025774Y023043D02*
X025811Y023080D01*
X025884Y023080D01*
X025921Y023043D01*
X025921Y023007D01*
X025884Y022970D01*
X025921Y022933D01*
X025921Y022897D01*
X025884Y022970D02*
X025847Y022970D01*
X024813Y023063D02*
X024666Y022917D01*
X024666Y022880D01*
X024592Y022917D02*
X024555Y022880D01*
X024482Y022880D01*
X024445Y022917D01*
X024592Y023063D01*
X024592Y022917D01*
X024592Y023063D02*
X024555Y023100D01*
X024482Y023100D01*
X024445Y023063D01*
X024445Y022917D01*
X024371Y022917D02*
X024334Y022880D01*
X024261Y022880D01*
X024224Y022917D01*
X024150Y022917D02*
X024113Y022880D01*
X024040Y022880D01*
X024003Y022917D01*
X024003Y023063D01*
X024040Y023100D01*
X024113Y023100D01*
X024150Y023063D01*
X024224Y023063D02*
X024261Y023100D01*
X024334Y023100D01*
X024371Y023063D01*
X024371Y023027D01*
X024334Y022990D01*
X024371Y022953D01*
X024371Y022917D01*
X024334Y022990D02*
X024297Y022990D01*
X024666Y023100D02*
X024813Y023100D01*
X024813Y023063D01*
X025117Y024086D02*
X025264Y024086D01*
X025301Y024123D01*
X025301Y024196D01*
X025264Y024233D01*
X025264Y024307D02*
X025301Y024344D01*
X025301Y024417D01*
X025264Y024454D01*
X025227Y024454D01*
X025190Y024417D01*
X025190Y024380D01*
X025190Y024417D02*
X025154Y024454D01*
X025117Y024454D01*
X025080Y024417D01*
X025080Y024344D01*
X025117Y024307D01*
X025117Y024233D02*
X025080Y024196D01*
X025080Y024123D01*
X025117Y024086D01*
X025154Y024528D02*
X025080Y024601D01*
X025301Y024601D01*
X025301Y024528D02*
X025301Y024675D01*
X025264Y024749D02*
X025301Y024786D01*
X025301Y024859D01*
X025264Y024896D01*
X025227Y024896D01*
X025190Y024859D01*
X025190Y024749D01*
X025264Y024749D01*
X025190Y024749D02*
X025117Y024822D01*
X025080Y024896D01*
X025130Y025230D02*
X025276Y025230D01*
X025313Y025267D01*
X025313Y025340D01*
X025276Y025377D01*
X025276Y025451D02*
X025313Y025488D01*
X025313Y025561D01*
X025276Y025598D01*
X025240Y025598D01*
X025203Y025561D01*
X025203Y025524D01*
X025203Y025561D02*
X025166Y025598D01*
X025130Y025598D01*
X025093Y025561D01*
X025093Y025488D01*
X025130Y025451D01*
X025130Y025377D02*
X025093Y025340D01*
X025093Y025267D01*
X025130Y025230D01*
X025166Y025672D02*
X025093Y025745D01*
X025313Y025745D01*
X025313Y025672D02*
X025313Y025819D01*
X025203Y025893D02*
X025203Y026040D01*
X025313Y026003D02*
X025093Y026003D01*
X025203Y025893D01*
X024523Y025940D02*
X024486Y025903D01*
X024523Y025940D02*
X024523Y026013D01*
X024486Y026050D01*
X024413Y026050D01*
X024376Y026013D01*
X024376Y025976D01*
X024413Y025903D01*
X024303Y025903D01*
X024303Y026050D01*
X024303Y025755D02*
X024523Y025755D01*
X024523Y025682D02*
X024523Y025829D01*
X024376Y025682D02*
X024303Y025755D01*
X024340Y025608D02*
X024376Y025608D01*
X024413Y025571D01*
X024450Y025608D01*
X024486Y025608D01*
X024523Y025571D01*
X024523Y025498D01*
X024486Y025461D01*
X024486Y025387D02*
X024523Y025350D01*
X024523Y025277D01*
X024486Y025240D01*
X024340Y025240D01*
X024303Y025277D01*
X024303Y025350D01*
X024340Y025387D01*
X024340Y025461D02*
X024303Y025498D01*
X024303Y025571D01*
X024340Y025608D01*
X024413Y025571D02*
X024413Y025534D01*
X024327Y024936D02*
X024474Y024789D01*
X024511Y024789D01*
X024511Y024715D02*
X024511Y024568D01*
X024511Y024641D02*
X024290Y024641D01*
X024364Y024568D01*
X024364Y024494D02*
X024400Y024457D01*
X024437Y024494D01*
X024474Y024494D01*
X024511Y024457D01*
X024511Y024384D01*
X024474Y024347D01*
X024474Y024273D02*
X024511Y024236D01*
X024511Y024163D01*
X024474Y024126D01*
X024327Y024126D01*
X024290Y024163D01*
X024290Y024236D01*
X024327Y024273D01*
X024327Y024347D02*
X024290Y024384D01*
X024290Y024457D01*
X024327Y024494D01*
X024364Y024494D01*
X024400Y024457D02*
X024400Y024420D01*
X024290Y024789D02*
X024290Y024936D01*
X024327Y024936D01*
X025880Y024879D02*
X025917Y024916D01*
X025954Y024916D01*
X025990Y024879D01*
X026027Y024916D01*
X026064Y024916D01*
X026101Y024879D01*
X026101Y024806D01*
X026064Y024769D01*
X026101Y024695D02*
X026101Y024548D01*
X026101Y024621D02*
X025880Y024621D01*
X025954Y024548D01*
X025954Y024474D02*
X025990Y024437D01*
X026027Y024474D01*
X026064Y024474D01*
X026101Y024437D01*
X026101Y024364D01*
X026064Y024327D01*
X026064Y024253D02*
X026101Y024216D01*
X026101Y024143D01*
X026064Y024106D01*
X025917Y024106D01*
X025880Y024143D01*
X025880Y024216D01*
X025917Y024253D01*
X025917Y024327D02*
X025880Y024364D01*
X025880Y024437D01*
X025917Y024474D01*
X025954Y024474D01*
X025990Y024437D02*
X025990Y024400D01*
X025917Y024769D02*
X025880Y024806D01*
X025880Y024879D01*
X025990Y024879D02*
X025990Y024842D01*
X026056Y025270D02*
X025910Y025270D01*
X025873Y025307D01*
X025873Y025380D01*
X025910Y025417D01*
X025910Y025491D02*
X025873Y025528D01*
X025873Y025601D01*
X025910Y025638D01*
X025946Y025638D01*
X025983Y025601D01*
X026020Y025638D01*
X026056Y025638D01*
X026093Y025601D01*
X026093Y025528D01*
X026056Y025491D01*
X026056Y025417D02*
X026093Y025380D01*
X026093Y025307D01*
X026056Y025270D01*
X025983Y025564D02*
X025983Y025601D01*
X025946Y025712D02*
X025873Y025785D01*
X026093Y025785D01*
X026093Y025712D02*
X026093Y025859D01*
X026093Y025933D02*
X026093Y026080D01*
X026093Y026006D02*
X025873Y026006D01*
X025946Y025933D01*
X026623Y025923D02*
X026660Y025960D01*
X026806Y025813D01*
X026843Y025850D01*
X026843Y025923D01*
X026806Y025960D01*
X026660Y025960D01*
X026623Y025923D02*
X026623Y025850D01*
X026660Y025813D01*
X026806Y025813D01*
X026843Y025739D02*
X026843Y025592D01*
X026843Y025665D02*
X026623Y025665D01*
X026696Y025592D01*
X026696Y025518D02*
X026733Y025481D01*
X026770Y025518D01*
X026806Y025518D01*
X026843Y025481D01*
X026843Y025408D01*
X026806Y025371D01*
X026806Y025297D02*
X026843Y025260D01*
X026843Y025187D01*
X026806Y025150D01*
X026660Y025150D01*
X026623Y025187D01*
X026623Y025260D01*
X026660Y025297D01*
X026660Y025371D02*
X026623Y025408D01*
X026623Y025481D01*
X026660Y025518D01*
X026696Y025518D01*
X026733Y025481D02*
X026733Y025444D01*
X026704Y024916D02*
X026667Y024916D01*
X026630Y024879D01*
X026630Y024806D01*
X026667Y024769D01*
X026704Y024916D02*
X026851Y024769D01*
X026851Y024916D01*
X026851Y024695D02*
X026851Y024548D01*
X026851Y024621D02*
X026630Y024621D01*
X026704Y024548D01*
X026704Y024474D02*
X026740Y024437D01*
X026777Y024474D01*
X026814Y024474D01*
X026851Y024437D01*
X026851Y024364D01*
X026814Y024327D01*
X026814Y024253D02*
X026851Y024216D01*
X026851Y024143D01*
X026814Y024106D01*
X026667Y024106D01*
X026630Y024143D01*
X026630Y024216D01*
X026667Y024253D01*
X026667Y024327D02*
X026630Y024364D01*
X026630Y024437D01*
X026667Y024474D01*
X026704Y024474D01*
X026740Y024437D02*
X026740Y024400D01*
X027493Y024220D02*
X027493Y024073D01*
X027603Y024073D01*
X027566Y024146D01*
X027566Y024183D01*
X027603Y024220D01*
X027676Y024220D01*
X027713Y024183D01*
X027713Y024110D01*
X027676Y024073D01*
X027676Y023999D02*
X027530Y023999D01*
X027676Y023852D01*
X027713Y023889D01*
X027713Y023962D01*
X027676Y023999D01*
X027530Y023999D02*
X027493Y023962D01*
X027493Y023889D01*
X027530Y023852D01*
X027676Y023852D01*
X027676Y023778D02*
X027713Y023741D01*
X027713Y023668D01*
X027676Y023631D01*
X027676Y023557D02*
X027713Y023520D01*
X027713Y023447D01*
X027676Y023410D01*
X027530Y023410D01*
X027493Y023447D01*
X027493Y023520D01*
X027530Y023557D01*
X027530Y023631D02*
X027493Y023668D01*
X027493Y023741D01*
X027530Y023778D01*
X027566Y023778D01*
X027603Y023741D01*
X027640Y023778D01*
X027676Y023778D01*
X027603Y023741D02*
X027603Y023704D01*
X028351Y023669D02*
X028351Y023743D01*
X028388Y023779D01*
X028424Y023779D01*
X028461Y023743D01*
X028498Y023779D01*
X028534Y023779D01*
X028571Y023743D01*
X028571Y023669D01*
X028534Y023633D01*
X028534Y023558D02*
X028571Y023522D01*
X028571Y023448D01*
X028534Y023412D01*
X028388Y023412D01*
X028351Y023448D01*
X028351Y023522D01*
X028388Y023558D01*
X028388Y023633D02*
X028351Y023669D01*
X028461Y023706D02*
X028461Y023743D01*
X028388Y023854D02*
X028351Y023890D01*
X028351Y023964D01*
X028388Y024000D01*
X028534Y023854D01*
X028571Y023890D01*
X028571Y023964D01*
X028534Y024000D01*
X028388Y024000D01*
X028461Y024075D02*
X028461Y024221D01*
X028351Y024185D02*
X028461Y024075D01*
X028571Y024185D02*
X028351Y024185D01*
X028388Y023854D02*
X028534Y023854D01*
X028833Y024510D02*
X028833Y024730D01*
X028980Y024730D01*
X029054Y024730D02*
X029164Y024730D01*
X029201Y024693D01*
X029201Y024657D01*
X029164Y024620D01*
X029054Y024620D01*
X029054Y024510D02*
X029054Y024730D01*
X029164Y024620D02*
X029201Y024583D01*
X029201Y024547D01*
X029164Y024510D01*
X029054Y024510D01*
X028906Y024620D02*
X028833Y024620D01*
X029275Y024547D02*
X029312Y024510D01*
X029385Y024510D01*
X029422Y024547D01*
X029422Y024583D01*
X029385Y024620D01*
X029348Y024620D01*
X029385Y024620D02*
X029422Y024657D01*
X029422Y024693D01*
X029385Y024730D01*
X029312Y024730D01*
X029275Y024693D01*
X029496Y024693D02*
X029496Y024547D01*
X029643Y024693D01*
X029643Y024547D01*
X029606Y024510D01*
X029533Y024510D01*
X029496Y024547D01*
X029496Y024693D02*
X029533Y024730D01*
X029606Y024730D01*
X029643Y024693D01*
X029717Y024693D02*
X029717Y024547D01*
X029864Y024693D01*
X029864Y024547D01*
X029827Y024510D01*
X029754Y024510D01*
X029717Y024547D01*
X029717Y024693D02*
X029754Y024730D01*
X029827Y024730D01*
X029864Y024693D01*
X028883Y025197D02*
X028846Y025160D01*
X028700Y025160D01*
X028663Y025197D01*
X028663Y025270D01*
X028700Y025307D01*
X028700Y025381D02*
X028663Y025418D01*
X028663Y025491D01*
X028700Y025528D01*
X028736Y025528D01*
X028773Y025491D01*
X028810Y025528D01*
X028846Y025528D01*
X028883Y025491D01*
X028883Y025418D01*
X028846Y025381D01*
X028846Y025307D02*
X028883Y025270D01*
X028883Y025197D01*
X028773Y025454D02*
X028773Y025491D01*
X028846Y025602D02*
X028700Y025749D01*
X028846Y025749D01*
X028883Y025712D01*
X028883Y025639D01*
X028846Y025602D01*
X028700Y025602D01*
X028663Y025639D01*
X028663Y025712D01*
X028700Y025749D01*
X028700Y025823D02*
X028736Y025823D01*
X028773Y025860D01*
X028773Y025933D01*
X028810Y025970D01*
X028846Y025970D01*
X028883Y025933D01*
X028883Y025860D01*
X028846Y025823D01*
X028810Y025823D01*
X028773Y025860D01*
X028773Y025933D02*
X028736Y025970D01*
X028700Y025970D01*
X028663Y025933D01*
X028663Y025860D01*
X028700Y025823D01*
X028579Y025863D02*
X028543Y025826D01*
X028396Y025973D01*
X028543Y025973D01*
X028579Y025936D01*
X028579Y025863D01*
X028543Y025826D02*
X028396Y025826D01*
X028359Y025863D01*
X028359Y025936D01*
X028396Y025973D01*
X028396Y025752D02*
X028543Y025605D01*
X028579Y025642D01*
X028579Y025715D01*
X028543Y025752D01*
X028396Y025752D01*
X028359Y025715D01*
X028359Y025642D01*
X028396Y025605D01*
X028543Y025605D01*
X028543Y025531D02*
X028579Y025494D01*
X028579Y025421D01*
X028543Y025384D01*
X028543Y025310D02*
X028579Y025273D01*
X028579Y025200D01*
X028543Y025163D01*
X028396Y025163D01*
X028359Y025200D01*
X028359Y025273D01*
X028396Y025310D01*
X028396Y025384D02*
X028359Y025421D01*
X028359Y025494D01*
X028396Y025531D01*
X028433Y025531D01*
X028469Y025494D01*
X028506Y025531D01*
X028543Y025531D01*
X028469Y025494D02*
X028469Y025458D01*
X027699Y025522D02*
X027663Y025485D01*
X027516Y025632D01*
X027663Y025632D01*
X027699Y025595D01*
X027699Y025522D01*
X027663Y025485D02*
X027516Y025485D01*
X027479Y025522D01*
X027479Y025595D01*
X027516Y025632D01*
X027553Y025706D02*
X027479Y025780D01*
X027699Y025780D01*
X027699Y025853D02*
X027699Y025706D01*
X027663Y025411D02*
X027699Y025374D01*
X027699Y025301D01*
X027663Y025264D01*
X027663Y025190D02*
X027699Y025153D01*
X027699Y025080D01*
X027663Y025043D01*
X027516Y025043D01*
X027479Y025080D01*
X027479Y025153D01*
X027516Y025190D01*
X027516Y025264D02*
X027479Y025301D01*
X027479Y025374D01*
X027516Y025411D01*
X027553Y025411D01*
X027589Y025374D01*
X027626Y025411D01*
X027663Y025411D01*
X027589Y025374D02*
X027589Y025338D01*
X023206Y021736D02*
X023169Y021773D01*
X023022Y021773D01*
X023169Y021626D01*
X023206Y021663D01*
X023206Y021736D01*
X023169Y021626D02*
X023022Y021626D01*
X022986Y021663D01*
X022986Y021736D01*
X023022Y021773D01*
X023096Y021552D02*
X023096Y021405D01*
X022986Y021515D01*
X023206Y021515D01*
X023169Y021331D02*
X023206Y021294D01*
X023206Y021221D01*
X023169Y021184D01*
X023169Y021110D02*
X023206Y021073D01*
X023206Y021000D01*
X023169Y020963D01*
X023022Y020963D01*
X022986Y021000D01*
X022986Y021073D01*
X023022Y021110D01*
X023022Y021184D02*
X022986Y021221D01*
X022986Y021294D01*
X023022Y021331D01*
X023059Y021331D01*
X023096Y021294D01*
X023132Y021331D01*
X023169Y021331D01*
X023096Y021294D02*
X023096Y021258D01*
X032853Y026747D02*
X032890Y026710D01*
X032963Y026710D01*
X033000Y026747D01*
X033074Y026747D02*
X033111Y026710D01*
X033184Y026710D01*
X033221Y026747D01*
X033221Y026783D01*
X033184Y026820D01*
X033147Y026820D01*
X033184Y026820D02*
X033221Y026857D01*
X033221Y026893D01*
X033184Y026930D01*
X033111Y026930D01*
X033074Y026893D01*
X033000Y026893D02*
X032963Y026930D01*
X032890Y026930D01*
X032853Y026893D01*
X032853Y026747D01*
X033295Y026710D02*
X033442Y026710D01*
X033368Y026710D02*
X033368Y026930D01*
X033295Y026857D01*
X033516Y026857D02*
X033516Y026893D01*
X033553Y026930D01*
X033626Y026930D01*
X033663Y026893D01*
X033663Y026857D01*
X033626Y026820D01*
X033553Y026820D01*
X033516Y026857D01*
X033553Y026820D02*
X033516Y026783D01*
X033516Y026747D01*
X033553Y026710D01*
X033626Y026710D01*
X033663Y026747D01*
X033663Y026783D01*
X033626Y026820D01*
X034843Y023350D02*
X034953Y023350D01*
X034990Y023313D01*
X034990Y023240D01*
X034953Y023203D01*
X034843Y023203D01*
X034843Y023130D02*
X034843Y023350D01*
X034916Y023203D02*
X034990Y023130D01*
X035064Y023240D02*
X035211Y023240D01*
X035285Y023167D02*
X035322Y023130D01*
X035395Y023130D01*
X035432Y023167D01*
X035432Y023203D01*
X035395Y023240D01*
X035358Y023240D01*
X035395Y023240D02*
X035432Y023277D01*
X035432Y023313D01*
X035395Y023350D01*
X035322Y023350D01*
X035285Y023313D01*
X035174Y023350D02*
X035064Y023240D01*
X035174Y023130D02*
X035174Y023350D01*
X035506Y023313D02*
X035543Y023350D01*
X035616Y023350D01*
X035653Y023313D01*
X035653Y023277D01*
X035616Y023240D01*
X035653Y023203D01*
X035653Y023167D01*
X035616Y023130D01*
X035543Y023130D01*
X035506Y023167D01*
X035579Y023240D02*
X035616Y023240D01*
D16*
X003013Y006760D03*
D17*
X003628Y005706D02*
X004078Y005706D01*
X004078Y005556D02*
X004078Y005856D01*
X003778Y005556D02*
X003628Y005706D01*
X003703Y005396D02*
X004003Y005096D01*
X004078Y005171D01*
X004078Y005321D01*
X004003Y005396D01*
X003703Y005396D01*
X003628Y005321D01*
X003628Y005171D01*
X003703Y005096D01*
X004003Y005096D01*
X004078Y004936D02*
X004078Y004635D01*
X003778Y004936D01*
X003703Y004936D01*
X003628Y004861D01*
X003628Y004710D01*
X003703Y004635D01*
X003628Y004475D02*
X003628Y004325D01*
X003628Y004400D02*
X004003Y004400D01*
X004078Y004325D01*
X004078Y004250D01*
X004003Y004175D01*
X001987Y005380D02*
X001580Y005380D01*
X001784Y005177D02*
X001784Y005584D01*
X005275Y011357D02*
X005277Y011396D01*
X005283Y011435D01*
X005293Y011473D01*
X005306Y011510D01*
X005323Y011545D01*
X005343Y011579D01*
X005367Y011610D01*
X005394Y011639D01*
X005423Y011665D01*
X005455Y011688D01*
X005489Y011708D01*
X005525Y011724D01*
X005562Y011736D01*
X005601Y011745D01*
X005640Y011750D01*
X005679Y011751D01*
X005718Y011748D01*
X005757Y011741D01*
X005794Y011730D01*
X005831Y011716D01*
X005866Y011698D01*
X005899Y011677D01*
X005930Y011652D01*
X005958Y011625D01*
X005983Y011595D01*
X006005Y011562D01*
X006024Y011528D01*
X006039Y011492D01*
X006051Y011454D01*
X006059Y011416D01*
X006063Y011377D01*
X006063Y011337D01*
X006059Y011298D01*
X006051Y011260D01*
X006039Y011222D01*
X006024Y011186D01*
X006005Y011152D01*
X005983Y011119D01*
X005958Y011089D01*
X005930Y011062D01*
X005899Y011037D01*
X005866Y011016D01*
X005831Y010998D01*
X005794Y010984D01*
X005757Y010973D01*
X005718Y010966D01*
X005679Y010963D01*
X005640Y010964D01*
X005601Y010969D01*
X005562Y010978D01*
X005525Y010990D01*
X005489Y011006D01*
X005455Y011026D01*
X005423Y011049D01*
X005394Y011075D01*
X005367Y011104D01*
X005343Y011135D01*
X005323Y011169D01*
X005306Y011204D01*
X005293Y011241D01*
X005283Y011279D01*
X005277Y011318D01*
X005275Y011357D01*
X004400Y011670D02*
X004400Y011970D01*
X004099Y011670D01*
X004174Y011595D01*
X004324Y011595D01*
X004400Y011670D01*
X004400Y011970D02*
X004324Y012045D01*
X004174Y012045D01*
X004099Y011970D01*
X004099Y011670D01*
X003939Y011595D02*
X003639Y011595D01*
X003939Y011895D01*
X003939Y011970D01*
X003864Y012045D01*
X003714Y012045D01*
X003639Y011970D01*
X003479Y011970D02*
X003404Y012045D01*
X003254Y012045D01*
X003178Y011970D01*
X003018Y012045D02*
X002868Y012045D01*
X002943Y012045D02*
X002943Y011670D01*
X002868Y011595D01*
X002793Y011595D01*
X002718Y011670D01*
X003178Y011595D02*
X003479Y011895D01*
X003479Y011970D01*
X003479Y011595D02*
X003178Y011595D01*
X006398Y012662D02*
X006988Y012662D01*
X006988Y013410D01*
X006398Y013410D01*
X006398Y012662D01*
X007988Y012662D02*
X008578Y012662D01*
X008578Y013410D01*
X007988Y013410D01*
X007988Y012662D01*
X002923Y016630D02*
X002923Y018230D01*
X001823Y018230D01*
X001823Y016630D01*
X002923Y016630D01*
X002009Y017430D02*
X002011Y017468D01*
X002017Y017506D01*
X002027Y017542D01*
X002040Y017578D01*
X002058Y017612D01*
X002079Y017644D01*
X002102Y017674D01*
X002129Y017701D01*
X002159Y017724D01*
X002191Y017745D01*
X002225Y017763D01*
X002261Y017776D01*
X002297Y017786D01*
X002335Y017792D01*
X002373Y017794D01*
X002411Y017792D01*
X002449Y017786D01*
X002485Y017776D01*
X002521Y017763D01*
X002555Y017745D01*
X002587Y017724D01*
X002617Y017701D01*
X002644Y017674D01*
X002667Y017644D01*
X002688Y017612D01*
X002706Y017578D01*
X002719Y017542D01*
X002729Y017506D01*
X002735Y017468D01*
X002737Y017430D01*
X002735Y017392D01*
X002729Y017354D01*
X002719Y017318D01*
X002706Y017282D01*
X002688Y017248D01*
X002667Y017216D01*
X002644Y017186D01*
X002617Y017159D01*
X002587Y017136D01*
X002555Y017115D01*
X002521Y017097D01*
X002485Y017084D01*
X002449Y017074D01*
X002411Y017068D01*
X002373Y017066D01*
X002335Y017068D01*
X002297Y017074D01*
X002261Y017084D01*
X002225Y017097D01*
X002191Y017115D01*
X002159Y017136D01*
X002129Y017159D01*
X002102Y017186D01*
X002079Y017216D01*
X002058Y017248D01*
X002040Y017282D01*
X002027Y017318D01*
X002017Y017354D01*
X002011Y017392D01*
X002009Y017430D01*
X001738Y019155D02*
X007978Y019155D01*
X007978Y024470D01*
X007978Y024608D01*
X007978Y024765D01*
X001738Y024765D01*
X001738Y024470D01*
X001738Y019155D01*
X005216Y018444D02*
X005218Y018485D01*
X005224Y018526D01*
X005234Y018566D01*
X005247Y018605D01*
X005264Y018642D01*
X005285Y018678D01*
X005309Y018712D01*
X005336Y018743D01*
X005365Y018771D01*
X005398Y018797D01*
X005432Y018819D01*
X005469Y018838D01*
X005507Y018853D01*
X005547Y018865D01*
X005587Y018873D01*
X005628Y018877D01*
X005670Y018877D01*
X005711Y018873D01*
X005751Y018865D01*
X005791Y018853D01*
X005829Y018838D01*
X005865Y018819D01*
X005900Y018797D01*
X005933Y018771D01*
X005962Y018743D01*
X005989Y018712D01*
X006013Y018678D01*
X006034Y018642D01*
X006051Y018605D01*
X006064Y018566D01*
X006074Y018526D01*
X006080Y018485D01*
X006082Y018444D01*
X006080Y018403D01*
X006074Y018362D01*
X006064Y018322D01*
X006051Y018283D01*
X006034Y018246D01*
X006013Y018210D01*
X005989Y018176D01*
X005962Y018145D01*
X005933Y018117D01*
X005900Y018091D01*
X005866Y018069D01*
X005829Y018050D01*
X005791Y018035D01*
X005751Y018023D01*
X005711Y018015D01*
X005670Y018011D01*
X005628Y018011D01*
X005587Y018015D01*
X005547Y018023D01*
X005507Y018035D01*
X005469Y018050D01*
X005433Y018069D01*
X005398Y018091D01*
X005365Y018117D01*
X005336Y018145D01*
X005309Y018176D01*
X005285Y018210D01*
X005264Y018246D01*
X005247Y018283D01*
X005234Y018322D01*
X005224Y018362D01*
X005218Y018403D01*
X005216Y018444D01*
X007978Y024608D02*
X007978Y024667D01*
X007474Y026575D02*
X007324Y026575D01*
X007249Y026650D01*
X007550Y026950D01*
X007550Y026650D01*
X007474Y026575D01*
X007249Y026650D02*
X007249Y026950D01*
X007324Y027025D01*
X007474Y027025D01*
X007550Y026950D01*
X007089Y026950D02*
X007089Y026650D01*
X007014Y026575D01*
X006864Y026575D01*
X006789Y026650D01*
X007089Y026950D01*
X007014Y027025D01*
X006864Y027025D01*
X006789Y026950D01*
X006789Y026650D01*
X006629Y026575D02*
X006328Y026575D01*
X006629Y026875D01*
X006629Y026950D01*
X006554Y027025D01*
X006404Y027025D01*
X006328Y026950D01*
X006168Y027025D02*
X006018Y027025D01*
X006093Y027025D02*
X006093Y026650D01*
X006018Y026575D01*
X005943Y026575D01*
X005868Y026650D01*
X024223Y022491D02*
X024223Y022254D01*
X024628Y021900D02*
X024630Y021927D01*
X024636Y021954D01*
X024646Y021979D01*
X024659Y022003D01*
X024675Y022024D01*
X024695Y022043D01*
X024717Y022059D01*
X024741Y022071D01*
X024767Y022080D01*
X024794Y022085D01*
X024821Y022086D01*
X024848Y022083D01*
X024874Y022076D01*
X024899Y022065D01*
X024922Y022051D01*
X024943Y022034D01*
X024961Y022014D01*
X024976Y021991D01*
X024988Y021966D01*
X024996Y021940D01*
X025000Y021914D01*
X025000Y021886D01*
X024996Y021860D01*
X024988Y021834D01*
X024976Y021809D01*
X024961Y021786D01*
X024943Y021766D01*
X024922Y021749D01*
X024899Y021735D01*
X024874Y021724D01*
X024848Y021717D01*
X024821Y021714D01*
X024794Y021715D01*
X024767Y021720D01*
X024741Y021729D01*
X024717Y021741D01*
X024695Y021757D01*
X024675Y021776D01*
X024659Y021797D01*
X024646Y021821D01*
X024636Y021846D01*
X024630Y021873D01*
X024628Y021900D01*
X024223Y021565D02*
X024223Y021309D01*
X025424Y021309D02*
X025424Y022491D01*
X029103Y022434D02*
X029260Y022670D01*
X029418Y022434D01*
X029103Y022434D01*
X029112Y022449D02*
X029408Y022449D01*
X029376Y022497D02*
X029145Y022497D01*
X029177Y022546D02*
X029344Y022546D01*
X029311Y022594D02*
X029209Y022594D01*
X029242Y022643D02*
X029279Y022643D01*
X029398Y022690D02*
X029103Y022690D01*
X029260Y023025D02*
X029260Y022159D01*
X033419Y023001D02*
X033419Y020639D01*
X035387Y020639D01*
X035387Y023001D01*
X033419Y023001D01*
X034343Y023960D02*
X034343Y024255D01*
X034406Y024146D02*
X034599Y024146D01*
X034599Y024098D02*
X034392Y024098D01*
X034363Y024117D02*
X034599Y024275D01*
X034599Y023960D01*
X034363Y024117D01*
X034465Y024049D02*
X034599Y024049D01*
X034599Y024001D02*
X034538Y024001D01*
X034479Y024195D02*
X034599Y024195D01*
X034599Y024243D02*
X034551Y024243D01*
X034874Y024117D02*
X034008Y024117D01*
X036653Y024124D02*
X036810Y024360D01*
X036968Y024124D01*
X036653Y024124D01*
X036667Y024146D02*
X036953Y024146D01*
X036921Y024195D02*
X036700Y024195D01*
X036732Y024243D02*
X036889Y024243D01*
X036856Y024292D02*
X036764Y024292D01*
X036797Y024340D02*
X036824Y024340D01*
X036948Y024380D02*
X036653Y024380D01*
X036810Y024715D02*
X036810Y023849D01*
X034950Y019615D02*
X034950Y018749D01*
X034793Y019024D02*
X034950Y019260D01*
X035108Y019024D01*
X034793Y019024D01*
X034812Y019054D02*
X035088Y019054D01*
X035056Y019102D02*
X034845Y019102D01*
X034877Y019151D02*
X035024Y019151D01*
X034991Y019199D02*
X034909Y019199D01*
X034942Y019248D02*
X034959Y019248D01*
X035088Y019280D02*
X034793Y019280D01*
X033149Y018115D02*
X032913Y017957D01*
X033149Y017800D01*
X033149Y018115D01*
X033149Y018084D02*
X033102Y018084D01*
X033149Y018035D02*
X033029Y018035D01*
X032957Y017987D02*
X033149Y017987D01*
X033149Y017938D02*
X032941Y017938D01*
X033014Y017890D02*
X033149Y017890D01*
X033149Y017841D02*
X033087Y017841D01*
X032893Y017800D02*
X032893Y018095D01*
X032558Y017957D02*
X033424Y017957D01*
X034299Y016752D02*
X037724Y016752D01*
X037724Y011948D01*
X034299Y011948D01*
X034299Y016752D01*
X036763Y017914D02*
X036920Y018150D01*
X037078Y017914D01*
X036763Y017914D01*
X036779Y017938D02*
X037062Y017938D01*
X037030Y017987D02*
X036811Y017987D01*
X036843Y018035D02*
X036997Y018035D01*
X036965Y018084D02*
X036876Y018084D01*
X036908Y018132D02*
X036933Y018132D01*
X037058Y018170D02*
X036763Y018170D01*
X036920Y018505D02*
X036920Y017639D01*
X030255Y018444D02*
X030257Y018485D01*
X030263Y018526D01*
X030273Y018566D01*
X030286Y018605D01*
X030303Y018642D01*
X030324Y018678D01*
X030348Y018712D01*
X030375Y018743D01*
X030404Y018771D01*
X030437Y018797D01*
X030471Y018819D01*
X030508Y018838D01*
X030546Y018853D01*
X030586Y018865D01*
X030626Y018873D01*
X030667Y018877D01*
X030709Y018877D01*
X030750Y018873D01*
X030790Y018865D01*
X030830Y018853D01*
X030868Y018838D01*
X030904Y018819D01*
X030939Y018797D01*
X030972Y018771D01*
X031001Y018743D01*
X031028Y018712D01*
X031052Y018678D01*
X031073Y018642D01*
X031090Y018605D01*
X031103Y018566D01*
X031113Y018526D01*
X031119Y018485D01*
X031121Y018444D01*
X031119Y018403D01*
X031113Y018362D01*
X031103Y018322D01*
X031090Y018283D01*
X031073Y018246D01*
X031052Y018210D01*
X031028Y018176D01*
X031001Y018145D01*
X030972Y018117D01*
X030939Y018091D01*
X030905Y018069D01*
X030868Y018050D01*
X030830Y018035D01*
X030790Y018023D01*
X030750Y018015D01*
X030709Y018011D01*
X030667Y018011D01*
X030626Y018015D01*
X030586Y018023D01*
X030546Y018035D01*
X030508Y018050D01*
X030472Y018069D01*
X030437Y018091D01*
X030404Y018117D01*
X030375Y018145D01*
X030348Y018176D01*
X030324Y018210D01*
X030303Y018246D01*
X030286Y018283D01*
X030273Y018322D01*
X030263Y018362D01*
X030257Y018403D01*
X030255Y018444D01*
X027259Y017119D02*
X027259Y016841D01*
X027259Y017119D02*
X027167Y017119D01*
X027259Y016019D02*
X027259Y015741D01*
X027167Y015741D01*
X025559Y015741D02*
X025467Y015741D01*
X025467Y016019D01*
X025467Y016841D02*
X025467Y017119D01*
X025559Y017119D01*
X030275Y011357D02*
X030277Y011396D01*
X030283Y011435D01*
X030293Y011473D01*
X030306Y011510D01*
X030323Y011545D01*
X030343Y011579D01*
X030367Y011610D01*
X030394Y011639D01*
X030423Y011665D01*
X030455Y011688D01*
X030489Y011708D01*
X030525Y011724D01*
X030562Y011736D01*
X030601Y011745D01*
X030640Y011750D01*
X030679Y011751D01*
X030718Y011748D01*
X030757Y011741D01*
X030794Y011730D01*
X030831Y011716D01*
X030866Y011698D01*
X030899Y011677D01*
X030930Y011652D01*
X030958Y011625D01*
X030983Y011595D01*
X031005Y011562D01*
X031024Y011528D01*
X031039Y011492D01*
X031051Y011454D01*
X031059Y011416D01*
X031063Y011377D01*
X031063Y011337D01*
X031059Y011298D01*
X031051Y011260D01*
X031039Y011222D01*
X031024Y011186D01*
X031005Y011152D01*
X030983Y011119D01*
X030958Y011089D01*
X030930Y011062D01*
X030899Y011037D01*
X030866Y011016D01*
X030831Y010998D01*
X030794Y010984D01*
X030757Y010973D01*
X030718Y010966D01*
X030679Y010963D01*
X030640Y010964D01*
X030601Y010969D01*
X030562Y010978D01*
X030525Y010990D01*
X030489Y011006D01*
X030455Y011026D01*
X030423Y011049D01*
X030394Y011075D01*
X030367Y011104D01*
X030343Y011135D01*
X030323Y011169D01*
X030306Y011204D01*
X030293Y011241D01*
X030283Y011279D01*
X030277Y011318D01*
X030275Y011357D01*
X033828Y010566D02*
X033986Y010330D01*
X034143Y010566D01*
X033828Y010566D01*
X033860Y010518D02*
X034111Y010518D01*
X034079Y010469D02*
X033893Y010469D01*
X033925Y010421D02*
X034047Y010421D01*
X034014Y010372D02*
X033957Y010372D01*
X033848Y010310D02*
X034143Y010310D01*
X033986Y009975D02*
X033986Y010841D01*
X036618Y009716D02*
X036776Y009480D01*
X036933Y009716D01*
X036618Y009716D01*
X036633Y009693D02*
X036918Y009693D01*
X036886Y009645D02*
X036666Y009645D01*
X036698Y009596D02*
X036853Y009596D01*
X036821Y009548D02*
X036730Y009548D01*
X036763Y009499D02*
X036789Y009499D01*
X036933Y009460D02*
X036638Y009460D01*
X036776Y009125D02*
X036776Y009991D01*
X036275Y006914D02*
X034071Y006914D01*
X034071Y004946D01*
X036275Y004946D01*
X036275Y006914D01*
X020056Y005808D02*
X020056Y005508D01*
X019981Y005433D01*
X019831Y005433D01*
X019756Y005508D01*
X020056Y005808D01*
X019981Y005883D01*
X019831Y005883D01*
X019756Y005808D01*
X019756Y005508D01*
X019596Y005433D02*
X019296Y005433D01*
X019446Y005433D02*
X019446Y005883D01*
X019296Y005733D01*
X019136Y005733D02*
X019136Y005808D01*
X019061Y005883D01*
X018910Y005883D01*
X018835Y005808D01*
X018675Y005883D02*
X018525Y005883D01*
X018600Y005883D02*
X018600Y005508D01*
X018525Y005433D01*
X018450Y005433D01*
X018375Y005508D01*
X018835Y005433D02*
X019136Y005733D01*
X019136Y005433D02*
X018835Y005433D01*
D18*
X027096Y016964D03*
D19*
X035190Y020737D03*
D20*
X032743Y024280D02*
X030143Y024280D01*
X030143Y025300D01*
X030143Y025860D02*
X030143Y026880D01*
X032743Y026880D01*
X032743Y026230D01*
X032093Y026880D01*
X031933Y027150D02*
X032433Y027150D01*
X032683Y027400D01*
X032933Y027150D01*
X033433Y027150D01*
X033683Y027400D01*
X033683Y027900D01*
X033433Y028150D01*
X032933Y028150D01*
X032683Y027900D01*
X032683Y027400D01*
X032683Y027900D02*
X032433Y028150D01*
X031933Y028150D01*
X031683Y027900D01*
X031683Y027400D01*
X031933Y027150D01*
X031683Y027400D02*
X031433Y027150D01*
X030933Y027150D01*
X030683Y027400D01*
X030683Y027900D01*
X030933Y028150D01*
X031433Y028150D01*
X031683Y027900D01*
X030683Y027900D02*
X030433Y028150D01*
X029933Y028150D01*
X029683Y027900D01*
X029683Y027400D01*
X029933Y027150D01*
X030433Y027150D01*
X030683Y027400D01*
X029683Y027400D02*
X029433Y027150D01*
X028933Y027150D01*
X028683Y027400D01*
X028683Y027900D01*
X028933Y028150D01*
X029433Y028150D01*
X029683Y027900D01*
X028683Y027900D02*
X028433Y028150D01*
X027933Y028150D01*
X027683Y027900D01*
X027683Y027400D01*
X027933Y027150D01*
X028433Y027150D01*
X028683Y027400D01*
X027683Y027400D02*
X027433Y027150D01*
X026933Y027150D01*
X026683Y027400D01*
X026683Y027900D01*
X026933Y028150D01*
X027433Y028150D01*
X027683Y027900D01*
X026683Y027900D02*
X026433Y028150D01*
X025933Y028150D01*
X025683Y027900D01*
X025683Y027400D01*
X025933Y027150D01*
X026433Y027150D01*
X026683Y027400D01*
X025683Y027400D02*
X025433Y027150D01*
X024933Y027150D01*
X024683Y027400D01*
X024433Y027150D01*
X023933Y027150D01*
X023683Y027400D01*
X023683Y027900D01*
X023933Y028150D01*
X024433Y028150D01*
X024683Y027900D01*
X024933Y028150D01*
X025433Y028150D01*
X025683Y027900D01*
X024683Y027900D02*
X024683Y027400D01*
X023683Y027400D02*
X023433Y027150D01*
X022933Y027150D01*
X022683Y027400D01*
X022433Y027150D01*
X021933Y027150D01*
X021683Y027400D01*
X021683Y027900D01*
X021933Y028150D01*
X022433Y028150D01*
X022683Y027900D01*
X022933Y028150D01*
X023433Y028150D01*
X023683Y027900D01*
X022683Y027900D02*
X022683Y027400D01*
X021683Y027400D02*
X021433Y027150D01*
X020933Y027150D01*
X020683Y027400D01*
X020433Y027150D01*
X019933Y027150D01*
X019683Y027400D01*
X019433Y027150D01*
X018933Y027150D01*
X018683Y027400D01*
X018433Y027150D01*
X017933Y027150D01*
X017683Y027400D01*
X017433Y027150D01*
X016933Y027150D01*
X016683Y027400D01*
X016433Y027150D01*
X015933Y027150D01*
X015683Y027400D01*
X015433Y027150D01*
X014933Y027150D01*
X014683Y027400D01*
X014433Y027150D01*
X013933Y027150D01*
X013683Y027400D01*
X013433Y027150D01*
X012933Y027150D01*
X012683Y027400D01*
X012433Y027150D01*
X011933Y027150D01*
X011683Y027400D01*
X011433Y027150D01*
X010933Y027150D01*
X010683Y027400D01*
X010433Y027150D01*
X009933Y027150D01*
X009683Y027400D01*
X009433Y027150D01*
X008933Y027150D01*
X008683Y027400D01*
X008433Y027150D01*
X007933Y027150D01*
X007683Y027400D01*
X007433Y027150D01*
X006933Y027150D01*
X006683Y027400D01*
X006433Y027150D01*
X005933Y027150D01*
X005683Y027400D01*
X005433Y027150D01*
X004933Y027150D01*
X004683Y027400D01*
X004433Y027150D01*
X003933Y027150D01*
X003683Y027400D01*
X003433Y027150D01*
X002933Y027150D01*
X002683Y027400D01*
X002433Y027150D01*
X001933Y027150D01*
X001683Y027400D01*
X001683Y027900D01*
X001933Y028150D01*
X002433Y028150D01*
X002683Y027900D01*
X002933Y028150D01*
X003433Y028150D01*
X003683Y027900D01*
X003683Y027400D01*
X003683Y027900D02*
X003933Y028150D01*
X004433Y028150D01*
X004683Y027900D01*
X004933Y028150D01*
X005433Y028150D01*
X005683Y027900D01*
X005933Y028150D01*
X006433Y028150D01*
X006683Y027900D01*
X006683Y027400D01*
X006683Y027900D02*
X006933Y028150D01*
X007433Y028150D01*
X007683Y027900D01*
X007933Y028150D01*
X008433Y028150D01*
X008683Y027900D01*
X008933Y028150D01*
X009433Y028150D01*
X009683Y027900D01*
X009683Y027400D01*
X009683Y027900D02*
X009933Y028150D01*
X010433Y028150D01*
X010683Y027900D01*
X010933Y028150D01*
X011433Y028150D01*
X011683Y027900D01*
X011933Y028150D01*
X012433Y028150D01*
X012683Y027900D01*
X012683Y027400D01*
X012683Y027900D02*
X012933Y028150D01*
X013433Y028150D01*
X013683Y027900D01*
X013933Y028150D01*
X014433Y028150D01*
X014683Y027900D01*
X014933Y028150D01*
X015433Y028150D01*
X015683Y027900D01*
X015683Y027400D01*
X015683Y027900D02*
X015933Y028150D01*
X016433Y028150D01*
X016683Y027900D01*
X016933Y028150D01*
X017433Y028150D01*
X017683Y027900D01*
X017933Y028150D01*
X018433Y028150D01*
X018683Y027900D01*
X018683Y027400D01*
X018683Y027900D02*
X018933Y028150D01*
X019433Y028150D01*
X019683Y027900D01*
X019933Y028150D01*
X020433Y028150D01*
X020683Y027900D01*
X020933Y028150D01*
X021433Y028150D01*
X021683Y027900D01*
X020683Y027900D02*
X020683Y027400D01*
X019683Y027400D02*
X019683Y027900D01*
X017683Y027900D02*
X017683Y027400D01*
X016683Y027400D02*
X016683Y027900D01*
X014683Y027900D02*
X014683Y027400D01*
X013683Y027400D02*
X013683Y027900D01*
X011683Y027900D02*
X011683Y027400D01*
X010683Y027400D02*
X010683Y027900D01*
X008683Y027900D02*
X008683Y027400D01*
X007683Y027400D02*
X007683Y027900D01*
X005683Y027900D02*
X005683Y027400D01*
X004683Y027400D02*
X004683Y027900D01*
X002683Y027900D02*
X002683Y027400D01*
X004171Y025980D02*
X004173Y026025D01*
X004179Y026069D01*
X004188Y026113D01*
X004202Y026155D01*
X004219Y026196D01*
X004240Y026236D01*
X004264Y026274D01*
X004291Y026309D01*
X004321Y026342D01*
X004354Y026372D01*
X004389Y026399D01*
X004427Y026423D01*
X004467Y026444D01*
X004508Y026461D01*
X004550Y026475D01*
X004594Y026484D01*
X004638Y026490D01*
X004683Y026492D01*
X004728Y026490D01*
X004772Y026484D01*
X004816Y026475D01*
X004858Y026461D01*
X004899Y026444D01*
X004939Y026423D01*
X004977Y026399D01*
X005012Y026372D01*
X005045Y026342D01*
X005075Y026309D01*
X005102Y026274D01*
X005126Y026236D01*
X005147Y026196D01*
X005164Y026155D01*
X005178Y026113D01*
X005187Y026069D01*
X005193Y026025D01*
X005195Y025980D01*
X005193Y025935D01*
X005187Y025891D01*
X005178Y025847D01*
X005164Y025805D01*
X005147Y025764D01*
X005126Y025724D01*
X005102Y025686D01*
X005075Y025651D01*
X005045Y025618D01*
X005012Y025588D01*
X004977Y025561D01*
X004939Y025537D01*
X004899Y025516D01*
X004858Y025499D01*
X004816Y025485D01*
X004772Y025476D01*
X004728Y025470D01*
X004683Y025468D01*
X004638Y025470D01*
X004594Y025476D01*
X004550Y025485D01*
X004508Y025499D01*
X004467Y025516D01*
X004427Y025537D01*
X004389Y025561D01*
X004354Y025588D01*
X004321Y025618D01*
X004291Y025651D01*
X004264Y025686D01*
X004240Y025724D01*
X004219Y025764D01*
X004202Y025805D01*
X004188Y025847D01*
X004179Y025891D01*
X004173Y025935D01*
X004171Y025980D01*
X003896Y025980D02*
X003898Y026036D01*
X003904Y026091D01*
X003914Y026145D01*
X003927Y026199D01*
X003945Y026252D01*
X003966Y026303D01*
X003990Y026353D01*
X004018Y026401D01*
X004050Y026447D01*
X004084Y026491D01*
X004122Y026532D01*
X004162Y026570D01*
X004205Y026605D01*
X004250Y026637D01*
X004298Y026666D01*
X004347Y026692D01*
X004398Y026714D01*
X004450Y026732D01*
X004504Y026746D01*
X004559Y026757D01*
X004614Y026764D01*
X004669Y026767D01*
X004725Y026766D01*
X004780Y026761D01*
X004835Y026752D01*
X004889Y026740D01*
X004942Y026723D01*
X004994Y026703D01*
X005044Y026679D01*
X005092Y026652D01*
X005139Y026622D01*
X005183Y026588D01*
X005225Y026551D01*
X005263Y026511D01*
X005300Y026469D01*
X005333Y026424D01*
X005362Y026378D01*
X005389Y026329D01*
X005411Y026278D01*
X005431Y026226D01*
X005446Y026172D01*
X005458Y026118D01*
X005466Y026063D01*
X005470Y026008D01*
X005470Y025952D01*
X005466Y025897D01*
X005458Y025842D01*
X005446Y025788D01*
X005431Y025734D01*
X005411Y025682D01*
X005389Y025631D01*
X005362Y025582D01*
X005333Y025536D01*
X005300Y025491D01*
X005263Y025449D01*
X005225Y025409D01*
X005183Y025372D01*
X005139Y025338D01*
X005092Y025308D01*
X005044Y025281D01*
X004994Y025257D01*
X004942Y025237D01*
X004889Y025220D01*
X004835Y025208D01*
X004780Y025199D01*
X004725Y025194D01*
X004669Y025193D01*
X004614Y025196D01*
X004559Y025203D01*
X004504Y025214D01*
X004450Y025228D01*
X004398Y025246D01*
X004347Y025268D01*
X004298Y025294D01*
X004250Y025323D01*
X004205Y025355D01*
X004162Y025390D01*
X004122Y025428D01*
X004084Y025469D01*
X004050Y025513D01*
X004018Y025559D01*
X003990Y025607D01*
X003966Y025657D01*
X003945Y025708D01*
X003927Y025761D01*
X003914Y025815D01*
X003904Y025869D01*
X003898Y025924D01*
X003896Y025980D01*
X002423Y011960D02*
X001923Y011960D01*
X001673Y011710D01*
X001673Y011210D01*
X001923Y010960D01*
X001673Y010710D01*
X001673Y010210D01*
X001923Y009960D01*
X002423Y009960D01*
X002673Y010210D01*
X002673Y010710D01*
X002423Y010960D01*
X001923Y010960D01*
X002423Y010960D02*
X002673Y011210D01*
X002673Y011710D01*
X002423Y011960D01*
X002853Y010240D02*
X003073Y010240D01*
X002853Y010240D02*
X002853Y009920D01*
X003753Y010240D02*
X003973Y010240D01*
X003973Y009920D01*
X003933Y004150D02*
X004433Y004150D01*
X004683Y003900D01*
X004933Y004150D01*
X005433Y004150D01*
X005683Y003900D01*
X005933Y004150D01*
X006433Y004150D01*
X006683Y003900D01*
X006683Y003400D01*
X006433Y003150D01*
X005933Y003150D01*
X005683Y003400D01*
X005433Y003150D01*
X004933Y003150D01*
X004683Y003400D01*
X004433Y003150D01*
X003933Y003150D01*
X003683Y003400D01*
X003433Y003150D01*
X002933Y003150D01*
X002683Y003400D01*
X002433Y003150D01*
X001933Y003150D01*
X001683Y003400D01*
X001683Y003900D01*
X001933Y004150D01*
X002433Y004150D01*
X002683Y003900D01*
X002933Y004150D01*
X003433Y004150D01*
X003683Y003900D01*
X003683Y003400D01*
X003683Y003900D02*
X003933Y004150D01*
X004683Y003900D02*
X004683Y003400D01*
X005683Y003400D02*
X005683Y003900D01*
X006683Y003900D02*
X006933Y004150D01*
X007433Y004150D01*
X007683Y003900D01*
X007933Y004150D01*
X008433Y004150D01*
X008683Y003900D01*
X008933Y004150D01*
X009433Y004150D01*
X009683Y003900D01*
X009683Y003400D01*
X009433Y003150D01*
X008933Y003150D01*
X008683Y003400D01*
X008433Y003150D01*
X007933Y003150D01*
X007683Y003400D01*
X007433Y003150D01*
X006933Y003150D01*
X006683Y003400D01*
X007683Y003400D02*
X007683Y003900D01*
X008683Y003900D02*
X008683Y003400D01*
X009683Y003400D02*
X009933Y003150D01*
X010433Y003150D01*
X010683Y003400D01*
X010933Y003150D01*
X011433Y003150D01*
X011683Y003400D01*
X011933Y003150D01*
X012433Y003150D01*
X012683Y003400D01*
X012683Y003900D01*
X012433Y004150D01*
X011933Y004150D01*
X011683Y003900D01*
X011683Y003400D01*
X011683Y003900D02*
X011433Y004150D01*
X010933Y004150D01*
X010683Y003900D01*
X010683Y003400D01*
X010683Y003900D02*
X010433Y004150D01*
X009933Y004150D01*
X009683Y003900D01*
X012683Y003900D02*
X012933Y004150D01*
X013433Y004150D01*
X013683Y003900D01*
X013933Y004150D01*
X014433Y004150D01*
X014683Y003900D01*
X014933Y004150D01*
X015433Y004150D01*
X015683Y003900D01*
X015683Y003400D01*
X015433Y003150D01*
X014933Y003150D01*
X014683Y003400D01*
X014433Y003150D01*
X013933Y003150D01*
X013683Y003400D01*
X013433Y003150D01*
X012933Y003150D01*
X012683Y003400D01*
X013683Y003400D02*
X013683Y003900D01*
X014683Y003900D02*
X014683Y003400D01*
X015683Y003400D02*
X015933Y003150D01*
X016433Y003150D01*
X016683Y003400D01*
X016933Y003150D01*
X017433Y003150D01*
X017683Y003400D01*
X017933Y003150D01*
X018433Y003150D01*
X018683Y003400D01*
X018683Y003900D01*
X018433Y004150D01*
X017933Y004150D01*
X017683Y003900D01*
X017683Y003400D01*
X017683Y003900D02*
X017433Y004150D01*
X016933Y004150D01*
X016683Y003900D01*
X016683Y003400D01*
X016683Y003900D02*
X016433Y004150D01*
X015933Y004150D01*
X015683Y003900D01*
X017683Y004400D02*
X017683Y004900D01*
X017933Y005150D01*
X018433Y005150D01*
X018683Y004900D01*
X018933Y005150D01*
X019433Y005150D01*
X019683Y004900D01*
X019933Y005150D01*
X020433Y005150D01*
X020683Y004900D01*
X020933Y005150D01*
X021433Y005150D01*
X021683Y004900D01*
X021933Y005150D01*
X022433Y005150D01*
X022683Y004900D01*
X022933Y005150D01*
X023433Y005150D01*
X023683Y004900D01*
X023683Y004400D01*
X023433Y004150D01*
X023683Y003900D01*
X023933Y004150D01*
X024433Y004150D01*
X024683Y003900D01*
X024933Y004150D01*
X025433Y004150D01*
X025683Y003900D01*
X025933Y004150D01*
X026433Y004150D01*
X026683Y003900D01*
X026933Y004150D01*
X027433Y004150D01*
X027683Y003900D01*
X027933Y004150D01*
X028433Y004150D01*
X028683Y003900D01*
X028933Y004150D01*
X029433Y004150D01*
X029683Y003900D01*
X029933Y004150D01*
X030433Y004150D01*
X030683Y003900D01*
X030933Y004150D01*
X031433Y004150D01*
X031683Y003900D01*
X031933Y004150D01*
X032433Y004150D01*
X032683Y003900D01*
X032933Y004150D01*
X033433Y004150D01*
X033683Y003900D01*
X033683Y003400D01*
X033433Y003150D01*
X032933Y003150D01*
X032683Y003400D01*
X032433Y003150D01*
X031933Y003150D01*
X031683Y003400D01*
X031683Y003900D01*
X031683Y003400D02*
X031433Y003150D01*
X030933Y003150D01*
X030683Y003400D01*
X030683Y003900D01*
X030683Y003400D02*
X030433Y003150D01*
X029933Y003150D01*
X029683Y003400D01*
X029433Y003150D01*
X028933Y003150D01*
X028683Y003400D01*
X028683Y003900D01*
X028683Y003400D02*
X028433Y003150D01*
X027933Y003150D01*
X027683Y003400D01*
X027433Y003150D01*
X026933Y003150D01*
X026683Y003400D01*
X026683Y003900D01*
X026683Y003400D02*
X026433Y003150D01*
X025933Y003150D01*
X025683Y003400D01*
X025683Y003900D01*
X025683Y003400D02*
X025433Y003150D01*
X024933Y003150D01*
X024683Y003400D01*
X024433Y003150D01*
X023933Y003150D01*
X023683Y003400D01*
X023683Y003900D01*
X023433Y004150D02*
X022933Y004150D01*
X022683Y003900D01*
X022683Y003400D01*
X022933Y003150D01*
X023433Y003150D01*
X023683Y003400D01*
X024683Y003400D02*
X024683Y003900D01*
X023433Y004150D02*
X022933Y004150D01*
X022683Y004400D01*
X022433Y004150D01*
X022683Y003900D01*
X022433Y004150D02*
X021933Y004150D01*
X021683Y003900D01*
X021683Y003400D01*
X021933Y003150D01*
X022433Y003150D01*
X022683Y003400D01*
X021683Y003400D02*
X021433Y003150D01*
X020933Y003150D01*
X020683Y003400D01*
X020433Y003150D01*
X019933Y003150D01*
X019683Y003400D01*
X019433Y003150D01*
X018933Y003150D01*
X018683Y003400D01*
X018683Y003900D02*
X018933Y004150D01*
X019433Y004150D01*
X019683Y003900D01*
X019933Y004150D01*
X020433Y004150D01*
X020683Y003900D01*
X020933Y004150D01*
X021433Y004150D01*
X021683Y003900D01*
X021433Y004150D02*
X020933Y004150D01*
X020683Y004400D01*
X020433Y004150D01*
X019933Y004150D01*
X019683Y004400D01*
X019433Y004150D01*
X018933Y004150D01*
X018683Y004400D01*
X018433Y004150D01*
X017933Y004150D01*
X017683Y004400D01*
X018683Y004400D02*
X018683Y004900D01*
X019683Y004900D02*
X019683Y004400D01*
X019683Y003900D02*
X019683Y003400D01*
X020683Y003400D02*
X020683Y003900D01*
X020683Y004400D02*
X020683Y004900D01*
X021433Y004150D02*
X021683Y004400D01*
X021683Y004900D01*
X021683Y004400D02*
X021933Y004150D01*
X022433Y004150D01*
X022683Y004400D02*
X022683Y004900D01*
X027683Y003900D02*
X027683Y003400D01*
X029683Y003400D02*
X029683Y003900D01*
X032683Y003900D02*
X032683Y003400D01*
X033683Y003400D02*
X033933Y003150D01*
X034433Y003150D01*
X034683Y003400D01*
X034933Y003150D01*
X035433Y003150D01*
X035683Y003400D01*
X035933Y003150D01*
X036433Y003150D01*
X036683Y003400D01*
X036683Y003900D01*
X036433Y004150D01*
X035933Y004150D01*
X035683Y003900D01*
X035683Y003400D01*
X035683Y003900D02*
X035433Y004150D01*
X034933Y004150D01*
X034683Y003900D01*
X034683Y003400D01*
X034683Y003900D02*
X034433Y004150D01*
X033933Y004150D01*
X033683Y003900D01*
X036683Y003900D02*
X036933Y004150D01*
X037433Y004150D01*
X037683Y004400D01*
X037683Y004900D01*
X037433Y005150D01*
X036933Y005150D01*
X036683Y004900D01*
X036683Y004400D01*
X036933Y004150D01*
X037433Y004150D01*
X037683Y003900D01*
X037683Y003400D01*
X037433Y003150D01*
X036933Y003150D01*
X036683Y003400D01*
X032743Y024280D02*
X032743Y025300D01*
X032743Y024930D02*
X032093Y024280D01*
X033483Y025430D02*
X033483Y025730D01*
X033333Y025580D02*
X033633Y025580D01*
X032743Y025860D02*
X032743Y026230D01*
X033683Y027400D02*
X033933Y027150D01*
X034433Y027150D01*
X034683Y027400D01*
X034933Y027150D01*
X035433Y027150D01*
X035683Y027400D01*
X035933Y027150D01*
X036433Y027150D01*
X036683Y027400D01*
X036683Y027900D01*
X036433Y028150D01*
X035933Y028150D01*
X035683Y027900D01*
X035683Y027400D01*
X035683Y027900D02*
X035433Y028150D01*
X034933Y028150D01*
X034683Y027900D01*
X034683Y027400D01*
X034683Y027900D02*
X034433Y028150D01*
X033933Y028150D01*
X033683Y027900D01*
X034171Y025980D02*
X034173Y026025D01*
X034179Y026069D01*
X034188Y026113D01*
X034202Y026155D01*
X034219Y026196D01*
X034240Y026236D01*
X034264Y026274D01*
X034291Y026309D01*
X034321Y026342D01*
X034354Y026372D01*
X034389Y026399D01*
X034427Y026423D01*
X034467Y026444D01*
X034508Y026461D01*
X034550Y026475D01*
X034594Y026484D01*
X034638Y026490D01*
X034683Y026492D01*
X034728Y026490D01*
X034772Y026484D01*
X034816Y026475D01*
X034858Y026461D01*
X034899Y026444D01*
X034939Y026423D01*
X034977Y026399D01*
X035012Y026372D01*
X035045Y026342D01*
X035075Y026309D01*
X035102Y026274D01*
X035126Y026236D01*
X035147Y026196D01*
X035164Y026155D01*
X035178Y026113D01*
X035187Y026069D01*
X035193Y026025D01*
X035195Y025980D01*
X035193Y025935D01*
X035187Y025891D01*
X035178Y025847D01*
X035164Y025805D01*
X035147Y025764D01*
X035126Y025724D01*
X035102Y025686D01*
X035075Y025651D01*
X035045Y025618D01*
X035012Y025588D01*
X034977Y025561D01*
X034939Y025537D01*
X034899Y025516D01*
X034858Y025499D01*
X034816Y025485D01*
X034772Y025476D01*
X034728Y025470D01*
X034683Y025468D01*
X034638Y025470D01*
X034594Y025476D01*
X034550Y025485D01*
X034508Y025499D01*
X034467Y025516D01*
X034427Y025537D01*
X034389Y025561D01*
X034354Y025588D01*
X034321Y025618D01*
X034291Y025651D01*
X034264Y025686D01*
X034240Y025724D01*
X034219Y025764D01*
X034202Y025805D01*
X034188Y025847D01*
X034179Y025891D01*
X034173Y025935D01*
X034171Y025980D01*
X033896Y025980D02*
X033898Y026036D01*
X033904Y026091D01*
X033914Y026145D01*
X033927Y026199D01*
X033945Y026252D01*
X033966Y026303D01*
X033990Y026353D01*
X034018Y026401D01*
X034050Y026447D01*
X034084Y026491D01*
X034122Y026532D01*
X034162Y026570D01*
X034205Y026605D01*
X034250Y026637D01*
X034298Y026666D01*
X034347Y026692D01*
X034398Y026714D01*
X034450Y026732D01*
X034504Y026746D01*
X034559Y026757D01*
X034614Y026764D01*
X034669Y026767D01*
X034725Y026766D01*
X034780Y026761D01*
X034835Y026752D01*
X034889Y026740D01*
X034942Y026723D01*
X034994Y026703D01*
X035044Y026679D01*
X035092Y026652D01*
X035139Y026622D01*
X035183Y026588D01*
X035225Y026551D01*
X035263Y026511D01*
X035300Y026469D01*
X035333Y026424D01*
X035362Y026378D01*
X035389Y026329D01*
X035411Y026278D01*
X035431Y026226D01*
X035446Y026172D01*
X035458Y026118D01*
X035466Y026063D01*
X035470Y026008D01*
X035470Y025952D01*
X035466Y025897D01*
X035458Y025842D01*
X035446Y025788D01*
X035431Y025734D01*
X035411Y025682D01*
X035389Y025631D01*
X035362Y025582D01*
X035333Y025536D01*
X035300Y025491D01*
X035263Y025449D01*
X035225Y025409D01*
X035183Y025372D01*
X035139Y025338D01*
X035092Y025308D01*
X035044Y025281D01*
X034994Y025257D01*
X034942Y025237D01*
X034889Y025220D01*
X034835Y025208D01*
X034780Y025199D01*
X034725Y025194D01*
X034669Y025193D01*
X034614Y025196D01*
X034559Y025203D01*
X034504Y025214D01*
X034450Y025228D01*
X034398Y025246D01*
X034347Y025268D01*
X034298Y025294D01*
X034250Y025323D01*
X034205Y025355D01*
X034162Y025390D01*
X034122Y025428D01*
X034084Y025469D01*
X034050Y025513D01*
X034018Y025559D01*
X033990Y025607D01*
X033966Y025657D01*
X033945Y025708D01*
X033927Y025761D01*
X033914Y025815D01*
X033904Y025869D01*
X033898Y025924D01*
X033896Y025980D01*
X036683Y027400D02*
X036933Y027150D01*
X037433Y027150D01*
X037683Y027400D01*
X037683Y027900D01*
X037433Y028150D01*
X036933Y028150D01*
X036683Y027900D01*
X002683Y003900D02*
X002683Y003400D01*
D21*
X014428Y008757D02*
X014489Y008695D01*
X014613Y008695D01*
X014675Y008757D01*
X014675Y008819D01*
X014613Y008880D01*
X014489Y008880D01*
X014428Y008942D01*
X014428Y009004D01*
X014489Y009066D01*
X014613Y009066D01*
X014675Y009004D01*
X014796Y009004D02*
X014796Y008757D01*
X014858Y008695D01*
X014981Y008695D01*
X015043Y008757D01*
X015043Y009004D01*
X014981Y009066D01*
X014858Y009066D01*
X014796Y009004D01*
X015164Y009066D02*
X015164Y008695D01*
X015350Y008695D01*
X015411Y008757D01*
X015411Y009004D01*
X015350Y009066D01*
X015164Y009066D01*
X015533Y009066D02*
X015656Y009066D01*
X015594Y009066D02*
X015594Y008695D01*
X015533Y008695D02*
X015656Y008695D01*
X015778Y008695D02*
X015778Y009066D01*
X015902Y008942D01*
X016025Y009066D01*
X016025Y008695D01*
X016147Y008695D02*
X016147Y009066D01*
X016270Y008942D01*
X016393Y009066D01*
X016393Y008695D01*
X016883Y008695D02*
X016883Y009066D01*
X017068Y009066D01*
X017130Y009004D01*
X017130Y008757D01*
X017068Y008695D01*
X016883Y008695D01*
X017252Y008695D02*
X017252Y009066D01*
X017437Y009066D01*
X017498Y009004D01*
X017498Y008757D01*
X017437Y008695D01*
X017252Y008695D01*
X017620Y008695D02*
X017620Y009066D01*
X017805Y009066D01*
X017867Y009004D01*
X017867Y008880D01*
X017805Y008819D01*
X017620Y008819D01*
X017743Y008819D02*
X017867Y008695D01*
X017988Y008695D02*
X017988Y008757D01*
X018050Y008757D01*
X018050Y008695D01*
X017988Y008695D01*
X017988Y008880D02*
X017988Y008942D01*
X018050Y008942D01*
X018050Y008880D01*
X017988Y008880D01*
X018541Y008880D02*
X018664Y009004D01*
X018787Y009066D01*
X018726Y008880D02*
X018541Y008880D01*
X018541Y008757D01*
X018602Y008695D01*
X018726Y008695D01*
X018787Y008757D01*
X018787Y008819D01*
X018726Y008880D01*
X018909Y008880D02*
X019156Y008880D01*
X019277Y008942D02*
X019401Y009066D01*
X019401Y008695D01*
X019524Y008695D02*
X019277Y008695D01*
X019646Y008880D02*
X019831Y009066D01*
X019831Y008695D01*
X020014Y008695D02*
X020014Y008757D01*
X020261Y009004D01*
X020261Y009066D01*
X020014Y009066D01*
X019892Y008880D02*
X019646Y008880D01*
X020382Y008757D02*
X020444Y008695D01*
X020567Y008695D01*
X020629Y008757D01*
X020629Y008819D01*
X020567Y008880D01*
X020506Y008880D01*
X020567Y008880D02*
X020629Y008942D01*
X020629Y009004D01*
X020567Y009066D01*
X020444Y009066D01*
X020382Y009004D01*
X020750Y009004D02*
X020812Y009066D01*
X020936Y009066D01*
X020997Y009004D01*
X020750Y008757D01*
X020812Y008695D01*
X020936Y008695D01*
X020997Y008757D01*
X020997Y009004D01*
X021119Y009004D02*
X021181Y009066D01*
X021304Y009066D01*
X021366Y009004D01*
X021119Y008757D01*
X021181Y008695D01*
X021304Y008695D01*
X021366Y008757D01*
X021366Y009004D01*
X021487Y009066D02*
X021487Y008880D01*
X021611Y008942D01*
X021672Y008942D01*
X021734Y008880D01*
X021734Y008757D01*
X021672Y008695D01*
X021549Y008695D01*
X021487Y008757D01*
X021487Y009066D02*
X021734Y009066D01*
X021855Y008880D02*
X022102Y008880D01*
X022224Y008942D02*
X022347Y009066D01*
X022347Y008695D01*
X022224Y008695D02*
X022471Y008695D01*
X022592Y008757D02*
X022592Y008819D01*
X022715Y008942D01*
X022715Y009004D01*
X022654Y009066D01*
X022592Y009004D01*
X022592Y008942D01*
X022839Y008695D01*
X022960Y008695D02*
X023207Y008695D01*
X023084Y008695D02*
X023084Y009066D01*
X022960Y008942D01*
X022839Y008819D02*
X022715Y008695D01*
X022654Y008695D01*
X022592Y008757D01*
X023329Y008757D02*
X023390Y008695D01*
X023514Y008695D01*
X023576Y008757D01*
X023576Y008819D01*
X023514Y008880D01*
X023329Y008880D01*
X023329Y008757D01*
X023329Y008880D02*
X023452Y009004D01*
X023576Y009066D01*
X023697Y008942D02*
X023820Y009066D01*
X023820Y008695D01*
X023697Y008695D02*
X023944Y008695D01*
X024065Y008695D02*
X024312Y008942D01*
X024312Y009004D01*
X024250Y009066D01*
X024127Y009066D01*
X024065Y009004D01*
X024065Y008695D02*
X024312Y008695D01*
X024434Y008757D02*
X024495Y008695D01*
X024619Y008695D01*
X024681Y008757D01*
X024681Y008819D01*
X024619Y008880D01*
X024434Y008880D01*
X024434Y008757D01*
X024434Y008880D02*
X024557Y009004D01*
X024681Y009066D01*
X024802Y008942D02*
X024925Y009066D01*
X024925Y008695D01*
X024802Y008695D02*
X025049Y008695D01*
X025170Y008757D02*
X025170Y008819D01*
X025232Y008880D01*
X025355Y008880D01*
X025417Y008819D01*
X025417Y008757D01*
X025355Y008695D01*
X025232Y008695D01*
X025170Y008757D01*
X025232Y008880D02*
X025170Y008942D01*
X025170Y009004D01*
X025232Y009066D01*
X025355Y009066D01*
X025417Y009004D01*
X025417Y008942D01*
X025355Y008880D01*
X025539Y008880D02*
X025785Y008880D01*
X025907Y008942D02*
X026030Y009066D01*
X026030Y008695D01*
X025907Y008695D02*
X026154Y008695D01*
X021119Y008757D02*
X021119Y009004D01*
X020750Y009004D02*
X020750Y008757D01*
X011300Y012977D02*
X011238Y012915D01*
X011115Y012915D01*
X011053Y012977D01*
X011300Y013224D01*
X011300Y012977D01*
X011300Y013224D02*
X011238Y013285D01*
X011115Y013285D01*
X011053Y013224D01*
X011053Y012977D01*
X010932Y012977D02*
X010932Y013224D01*
X010685Y012977D01*
X010746Y012915D01*
X010870Y012915D01*
X010932Y012977D01*
X010932Y013224D02*
X010870Y013285D01*
X010746Y013285D01*
X010685Y013224D01*
X010685Y012977D01*
X010563Y012977D02*
X010563Y013038D01*
X010502Y013100D01*
X010440Y013100D01*
X010502Y013100D02*
X010563Y013162D01*
X010563Y013224D01*
X010502Y013285D01*
X010378Y013285D01*
X010316Y013224D01*
X010195Y013285D02*
X010195Y012977D01*
X010133Y012915D01*
X010010Y012915D01*
X009948Y012977D01*
X009948Y013285D01*
X010316Y012977D02*
X010378Y012915D01*
X010502Y012915D01*
X010563Y012977D01*
D22*
X030452Y006968D03*
D23*
X023533Y012700D02*
X009733Y012700D01*
X009733Y026500D01*
X023533Y026500D01*
X023533Y012700D01*
X009983Y024500D02*
X009483Y024500D01*
D24*
X019333Y021750D02*
X019335Y021819D01*
X019341Y021888D01*
X019351Y021956D01*
X019365Y022024D01*
X019382Y022091D01*
X019404Y022157D01*
X019429Y022221D01*
X019458Y022284D01*
X019491Y022345D01*
X019527Y022404D01*
X019566Y022461D01*
X019609Y022515D01*
X019654Y022567D01*
X019703Y022617D01*
X019754Y022663D01*
X019808Y022706D01*
X019865Y022747D01*
X019923Y022783D01*
X019984Y022817D01*
X020046Y022847D01*
X020110Y022873D01*
X020175Y022895D01*
X020242Y022914D01*
X020310Y022929D01*
X020378Y022940D01*
X020447Y022947D01*
X020516Y022950D01*
X020585Y022949D01*
X020654Y022944D01*
X020722Y022935D01*
X020790Y022922D01*
X020857Y022905D01*
X020924Y022885D01*
X020988Y022860D01*
X021051Y022832D01*
X021113Y022801D01*
X021172Y022765D01*
X021230Y022727D01*
X021285Y022685D01*
X021338Y022640D01*
X021388Y022592D01*
X021435Y022542D01*
X021479Y022488D01*
X021520Y022433D01*
X021558Y022375D01*
X021592Y022315D01*
X021623Y022253D01*
X021650Y022189D01*
X021673Y022124D01*
X021693Y022058D01*
X021709Y021990D01*
X021721Y021922D01*
X021729Y021854D01*
X021733Y021785D01*
X021733Y021715D01*
X021729Y021646D01*
X021721Y021578D01*
X021709Y021510D01*
X021693Y021442D01*
X021673Y021376D01*
X021650Y021311D01*
X021623Y021247D01*
X021592Y021185D01*
X021558Y021125D01*
X021520Y021067D01*
X021479Y021012D01*
X021435Y020958D01*
X021388Y020908D01*
X021338Y020860D01*
X021285Y020815D01*
X021230Y020773D01*
X021172Y020735D01*
X021113Y020699D01*
X021051Y020668D01*
X020988Y020640D01*
X020924Y020615D01*
X020857Y020595D01*
X020790Y020578D01*
X020722Y020565D01*
X020654Y020556D01*
X020585Y020551D01*
X020516Y020550D01*
X020447Y020553D01*
X020378Y020560D01*
X020310Y020571D01*
X020242Y020586D01*
X020175Y020605D01*
X020110Y020627D01*
X020046Y020653D01*
X019984Y020683D01*
X019923Y020717D01*
X019865Y020753D01*
X019808Y020794D01*
X019754Y020837D01*
X019703Y020883D01*
X019654Y020933D01*
X019609Y020985D01*
X019566Y021039D01*
X019527Y021096D01*
X019491Y021155D01*
X019458Y021216D01*
X019429Y021279D01*
X019404Y021343D01*
X019382Y021409D01*
X019365Y021476D01*
X019351Y021544D01*
X019341Y021612D01*
X019335Y021681D01*
X019333Y021750D01*
D25*
X012785Y025307D03*
X020423Y013890D03*
D26*
X010935Y024559D03*
M02*
