%
M48
M72
T01C0.0130
T02C0.0236
T03C0.0276
T04C0.0394
T05C0.0400
T06C0.0433
T07C0.0630
T08C0.0866
T09C0.1024
%
T01
X4963Y5760
X7183Y7980
X7693Y7990
X7183Y8840
X7553Y9080
X8943Y9180
X9263Y9460
X8723Y7980
X11193Y7920
X12593Y8010
X13683Y8010
X14103Y8400
X14643Y8630
X14623Y8040
X15183Y7970
X15493Y8500
X16513Y8360
X16753Y8070
X17083Y8030
X17453Y7900
X19183Y6110
X19533Y6080
X20413Y6550
X21703Y5410
X23533Y5470
X26543Y6710
X26983Y5960
X30303Y8450
X30833Y8150
X31133Y8450
X31433Y7900
X31913Y9950
X30013Y11070
X28303Y10450
X26903Y9870
X26443Y9850
X26043Y9090
X26673Y8910
X25213Y9510
X24913Y9260
X24563Y9020
X24913Y8750
X22983Y12440
X23633Y13100
X24743Y12560
X26033Y13130
X26363Y12740
X26853Y12740
X26613Y13130
X27093Y13140
X27363Y12740
X28233Y12570
X28993Y12570
X29673Y12570
X30853Y12590
X31673Y12580
X29213Y14100
X28963Y13830
X28673Y13580
X29433Y14900
X30003Y14930
X29683Y15420
X27673Y15140
X27553Y15510
X26778Y16210
X26363Y16210
X25948Y16210
X25948Y16650
X26363Y16650
X26778Y16650
X27523Y17040
X27343Y17840
X30083Y19280
X28373Y19880
X27623Y20490
X23753Y17840
X23363Y15510
X25153Y15140
X21633Y13260
X21373Y13020
X21113Y13260
X20573Y13020
X20333Y13260
X20073Y13020
X19813Y13260
X19553Y13020
X19293Y13260
X19033Y13020
X18773Y13260
X18513Y13020
X18003Y13600
X17413Y13590
X17003Y13580
X16683Y12380
X16303Y12360
X16873Y9920
X17733Y9950
X15933Y9830
X15513Y9650
X14743Y9530
X14313Y9290
X13603Y9550
X13183Y9550
X12593Y9350
X12223Y9300
X12143Y9970
X11023Y9350
X11333Y9020
X8363Y12190
X7863Y12200
X6503Y12350
X6183Y12580
X5913Y12220
X4873Y11120
X4633Y10880
X5113Y10870
X5393Y10190
X3713Y8800
X2653Y8800
X9463Y12980
X10033Y14150
X10323Y14380
X10933Y14200
X11423Y13530
X12093Y13040
X12393Y13290
X12783Y14570
X13283Y14570
X13413Y16110
X13103Y16380
X13723Y16380
X14013Y16110
X14313Y16380
X14613Y16110
X12463Y16900
X11183Y19290
X11183Y20690
X9713Y20060
X8353Y18460
X8103Y18200
X7943Y16850
X7873Y16060
X7873Y15260
X7933Y14470
X6533Y16050
X4143Y16170
X2963Y16040
X2413Y15890
X2773Y15500
X2973Y18990
X6983Y21660
X8063Y22180
X8063Y22680
X8343Y24850
X8163Y25280
X13213Y22460
X13773Y21660
X16803Y25310
X17803Y26850
X18903Y26870
X14523Y26650
X13683Y26750
X18983Y23130
X27473Y26660
X29183Y26850
X29693Y27110
X34003Y22610
X34403Y22610
X34803Y22610
X34803Y22210
X34803Y21820
X34403Y21820
X34403Y22210
X34003Y22210
X34003Y21820
X34003Y21420
X34403Y21420
X34803Y21420
X34803Y21020
X34403Y21020
X34003Y21020
X36953Y21250
X35444Y8732
X35444Y8407
X34924Y8407
X34923Y8732
X30613Y5820
X30893Y5220
X19683Y5250
X16953Y4950
X15783Y4950
X14403Y4970
X14123Y4390
X13073Y4980
X12743Y5390
X11643Y5050
X9033Y16850
T02
X6713Y9820
X5773Y9920
X8043Y8660
X6713Y8010
X5773Y8000
X5763Y5900
X10303Y8170
X10733Y8710
X27883Y13070
X34043Y8380
X36023Y9040
X36193Y9590
X36353Y11060
X33123Y6720
X28093Y20560
X29133Y20890
T03
X29993Y20660
X27583Y21200
X23443Y24430
X22623Y25330
X22163Y25530
X21743Y25280
X23863Y26450
X24393Y26450
X28673Y24890
X33243Y19820
X33773Y19820
X33633Y16180
X34453Y12470
X32753Y10850
X31473Y10540
X32473Y8460
X36743Y6400
X26993Y4470
T04
X3513Y7360
X2513Y6110
T05
X2183Y3650
X3183Y3650
X4183Y3650
X5183Y3650
X6183Y3650
X7183Y3650
X8183Y3650
X9183Y3650
X10183Y3650
X11183Y3650
X12183Y3650
X13183Y3650
X14183Y3650
X15183Y3650
X16183Y3650
X17183Y3650
X18183Y3650
X18183Y4650
X19183Y4650
X20183Y4650
X20183Y3650
X19183Y3650
X21183Y3650
X22183Y3650
X23183Y3650
X23183Y4650
X22183Y4650
X21183Y4650
X24183Y3650
X25183Y3650
X26183Y3650
X27183Y3650
X28183Y3650
X29183Y3650
X30183Y3650
X31183Y3650
X32183Y3650
X33183Y3650
X34183Y3650
X35183Y3650
X36183Y3650
X37183Y3650
X37183Y4650
X37183Y27650
X36183Y27650
X35183Y27650
X34183Y27650
X33183Y27650
X32183Y27650
X31183Y27650
X30183Y27650
X29183Y27650
X28183Y27650
X27183Y27650
X26183Y27650
X25183Y27650
X24183Y27650
X23183Y27650
X22183Y27650
X21183Y27650
X20183Y27650
X19183Y27650
X18183Y27650
X17183Y27650
X16183Y27650
X15183Y27650
X14183Y27650
X13183Y27650
X12183Y27650
X11183Y27650
X10183Y27650
X9183Y27650
X8183Y27650
X7183Y27650
X6183Y27650
X5183Y27650
X4183Y27650
X3183Y27650
X2183Y27650
X2173Y11460
X2173Y10460
T06
X31259Y8976
T07
X4960Y8976
T08
X5646Y18445
X30686Y18445
T09
X34683Y25980
X4683Y25980
M30
