G75*
G70*
%OFA0B0*%
%FSLAX24Y24*%
%IPPOS*%
%LPD*%
%AMOC8*
5,1,8,0,0,1.08239X$1,22.5*
%
%ADD10C,0.0000*%
%ADD11C,0.0320*%
D10*
X002013Y003000D02*
X037353Y003000D01*
X037833Y003480D02*
X037833Y027820D01*
X037818Y027868D01*
X037799Y027916D01*
X037777Y027961D01*
X037752Y028005D01*
X037723Y028047D01*
X037692Y028087D01*
X037657Y028124D01*
X037620Y028159D01*
X037580Y028190D01*
X037538Y028219D01*
X037494Y028244D01*
X037449Y028266D01*
X037401Y028285D01*
X037353Y028300D01*
X002013Y028300D01*
X001533Y027820D02*
X001533Y003480D01*
X001548Y003432D01*
X001567Y003384D01*
X001589Y003339D01*
X001614Y003295D01*
X001643Y003253D01*
X001674Y003213D01*
X001709Y003176D01*
X001746Y003141D01*
X001786Y003110D01*
X001828Y003081D01*
X001872Y003056D01*
X001917Y003034D01*
X001965Y003015D01*
X002013Y003000D01*
X004645Y008976D02*
X004647Y009011D01*
X004653Y009046D01*
X004663Y009080D01*
X004676Y009113D01*
X004693Y009144D01*
X004714Y009172D01*
X004737Y009199D01*
X004764Y009222D01*
X004792Y009243D01*
X004823Y009260D01*
X004856Y009273D01*
X004890Y009283D01*
X004925Y009289D01*
X004960Y009291D01*
X004995Y009289D01*
X005030Y009283D01*
X005064Y009273D01*
X005097Y009260D01*
X005128Y009243D01*
X005156Y009222D01*
X005183Y009199D01*
X005206Y009172D01*
X005227Y009144D01*
X005244Y009113D01*
X005257Y009080D01*
X005267Y009046D01*
X005273Y009011D01*
X005275Y008976D01*
X005273Y008941D01*
X005267Y008906D01*
X005257Y008872D01*
X005244Y008839D01*
X005227Y008808D01*
X005206Y008780D01*
X005183Y008753D01*
X005156Y008730D01*
X005128Y008709D01*
X005097Y008692D01*
X005064Y008679D01*
X005030Y008669D01*
X004995Y008663D01*
X004960Y008661D01*
X004925Y008663D01*
X004890Y008669D01*
X004856Y008679D01*
X004823Y008692D01*
X004792Y008709D01*
X004764Y008730D01*
X004737Y008753D01*
X004714Y008780D01*
X004693Y008808D01*
X004676Y008839D01*
X004663Y008872D01*
X004653Y008906D01*
X004647Y008941D01*
X004645Y008976D01*
X005213Y018445D02*
X005215Y018486D01*
X005221Y018527D01*
X005231Y018567D01*
X005244Y018606D01*
X005261Y018643D01*
X005282Y018679D01*
X005306Y018713D01*
X005333Y018744D01*
X005362Y018772D01*
X005395Y018798D01*
X005429Y018820D01*
X005466Y018839D01*
X005504Y018854D01*
X005544Y018866D01*
X005584Y018874D01*
X005625Y018878D01*
X005667Y018878D01*
X005708Y018874D01*
X005748Y018866D01*
X005788Y018854D01*
X005826Y018839D01*
X005862Y018820D01*
X005897Y018798D01*
X005930Y018772D01*
X005959Y018744D01*
X005986Y018713D01*
X006010Y018679D01*
X006031Y018643D01*
X006048Y018606D01*
X006061Y018567D01*
X006071Y018527D01*
X006077Y018486D01*
X006079Y018445D01*
X006077Y018404D01*
X006071Y018363D01*
X006061Y018323D01*
X006048Y018284D01*
X006031Y018247D01*
X006010Y018211D01*
X005986Y018177D01*
X005959Y018146D01*
X005930Y018118D01*
X005897Y018092D01*
X005863Y018070D01*
X005826Y018051D01*
X005788Y018036D01*
X005748Y018024D01*
X005708Y018016D01*
X005667Y018012D01*
X005625Y018012D01*
X005584Y018016D01*
X005544Y018024D01*
X005504Y018036D01*
X005466Y018051D01*
X005430Y018070D01*
X005395Y018092D01*
X005362Y018118D01*
X005333Y018146D01*
X005306Y018177D01*
X005282Y018211D01*
X005261Y018247D01*
X005244Y018284D01*
X005231Y018323D01*
X005221Y018363D01*
X005215Y018404D01*
X005213Y018445D01*
X004171Y025980D02*
X004173Y026025D01*
X004179Y026069D01*
X004188Y026113D01*
X004202Y026155D01*
X004219Y026196D01*
X004240Y026236D01*
X004264Y026274D01*
X004291Y026309D01*
X004321Y026342D01*
X004354Y026372D01*
X004389Y026399D01*
X004427Y026423D01*
X004467Y026444D01*
X004508Y026461D01*
X004550Y026475D01*
X004594Y026484D01*
X004638Y026490D01*
X004683Y026492D01*
X004728Y026490D01*
X004772Y026484D01*
X004816Y026475D01*
X004858Y026461D01*
X004899Y026444D01*
X004939Y026423D01*
X004977Y026399D01*
X005012Y026372D01*
X005045Y026342D01*
X005075Y026309D01*
X005102Y026274D01*
X005126Y026236D01*
X005147Y026196D01*
X005164Y026155D01*
X005178Y026113D01*
X005187Y026069D01*
X005193Y026025D01*
X005195Y025980D01*
X005193Y025935D01*
X005187Y025891D01*
X005178Y025847D01*
X005164Y025805D01*
X005147Y025764D01*
X005126Y025724D01*
X005102Y025686D01*
X005075Y025651D01*
X005045Y025618D01*
X005012Y025588D01*
X004977Y025561D01*
X004939Y025537D01*
X004899Y025516D01*
X004858Y025499D01*
X004816Y025485D01*
X004772Y025476D01*
X004728Y025470D01*
X004683Y025468D01*
X004638Y025470D01*
X004594Y025476D01*
X004550Y025485D01*
X004508Y025499D01*
X004467Y025516D01*
X004427Y025537D01*
X004389Y025561D01*
X004354Y025588D01*
X004321Y025618D01*
X004291Y025651D01*
X004264Y025686D01*
X004240Y025724D01*
X004219Y025764D01*
X004202Y025805D01*
X004188Y025847D01*
X004179Y025891D01*
X004173Y025935D01*
X004171Y025980D01*
X002013Y028300D02*
X001965Y028285D01*
X001917Y028266D01*
X001872Y028244D01*
X001828Y028219D01*
X001786Y028190D01*
X001746Y028159D01*
X001709Y028124D01*
X001674Y028087D01*
X001643Y028047D01*
X001614Y028005D01*
X001589Y027961D01*
X001567Y027916D01*
X001548Y027868D01*
X001533Y027820D01*
X030253Y018445D02*
X030255Y018486D01*
X030261Y018527D01*
X030271Y018567D01*
X030284Y018606D01*
X030301Y018643D01*
X030322Y018679D01*
X030346Y018713D01*
X030373Y018744D01*
X030402Y018772D01*
X030435Y018798D01*
X030469Y018820D01*
X030506Y018839D01*
X030544Y018854D01*
X030584Y018866D01*
X030624Y018874D01*
X030665Y018878D01*
X030707Y018878D01*
X030748Y018874D01*
X030788Y018866D01*
X030828Y018854D01*
X030866Y018839D01*
X030902Y018820D01*
X030937Y018798D01*
X030970Y018772D01*
X030999Y018744D01*
X031026Y018713D01*
X031050Y018679D01*
X031071Y018643D01*
X031088Y018606D01*
X031101Y018567D01*
X031111Y018527D01*
X031117Y018486D01*
X031119Y018445D01*
X031117Y018404D01*
X031111Y018363D01*
X031101Y018323D01*
X031088Y018284D01*
X031071Y018247D01*
X031050Y018211D01*
X031026Y018177D01*
X030999Y018146D01*
X030970Y018118D01*
X030937Y018092D01*
X030903Y018070D01*
X030866Y018051D01*
X030828Y018036D01*
X030788Y018024D01*
X030748Y018016D01*
X030707Y018012D01*
X030665Y018012D01*
X030624Y018016D01*
X030584Y018024D01*
X030544Y018036D01*
X030506Y018051D01*
X030470Y018070D01*
X030435Y018092D01*
X030402Y018118D01*
X030373Y018146D01*
X030346Y018177D01*
X030322Y018211D01*
X030301Y018247D01*
X030284Y018284D01*
X030271Y018323D01*
X030261Y018363D01*
X030255Y018404D01*
X030253Y018445D01*
X034171Y025980D02*
X034173Y026025D01*
X034179Y026069D01*
X034188Y026113D01*
X034202Y026155D01*
X034219Y026196D01*
X034240Y026236D01*
X034264Y026274D01*
X034291Y026309D01*
X034321Y026342D01*
X034354Y026372D01*
X034389Y026399D01*
X034427Y026423D01*
X034467Y026444D01*
X034508Y026461D01*
X034550Y026475D01*
X034594Y026484D01*
X034638Y026490D01*
X034683Y026492D01*
X034728Y026490D01*
X034772Y026484D01*
X034816Y026475D01*
X034858Y026461D01*
X034899Y026444D01*
X034939Y026423D01*
X034977Y026399D01*
X035012Y026372D01*
X035045Y026342D01*
X035075Y026309D01*
X035102Y026274D01*
X035126Y026236D01*
X035147Y026196D01*
X035164Y026155D01*
X035178Y026113D01*
X035187Y026069D01*
X035193Y026025D01*
X035195Y025980D01*
X035193Y025935D01*
X035187Y025891D01*
X035178Y025847D01*
X035164Y025805D01*
X035147Y025764D01*
X035126Y025724D01*
X035102Y025686D01*
X035075Y025651D01*
X035045Y025618D01*
X035012Y025588D01*
X034977Y025561D01*
X034939Y025537D01*
X034899Y025516D01*
X034858Y025499D01*
X034816Y025485D01*
X034772Y025476D01*
X034728Y025470D01*
X034683Y025468D01*
X034638Y025470D01*
X034594Y025476D01*
X034550Y025485D01*
X034508Y025499D01*
X034467Y025516D01*
X034427Y025537D01*
X034389Y025561D01*
X034354Y025588D01*
X034321Y025618D01*
X034291Y025651D01*
X034264Y025686D01*
X034240Y025724D01*
X034219Y025764D01*
X034202Y025805D01*
X034188Y025847D01*
X034179Y025891D01*
X034173Y025935D01*
X034171Y025980D01*
X031042Y008976D02*
X031044Y009005D01*
X031050Y009033D01*
X031059Y009061D01*
X031072Y009087D01*
X031089Y009110D01*
X031108Y009132D01*
X031130Y009151D01*
X031155Y009166D01*
X031181Y009179D01*
X031209Y009187D01*
X031237Y009192D01*
X031266Y009193D01*
X031295Y009190D01*
X031323Y009183D01*
X031350Y009173D01*
X031376Y009159D01*
X031399Y009142D01*
X031420Y009122D01*
X031438Y009099D01*
X031453Y009074D01*
X031464Y009047D01*
X031472Y009019D01*
X031476Y008990D01*
X031476Y008962D01*
X031472Y008933D01*
X031464Y008905D01*
X031453Y008878D01*
X031438Y008853D01*
X031420Y008830D01*
X031399Y008810D01*
X031376Y008793D01*
X031350Y008779D01*
X031323Y008769D01*
X031295Y008762D01*
X031266Y008759D01*
X031237Y008760D01*
X031209Y008765D01*
X031181Y008773D01*
X031155Y008786D01*
X031130Y008801D01*
X031108Y008820D01*
X031089Y008842D01*
X031072Y008865D01*
X031059Y008891D01*
X031050Y008919D01*
X031044Y008947D01*
X031042Y008976D01*
X037353Y003000D02*
X037401Y003015D01*
X037449Y003034D01*
X037494Y003056D01*
X037538Y003081D01*
X037580Y003110D01*
X037620Y003141D01*
X037657Y003176D01*
X037692Y003213D01*
X037723Y003253D01*
X037752Y003295D01*
X037777Y003339D01*
X037799Y003384D01*
X037818Y003432D01*
X037833Y003480D01*
D11*
X037311Y012340D02*
X036996Y012340D01*
X035874Y012340D02*
X035559Y012340D01*
X035559Y016356D02*
X035874Y016356D01*
X036996Y016356D02*
X037311Y016356D01*
M02*
